<?xml version="1.0" encoding="UTF-8"?>
<svg xmlns="http://www.w3.org/2000/svg"
     xmlns:xlink="http://www.w3.org/1999/xlink"
     version="1.2"
     width="200mm" height="200mm" viewBox="0 0 200 200"
     stroke="none"
     fill="#000000"
     stroke-width="0.3"
     font-size="3.88"
>
<g stroke-width="0.41" fill="#000000" fill-opacity="0.000" stroke="#D3D3D3" id="img-430dd7cc-1">
  <path fill="none" d="M100.21,120.01 L 112.7 117.51"/>
  <path fill="none" d="M94.86,121.88 L 83.73 127.63"/>
  <path fill="none" d="M87.69,141.97 L 79.85 132.9"/>
  <path fill="none" d="M91.31,146.4 L 97.68 154.69"/>
  <path fill="none" d="M131.41,118.23 L 118.36 117.18"/>
  <path fill="none" d="M137.01,119.26 L 148.29 122.52"/>
  <path fill="none" d="M56.58,49.41 L 68.01 43.8"/>
  <path fill="none" d="M51.16,50.55 L 40.72 50.1"/>
  <path fill="none" d="M59.8,69.75 L 59.54 80.05"/>
  <path fill="none" d="M60.22,64.05 L 61.51 53.72"/>
  <path fill="none" d="M59.92,85.74 L 61.58 96.31"/>
  <path fill="none" d="M63.06,101.81 L 67.12 112.41"/>
  <path fill="none" d="M76.45,128.31 L 69.67 117.5"/>
  <path fill="none" d="M99.41,36.72 L 89.32 36.97"/>
  <path fill="none" d="M104.86,37.87 L 112.91 41.67"/>
  <path fill="none" d="M83.75,37.98 L 73.28 41.6"/>
  <path fill="none" d="M117.22,45.17 L 122.93 52.69"/>
  <path fill="none" d="M125.38,57.74 L 128.16 68.34"/>
  <path fill="none" d="M170.71,129.81 L 166.75 128.82"/>
  <path fill="none" d="M175.83,128.87 L 178.2 127.2"/>
  <path fill="none" d="M161.29,127.12 L 153.72 124.31"/>
  <path fill="none" d="M98.76,159.74 L 97.15 166.48"/>
  <path fill="none" d="M93.96,170.61 L 91.01 172.19"/>
  <path fill="none" d="M101.12,141.4 L 111.36 136.6"/>
  <path fill="none" d="M96.44,144.57 L 89.02 151.5"/>
  <path fill="none" d="M116.62,134.36 L 128.3 129.88"/>
  <path fill="none" d="M86.99,171.1 L 85.26 168.28"/>
  <path fill="none" d="M84.47,163.07 L 86.22 156.23"/>
  <path fill="none" d="M18.78,44.15 L 22.13 47.2"/>
  <path fill="none" d="M19.37,41.3 L 22.93 40.08"/>
  <path fill="none" d="M35.01,49.8 L 27.11 49.31"/>
  <path fill="none" d="M26.9,36.58 L 29.74 30.78"/>
  <path fill="none" d="M33.06,26.23 L 37.67 21.8"/>
  <path fill="none" d="M79.32,131.1 L 70.54 141.26"/>
  <path fill="none" d="M67.64,146.1 L 63.71 156.35"/>
  <path fill="none" d="M65.67,171.58 L 63.35 161.81"/>
  <path fill="none" d="M68.63,176.06 L 76.21 181.64"/>
  <path fill="none" d="M81.36,183.09 L 92.02 182.18"/>
  <path fill="none" d="M148.95,119.58 L 157.76 114.75"/>
  <path fill="none" d="M143.9,122.25 L 133.52 127.56"/>
  <path fill="none" d="M163.12,113.14 L 171.81 112.43"/>
  <path fill="none" d="M181.42,122.83 L 182.46 119.61"/>
  <path fill="none" d="M177.18,113.55 L 180.82 115.53"/>
  <path fill="none" d="M128.94,73.97 L 129.22 86.64"/>
  <path fill="none" d="M126.72,113.09 L 124.29 129.45"/>
  <path fill="none" d="M127.44,107.42 L 128.99 92.34"/>
  <path fill="none" d="M117.22,155.7 L 110.58 167.92"/>
  <path fill="none" d="M119.29,150.41 L 123.17 135.05"/>
  <path fill="none" d="M97.11,180.14 L 106.99 172.22"/>
  <path fill="none" d="M42.48,19.02 L 47.9 17.46"/>
  <path fill="none" d="M62.61,38.41 L 62.04 48.02"/>
  <path fill="none" d="M62.24,32.75 L 60.93 25.88"/>
  <path fill="none" d="M53.04,18.24 L 58 21.5"/>
</g>
<g stroke-width="0.41" stroke="#D3D3D3" id="img-430dd7cc-2">
</g>
<g font-size="4" stroke="#000000" stroke-opacity="0.000" fill="#000000" id="img-430dd7cc-3">
  <text x="106.45" y="118.76" text-anchor="middle" dy="0.35em">93</text>
  <text x="89.3" y="124.75" text-anchor="middle" dy="0.35em">500</text>
  <text x="83.77" y="137.44" text-anchor="middle" dy="0.35em">309</text>
  <text x="94.49" y="150.55" text-anchor="middle" dy="0.35em">85</text>
  <text x="124.88" y="117.71" text-anchor="middle" dy="0.35em">63</text>
  <text x="142.65" y="120.89" text-anchor="middle" dy="0.35em">325</text>
  <text x="62.3" y="46.6" text-anchor="middle" dy="0.35em">176</text>
  <text x="45.94" y="50.32" text-anchor="middle" dy="0.35em">502</text>
  <text x="59.67" y="74.9" text-anchor="middle" dy="0.35em">55</text>
  <text x="60.87" y="58.88" text-anchor="middle" dy="0.35em">1550</text>
  <text x="60.75" y="91.02" text-anchor="middle" dy="0.35em">111</text>
  <text x="65.09" y="107.11" text-anchor="middle" dy="0.35em">99</text>
  <text x="73.06" y="122.91" text-anchor="middle" dy="0.35em">32</text>
  <text x="94.37" y="36.85" text-anchor="middle" dy="0.35em">114</text>
  <text x="108.88" y="39.77" text-anchor="middle" dy="0.35em">110</text>
  <text x="78.52" y="39.79" text-anchor="middle" dy="0.35em">54</text>
  <text x="120.08" y="48.93" text-anchor="middle" dy="0.35em">99</text>
  <text x="126.77" y="63.04" text-anchor="middle" dy="0.35em">669</text>
  <text x="168.73" y="129.32" text-anchor="middle" dy="0.35em">24</text>
  <text x="177.01" y="128.03" text-anchor="middle" dy="0.35em">192</text>
  <text x="157.51" y="125.72" text-anchor="middle" dy="0.35em">48</text>
  <text x="97.95" y="163.11" text-anchor="middle" dy="0.35em">31</text>
  <text x="92.48" y="171.4" text-anchor="middle" dy="0.35em">145</text>
  <text x="106.24" y="139" text-anchor="middle" dy="0.35em">115</text>
  <text x="92.73" y="148.03" text-anchor="middle" dy="0.35em">103</text>
  <text x="122.46" y="132.12" text-anchor="middle" dy="0.35em">79</text>
  <text x="86.12" y="169.69" text-anchor="middle" dy="0.35em">96</text>
  <text x="85.34" y="159.65" text-anchor="middle" dy="0.35em">81</text>
  <text x="20.46" y="45.68" text-anchor="middle" dy="0.35em">135</text>
  <text x="21.15" y="40.69" text-anchor="middle" dy="0.35em">36</text>
  <text x="31.06" y="49.55" text-anchor="middle" dy="0.35em">61</text>
  <text x="28.32" y="33.68" text-anchor="middle" dy="0.35em">63</text>
  <text x="35.36" y="24.01" text-anchor="middle" dy="0.35em">978</text>
  <text x="74.93" y="136.18" text-anchor="middle" dy="0.35em">136</text>
  <text x="65.68" y="151.23" text-anchor="middle" dy="0.35em">119</text>
  <text x="64.51" y="166.69" text-anchor="middle" dy="0.35em">381</text>
  <text x="72.42" y="178.85" text-anchor="middle" dy="0.35em">169</text>
  <text x="86.69" y="182.63" text-anchor="middle" dy="0.35em">86</text>
  <text x="153.36" y="117.16" text-anchor="middle" dy="0.35em">48</text>
  <text x="138.71" y="124.9" text-anchor="middle" dy="0.35em">54</text>
  <text x="167.46" y="112.78" text-anchor="middle" dy="0.35em">23</text>
  <text x="181.94" y="121.22" text-anchor="middle" dy="0.35em">110</text>
  <text x="179" y="114.54" text-anchor="middle" dy="0.35em">125</text>
  <text x="129.08" y="80.3" text-anchor="middle" dy="0.35em">76</text>
  <text x="125.51" y="121.27" text-anchor="middle" dy="0.35em">110</text>
  <text x="128.21" y="99.88" text-anchor="middle" dy="0.35em">26</text>
  <text x="113.9" y="161.81" text-anchor="middle" dy="0.35em">112</text>
  <text x="121.23" y="142.73" text-anchor="middle" dy="0.35em">29</text>
  <text x="102.05" y="176.18" text-anchor="middle" dy="0.35em">94</text>
  <text x="45.19" y="18.24" text-anchor="middle" dy="0.35em">44</text>
  <text x="62.32" y="43.22" text-anchor="middle" dy="0.35em">79</text>
  <text x="61.59" y="29.32" text-anchor="middle" dy="0.35em">80</text>
  <text x="55.52" y="19.87" text-anchor="middle" dy="0.35em">29</text>
</g>
<g stroke-width="0" stroke="#000000" stroke-opacity="0.000" fill="#40E0D0" id="img-430dd7cc-4">
  <use xlink:href="#img-430dd7cc-5" x="97.4" y="120.57"/>
  <use xlink:href="#img-430dd7cc-5" x="89.56" y="144.13"/>
  <use xlink:href="#img-430dd7cc-5" x="134.26" y="118.47"/>
  <use xlink:href="#img-430dd7cc-5" x="54.02" y="50.67"/>
  <use xlink:href="#img-430dd7cc-5" x="115.51" y="116.95"/>
  <use xlink:href="#img-430dd7cc-5" x="59.87" y="66.89"/>
  <use xlink:href="#img-430dd7cc-5" x="59.47" y="82.91"/>
  <use xlink:href="#img-430dd7cc-5" x="62.03" y="99.14"/>
  <use xlink:href="#img-430dd7cc-5" x="77.97" y="130.74"/>
  <use xlink:href="#img-430dd7cc-5" x="68.15" y="115.08"/>
  <use xlink:href="#img-430dd7cc-5" x="102.27" y="36.65"/>
  <use xlink:href="#img-430dd7cc-5" x="86.46" y="37.04"/>
  <use xlink:href="#img-430dd7cc-5" x="115.49" y="42.89"/>
  <use xlink:href="#img-430dd7cc-5" x="70.58" y="42.54"/>
  <use xlink:href="#img-430dd7cc-5" x="124.66" y="54.97"/>
  <use xlink:href="#img-430dd7cc-5" x="173.49" y="130.51"/>
  <use xlink:href="#img-430dd7cc-5" x="163.97" y="128.12"/>
  <use xlink:href="#img-430dd7cc-5" x="151.04" y="123.31"/>
  <use xlink:href="#img-430dd7cc-5" x="99.43" y="156.96"/>
  <use xlink:href="#img-430dd7cc-5" x="96.48" y="169.26"/>
  <use xlink:href="#img-430dd7cc-5" x="98.53" y="142.62"/>
  <use xlink:href="#img-430dd7cc-5" x="113.95" y="135.39"/>
  <use xlink:href="#img-430dd7cc-5" x="88.49" y="173.54"/>
  <use xlink:href="#img-430dd7cc-5" x="83.76" y="165.84"/>
  <use xlink:href="#img-430dd7cc-5" x="86.93" y="153.45"/>
  <use xlink:href="#img-430dd7cc-5" x="16.67" y="42.23"/>
  <use xlink:href="#img-430dd7cc-5" x="37.86" y="49.98"/>
  <use xlink:href="#img-430dd7cc-5" x="24.25" y="49.13"/>
  <use xlink:href="#img-430dd7cc-5" x="25.64" y="39.16"/>
  <use xlink:href="#img-430dd7cc-5" x="30.99" y="28.21"/>
  <use xlink:href="#img-430dd7cc-5" x="81.19" y="128.94"/>
  <use xlink:href="#img-430dd7cc-5" x="68.67" y="143.43"/>
  <use xlink:href="#img-430dd7cc-5" x="66.33" y="174.37"/>
  <use xlink:href="#img-430dd7cc-5" x="62.69" y="159.02"/>
  <use xlink:href="#img-430dd7cc-5" x="78.51" y="183.33"/>
  <use xlink:href="#img-430dd7cc-5" x="146.45" y="120.95"/>
  <use xlink:href="#img-430dd7cc-5" x="160.27" y="113.37"/>
  <use xlink:href="#img-430dd7cc-5" x="180.54" y="125.56"/>
  <use xlink:href="#img-430dd7cc-5" x="174.66" y="112.19"/>
  <use xlink:href="#img-430dd7cc-5" x="183.33" y="116.89"/>
  <use xlink:href="#img-430dd7cc-5" x="130.97" y="128.86"/>
  <use xlink:href="#img-430dd7cc-5" x="128.88" y="71.11"/>
  <use xlink:href="#img-430dd7cc-5" x="127.15" y="110.26"/>
  <use xlink:href="#img-430dd7cc-5" x="118.59" y="153.18"/>
  <use xlink:href="#img-430dd7cc-5" x="94.87" y="181.93"/>
  <use xlink:href="#img-430dd7cc-5" x="109.22" y="170.43"/>
  <use xlink:href="#img-430dd7cc-5" x="123.87" y="132.28"/>
  <use xlink:href="#img-430dd7cc-5" x="129.28" y="89.5"/>
  <use xlink:href="#img-430dd7cc-5" x="39.73" y="19.81"/>
  <use xlink:href="#img-430dd7cc-5" x="62.78" y="35.56"/>
  <use xlink:href="#img-430dd7cc-5" x="50.65" y="16.67"/>
  <use xlink:href="#img-430dd7cc-5" x="61.87" y="50.88"/>
  <use xlink:href="#img-430dd7cc-5" x="60.39" y="23.07"/>
</g>
<g font-size="4" stroke="#000000" stroke-opacity="0.000" fill="#000000" id="img-430dd7cc-6">
  <text x="97.4" y="120.57" text-anchor="middle" dy="0.35em">1</text>
  <text x="89.56" y="144.13" text-anchor="middle" dy="0.35em">2</text>
  <text x="134.26" y="118.47" text-anchor="middle" dy="0.35em">3</text>
  <text x="54.02" y="50.67" text-anchor="middle" dy="0.35em">4</text>
  <text x="115.51" y="116.95" text-anchor="middle" dy="0.35em">5</text>
  <text x="59.87" y="66.89" text-anchor="middle" dy="0.35em">6</text>
  <text x="59.47" y="82.91" text-anchor="middle" dy="0.35em">7</text>
  <text x="62.03" y="99.14" text-anchor="middle" dy="0.35em">8</text>
  <text x="77.97" y="130.74" text-anchor="middle" dy="0.35em">9</text>
  <text x="68.15" y="115.08" text-anchor="middle" dy="0.35em">10</text>
  <text x="102.27" y="36.65" text-anchor="middle" dy="0.35em">11</text>
  <text x="86.46" y="37.04" text-anchor="middle" dy="0.35em">12</text>
  <text x="115.49" y="42.89" text-anchor="middle" dy="0.35em">13</text>
  <text x="70.58" y="42.54" text-anchor="middle" dy="0.35em">14</text>
  <text x="124.66" y="54.97" text-anchor="middle" dy="0.35em">15</text>
  <text x="173.49" y="130.51" text-anchor="middle" dy="0.35em">16</text>
  <text x="163.97" y="128.12" text-anchor="middle" dy="0.35em">17</text>
  <text x="151.04" y="123.31" text-anchor="middle" dy="0.35em">18</text>
  <text x="99.43" y="156.96" text-anchor="middle" dy="0.35em">19</text>
  <text x="96.48" y="169.26" text-anchor="middle" dy="0.35em">20</text>
  <text x="98.53" y="142.62" text-anchor="middle" dy="0.35em">21</text>
  <text x="113.95" y="135.39" text-anchor="middle" dy="0.35em">22</text>
  <text x="88.49" y="173.54" text-anchor="middle" dy="0.35em">23</text>
  <text x="83.76" y="165.84" text-anchor="middle" dy="0.35em">24</text>
  <text x="86.93" y="153.45" text-anchor="middle" dy="0.35em">25</text>
  <text x="16.67" y="42.23" text-anchor="middle" dy="0.35em">26</text>
  <text x="37.86" y="49.98" text-anchor="middle" dy="0.35em">27</text>
  <text x="24.25" y="49.13" text-anchor="middle" dy="0.35em">28</text>
  <text x="25.64" y="39.16" text-anchor="middle" dy="0.35em">29</text>
  <text x="30.99" y="28.21" text-anchor="middle" dy="0.35em">30</text>
  <text x="81.19" y="128.94" text-anchor="middle" dy="0.35em">31</text>
  <text x="68.67" y="143.43" text-anchor="middle" dy="0.35em">32</text>
  <text x="66.33" y="174.37" text-anchor="middle" dy="0.35em">33</text>
  <text x="62.69" y="159.02" text-anchor="middle" dy="0.35em">34</text>
  <text x="78.51" y="183.33" text-anchor="middle" dy="0.35em">35</text>
  <text x="146.45" y="120.95" text-anchor="middle" dy="0.35em">36</text>
  <text x="160.27" y="113.37" text-anchor="middle" dy="0.35em">37</text>
  <text x="180.54" y="125.56" text-anchor="middle" dy="0.35em">38</text>
  <text x="174.66" y="112.19" text-anchor="middle" dy="0.35em">39</text>
  <text x="183.33" y="116.89" text-anchor="middle" dy="0.35em">40</text>
  <text x="130.97" y="128.86" text-anchor="middle" dy="0.35em">41</text>
  <text x="128.88" y="71.11" text-anchor="middle" dy="0.35em">42</text>
  <text x="127.15" y="110.26" text-anchor="middle" dy="0.35em">43</text>
  <text x="118.59" y="153.18" text-anchor="middle" dy="0.35em">44</text>
  <text x="94.87" y="181.93" text-anchor="middle" dy="0.35em">45</text>
  <text x="109.22" y="170.43" text-anchor="middle" dy="0.35em">46</text>
  <text x="123.87" y="132.28" text-anchor="middle" dy="0.35em">47</text>
  <text x="129.28" y="89.5" text-anchor="middle" dy="0.35em">48</text>
  <text x="39.73" y="19.81" text-anchor="middle" dy="0.35em">49</text>
  <text x="62.78" y="35.56" text-anchor="middle" dy="0.35em">50</text>
  <text x="50.65" y="16.67" text-anchor="middle" dy="0.35em">51</text>
  <text x="61.87" y="50.88" text-anchor="middle" dy="0.35em">52</text>
  <text x="60.39" y="23.07" text-anchor="middle" dy="0.35em">53</text>
</g>
<defs>
  <g id="img-430dd7cc-5">
    <circle cx="0" cy="0" r="2.75"/>
  </g>
</defs>
</svg>
