<?xml version="1.0" encoding="UTF-8"?>
<svg xmlns="http://www.w3.org/2000/svg"
     xmlns:xlink="http://www.w3.org/1999/xlink"
     version="1.2"
     width="200mm" height="200mm" viewBox="0 0 200 200"
     stroke="none"
     fill="#000000"
     stroke-width="0.3"
     font-size="3.88"
>
<g stroke-width="0.43" fill="#000000" fill-opacity="0.000" stroke="#D3D3D3" id="img-7c74262b-1">
  <path fill="none" d="M114.32,59.66 L 113.24 45.96"/>
  <path fill="none" d="M113.36,65.41 L 106.86 80.28"/>
  <path fill="none" d="M136.62,98.41 L 135.2 87.6"/>
  <path fill="none" d="M137.9,104.26 L 141.07 114.41"/>
  <path fill="none" d="M59.79,180.77 L 63.24 175.16"/>
  <path fill="none" d="M60.21,181.08 L 61.56 179.54"/>
  <path fill="none" d="M150.76,142.96 L 148.22 134.98"/>
  <path fill="none" d="M154.58,145.06 L 159.03 143.9"/>
  <path fill="none" d="M137.33,71.6 L 135.38 81.67"/>
  <path fill="none" d="M139.88,66.38 L 144.12 61.51"/>
  <path fill="none" d="M72.25,27.03 L 65.57 30.85"/>
  <path fill="none" d="M77.42,23.96 L 84.05 19.83"/>
  <path fill="none" d="M31.43,87.86 L 24.03 82.84"/>
  <path fill="none" d="M36.79,90.46 L 47.35 93.78"/>
  <path fill="none" d="M112.16,40.08 L 109.11 29.52"/>
  <path fill="none" d="M104.46,85.79 L 97.42 102.09"/>
  <path fill="none" d="M178.59,130.31 L 181.05 132.41"/>
  <path fill="none" d="M173.63,129.73 L 169.39 131.89"/>
  <path fill="none" d="M70.96,159.45 L 76.05 147.09"/>
  <path fill="none" d="M68.66,165.01 L 64.71 174.51"/>
  <path fill="none" d="M78.49,141.6 L 85.06 127.98"/>
  <path fill="none" d="M161.38,153.45 L 149.17 151.97"/>
  <path fill="none" d="M167.17,152.73 L 176.02 149.33"/>
  <path fill="none" d="M131.12,151.66 L 143.18 151.61"/>
  <path fill="none" d="M125.11,151.75 L 113.11 152.05"/>
  <path fill="none" d="M87.67,122.56 L 94.92 107.55"/>
  <path fill="none" d="M75.26,165.53 L 67.31 170.92"/>
  <path fill="none" d="M80.52,162.67 L 90.45 158.46"/>
  <path fill="none" d="M42.8,33.67 L 48.15 35.16"/>
  <path fill="none" d="M37.02,33.75 L 33.25 34.9"/>
  <path fill="none" d="M20.43,78.35 L 17.78 71.73"/>
  <path fill="none" d="M60.08,33.21 L 53.92 35.09"/>
  <path fill="none" d="M102.75,93.04 L 91.21 97.52"/>
  <path fill="none" d="M108.29,90.7 L 119.79 85.44"/>
  <path fill="none" d="M139.9,73.58 L 146.2 68.59"/>
  <path fill="none" d="M134.95,76.96 L 125.13 82.67"/>
  <path fill="none" d="M182.4,137.22 L 179.75 145.39"/>
  <path fill="none" d="M146.28,129.28 L 142.98 120.11"/>
  <path fill="none" d="M17.81,66.16 L 20.51 59.61"/>
  <path fill="none" d="M23.84,54.76 L 29.31 49.62"/>
  <path fill="none" d="M100.89,18.85 L 106.21 24.45"/>
  <path fill="none" d="M95.84,17.05 L 89.58 17.86"/>
  <path fill="none" d="M85.41,98.54 L 71.88 98.2"/>
  <path fill="none" d="M107.23,153.01 L 96.09 156.4"/>
  <path fill="none" d="M163.25,140.43 L 165.4 135.97"/>
  <path fill="none" d="M53.18,95.23 L 65.92 97.58"/>
  <path fill="none" d="M31.21,44.56 L 30.66 38.77"/>
  <path fill="none" d="M147.62,63.86 L 147.04 62.1"/>
</g>
<g stroke-width="0.43" stroke="#D3D3D3" id="img-7c74262b-2">
</g>
<g font-size="4" stroke="#000000" stroke-opacity="0.000" fill="#000000" id="img-7c74262b-3">
  <text x="113.78" y="52.81" text-anchor="middle" dy="0.35em">190</text>
  <text x="110.11" y="72.85" text-anchor="middle" dy="0.35em">217</text>
  <text x="135.91" y="93.01" text-anchor="middle" dy="0.35em">503</text>
  <text x="139.49" y="109.33" text-anchor="middle" dy="0.35em">598</text>
  <text x="61.52" y="177.97" text-anchor="middle" dy="0.35em">317</text>
  <text x="60.88" y="180.31" text-anchor="middle" dy="0.35em">345</text>
  <text x="149.49" y="138.97" text-anchor="middle" dy="0.35em">298</text>
  <text x="156.81" y="144.48" text-anchor="middle" dy="0.35em">516</text>
  <text x="136.36" y="76.64" text-anchor="middle" dy="0.35em">375</text>
  <text x="142" y="63.95" text-anchor="middle" dy="0.35em">248</text>
  <text x="68.91" y="28.94" text-anchor="middle" dy="0.35em">125</text>
  <text x="80.73" y="21.89" text-anchor="middle" dy="0.35em">520</text>
  <text x="27.73" y="85.35" text-anchor="middle" dy="0.35em">196</text>
  <text x="42.07" y="92.12" text-anchor="middle" dy="0.35em">179</text>
  <text x="110.64" y="34.8" text-anchor="middle" dy="0.35em">329</text>
  <text x="100.94" y="93.94" text-anchor="middle" dy="0.35em">237</text>
  <text x="179.82" y="131.36" text-anchor="middle" dy="0.35em">352</text>
  <text x="171.51" y="130.81" text-anchor="middle" dy="0.35em">594</text>
  <text x="73.5" y="153.27" text-anchor="middle" dy="0.35em">366</text>
  <text x="66.68" y="169.76" text-anchor="middle" dy="0.35em">251</text>
  <text x="81.78" y="134.79" text-anchor="middle" dy="0.35em">220</text>
  <text x="155.28" y="152.71" text-anchor="middle" dy="0.35em">184</text>
  <text x="171.6" y="151.03" text-anchor="middle" dy="0.35em">675</text>
  <text x="137.15" y="151.64" text-anchor="middle" dy="0.35em">228</text>
  <text x="119.11" y="151.9" text-anchor="middle" dy="0.35em">352</text>
  <text x="91.3" y="115.06" text-anchor="middle" dy="0.35em">196</text>
  <text x="71.28" y="168.23" text-anchor="middle" dy="0.35em">328</text>
  <text x="85.49" y="160.56" text-anchor="middle" dy="0.35em">567</text>
  <text x="45.47" y="34.42" text-anchor="middle" dy="0.35em">298</text>
  <text x="35.14" y="34.32" text-anchor="middle" dy="0.35em">250</text>
  <text x="19.11" y="75.04" text-anchor="middle" dy="0.35em">163</text>
  <text x="57" y="34.15" text-anchor="middle" dy="0.35em">75</text>
  <text x="96.98" y="95.28" text-anchor="middle" dy="0.35em">236</text>
  <text x="114.04" y="88.07" text-anchor="middle" dy="0.35em">250</text>
  <text x="143.05" y="71.08" text-anchor="middle" dy="0.35em">382</text>
  <text x="130.04" y="79.82" text-anchor="middle" dy="0.35em">274</text>
  <text x="181.08" y="141.3" text-anchor="middle" dy="0.35em">534</text>
  <text x="144.63" y="124.7" text-anchor="middle" dy="0.35em">569</text>
  <text x="19.16" y="62.88" text-anchor="middle" dy="0.35em">247</text>
  <text x="26.58" y="52.19" text-anchor="middle" dy="0.35em">237</text>
  <text x="103.55" y="21.65" text-anchor="middle" dy="0.35em">313</text>
  <text x="92.71" y="17.46" text-anchor="middle" dy="0.35em">197</text>
  <text x="78.64" y="98.37" text-anchor="middle" dy="0.35em">152</text>
  <text x="101.66" y="154.7" text-anchor="middle" dy="0.35em">496</text>
  <text x="164.33" y="138.2" text-anchor="middle" dy="0.35em">324</text>
  <text x="59.55" y="96.4" text-anchor="middle" dy="0.35em">377</text>
  <text x="30.94" y="41.67" text-anchor="middle" dy="0.35em">212</text>
  <text x="147.33" y="62.98" text-anchor="middle" dy="0.35em">346</text>
</g>
<g stroke-width="0" stroke="#000000" stroke-opacity="0.000" fill="#40E0D0" id="img-7c74262b-4">
  <use xlink:href="#img-7c74262b-5" x="114.56" y="62.66"/>
  <use xlink:href="#img-7c74262b-5" x="137.01" y="101.39"/>
  <use xlink:href="#img-7c74262b-5" x="58.22" y="183.33"/>
  <use xlink:href="#img-7c74262b-5" x="151.67" y="145.82"/>
  <use xlink:href="#img-7c74262b-5" x="137.91" y="68.65"/>
  <use xlink:href="#img-7c74262b-5" x="74.86" y="25.54"/>
  <use xlink:href="#img-7c74262b-5" x="33.92" y="89.55"/>
  <use xlink:href="#img-7c74262b-5" x="113" y="42.97"/>
  <use xlink:href="#img-7c74262b-5" x="105.66" y="83.03"/>
  <use xlink:href="#img-7c74262b-5" x="176.31" y="128.36"/>
  <use xlink:href="#img-7c74262b-5" x="69.82" y="162.23"/>
  <use xlink:href="#img-7c74262b-5" x="77.19" y="144.31"/>
  <use xlink:href="#img-7c74262b-5" x="164.37" y="153.81"/>
  <use xlink:href="#img-7c74262b-5" x="128.11" y="151.67"/>
  <use xlink:href="#img-7c74262b-5" x="86.36" y="125.27"/>
  <use xlink:href="#img-7c74262b-5" x="77.75" y="163.85"/>
  <use xlink:href="#img-7c74262b-5" x="39.9" y="32.87"/>
  <use xlink:href="#img-7c74262b-5" x="21.54" y="81.15"/>
  <use xlink:href="#img-7c74262b-5" x="62.96" y="32.34"/>
  <use xlink:href="#img-7c74262b-5" x="105.55" y="91.95"/>
  <use xlink:href="#img-7c74262b-5" x="137.55" y="75.45"/>
  <use xlink:href="#img-7c74262b-5" x="64.82" y="172.6"/>
  <use xlink:href="#img-7c74262b-5" x="63.55" y="177.29"/>
  <use xlink:href="#img-7c74262b-5" x="183.33" y="134.36"/>
  <use xlink:href="#img-7c74262b-5" x="146.19" y="151.6"/>
  <use xlink:href="#img-7c74262b-5" x="147.3" y="132.11"/>
  <use xlink:href="#img-7c74262b-5" x="51.05" y="35.97"/>
  <use xlink:href="#img-7c74262b-5" x="16.67" y="68.94"/>
  <use xlink:href="#img-7c74262b-5" x="134.81" y="84.62"/>
  <use xlink:href="#img-7c74262b-5" x="21.65" y="56.83"/>
  <use xlink:href="#img-7c74262b-5" x="98.82" y="16.67"/>
  <use xlink:href="#img-7c74262b-5" x="178.82" y="148.25"/>
  <use xlink:href="#img-7c74262b-5" x="88.41" y="98.61"/>
  <use xlink:href="#img-7c74262b-5" x="110.1" y="152.13"/>
  <use xlink:href="#img-7c74262b-5" x="161.94" y="143.14"/>
  <use xlink:href="#img-7c74262b-5" x="50.22" y="94.68"/>
  <use xlink:href="#img-7c74262b-5" x="31.5" y="47.55"/>
  <use xlink:href="#img-7c74262b-5" x="108.28" y="26.64"/>
  <use xlink:href="#img-7c74262b-5" x="148.56" y="66.72"/>
  <use xlink:href="#img-7c74262b-5" x="96.23" y="104.85"/>
  <use xlink:href="#img-7c74262b-5" x="93.22" y="157.28"/>
  <use xlink:href="#img-7c74262b-5" x="141.96" y="117.28"/>
  <use xlink:href="#img-7c74262b-5" x="30.37" y="35.78"/>
  <use xlink:href="#img-7c74262b-5" x="86.6" y="18.25"/>
  <use xlink:href="#img-7c74262b-5" x="166.71" y="133.26"/>
  <use xlink:href="#img-7c74262b-5" x="68.88" y="98.12"/>
  <use xlink:href="#img-7c74262b-5" x="122.53" y="84.19"/>
  <use xlink:href="#img-7c74262b-5" x="146.1" y="59.24"/>
</g>
<g font-size="4" stroke="#000000" stroke-opacity="0.000" fill="#000000" id="img-7c74262b-6">
  <text x="114.56" y="62.66" text-anchor="middle" dy="0.35em">1</text>
  <text x="137.01" y="101.39" text-anchor="middle" dy="0.35em">2</text>
  <text x="58.22" y="183.33" text-anchor="middle" dy="0.35em">3</text>
  <text x="151.67" y="145.82" text-anchor="middle" dy="0.35em">4</text>
  <text x="137.91" y="68.65" text-anchor="middle" dy="0.35em">5</text>
  <text x="74.86" y="25.54" text-anchor="middle" dy="0.35em">6</text>
  <text x="33.92" y="89.55" text-anchor="middle" dy="0.35em">7</text>
  <text x="113" y="42.97" text-anchor="middle" dy="0.35em">8</text>
  <text x="105.66" y="83.03" text-anchor="middle" dy="0.35em">9</text>
  <text x="176.31" y="128.36" text-anchor="middle" dy="0.35em">10</text>
  <text x="69.82" y="162.23" text-anchor="middle" dy="0.35em">11</text>
  <text x="77.19" y="144.31" text-anchor="middle" dy="0.35em">12</text>
  <text x="164.37" y="153.81" text-anchor="middle" dy="0.35em">13</text>
  <text x="128.11" y="151.67" text-anchor="middle" dy="0.35em">14</text>
  <text x="86.36" y="125.27" text-anchor="middle" dy="0.35em">15</text>
  <text x="77.75" y="163.85" text-anchor="middle" dy="0.35em">16</text>
  <text x="39.9" y="32.87" text-anchor="middle" dy="0.35em">17</text>
  <text x="21.54" y="81.15" text-anchor="middle" dy="0.35em">18</text>
  <text x="62.96" y="32.34" text-anchor="middle" dy="0.35em">19</text>
  <text x="105.55" y="91.95" text-anchor="middle" dy="0.35em">20</text>
  <text x="137.55" y="75.45" text-anchor="middle" dy="0.35em">21</text>
  <text x="64.82" y="172.6" text-anchor="middle" dy="0.35em">22</text>
  <text x="63.55" y="177.29" text-anchor="middle" dy="0.35em">23</text>
  <text x="183.33" y="134.36" text-anchor="middle" dy="0.35em">24</text>
  <text x="146.19" y="151.6" text-anchor="middle" dy="0.35em">25</text>
  <text x="147.3" y="132.11" text-anchor="middle" dy="0.35em">26</text>
  <text x="51.05" y="35.97" text-anchor="middle" dy="0.35em">27</text>
  <text x="16.67" y="68.94" text-anchor="middle" dy="0.35em">28</text>
  <text x="134.81" y="84.62" text-anchor="middle" dy="0.35em">29</text>
  <text x="21.65" y="56.83" text-anchor="middle" dy="0.35em">30</text>
  <text x="98.82" y="16.67" text-anchor="middle" dy="0.35em">31</text>
  <text x="178.82" y="148.25" text-anchor="middle" dy="0.35em">32</text>
  <text x="88.41" y="98.61" text-anchor="middle" dy="0.35em">33</text>
  <text x="110.1" y="152.13" text-anchor="middle" dy="0.35em">34</text>
  <text x="161.94" y="143.14" text-anchor="middle" dy="0.35em">35</text>
  <text x="50.22" y="94.68" text-anchor="middle" dy="0.35em">36</text>
  <text x="31.5" y="47.55" text-anchor="middle" dy="0.35em">37</text>
  <text x="108.28" y="26.64" text-anchor="middle" dy="0.35em">38</text>
  <text x="148.56" y="66.72" text-anchor="middle" dy="0.35em">39</text>
  <text x="96.23" y="104.85" text-anchor="middle" dy="0.35em">40</text>
  <text x="93.22" y="157.28" text-anchor="middle" dy="0.35em">41</text>
  <text x="141.96" y="117.28" text-anchor="middle" dy="0.35em">42</text>
  <text x="30.37" y="35.78" text-anchor="middle" dy="0.35em">43</text>
  <text x="86.6" y="18.25" text-anchor="middle" dy="0.35em">44</text>
  <text x="166.71" y="133.26" text-anchor="middle" dy="0.35em">45</text>
  <text x="68.88" y="98.12" text-anchor="middle" dy="0.35em">46</text>
  <text x="122.53" y="84.19" text-anchor="middle" dy="0.35em">47</text>
  <text x="146.1" y="59.24" text-anchor="middle" dy="0.35em">48</text>
</g>
<defs>
  <g id="img-7c74262b-5">
    <circle cx="0" cy="0" r="2.89"/>
  </g>
</defs>
</svg>
