<?xml version="1.0" encoding="UTF-8"?>
<svg xmlns="http://www.w3.org/2000/svg"
     xmlns:xlink="http://www.w3.org/1999/xlink"
     version="1.2"
     width="200mm" height="200mm" viewBox="0 0 200 200"
     stroke="none"
     fill="#000000"
     stroke-width="0.3"
     font-size="3.88"
>
<g stroke-width="0.51" fill="#000000" fill-opacity="0.000" stroke="#D3D3D3" id="img-8eff9c13-1">
  <path fill="none" d="M105.22,171.64 L 117.08 162.36"/>
  <path fill="none" d="M99.22,175.46 L 86.93 181.71"/>
  <path fill="none" d="M75.29,142.01 L 75.1 150.81"/>
  <path fill="none" d="M72.88,135.87 L 65.75 128.5"/>
  <path fill="none" d="M138.38,152.17 L 123.17 158.74"/>
  <path fill="none" d="M144.5,148.59 L 157.37 138.79"/>
  <path fill="none" d="M178.01,57.16 L 182.32 71.81"/>
  <path fill="none" d="M174.84,50.9 L 165.75 38.99"/>
  <path fill="none" d="M182.44,93.81 L 183.16 78.81"/>
  <path fill="none" d="M180.98,100.71 L 175.34 115.32"/>
  <path fill="none" d="M160.62,34.15 L 147.52 25.25"/>
  <path fill="none" d="M75.01,24.55 L 92.08 17.96"/>
  <path fill="none" d="M69.06,28.28 L 62.25 34.61"/>
  <path fill="none" d="M117.96,16.73 L 98.98 16.68"/>
  <path fill="none" d="M124.97,17.71 L 141.13 22.27"/>
  <path fill="none" d="M63.11,36.24 L 63.49 36.15"/>
  <path fill="none" d="M66.46,181.98 L 80.18 183.06"/>
  <path fill="none" d="M66.08,180.1 L 63.66 181.32"/>
  <path fill="none" d="M67.43,176.18 L 68.16 171.73"/>
  <path fill="none" d="M70.21,164.95 L 73.54 157.64"/>
  <path fill="none" d="M69.88,33.27 L 76.12 28.81"/>
  <path fill="none" d="M86.57,22.93 L 82.22 25.12"/>
  <path fill="none" d="M92.21,23.93 L 95.07 26.96"/>
  <path fill="none" d="M74.25,40.64 L 83.94 39.18"/>
  <path fill="none" d="M67.24,40.34 L 54.84 37.4"/>
  <path fill="none" d="M90.12,36.25 L 94.86 31.96"/>
  <path fill="none" d="M47.84,37.18 L 34.58 39.43"/>
  <path fill="none" d="M39.83,101.77 L 47.46 110.64"/>
  <path fill="none" d="M35.63,96.02 L 29.48 85.99"/>
  <path fill="none" d="M52.4,115.79 L 60.65 123.5"/>
  <path fill="none" d="M28.28,42.28 L 20.21 48.8"/>
  <path fill="none" d="M25.49,80.07 L 18.79 71"/>
  <path fill="none" d="M16.83,64.56 L 17.27 54.61"/>
  <path fill="none" d="M171.87,121.49 L 162.4 133.8"/>
</g>
<g stroke-width="0.51" stroke="#D3D3D3" id="img-8eff9c13-2">
</g>
<g font-size="4" stroke="#000000" stroke-opacity="0.000" fill="#000000" id="img-8eff9c13-3">
  <text x="111.15" y="167" text-anchor="middle" dy="0.35em">27</text>
  <text x="93.08" y="178.59" text-anchor="middle" dy="0.35em">13</text>
  <text x="75.2" y="146.41" text-anchor="middle" dy="0.35em">32</text>
  <text x="69.31" y="132.19" text-anchor="middle" dy="0.35em">16</text>
  <text x="130.78" y="155.46" text-anchor="middle" dy="0.35em">62</text>
  <text x="150.94" y="143.69" text-anchor="middle" dy="0.35em">38</text>
  <text x="180.17" y="64.49" text-anchor="middle" dy="0.35em">34</text>
  <text x="170.29" y="44.95" text-anchor="middle" dy="0.35em">54</text>
  <text x="182.8" y="86.31" text-anchor="middle" dy="0.35em">31</text>
  <text x="178.16" y="108.02" text-anchor="middle" dy="0.35em">131</text>
  <text x="154.07" y="29.7" text-anchor="middle" dy="0.35em">7</text>
  <text x="83.54" y="21.26" text-anchor="middle" dy="0.35em">88</text>
  <text x="65.65" y="31.44" text-anchor="middle" dy="0.35em">125</text>
  <text x="108.47" y="16.7" text-anchor="middle" dy="0.35em">41</text>
  <text x="133.05" y="19.99" text-anchor="middle" dy="0.35em">60</text>
  <text x="63.3" y="36.2" text-anchor="middle" dy="0.35em">60</text>
  <text x="73.32" y="182.52" text-anchor="middle" dy="0.35em">25</text>
  <text x="64.87" y="180.71" text-anchor="middle" dy="0.35em">31</text>
  <text x="67.79" y="173.96" text-anchor="middle" dy="0.35em">7</text>
  <text x="71.88" y="161.29" text-anchor="middle" dy="0.35em">9</text>
  <text x="73" y="31.04" text-anchor="middle" dy="0.35em">45</text>
  <text x="84.39" y="24.03" text-anchor="middle" dy="0.35em">57</text>
  <text x="93.64" y="25.45" text-anchor="middle" dy="0.35em">27</text>
  <text x="79.09" y="39.91" text-anchor="middle" dy="0.35em">40</text>
  <text x="61.04" y="38.87" text-anchor="middle" dy="0.35em">36</text>
  <text x="92.49" y="34.11" text-anchor="middle" dy="0.35em">76</text>
  <text x="41.21" y="38.31" text-anchor="middle" dy="0.35em">31</text>
  <text x="43.65" y="106.21" text-anchor="middle" dy="0.35em">20</text>
  <text x="32.56" y="91.01" text-anchor="middle" dy="0.35em">129</text>
  <text x="56.53" y="119.64" text-anchor="middle" dy="0.35em">8</text>
  <text x="24.24" y="45.54" text-anchor="middle" dy="0.35em">15</text>
  <text x="22.14" y="75.54" text-anchor="middle" dy="0.35em">57</text>
  <text x="17.05" y="59.59" text-anchor="middle" dy="0.35em">97</text>
  <text x="167.13" y="127.64" text-anchor="middle" dy="0.35em">27</text>
</g>
<g stroke-width="0" stroke="#000000" stroke-opacity="0.000" fill="#40E0D0" id="img-8eff9c13-4">
  <use xlink:href="#img-8eff9c13-5" x="102.41" y="173.84"/>
  <use xlink:href="#img-8eff9c13-5" x="75.37" y="138.44"/>
  <use xlink:href="#img-8eff9c13-5" x="141.66" y="150.76"/>
  <use xlink:href="#img-8eff9c13-5" x="119.89" y="160.16"/>
  <use xlink:href="#img-8eff9c13-5" x="177" y="53.73"/>
  <use xlink:href="#img-8eff9c13-5" x="182.27" y="97.38"/>
  <use xlink:href="#img-8eff9c13-5" x="183.33" y="75.24"/>
  <use xlink:href="#img-8eff9c13-5" x="163.58" y="36.16"/>
  <use xlink:href="#img-8eff9c13-5" x="71.68" y="25.84"/>
  <use xlink:href="#img-8eff9c13-5" x="121.53" y="16.74"/>
  <use xlink:href="#img-8eff9c13-5" x="95.41" y="16.67"/>
  <use xlink:href="#img-8eff9c13-5" x="59.63" y="37.05"/>
  <use xlink:href="#img-8eff9c13-5" x="62.89" y="181.71"/>
  <use xlink:href="#img-8eff9c13-5" x="83.75" y="183.33"/>
  <use xlink:href="#img-8eff9c13-5" x="66.85" y="179.71"/>
  <use xlink:href="#img-8eff9c13-5" x="68.73" y="168.2"/>
  <use xlink:href="#img-8eff9c13-5" x="75.02" y="154.38"/>
  <use xlink:href="#img-8eff9c13-5" x="66.97" y="35.35"/>
  <use xlink:href="#img-8eff9c13-5" x="89.76" y="21.32"/>
  <use xlink:href="#img-8eff9c13-5" x="79.02" y="26.73"/>
  <use xlink:href="#img-8eff9c13-5" x="70.71" y="41.17"/>
  <use xlink:href="#img-8eff9c13-5" x="87.47" y="38.65"/>
  <use xlink:href="#img-8eff9c13-5" x="51.37" y="36.58"/>
  <use xlink:href="#img-8eff9c13-5" x="37.5" y="99.06"/>
  <use xlink:href="#img-8eff9c13-5" x="49.79" y="113.35"/>
  <use xlink:href="#img-8eff9c13-5" x="63.26" y="125.93"/>
  <use xlink:href="#img-8eff9c13-5" x="31.06" y="40.03"/>
  <use xlink:href="#img-8eff9c13-5" x="27.62" y="82.95"/>
  <use xlink:href="#img-8eff9c13-5" x="16.67" y="68.13"/>
  <use xlink:href="#img-8eff9c13-5" x="17.43" y="51.04"/>
  <use xlink:href="#img-8eff9c13-5" x="174.05" y="118.66"/>
  <use xlink:href="#img-8eff9c13-5" x="97.51" y="29.57"/>
  <use xlink:href="#img-8eff9c13-5" x="144.57" y="23.24"/>
  <use xlink:href="#img-8eff9c13-5" x="160.22" y="136.63"/>
</g>
<g font-size="4" stroke="#000000" stroke-opacity="0.000" fill="#000000" id="img-8eff9c13-6">
  <text x="102.41" y="173.84" text-anchor="middle" dy="0.35em">1</text>
  <text x="75.37" y="138.44" text-anchor="middle" dy="0.35em">2</text>
  <text x="141.66" y="150.76" text-anchor="middle" dy="0.35em">3</text>
  <text x="119.89" y="160.16" text-anchor="middle" dy="0.35em">4</text>
  <text x="177" y="53.73" text-anchor="middle" dy="0.35em">5</text>
  <text x="182.27" y="97.38" text-anchor="middle" dy="0.35em">6</text>
  <text x="183.33" y="75.24" text-anchor="middle" dy="0.35em">7</text>
  <text x="163.58" y="36.16" text-anchor="middle" dy="0.35em">8</text>
  <text x="71.68" y="25.84" text-anchor="middle" dy="0.35em">9</text>
  <text x="121.53" y="16.74" text-anchor="middle" dy="0.35em">10</text>
  <text x="95.41" y="16.67" text-anchor="middle" dy="0.35em">11</text>
  <text x="59.63" y="37.05" text-anchor="middle" dy="0.35em">12</text>
  <text x="62.89" y="181.71" text-anchor="middle" dy="0.35em">13</text>
  <text x="83.75" y="183.33" text-anchor="middle" dy="0.35em">14</text>
  <text x="66.85" y="179.71" text-anchor="middle" dy="0.35em">15</text>
  <text x="68.73" y="168.2" text-anchor="middle" dy="0.35em">16</text>
  <text x="75.02" y="154.38" text-anchor="middle" dy="0.35em">17</text>
  <text x="66.97" y="35.35" text-anchor="middle" dy="0.35em">18</text>
  <text x="89.76" y="21.32" text-anchor="middle" dy="0.35em">19</text>
  <text x="79.02" y="26.73" text-anchor="middle" dy="0.35em">20</text>
  <text x="70.71" y="41.17" text-anchor="middle" dy="0.35em">21</text>
  <text x="87.47" y="38.65" text-anchor="middle" dy="0.35em">22</text>
  <text x="51.37" y="36.58" text-anchor="middle" dy="0.35em">23</text>
  <text x="37.5" y="99.06" text-anchor="middle" dy="0.35em">24</text>
  <text x="49.79" y="113.35" text-anchor="middle" dy="0.35em">25</text>
  <text x="63.26" y="125.93" text-anchor="middle" dy="0.35em">26</text>
  <text x="31.06" y="40.03" text-anchor="middle" dy="0.35em">27</text>
  <text x="27.62" y="82.95" text-anchor="middle" dy="0.35em">28</text>
  <text x="16.67" y="68.13" text-anchor="middle" dy="0.35em">29</text>
  <text x="17.43" y="51.04" text-anchor="middle" dy="0.35em">30</text>
  <text x="174.05" y="118.66" text-anchor="middle" dy="0.35em">31</text>
  <text x="97.51" y="29.57" text-anchor="middle" dy="0.35em">32</text>
  <text x="144.57" y="23.24" text-anchor="middle" dy="0.35em">33</text>
  <text x="160.22" y="136.63" text-anchor="middle" dy="0.35em">34</text>
</g>
<defs>
  <g id="img-8eff9c13-5">
    <circle cx="0" cy="0" r="3.43"/>
  </g>
</defs>
</svg>
