<?xml version="1.0" encoding="UTF-8"?>
<svg xmlns="http://www.w3.org/2000/svg"
     xmlns:xlink="http://www.w3.org/1999/xlink"
     version="1.2"
     width="200mm" height="200mm" viewBox="0 0 200 200"
     stroke="none"
     fill="#000000"
     stroke-width="0.3"
     font-size="3.88"
>
<g stroke-width="0.73" fill="#000000" fill-opacity="0.000" stroke="#D3D3D3" id="img-f18c63b9-1">
  <path fill="none" d="M137.48,40.67 L 119.65 27.95"/>
  <path fill="none" d="M145.89,46.27 L 164.7 57.98"/>
  <path fill="none" d="M29.78,48.85 L 24.8 66.49"/>
  <path fill="none" d="M34.83,40.51 L 49.16 26.96"/>
  <path fill="none" d="M88.51,17.95 L 110.65 23.74"/>
  <path fill="none" d="M78.69,17.76 L 57.76 22.39"/>
  <path fill="none" d="M118.32,175.94 L 139.69 164.86"/>
  <path fill="none" d="M108.84,179 L 84.25 182.6"/>
  <path fill="none" d="M147.62,158.84 L 162.88 142.49"/>
  <path fill="none" d="M182.92,89.95 L 181.49 107.55"/>
  <path fill="none" d="M180.76,80.56 L 171.57 65"/>
  <path fill="none" d="M168.81,134.39 L 178.61 116.99"/>
  <path fill="none" d="M74.35,182.12 L 51.04 176.37"/>
  <path fill="none" d="M22.49,150.77 L 17.96 133.63"/>
  <path fill="none" d="M27.59,158.98 L 42.33 171.84"/>
  <path fill="none" d="M23.55,76.4 L 24.01 95.46"/>
  <path fill="none" d="M17.96,123.86 L 22.84 105.4"/>
</g>
<g stroke-width="0.73" stroke="#D3D3D3" id="img-f18c63b9-2">
</g>
<g font-size="4" stroke="#000000" stroke-opacity="0.000" fill="#000000" id="img-f18c63b9-3">
  <text x="128.57" y="34.31" text-anchor="middle" dy="0.35em">0</text>
  <text x="155.3" y="52.13" text-anchor="middle" dy="0.35em">8</text>
  <text x="27.29" y="57.67" text-anchor="middle" dy="0.35em">0</text>
  <text x="41.99" y="33.74" text-anchor="middle" dy="0.35em">3</text>
  <text x="99.58" y="20.84" text-anchor="middle" dy="0.35em">5</text>
  <text x="68.22" y="20.08" text-anchor="middle" dy="0.35em">0</text>
  <text x="129.01" y="170.4" text-anchor="middle" dy="0.35em">0</text>
  <text x="96.54" y="180.8" text-anchor="middle" dy="0.35em">12</text>
  <text x="155.25" y="150.66" text-anchor="middle" dy="0.35em">6</text>
  <text x="182.21" y="98.75" text-anchor="middle" dy="0.35em">0</text>
  <text x="176.16" y="72.78" text-anchor="middle" dy="0.35em">0</text>
  <text x="173.71" y="125.69" text-anchor="middle" dy="0.35em">0</text>
  <text x="62.69" y="179.25" text-anchor="middle" dy="0.35em">0</text>
  <text x="20.22" y="142.2" text-anchor="middle" dy="0.35em">5</text>
  <text x="34.96" y="165.41" text-anchor="middle" dy="0.35em">0</text>
  <text x="23.78" y="85.93" text-anchor="middle" dy="0.35em">0</text>
  <text x="20.4" y="114.63" text-anchor="middle" dy="0.35em">0</text>
</g>
<g stroke-width="0" stroke="#000000" stroke-opacity="0.000" fill="#40E0D0" id="img-f18c63b9-4">
  <use xlink:href="#img-f18c63b9-5" x="141.6" y="43.61"/>
  <use xlink:href="#img-f18c63b9-5" x="31.16" y="43.99"/>
  <use xlink:href="#img-f18c63b9-5" x="83.62" y="16.67"/>
  <use xlink:href="#img-f18c63b9-5" x="113.84" y="178.27"/>
  <use xlink:href="#img-f18c63b9-5" x="144.18" y="162.53"/>
  <use xlink:href="#img-f18c63b9-5" x="183.33" y="84.91"/>
  <use xlink:href="#img-f18c63b9-5" x="166.33" y="138.8"/>
  <use xlink:href="#img-f18c63b9-5" x="79.25" y="183.33"/>
  <use xlink:href="#img-f18c63b9-5" x="23.78" y="155.65"/>
  <use xlink:href="#img-f18c63b9-5" x="23.43" y="71.35"/>
  <use xlink:href="#img-f18c63b9-5" x="16.67" y="128.74"/>
  <use xlink:href="#img-f18c63b9-5" x="115.54" y="25.02"/>
  <use xlink:href="#img-f18c63b9-5" x="24.13" y="100.52"/>
  <use xlink:href="#img-f18c63b9-5" x="52.83" y="23.49"/>
  <use xlink:href="#img-f18c63b9-5" x="181.09" y="112.59"/>
  <use xlink:href="#img-f18c63b9-5" x="168.99" y="60.65"/>
  <use xlink:href="#img-f18c63b9-5" x="46.14" y="175.16"/>
</g>
<g font-size="4" stroke="#000000" stroke-opacity="0.000" fill="#000000" id="img-f18c63b9-6">
  <text x="141.6" y="43.61" text-anchor="middle" dy="0.35em">1</text>
  <text x="31.16" y="43.99" text-anchor="middle" dy="0.35em">2</text>
  <text x="83.62" y="16.67" text-anchor="middle" dy="0.35em">3</text>
  <text x="113.84" y="178.27" text-anchor="middle" dy="0.35em">4</text>
  <text x="144.18" y="162.53" text-anchor="middle" dy="0.35em">5</text>
  <text x="183.33" y="84.91" text-anchor="middle" dy="0.35em">6</text>
  <text x="166.33" y="138.8" text-anchor="middle" dy="0.35em">7</text>
  <text x="79.25" y="183.33" text-anchor="middle" dy="0.35em">8</text>
  <text x="23.78" y="155.65" text-anchor="middle" dy="0.35em">9</text>
  <text x="23.43" y="71.35" text-anchor="middle" dy="0.35em">10</text>
  <text x="16.67" y="128.74" text-anchor="middle" dy="0.35em">11</text>
  <text x="115.54" y="25.02" text-anchor="middle" dy="0.35em">12</text>
  <text x="24.13" y="100.52" text-anchor="middle" dy="0.35em">13</text>
  <text x="52.83" y="23.49" text-anchor="middle" dy="0.35em">14</text>
  <text x="181.09" y="112.59" text-anchor="middle" dy="0.35em">15</text>
  <text x="168.99" y="60.65" text-anchor="middle" dy="0.35em">16</text>
  <text x="46.14" y="175.16" text-anchor="middle" dy="0.35em">17</text>
</g>
<defs>
  <g id="img-f18c63b9-5">
    <circle cx="0" cy="0" r="4.85"/>
  </g>
</defs>
</svg>
