<?xml version="1.0" encoding="UTF-8"?>
<svg xmlns="http://www.w3.org/2000/svg"
     xmlns:xlink="http://www.w3.org/1999/xlink"
     version="1.2"
     width="200mm" height="200mm" viewBox="0 0 200 200"
     stroke="none"
     fill="#000000"
     stroke-width="0.3"
     font-size="3.88"
>
<g stroke-width="0.36" fill="#000000" fill-opacity="0.000" stroke="#D3D3D3" id="img-b6427692-1">
  <path fill="none" d="M53.34,65.71 L 56.83 64.32"/>
  <path fill="none" d="M48.86,67.78 L 46.68 68.93"/>
  <path fill="none" d="M69.27,40.54 L 66.46 48.09"/>
  <path fill="none" d="M69.81,35.77 L 68.72 27.25"/>
  <path fill="none" d="M64.5,52.62 L 60.23 61.19"/>
  <path fill="none" d="M138.24,172.59 L 128.06 171.99"/>
  <path fill="none" d="M143.18,172.63 L 153.5 172.17"/>
  <path fill="none" d="M123.15,171.43 L 113.12 169.71"/>
  <path fill="none" d="M71.26,82.02 L 76.08 83.76"/>
  <path fill="none" d="M66.48,80.85 L 61.56 80.21"/>
  <path fill="none" d="M98.5,168.39 L 108.22 169.11"/>
  <path fill="none" d="M93.58,167.87 L 84.32 166.59"/>
  <path fill="none" d="M79.51,165.52 L 70.68 162.76"/>
  <path fill="none" d="M57.64,157.52 L 66.04 161.06"/>
  <path fill="none" d="M53.12,155.51 L 44.85 151.63"/>
  <path fill="none" d="M98.44,109.03 L 94.89 102.43"/>
  <path fill="none" d="M100.66,113.44 L 104.1 120.74"/>
  <path fill="none" d="M80.34,86.14 L 84.72 89.59"/>
  <path fill="none" d="M92.21,98.3 L 88.17 93.07"/>
  <path fill="none" d="M106.25,125.19 L 109.86 132.5"/>
  <path fill="none" d="M112.33,136.77 L 116.5 142.98"/>
  <path fill="none" d="M59.12,86.89 L 59.19 102.36"/>
  <path fill="none" d="M59.12,81.94 L 59.27 64.82"/>
  <path fill="none" d="M120.01,146.27 L 124.81 149.07"/>
  <path fill="none" d="M128.98,148.89 L 134.92 144.74"/>
  <path fill="none" d="M138.86,141.76 L 145.03 136.73"/>
  <path fill="none" d="M148.88,133.63 L 155.41 128.45"/>
  <path fill="none" d="M58.9,107.28 L 57.18 121.04"/>
  <path fill="none" d="M159.11,125.18 L 164.16 120.2"/>
  <path fill="none" d="M56.38,43.35 L 56.01 34.05"/>
  <path fill="none" d="M56.9,48.26 L 58.88 59.92"/>
  <path fill="none" d="M52.2,78.34 L 56.7 79.35"/>
  <path fill="none" d="M48.39,75.76 L 45.89 72.12"/>
  <path fill="none" d="M56.56,125.94 L 54.88 139.16"/>
  <path fill="none" d="M56.12,29.12 L 56.74 21.83"/>
  <path fill="none" d="M59.25,18.46 L 61.55 17.57"/>
  <path fill="none" d="M65.06,18.82 L 67.19 22.64"/>
  <path fill="none" d="M54.18,144.05 L 52.17 156.66"/>
  <path fill="none" d="M174.33,112.91 L 178.06 118.57"/>
  <path fill="none" d="M171.29,112.66 L 167.6 116.65"/>
  <path fill="none" d="M179.27,123.1 L 178.76 132.02"/>
  <path fill="none" d="M177.72,136.8 L 174.46 145.21"/>
  <path fill="none" d="M153.42,179.82 L 156.61 181.96"/>
  <path fill="none" d="M151.03,176 L 149.75 166.63"/>
  <path fill="none" d="M162.38,176.13 L 159.8 181.14"/>
  <path fill="none" d="M164.5,171.67 L 168.05 163.46"/>
  <path fill="none" d="M178.14,124.18 L 174.1 114.61"/>
  <path fill="none" d="M179.73,128.85 L 182.7 140.09"/>
  <path fill="none" d="M150.56,149.59 L 149.61 161.72"/>
  <path fill="none" d="M150.93,144.66 L 151.86 131.21"/>
  <path fill="none" d="M169.81,158.84 L 172.79 149.86"/>
  <path fill="none" d="M51.53,161.56 L 50.52 171.61"/>
  <path fill="none" d="M48.45,175.73 L 43.28 180.41"/>
  <path fill="none" d="M38.98,182.29 L 33.96 182.74"/>
  <path fill="none" d="M21.97,174.82 L 19.14 168.54"/>
  <path fill="none" d="M25.02,178.48 L 29.46 181.55"/>
  <path fill="none" d="M154.71,108.5 L 157 97.5"/>
  <path fill="none" d="M153.91,113.37 L 152.33 126.29"/>
  <path fill="none" d="M172.62,109.92 L 170.27 98.81"/>
  <path fill="none" d="M182.82,144.9 L 180.66 155.15"/>
  <path fill="none" d="M169.68,93.92 L 169.42 85.92"/>
  <path fill="none" d="M166.17,77.1 L 163.47 80.36"/>
  <path fill="none" d="M168.21,77.63 L 168.87 81.02"/>
  <path fill="none" d="M178.43,159.34 L 171.72 166.23"/>
  <path fill="none" d="M17.84,163.84 L 16.96 156.39"/>
  <path fill="none" d="M161.1,84.6 L 158.3 92.74"/>
  <path fill="none" d="M167.62,168.69 L 158.35 171.37"/>
  <path fill="none" d="M16.82,151.47 L 17.21 145.4"/>
  <path fill="none" d="M19.33,141.43 L 21.28 139.92"/>
  <path fill="none" d="M40.62,149.11 L 34.12 144.32"/>
  <path fill="none" d="M25.45,139.52 L 29.92 141.75"/>
</g>
<g stroke-width="0.36" stroke="#D3D3D3" id="img-b6427692-2">
</g>
<g font-size="4" stroke="#000000" stroke-opacity="0.000" fill="#000000" id="img-b6427692-3">
  <text x="55.09" y="65.01" text-anchor="middle" dy="0.35em">27</text>
  <text x="47.77" y="68.35" text-anchor="middle" dy="0.35em">13</text>
  <text x="67.87" y="44.31" text-anchor="middle" dy="0.35em">53</text>
  <text x="69.26" y="31.51" text-anchor="middle" dy="0.35em">7</text>
  <text x="62.37" y="56.9" text-anchor="middle" dy="0.35em">26</text>
  <text x="133.15" y="172.29" text-anchor="middle" dy="0.35em">70</text>
  <text x="148.34" y="172.4" text-anchor="middle" dy="0.35em">8</text>
  <text x="118.14" y="170.57" text-anchor="middle" dy="0.35em">63</text>
  <text x="73.67" y="82.89" text-anchor="middle" dy="0.35em">42</text>
  <text x="64.02" y="80.53" text-anchor="middle" dy="0.35em">31</text>
  <text x="103.36" y="168.75" text-anchor="middle" dy="0.35em">5</text>
  <text x="88.95" y="167.23" text-anchor="middle" dy="0.35em">81</text>
  <text x="75.09" y="164.14" text-anchor="middle" dy="0.35em">34</text>
  <text x="61.84" y="159.29" text-anchor="middle" dy="0.35em">31</text>
  <text x="48.98" y="153.57" text-anchor="middle" dy="0.35em">119</text>
  <text x="96.66" y="105.73" text-anchor="middle" dy="0.35em">21</text>
  <text x="102.38" y="117.09" text-anchor="middle" dy="0.35em">44</text>
  <text x="82.53" y="87.86" text-anchor="middle" dy="0.35em">27</text>
  <text x="90.19" y="95.69" text-anchor="middle" dy="0.35em">7</text>
  <text x="108.06" y="128.85" text-anchor="middle" dy="0.35em">54</text>
  <text x="114.41" y="139.87" text-anchor="middle" dy="0.35em">46</text>
  <text x="59.15" y="94.62" text-anchor="middle" dy="0.35em">29</text>
  <text x="59.2" y="73.38" text-anchor="middle" dy="0.35em">6</text>
  <text x="122.41" y="147.67" text-anchor="middle" dy="0.35em">56</text>
  <text x="131.95" y="146.82" text-anchor="middle" dy="0.35em">76</text>
  <text x="141.95" y="139.25" text-anchor="middle" dy="0.35em">129</text>
  <text x="152.15" y="131.04" text-anchor="middle" dy="0.35em">123</text>
  <text x="58.04" y="114.16" text-anchor="middle" dy="0.35em">18</text>
  <text x="161.64" y="122.69" text-anchor="middle" dy="0.35em">80</text>
  <text x="56.2" y="38.7" text-anchor="middle" dy="0.35em">31</text>
  <text x="57.89" y="54.09" text-anchor="middle" dy="0.35em">24</text>
  <text x="54.45" y="78.84" text-anchor="middle" dy="0.35em">55</text>
  <text x="47.14" y="73.94" text-anchor="middle" dy="0.35em">27</text>
  <text x="55.72" y="132.55" text-anchor="middle" dy="0.35em">19</text>
  <text x="56.43" y="25.47" text-anchor="middle" dy="0.35em">7</text>
  <text x="60.4" y="18.01" text-anchor="middle" dy="0.35em">9</text>
  <text x="66.13" y="20.73" text-anchor="middle" dy="0.35em">25</text>
  <text x="53.17" y="150.35" text-anchor="middle" dy="0.35em">45</text>
  <text x="176.2" y="115.74" text-anchor="middle" dy="0.35em">45</text>
  <text x="169.45" y="114.66" text-anchor="middle" dy="0.35em">27</text>
  <text x="179.01" y="127.56" text-anchor="middle" dy="0.35em">12</text>
  <text x="176.09" y="141" text-anchor="middle" dy="0.35em">128</text>
  <text x="155.01" y="180.89" text-anchor="middle" dy="0.35em">30</text>
  <text x="150.39" y="171.32" text-anchor="middle" dy="0.35em">69</text>
  <text x="161.09" y="178.63" text-anchor="middle" dy="0.35em">40</text>
  <text x="166.28" y="167.56" text-anchor="middle" dy="0.35em">34</text>
  <text x="176.12" y="119.4" text-anchor="middle" dy="0.35em">22</text>
  <text x="181.22" y="134.47" text-anchor="middle" dy="0.35em">59</text>
  <text x="150.09" y="155.66" text-anchor="middle" dy="0.35em">17</text>
  <text x="151.39" y="137.93" text-anchor="middle" dy="0.35em">45</text>
  <text x="171.3" y="154.35" text-anchor="middle" dy="0.35em">12</text>
  <text x="51.03" y="166.58" text-anchor="middle" dy="0.35em">20</text>
  <text x="45.86" y="178.07" text-anchor="middle" dy="0.35em">8</text>
  <text x="36.47" y="182.51" text-anchor="middle" dy="0.35em">17</text>
  <text x="20.56" y="171.68" text-anchor="middle" dy="0.35em">54</text>
  <text x="27.24" y="180.02" text-anchor="middle" dy="0.35em">35</text>
  <text x="155.86" y="103" text-anchor="middle" dy="0.35em">52</text>
  <text x="153.12" y="119.83" text-anchor="middle" dy="0.35em">14</text>
  <text x="171.44" y="104.36" text-anchor="middle" dy="0.35em">17</text>
  <text x="181.74" y="150.02" text-anchor="middle" dy="0.35em">41</text>
  <text x="169.55" y="89.92" text-anchor="middle" dy="0.35em">26</text>
  <text x="164.82" y="78.73" text-anchor="middle" dy="0.35em">41</text>
  <text x="168.54" y="79.32" text-anchor="middle" dy="0.35em">70</text>
  <text x="175.07" y="162.79" text-anchor="middle" dy="0.35em">159</text>
  <text x="17.4" y="160.11" text-anchor="middle" dy="0.35em">38</text>
  <text x="159.7" y="88.67" text-anchor="middle" dy="0.35em">39</text>
  <text x="162.98" y="170.03" text-anchor="middle" dy="0.35em">122</text>
  <text x="17.02" y="148.44" text-anchor="middle" dy="0.35em">18</text>
  <text x="20.3" y="140.67" text-anchor="middle" dy="0.35em">29</text>
  <text x="37.37" y="146.71" text-anchor="middle" dy="0.35em">58</text>
  <text x="27.68" y="140.63" text-anchor="middle" dy="0.35em">30</text>
</g>
<g stroke-width="0" stroke="#000000" stroke-opacity="0.000" fill="#40E0D0" id="img-b6427692-4">
  <use xlink:href="#img-b6427692-5" x="51.05" y="66.62"/>
  <use xlink:href="#img-b6427692-5" x="70.13" y="38.22"/>
  <use xlink:href="#img-b6427692-5" x="65.6" y="50.4"/>
  <use xlink:href="#img-b6427692-5" x="140.71" y="172.74"/>
  <use xlink:href="#img-b6427692-5" x="125.59" y="171.85"/>
  <use xlink:href="#img-b6427692-5" x="59.13" y="63.4"/>
  <use xlink:href="#img-b6427692-5" x="68.93" y="81.17"/>
  <use xlink:href="#img-b6427692-5" x="96.03" y="168.21"/>
  <use xlink:href="#img-b6427692-5" x="110.68" y="169.29"/>
  <use xlink:href="#img-b6427692-5" x="81.87" y="166.25"/>
  <use xlink:href="#img-b6427692-5" x="55.36" y="156.56"/>
  <use xlink:href="#img-b6427692-5" x="68.32" y="162.02"/>
  <use xlink:href="#img-b6427692-5" x="99.61" y="111.2"/>
  <use xlink:href="#img-b6427692-5" x="78.4" y="84.61"/>
  <use xlink:href="#img-b6427692-5" x="93.72" y="100.25"/>
  <use xlink:href="#img-b6427692-5" x="105.16" y="122.98"/>
  <use xlink:href="#img-b6427692-5" x="110.96" y="134.72"/>
  <use xlink:href="#img-b6427692-5" x="59.1" y="84.41"/>
  <use xlink:href="#img-b6427692-5" x="117.87" y="145.03"/>
  <use xlink:href="#img-b6427692-5" x="126.95" y="150.31"/>
  <use xlink:href="#img-b6427692-5" x="136.94" y="143.32"/>
  <use xlink:href="#img-b6427692-5" x="146.95" y="135.17"/>
  <use xlink:href="#img-b6427692-5" x="59.21" y="104.83"/>
  <use xlink:href="#img-b6427692-5" x="157.35" y="126.92"/>
  <use xlink:href="#img-b6427692-5" x="56.48" y="45.82"/>
  <use xlink:href="#img-b6427692-5" x="49.79" y="77.79"/>
  <use xlink:href="#img-b6427692-5" x="56.87" y="123.49"/>
  <use xlink:href="#img-b6427692-5" x="59.11" y="79.89"/>
  <use xlink:href="#img-b6427692-5" x="44.49" y="70.08"/>
  <use xlink:href="#img-b6427692-5" x="55.92" y="31.58"/>
  <use xlink:href="#img-b6427692-5" x="56.95" y="19.36"/>
  <use xlink:href="#img-b6427692-5" x="63.85" y="16.67"/>
  <use xlink:href="#img-b6427692-5" x="54.56" y="141.61"/>
  <use xlink:href="#img-b6427692-5" x="172.97" y="110.85"/>
  <use xlink:href="#img-b6427692-5" x="179.42" y="120.64"/>
  <use xlink:href="#img-b6427692-5" x="178.61" y="134.49"/>
  <use xlink:href="#img-b6427692-5" x="151.36" y="178.45"/>
  <use xlink:href="#img-b6427692-5" x="163.52" y="173.94"/>
  <use xlink:href="#img-b6427692-5" x="158.66" y="183.33"/>
  <use xlink:href="#img-b6427692-5" x="179.1" y="126.46"/>
  <use xlink:href="#img-b6427692-5" x="150.76" y="147.13"/>
  <use xlink:href="#img-b6427692-5" x="169.03" y="161.19"/>
  <use xlink:href="#img-b6427692-5" x="51.78" y="159.1"/>
  <use xlink:href="#img-b6427692-5" x="50.28" y="174.07"/>
  <use xlink:href="#img-b6427692-5" x="41.44" y="182.07"/>
  <use xlink:href="#img-b6427692-5" x="22.99" y="177.07"/>
  <use xlink:href="#img-b6427692-5" x="154.21" y="110.92"/>
  <use xlink:href="#img-b6427692-5" x="173.13" y="112.33"/>
  <use xlink:href="#img-b6427692-5" x="183.33" y="142.48"/>
  <use xlink:href="#img-b6427692-5" x="169.76" y="96.39"/>
  <use xlink:href="#img-b6427692-5" x="167.74" y="75.2"/>
  <use xlink:href="#img-b6427692-5" x="180.15" y="157.57"/>
  <use xlink:href="#img-b6427692-5" x="18.13" y="166.29"/>
  <use xlink:href="#img-b6427692-5" x="31.5" y="182.96"/>
  <use xlink:href="#img-b6427692-5" x="161.9" y="82.26"/>
  <use xlink:href="#img-b6427692-5" x="170" y="168.01"/>
  <use xlink:href="#img-b6427692-5" x="16.67" y="153.93"/>
  <use xlink:href="#img-b6427692-5" x="17.37" y="142.94"/>
  <use xlink:href="#img-b6427692-5" x="42.61" y="150.57"/>
  <use xlink:href="#img-b6427692-5" x="23.24" y="138.41"/>
  <use xlink:href="#img-b6427692-5" x="165.93" y="118.46"/>
  <use xlink:href="#img-b6427692-5" x="32.13" y="142.85"/>
  <use xlink:href="#img-b6427692-5" x="157.5" y="95.08"/>
  <use xlink:href="#img-b6427692-5" x="149.42" y="164.18"/>
  <use xlink:href="#img-b6427692-5" x="59.29" y="62.35"/>
  <use xlink:href="#img-b6427692-5" x="68.4" y="24.8"/>
  <use xlink:href="#img-b6427692-5" x="86.66" y="91.12"/>
  <use xlink:href="#img-b6427692-5" x="169.34" y="83.45"/>
  <use xlink:href="#img-b6427692-5" x="152.03" y="128.74"/>
  <use xlink:href="#img-b6427692-5" x="173.57" y="147.51"/>
  <use xlink:href="#img-b6427692-5" x="155.97" y="172.06"/>
</g>
<g font-size="4" stroke="#000000" stroke-opacity="0.000" fill="#000000" id="img-b6427692-6">
  <text x="51.05" y="66.62" text-anchor="middle" dy="0.35em">1</text>
  <text x="70.13" y="38.22" text-anchor="middle" dy="0.35em">2</text>
  <text x="65.6" y="50.4" text-anchor="middle" dy="0.35em">3</text>
  <text x="140.71" y="172.74" text-anchor="middle" dy="0.35em">4</text>
  <text x="125.59" y="171.85" text-anchor="middle" dy="0.35em">5</text>
  <text x="59.13" y="63.4" text-anchor="middle" dy="0.35em">6</text>
  <text x="68.93" y="81.17" text-anchor="middle" dy="0.35em">7</text>
  <text x="96.03" y="168.21" text-anchor="middle" dy="0.35em">8</text>
  <text x="110.68" y="169.29" text-anchor="middle" dy="0.35em">9</text>
  <text x="81.87" y="166.25" text-anchor="middle" dy="0.35em">10</text>
  <text x="55.36" y="156.56" text-anchor="middle" dy="0.35em">11</text>
  <text x="68.32" y="162.02" text-anchor="middle" dy="0.35em">12</text>
  <text x="99.61" y="111.2" text-anchor="middle" dy="0.35em">13</text>
  <text x="78.4" y="84.61" text-anchor="middle" dy="0.35em">14</text>
  <text x="93.72" y="100.25" text-anchor="middle" dy="0.35em">15</text>
  <text x="105.16" y="122.98" text-anchor="middle" dy="0.35em">16</text>
  <text x="110.96" y="134.72" text-anchor="middle" dy="0.35em">17</text>
  <text x="59.1" y="84.41" text-anchor="middle" dy="0.35em">18</text>
  <text x="117.87" y="145.03" text-anchor="middle" dy="0.35em">19</text>
  <text x="126.95" y="150.31" text-anchor="middle" dy="0.35em">20</text>
  <text x="136.94" y="143.32" text-anchor="middle" dy="0.35em">21</text>
  <text x="146.95" y="135.17" text-anchor="middle" dy="0.35em">22</text>
  <text x="59.21" y="104.83" text-anchor="middle" dy="0.35em">23</text>
  <text x="157.35" y="126.92" text-anchor="middle" dy="0.35em">24</text>
  <text x="56.48" y="45.82" text-anchor="middle" dy="0.35em">25</text>
  <text x="49.79" y="77.79" text-anchor="middle" dy="0.35em">26</text>
  <text x="56.87" y="123.49" text-anchor="middle" dy="0.35em">27</text>
  <text x="59.11" y="79.89" text-anchor="middle" dy="0.35em">28</text>
  <text x="44.49" y="70.08" text-anchor="middle" dy="0.35em">29</text>
  <text x="55.92" y="31.58" text-anchor="middle" dy="0.35em">30</text>
  <text x="56.95" y="19.36" text-anchor="middle" dy="0.35em">31</text>
  <text x="63.85" y="16.67" text-anchor="middle" dy="0.35em">32</text>
  <text x="54.56" y="141.61" text-anchor="middle" dy="0.35em">33</text>
  <text x="172.97" y="110.85" text-anchor="middle" dy="0.35em">34</text>
  <text x="179.42" y="120.64" text-anchor="middle" dy="0.35em">35</text>
  <text x="178.61" y="134.49" text-anchor="middle" dy="0.35em">36</text>
  <text x="151.36" y="178.45" text-anchor="middle" dy="0.35em">37</text>
  <text x="163.52" y="173.94" text-anchor="middle" dy="0.35em">38</text>
  <text x="158.66" y="183.33" text-anchor="middle" dy="0.35em">39</text>
  <text x="179.1" y="126.46" text-anchor="middle" dy="0.35em">40</text>
  <text x="150.76" y="147.13" text-anchor="middle" dy="0.35em">41</text>
  <text x="169.03" y="161.19" text-anchor="middle" dy="0.35em">42</text>
  <text x="51.78" y="159.1" text-anchor="middle" dy="0.35em">43</text>
  <text x="50.28" y="174.07" text-anchor="middle" dy="0.35em">44</text>
  <text x="41.44" y="182.07" text-anchor="middle" dy="0.35em">45</text>
  <text x="22.99" y="177.07" text-anchor="middle" dy="0.35em">46</text>
  <text x="154.21" y="110.92" text-anchor="middle" dy="0.35em">47</text>
  <text x="173.13" y="112.33" text-anchor="middle" dy="0.35em">48</text>
  <text x="183.33" y="142.48" text-anchor="middle" dy="0.35em">49</text>
  <text x="169.76" y="96.39" text-anchor="middle" dy="0.35em">50</text>
  <text x="167.74" y="75.2" text-anchor="middle" dy="0.35em">51</text>
  <text x="180.15" y="157.57" text-anchor="middle" dy="0.35em">52</text>
  <text x="18.13" y="166.29" text-anchor="middle" dy="0.35em">53</text>
  <text x="31.5" y="182.96" text-anchor="middle" dy="0.35em">54</text>
  <text x="161.9" y="82.26" text-anchor="middle" dy="0.35em">55</text>
  <text x="170" y="168.01" text-anchor="middle" dy="0.35em">56</text>
  <text x="16.67" y="153.93" text-anchor="middle" dy="0.35em">57</text>
  <text x="17.37" y="142.94" text-anchor="middle" dy="0.35em">58</text>
  <text x="42.61" y="150.57" text-anchor="middle" dy="0.35em">59</text>
  <text x="23.24" y="138.41" text-anchor="middle" dy="0.35em">60</text>
  <text x="165.93" y="118.46" text-anchor="middle" dy="0.35em">61</text>
  <text x="32.13" y="142.85" text-anchor="middle" dy="0.35em">62</text>
  <text x="157.5" y="95.08" text-anchor="middle" dy="0.35em">63</text>
  <text x="149.42" y="164.18" text-anchor="middle" dy="0.35em">64</text>
  <text x="59.29" y="62.35" text-anchor="middle" dy="0.35em">65</text>
  <text x="68.4" y="24.8" text-anchor="middle" dy="0.35em">66</text>
  <text x="86.66" y="91.12" text-anchor="middle" dy="0.35em">67</text>
  <text x="169.34" y="83.45" text-anchor="middle" dy="0.35em">68</text>
  <text x="152.03" y="128.74" text-anchor="middle" dy="0.35em">69</text>
  <text x="173.57" y="147.51" text-anchor="middle" dy="0.35em">70</text>
  <text x="155.97" y="172.06" text-anchor="middle" dy="0.35em">71</text>
</g>
<defs>
  <g id="img-b6427692-5">
    <circle cx="0" cy="0" r="2.37"/>
  </g>
</defs>
</svg>
