<?xml version="1.0" encoding="UTF-8"?>
<svg xmlns="http://www.w3.org/2000/svg"
     xmlns:xlink="http://www.w3.org/1999/xlink"
     version="1.2"
     width="200mm" height="200mm" viewBox="0 0 200 200"
     stroke="none"
     fill="#000000"
     stroke-width="0.3"
     font-size="3.88"
>
<g stroke-width="0.48" fill="#000000" fill-opacity="0.000" stroke="#D3D3D3" id="img-c293a345-1">
  <path fill="none" d="M173.77,122.22 L 163.81 114.65"/>
  <path fill="none" d="M177.9,127.23 L 181.86 135.27"/>
  <path fill="none" d="M100.09,165.51 L 118.09 167.29"/>
  <path fill="none" d="M93.45,164.86 L 74.62 163.07"/>
  <path fill="none" d="M143.79,104.61 L 158.12 111.23"/>
  <path fill="none" d="M137.64,102.03 L 122.32 96.21"/>
  <path fill="none" d="M35.47,27.26 L 39.29 32.72"/>
  <path fill="none" d="M30.84,22.6 L 25.22 18.6"/>
  <path fill="none" d="M27.49,59.46 L 29.42 51.71"/>
  <path fill="none" d="M27.75,65.86 L 30.47 74"/>
  <path fill="none" d="M39.05,38.01 L 32.38 45.92"/>
  <path fill="none" d="M45.3,92.68 L 55.35 100.9"/>
  <path fill="none" d="M40.58,88 L 33.67 79.73"/>
  <path fill="none" d="M60.67,104.92 L 72.18 112.92"/>
  <path fill="none" d="M76.09,162.88 L 79.25 151.49"/>
  <path fill="none" d="M72.92,168.53 L 65.47 176.54"/>
  <path fill="none" d="M80.51,134.35 L 80.23 144.94"/>
  <path fill="none" d="M79.49,127.86 L 76.02 117.98"/>
  <path fill="none" d="M59.97,179.85 L 50.16 182.47"/>
  <path fill="none" d="M180.21,148.74 L 182.38 141.46"/>
  <path fill="none" d="M176.49,153.81 L 167.37 159.95"/>
  <path fill="none" d="M161.34,162.53 L 147.53 165.53"/>
  <path fill="none" d="M140.94,166.44 L 124.74 167.42"/>
  <path fill="none" d="M44.02,181.73 L 36.23 177.45"/>
  <path fill="none" d="M31.93,172.8 L 28.49 165.18"/>
  <path fill="none" d="M19.79,163.17 L 27.71 166.14"/>
  <path fill="none" d="M20,162.04 L 23.78 162.09"/>
  <path fill="none" d="M81,21.76 L 92.89 23.6"/>
  <path fill="none" d="M74.47,22.06 L 61.64 25.29"/>
  <path fill="none" d="M98.67,26.34 L 105.68 32.65"/>
  <path fill="none" d="M109.08,38.08 L 111.55 46.75"/>
  <path fill="none" d="M55.45,27.65 L 42.15 34.57"/>
  <path fill="none" d="M34.16,167.09 L 46.87 166.24"/>
  <path fill="none" d="M53.5,165.5 L 68 163.27"/>
  <path fill="none" d="M36.48,34.16 L 27.38 27.63"/>
  <path fill="none" d="M112.35,53.29 L 112.03 62.41"/>
  <path fill="none" d="M110.99,68.95 L 107.97 79.46"/>
  <path fill="none" d="M23.89,22.44 L 23.28 19.91"/>
  <path fill="none" d="M109.39,85.04 L 116.86 92.65"/>
</g>
<g stroke-width="0.48" stroke="#D3D3D3" id="img-c293a345-2">
</g>
<g font-size="4" stroke="#000000" stroke-opacity="0.000" fill="#000000" id="img-c293a345-3">
  <text x="168.79" y="118.43" text-anchor="middle" dy="0.35em">27</text>
  <text x="179.88" y="131.25" text-anchor="middle" dy="0.35em">13</text>
  <text x="109.09" y="166.4" text-anchor="middle" dy="0.35em">32</text>
  <text x="84.03" y="163.97" text-anchor="middle" dy="0.35em">16</text>
  <text x="150.95" y="107.92" text-anchor="middle" dy="0.35em">62</text>
  <text x="129.98" y="99.12" text-anchor="middle" dy="0.35em">38</text>
  <text x="37.38" y="29.99" text-anchor="middle" dy="0.35em">95</text>
  <text x="28.03" y="20.6" text-anchor="middle" dy="0.35em">51</text>
  <text x="28.46" y="55.58" text-anchor="middle" dy="0.35em">34</text>
  <text x="29.11" y="69.93" text-anchor="middle" dy="0.35em">60</text>
  <text x="35.71" y="41.96" text-anchor="middle" dy="0.35em">31</text>
  <text x="50.32" y="96.79" text-anchor="middle" dy="0.35em">20</text>
  <text x="37.12" y="83.86" text-anchor="middle" dy="0.35em">76</text>
  <text x="66.42" y="108.92" text-anchor="middle" dy="0.35em">7</text>
  <text x="77.67" y="157.18" text-anchor="middle" dy="0.35em">88</text>
  <text x="69.19" y="172.54" text-anchor="middle" dy="0.35em">125</text>
  <text x="80.37" y="139.64" text-anchor="middle" dy="0.35em">41</text>
  <text x="77.76" y="122.92" text-anchor="middle" dy="0.35em">60</text>
  <text x="55.07" y="181.16" text-anchor="middle" dy="0.35em">60</text>
  <text x="181.3" y="145.1" text-anchor="middle" dy="0.35em">25</text>
  <text x="171.93" y="156.88" text-anchor="middle" dy="0.35em">31</text>
  <text x="154.44" y="164.03" text-anchor="middle" dy="0.35em">7</text>
  <text x="132.84" y="166.93" text-anchor="middle" dy="0.35em">9</text>
  <text x="40.12" y="179.59" text-anchor="middle" dy="0.35em">19</text>
  <text x="30.21" y="168.99" text-anchor="middle" dy="0.35em">27</text>
  <text x="23.75" y="164.66" text-anchor="middle" dy="0.35em">36</text>
  <text x="21.89" y="162.07" text-anchor="middle" dy="0.35em">44</text>
  <text x="86.95" y="22.68" text-anchor="middle" dy="0.35em">40</text>
  <text x="68.06" y="23.68" text-anchor="middle" dy="0.35em">36</text>
  <text x="102.18" y="29.49" text-anchor="middle" dy="0.35em">57</text>
  <text x="110.32" y="42.42" text-anchor="middle" dy="0.35em">59</text>
  <text x="48.8" y="31.11" text-anchor="middle" dy="0.35em">31</text>
  <text x="40.52" y="166.66" text-anchor="middle" dy="0.35em">20</text>
  <text x="60.75" y="164.38" text-anchor="middle" dy="0.35em">8</text>
  <text x="31.93" y="30.89" text-anchor="middle" dy="0.35em">15</text>
  <text x="112.19" y="57.85" text-anchor="middle" dy="0.35em">57</text>
  <text x="109.48" y="74.21" text-anchor="middle" dy="0.35em">168</text>
  <text x="23.59" y="21.17" text-anchor="middle" dy="0.35em">56</text>
  <text x="113.13" y="88.85" text-anchor="middle" dy="0.35em">122</text>
</g>
<g stroke-width="0" stroke="#000000" stroke-opacity="0.000" fill="#40E0D0" id="img-c293a345-4">
  <use xlink:href="#img-c293a345-5" x="176.43" y="124.23"/>
  <use xlink:href="#img-c293a345-5" x="96.77" y="165.18"/>
  <use xlink:href="#img-c293a345-5" x="140.76" y="103.21"/>
  <use xlink:href="#img-c293a345-5" x="161.15" y="112.63"/>
  <use xlink:href="#img-c293a345-5" x="33.56" y="24.53"/>
  <use xlink:href="#img-c293a345-5" x="26.69" y="62.7"/>
  <use xlink:href="#img-c293a345-5" x="41.2" y="35.46"/>
  <use xlink:href="#img-c293a345-5" x="30.23" y="48.47"/>
  <use xlink:href="#img-c293a345-5" x="42.72" y="90.56"/>
  <use xlink:href="#img-c293a345-5" x="57.93" y="103.01"/>
  <use xlink:href="#img-c293a345-5" x="75.19" y="166.09"/>
  <use xlink:href="#img-c293a345-5" x="80.59" y="131.01"/>
  <use xlink:href="#img-c293a345-5" x="80.15" y="148.27"/>
  <use xlink:href="#img-c293a345-5" x="63.19" y="178.98"/>
  <use xlink:href="#img-c293a345-5" x="179.26" y="151.94"/>
  <use xlink:href="#img-c293a345-5" x="31.53" y="77.17"/>
  <use xlink:href="#img-c293a345-5" x="183.33" y="138.26"/>
  <use xlink:href="#img-c293a345-5" x="164.6" y="161.82"/>
  <use xlink:href="#img-c293a345-5" x="144.27" y="166.24"/>
  <use xlink:href="#img-c293a345-5" x="121.41" y="167.62"/>
  <use xlink:href="#img-c293a345-5" x="46.94" y="183.33"/>
  <use xlink:href="#img-c293a345-5" x="33.31" y="175.84"/>
  <use xlink:href="#img-c293a345-5" x="16.67" y="161.99"/>
  <use xlink:href="#img-c293a345-5" x="77.7" y="21.25"/>
  <use xlink:href="#img-c293a345-5" x="96.19" y="24.11"/>
  <use xlink:href="#img-c293a345-5" x="108.16" y="34.88"/>
  <use xlink:href="#img-c293a345-5" x="58.41" y="26.11"/>
  <use xlink:href="#img-c293a345-5" x="30.83" y="167.32"/>
  <use xlink:href="#img-c293a345-5" x="50.2" y="166.01"/>
  <use xlink:href="#img-c293a345-5" x="71.3" y="162.76"/>
  <use xlink:href="#img-c293a345-5" x="39.19" y="36.11"/>
  <use xlink:href="#img-c293a345-5" x="112.47" y="49.95"/>
  <use xlink:href="#img-c293a345-5" x="111.91" y="65.75"/>
  <use xlink:href="#img-c293a345-5" x="24.67" y="25.68"/>
  <use xlink:href="#img-c293a345-5" x="107.05" y="82.67"/>
  <use xlink:href="#img-c293a345-5" x="22.51" y="16.67"/>
  <use xlink:href="#img-c293a345-5" x="27.11" y="162.14"/>
  <use xlink:href="#img-c293a345-5" x="74.92" y="114.83"/>
  <use xlink:href="#img-c293a345-5" x="119.2" y="95.03"/>
</g>
<g font-size="4" stroke="#000000" stroke-opacity="0.000" fill="#000000" id="img-c293a345-6">
  <text x="176.43" y="124.23" text-anchor="middle" dy="0.35em">1</text>
  <text x="96.77" y="165.18" text-anchor="middle" dy="0.35em">2</text>
  <text x="140.76" y="103.21" text-anchor="middle" dy="0.35em">3</text>
  <text x="161.15" y="112.63" text-anchor="middle" dy="0.35em">4</text>
  <text x="33.56" y="24.53" text-anchor="middle" dy="0.35em">5</text>
  <text x="26.69" y="62.7" text-anchor="middle" dy="0.35em">6</text>
  <text x="41.2" y="35.46" text-anchor="middle" dy="0.35em">7</text>
  <text x="30.23" y="48.47" text-anchor="middle" dy="0.35em">8</text>
  <text x="42.72" y="90.56" text-anchor="middle" dy="0.35em">9</text>
  <text x="57.93" y="103.01" text-anchor="middle" dy="0.35em">10</text>
  <text x="75.19" y="166.09" text-anchor="middle" dy="0.35em">11</text>
  <text x="80.59" y="131.01" text-anchor="middle" dy="0.35em">12</text>
  <text x="80.15" y="148.27" text-anchor="middle" dy="0.35em">13</text>
  <text x="63.19" y="178.98" text-anchor="middle" dy="0.35em">14</text>
  <text x="179.26" y="151.94" text-anchor="middle" dy="0.35em">15</text>
  <text x="31.53" y="77.17" text-anchor="middle" dy="0.35em">16</text>
  <text x="183.33" y="138.26" text-anchor="middle" dy="0.35em">17</text>
  <text x="164.6" y="161.82" text-anchor="middle" dy="0.35em">18</text>
  <text x="144.27" y="166.24" text-anchor="middle" dy="0.35em">19</text>
  <text x="121.41" y="167.62" text-anchor="middle" dy="0.35em">20</text>
  <text x="46.94" y="183.33" text-anchor="middle" dy="0.35em">21</text>
  <text x="33.31" y="175.84" text-anchor="middle" dy="0.35em">22</text>
  <text x="16.67" y="161.99" text-anchor="middle" dy="0.35em">23</text>
  <text x="77.7" y="21.25" text-anchor="middle" dy="0.35em">24</text>
  <text x="96.19" y="24.11" text-anchor="middle" dy="0.35em">25</text>
  <text x="108.16" y="34.88" text-anchor="middle" dy="0.35em">26</text>
  <text x="58.41" y="26.11" text-anchor="middle" dy="0.35em">27</text>
  <text x="30.83" y="167.32" text-anchor="middle" dy="0.35em">28</text>
  <text x="50.2" y="166.01" text-anchor="middle" dy="0.35em">29</text>
  <text x="71.3" y="162.76" text-anchor="middle" dy="0.35em">30</text>
  <text x="39.19" y="36.11" text-anchor="middle" dy="0.35em">31</text>
  <text x="112.47" y="49.95" text-anchor="middle" dy="0.35em">32</text>
  <text x="111.91" y="65.75" text-anchor="middle" dy="0.35em">33</text>
  <text x="24.67" y="25.68" text-anchor="middle" dy="0.35em">34</text>
  <text x="107.05" y="82.67" text-anchor="middle" dy="0.35em">35</text>
  <text x="22.51" y="16.67" text-anchor="middle" dy="0.35em">36</text>
  <text x="27.11" y="162.14" text-anchor="middle" dy="0.35em">37</text>
  <text x="74.92" y="114.83" text-anchor="middle" dy="0.35em">38</text>
  <text x="119.2" y="95.03" text-anchor="middle" dy="0.35em">39</text>
</g>
<defs>
  <g id="img-c293a345-5">
    <circle cx="0" cy="0" r="3.2"/>
  </g>
</defs>
</svg>
