<?xml version="1.0" encoding="UTF-8"?>
<svg xmlns="http://www.w3.org/2000/svg"
     xmlns:xlink="http://www.w3.org/1999/xlink"
     version="1.2"
     width="200mm" height="200mm" viewBox="0 0 200 200"
     stroke="none"
     fill="#000000"
     stroke-width="0.3"
     font-size="3.88"
>
<g stroke-width="0.73" fill="#000000" fill-opacity="0.000" stroke="#D3D3D3" id="img-1651cdda-1">
  <path fill="none" d="M21.72,86.58 L 11.61 86.58"/>
  <path fill="none" d="M17.18,91.61 L 19.23 111.66"/>
  <path fill="none" d="M17.61,81.62 L 21.29 62.24"/>
  <path fill="none" d="M71.57,18.38 L 61.46 18.38"/>
  <path fill="none" d="M62.1,20.85 L 44.2 30.86"/>
  <path fill="none" d="M71.56,18.11 L 92.94 16.94"/>
  <path fill="none" d="M44.84,33.33 L 34.74 33.33"/>
  <path fill="none" d="M36.8,37.4 L 25.22 53.2"/>
  <path fill="none" d="M153.62,176.83 L 143.51 176.83"/>
  <path fill="none" d="M152.58,173.76 L 168.28 161.81"/>
  <path fill="none" d="M143.62,177.88 L 122.97 182.28"/>
  <path fill="none" d="M177.35,158.74 L 167.24 158.74"/>
  <path fill="none" d="M174.25,154.08 L 181.38 137.09"/>
  <path fill="none" d="M61.15,166.62 L 51.04 166.62"/>
  <path fill="none" d="M60.68,168.74 L 81.1 178.22"/>
  <path fill="none" d="M52.47,163.1 L 37.1 148.2"/>
  <path fill="none" d="M90.74,180.35 L 80.63 180.35"/>
  <path fill="none" d="M90.72,180.81 L 112.99 182.87"/>
  <path fill="none" d="M185.69,103.77 L 175.58 103.77"/>
  <path fill="none" d="M178.26,99.31 L 168.49 81.01"/>
  <path fill="none" d="M181.11,108.8 L 182.86 127.4"/>
  <path fill="none" d="M171.17,76.55 L 161.06 76.55"/>
  <path fill="none" d="M163.66,72.13 L 153.39 53.68"/>
  <path fill="none" d="M103.03,16.67 L 92.93 16.67"/>
  <path fill="none" d="M102.71,18.46 L 122.55 25.99"/>
  <path fill="none" d="M155.99,49.27 L 145.88 49.27"/>
  <path fill="none" d="M147.19,45.87 L 131.02 31.18"/>
  <path fill="none" d="M24.8,116.68 L 14.69 116.68"/>
  <path fill="none" d="M21.97,121.22 L 31.25 140.15"/>
  <path fill="none" d="M132.33,27.79 L 122.22 27.79"/>
  <path fill="none" d="M27.29,57.27 L 17.18 57.27"/>
  <path fill="none" d="M38.53,144.69 L 28.42 144.69"/>
  <path fill="none" d="M123.08,183.33 L 112.97 183.33"/>
  <path fill="none" d="M188.39,132.43 L 178.28 132.43"/>
</g>
<g stroke-width="0.73" stroke="#D3D3D3" id="img-1651cdda-2">
</g>
<g font-size="4" stroke="#000000" stroke-opacity="0.000" fill="#000000" id="img-1651cdda-3">
  <text x="16.67" y="86.58" text-anchor="middle" dy="0.35em">9999</text>
  <text x="18.21" y="101.63" text-anchor="middle" dy="0.35em">0</text>
  <text x="19.45" y="71.93" text-anchor="middle" dy="0.35em">5</text>
  <text x="66.51" y="18.38" text-anchor="middle" dy="0.35em">9999</text>
  <text x="53.15" y="25.85" text-anchor="middle" dy="0.35em">3</text>
  <text x="82.25" y="17.52" text-anchor="middle" dy="0.35em">0</text>
  <text x="39.79" y="33.33" text-anchor="middle" dy="0.35em">9999</text>
  <text x="31.01" y="45.3" text-anchor="middle" dy="0.35em">0</text>
  <text x="148.56" y="176.83" text-anchor="middle" dy="0.35em">9999</text>
  <text x="160.43" y="167.78" text-anchor="middle" dy="0.35em">0</text>
  <text x="133.29" y="180.08" text-anchor="middle" dy="0.35em">6</text>
  <text x="172.3" y="158.74" text-anchor="middle" dy="0.35em">9999</text>
  <text x="177.82" y="145.59" text-anchor="middle" dy="0.35em">12</text>
  <text x="56.1" y="166.62" text-anchor="middle" dy="0.35em">9999</text>
  <text x="70.89" y="173.48" text-anchor="middle" dy="0.35em">0</text>
  <text x="44.78" y="155.65" text-anchor="middle" dy="0.35em">0</text>
  <text x="85.69" y="180.35" text-anchor="middle" dy="0.35em">9999</text>
  <text x="101.85" y="181.84" text-anchor="middle" dy="0.35em">0</text>
  <text x="180.63" y="103.77" text-anchor="middle" dy="0.35em">9999</text>
  <text x="173.38" y="90.16" text-anchor="middle" dy="0.35em">0</text>
  <text x="181.98" y="118.1" text-anchor="middle" dy="0.35em">0</text>
  <text x="166.12" y="76.55" text-anchor="middle" dy="0.35em">9999</text>
  <text x="158.53" y="62.91" text-anchor="middle" dy="0.35em">5</text>
  <text x="97.98" y="16.67" text-anchor="middle" dy="0.35em">9999</text>
  <text x="112.63" y="22.23" text-anchor="middle" dy="0.35em">0</text>
  <text x="150.93" y="49.27" text-anchor="middle" dy="0.35em">9999</text>
  <text x="139.1" y="38.53" text-anchor="middle" dy="0.35em">0</text>
  <text x="19.75" y="116.68" text-anchor="middle" dy="0.35em">9999</text>
  <text x="26.61" y="130.68" text-anchor="middle" dy="0.35em">8</text>
  <text x="127.27" y="27.79" text-anchor="middle" dy="0.35em">9999</text>
  <text x="22.23" y="57.27" text-anchor="middle" dy="0.35em">9999</text>
  <text x="33.47" y="144.69" text-anchor="middle" dy="0.35em">9999</text>
  <text x="118.02" y="183.33" text-anchor="middle" dy="0.35em">9999</text>
  <text x="183.33" y="132.43" text-anchor="middle" dy="0.35em">9999</text>
</g>
<g stroke-width="0" stroke="#000000" stroke-opacity="0.000" fill="#40E0D0" id="img-1651cdda-4">
  <use xlink:href="#img-1651cdda-5" x="16.67" y="86.58"/>
  <use xlink:href="#img-1651cdda-5" x="66.51" y="18.38"/>
  <use xlink:href="#img-1651cdda-5" x="39.79" y="33.33"/>
  <use xlink:href="#img-1651cdda-5" x="148.56" y="176.83"/>
  <use xlink:href="#img-1651cdda-5" x="172.3" y="158.74"/>
  <use xlink:href="#img-1651cdda-5" x="56.1" y="166.62"/>
  <use xlink:href="#img-1651cdda-5" x="85.69" y="180.35"/>
  <use xlink:href="#img-1651cdda-5" x="180.63" y="103.77"/>
  <use xlink:href="#img-1651cdda-5" x="166.12" y="76.55"/>
  <use xlink:href="#img-1651cdda-5" x="97.98" y="16.67"/>
  <use xlink:href="#img-1651cdda-5" x="150.93" y="49.27"/>
  <use xlink:href="#img-1651cdda-5" x="19.75" y="116.68"/>
  <use xlink:href="#img-1651cdda-5" x="127.27" y="27.79"/>
  <use xlink:href="#img-1651cdda-5" x="22.23" y="57.27"/>
  <use xlink:href="#img-1651cdda-5" x="33.47" y="144.69"/>
  <use xlink:href="#img-1651cdda-5" x="118.02" y="183.33"/>
  <use xlink:href="#img-1651cdda-5" x="183.33" y="132.43"/>
</g>
<g font-size="4" stroke="#000000" stroke-opacity="0.000" fill="#000000" id="img-1651cdda-6">
  <text x="16.67" y="86.58" text-anchor="middle" dy="0.35em">1</text>
  <text x="66.51" y="18.38" text-anchor="middle" dy="0.35em">2</text>
  <text x="39.79" y="33.33" text-anchor="middle" dy="0.35em">3</text>
  <text x="148.56" y="176.83" text-anchor="middle" dy="0.35em">4</text>
  <text x="172.3" y="158.74" text-anchor="middle" dy="0.35em">5</text>
  <text x="56.1" y="166.62" text-anchor="middle" dy="0.35em">6</text>
  <text x="85.69" y="180.35" text-anchor="middle" dy="0.35em">7</text>
  <text x="180.63" y="103.77" text-anchor="middle" dy="0.35em">8</text>
  <text x="166.12" y="76.55" text-anchor="middle" dy="0.35em">9</text>
  <text x="97.98" y="16.67" text-anchor="middle" dy="0.35em">10</text>
  <text x="150.93" y="49.27" text-anchor="middle" dy="0.35em">11</text>
  <text x="19.75" y="116.68" text-anchor="middle" dy="0.35em">12</text>
  <text x="127.27" y="27.79" text-anchor="middle" dy="0.35em">13</text>
  <text x="22.23" y="57.27" text-anchor="middle" dy="0.35em">14</text>
  <text x="33.47" y="144.69" text-anchor="middle" dy="0.35em">15</text>
  <text x="118.02" y="183.33" text-anchor="middle" dy="0.35em">16</text>
  <text x="183.33" y="132.43" text-anchor="middle" dy="0.35em">17</text>
</g>
<defs>
  <g id="img-1651cdda-5">
    <circle cx="0" cy="0" r="4.85"/>
  </g>
</defs>
</svg>
