<?xml version="1.0" encoding="UTF-8"?>
<svg xmlns="http://www.w3.org/2000/svg"
     xmlns:xlink="http://www.w3.org/1999/xlink"
     version="1.2"
     width="200mm" height="200mm" viewBox="0 0 200 200"
     stroke="none"
     fill="#000000"
     stroke-width="0.3"
     font-size="3.88"
>
<g stroke-width="0.37" fill="#000000" fill-opacity="0.000" stroke="#D3D3D3" id="img-0a3f08ed-1">
  <path fill="none" d="M53.31,168.17 L 49.87 162.08"/>
  <path fill="none" d="M56.54,172.1 L 61.88 176.7"/>
  <path fill="none" d="M47.65,137.12 L 47.03 144.71"/>
  <path fill="none" d="M48.65,132.08 L 51.14 124.29"/>
  <path fill="none" d="M49.76,40.82 L 56.7 44.12"/>
  <path fill="none" d="M45.21,38.38 L 39.01 34.67"/>
  <path fill="none" d="M48.23,157.28 L 47.18 149.84"/>
  <path fill="none" d="M61.32,46.42 L 68.97 50.4"/>
  <path fill="none" d="M86.22,60.54 L 95.07 66.51"/>
  <path fill="none" d="M81.85,57.79 L 73.49 52.9"/>
  <path fill="none" d="M99.37,69.38 L 108.67 75.52"/>
  <path fill="none" d="M103.64,178.46 L 111.63 173.51"/>
  <path fill="none" d="M98.94,180.5 L 91.01 182.66"/>
  <path fill="none" d="M122.51,170 L 116.34 171.53"/>
  <path fill="none" d="M122.89,170.85 L 125.97 168.72"/>
  <path fill="none" d="M131.26,155.88 L 130.15 160.75"/>
  <path fill="none" d="M132.51,150.87 L 134.22 144.66"/>
  <path fill="none" d="M102.2,90.15 L 105.15 96.72"/>
  <path fill="none" d="M99.42,85.87 L 95.96 82.01"/>
  <path fill="none" d="M158.33,103.57 L 163.14 96.45"/>
  <path fill="none" d="M155.38,107.81 L 149.72 115.68"/>
  <path fill="none" d="M165.75,92 L 169.02 85.51"/>
  <path fill="none" d="M82.04,83.39 L 76.81 87.45"/>
  <path fill="none" d="M86.63,81.38 L 91.68 80.52"/>
  <path fill="none" d="M73.4,181.18 L 66.32 179.11"/>
  <path fill="none" d="M78.45,182.19 L 85.95 183.04"/>
  <path fill="none" d="M72.94,90.87 L 66.33 97.51"/>
  <path fill="none" d="M63,101.44 L 57.98 108.35"/>
  <path fill="none" d="M55.51,112.85 L 52.88 119.43"/>
  <path fill="none" d="M122.84,121.78 L 128.91 126.55"/>
  <path fill="none" d="M119.16,118.19 L 114.26 112.25"/>
  <path fill="none" d="M181.58,81.21 L 181.86 81.6"/>
  <path fill="none" d="M177.72,80.07 L 172.57 82.21"/>
  <path fill="none" d="M180.95,84.73 L 177.01 86.39"/>
  <path fill="none" d="M143.18,78.96 L 147.69 85.85"/>
  <path fill="none" d="M140.44,74.57 L 135.91 66.95"/>
  <path fill="none" d="M163.97,89.63 L 172.1 87.92"/>
  <path fill="none" d="M158.9,89.72 L 151.66 88.46"/>
  <path fill="none" d="M22.87,41.98 L 19.25 41.96"/>
  <path fill="none" d="M27.87,41.06 L 33.73 38.81"/>
  <path fill="none" d="M129.06,53.62 L 133.44 62.42"/>
  <path fill="none" d="M126.47,49.16 L 121.1 41.15"/>
  <path fill="none" d="M133.19,129.42 L 141.14 133.88"/>
  <path fill="none" d="M145.87,135.9 L 153.22 138.15"/>
  <path fill="none" d="M158.21,138.35 L 163 137.29"/>
  <path fill="none" d="M107.66,26.75 L 100.28 21.68"/>
  <path fill="none" d="M111.53,30.11 L 117.92 37.1"/>
  <path fill="none" d="M18.3,39.95 L 18.65 39.53"/>
  <path fill="none" d="M74.03,17.78 L 82.26 16.93"/>
  <path fill="none" d="M69.15,19.21 L 61.4 23.09"/>
  <path fill="none" d="M161.15,119.82 L 165.18 125.53"/>
  <path fill="none" d="M157.75,115.96 L 150.54 109.34"/>
  <path fill="none" d="M22.43,36.07 L 24.92 34.37"/>
  <path fill="none" d="M138.47,98.92 L 146.67 105.92"/>
  <path fill="none" d="M134.52,95.59 L 125.92 88.5"/>
  <path fill="none" d="M34.21,33.23 L 29.64 33.02"/>
  <path fill="none" d="M125.49,168.2 L 127.93 165.26"/>
  <path fill="none" d="M135.96,139.81 L 139.38 132.18"/>
  <path fill="none" d="M141.84,127.65 L 146.81 119.95"/>
  <path fill="none" d="M107.49,101.32 L 111.33 108.02"/>
  <path fill="none" d="M166.34,130.21 L 165.85 134.17"/>
  <path fill="none" d="M38.64,37.22 L 46.48 35.12"/>
  <path fill="none" d="M50.8,32.62 L 57.27 26.09"/>
  <path fill="none" d="M87.33,17.33 L 95.65 19.56"/>
  <path fill="none" d="M112.89,78.5 L 121.86 85.29"/>
</g>
<g stroke-width="0.37" stroke="#D3D3D3" id="img-0a3f08ed-2">
</g>
<g font-size="4" stroke="#000000" stroke-opacity="0.000" fill="#000000" id="img-0a3f08ed-3">
  <text x="51.59" y="165.13" text-anchor="middle" dy="0.35em">27</text>
  <text x="59.21" y="174.4" text-anchor="middle" dy="0.35em">13</text>
  <text x="47.34" y="140.91" text-anchor="middle" dy="0.35em">53</text>
  <text x="49.89" y="128.19" text-anchor="middle" dy="0.35em">7</text>
  <text x="53.23" y="42.47" text-anchor="middle" dy="0.35em">63</text>
  <text x="42.11" y="36.53" text-anchor="middle" dy="0.35em">30</text>
  <text x="47.7" y="153.56" text-anchor="middle" dy="0.35em">19</text>
  <text x="65.15" y="48.41" text-anchor="middle" dy="0.35em">170</text>
  <text x="90.65" y="63.52" text-anchor="middle" dy="0.35em">60</text>
  <text x="77.67" y="55.34" text-anchor="middle" dy="0.35em">28</text>
  <text x="104.02" y="72.45" text-anchor="middle" dy="0.35em">119</text>
  <text x="107.63" y="175.99" text-anchor="middle" dy="0.35em">27</text>
  <text x="94.98" y="181.58" text-anchor="middle" dy="0.35em">57</text>
  <text x="119.42" y="170.77" text-anchor="middle" dy="0.35em">7</text>
  <text x="124.43" y="169.79" text-anchor="middle" dy="0.35em">51</text>
  <text x="130.71" y="158.31" text-anchor="middle" dy="0.35em">11</text>
  <text x="133.36" y="147.76" text-anchor="middle" dy="0.35em">46</text>
  <text x="103.68" y="93.43" text-anchor="middle" dy="0.35em">29</text>
  <text x="97.69" y="83.94" text-anchor="middle" dy="0.35em">6</text>
  <text x="160.74" y="100.01" text-anchor="middle" dy="0.35em">123</text>
  <text x="152.55" y="111.75" text-anchor="middle" dy="0.35em">9</text>
  <text x="167.38" y="88.76" text-anchor="middle" dy="0.35em">80</text>
  <text x="79.43" y="85.42" text-anchor="middle" dy="0.35em">31</text>
  <text x="89.16" y="80.95" text-anchor="middle" dy="0.35em">24</text>
  <text x="69.86" y="180.14" text-anchor="middle" dy="0.35em">27</text>
  <text x="82.2" y="182.62" text-anchor="middle" dy="0.35em">55</text>
  <text x="69.64" y="94.19" text-anchor="middle" dy="0.35em">7</text>
  <text x="60.49" y="104.89" text-anchor="middle" dy="0.35em">9</text>
  <text x="54.19" y="116.14" text-anchor="middle" dy="0.35em">25</text>
  <text x="125.87" y="124.17" text-anchor="middle" dy="0.35em">45</text>
  <text x="116.71" y="115.22" text-anchor="middle" dy="0.35em">90</text>
  <text x="181.72" y="81.4" text-anchor="middle" dy="0.35em">57</text>
  <text x="175.15" y="81.14" text-anchor="middle" dy="0.35em">27</text>
  <text x="178.98" y="85.56" text-anchor="middle" dy="0.35em">12</text>
  <text x="145.43" y="82.41" text-anchor="middle" dy="0.35em">10</text>
  <text x="138.17" y="70.76" text-anchor="middle" dy="0.35em">53</text>
  <text x="168.04" y="88.77" text-anchor="middle" dy="0.35em">60</text>
  <text x="155.28" y="89.09" text-anchor="middle" dy="0.35em">29</text>
  <text x="21.06" y="41.97" text-anchor="middle" dy="0.35em">59</text>
  <text x="30.8" y="39.93" text-anchor="middle" dy="0.35em">22</text>
  <text x="131.25" y="58.02" text-anchor="middle" dy="0.35em">17</text>
  <text x="123.78" y="45.16" text-anchor="middle" dy="0.35em">45</text>
  <text x="137.17" y="131.65" text-anchor="middle" dy="0.35em">20</text>
  <text x="149.54" y="137.03" text-anchor="middle" dy="0.35em">8</text>
  <text x="160.61" y="137.82" text-anchor="middle" dy="0.35em">17</text>
  <text x="103.97" y="24.22" text-anchor="middle" dy="0.35em">62</text>
  <text x="114.73" y="33.61" text-anchor="middle" dy="0.35em">14</text>
  <text x="18.48" y="39.74" text-anchor="middle" dy="0.35em">140</text>
  <text x="78.15" y="17.36" text-anchor="middle" dy="0.35em">9</text>
  <text x="65.28" y="21.15" text-anchor="middle" dy="0.35em">70</text>
  <text x="163.16" y="122.68" text-anchor="middle" dy="0.35em">52</text>
  <text x="154.15" y="112.65" text-anchor="middle" dy="0.35em">38</text>
  <text x="23.67" y="35.22" text-anchor="middle" dy="0.35em">122</text>
  <text x="142.57" y="102.42" text-anchor="middle" dy="0.35em">41</text>
  <text x="130.22" y="92.05" text-anchor="middle" dy="0.35em">29</text>
  <text x="31.93" y="33.13" text-anchor="middle" dy="0.35em">8</text>
  <text x="126.71" y="166.73" text-anchor="middle" dy="0.35em">44</text>
  <text x="137.67" y="136" text-anchor="middle" dy="0.35em">56</text>
  <text x="144.32" y="123.8" text-anchor="middle" dy="0.35em">76</text>
  <text x="109.41" y="104.67" text-anchor="middle" dy="0.35em">18</text>
  <text x="166.1" y="132.19" text-anchor="middle" dy="0.35em">35</text>
  <text x="42.56" y="36.17" text-anchor="middle" dy="0.35em">17</text>
  <text x="54.03" y="29.35" text-anchor="middle" dy="0.35em">26</text>
  <text x="91.49" y="18.45" text-anchor="middle" dy="0.35em">32</text>
  <text x="117.38" y="81.9" text-anchor="middle" dy="0.35em">58</text>
</g>
<g stroke-width="0" stroke="#000000" stroke-opacity="0.000" fill="#40E0D0" id="img-0a3f08ed-4">
  <use xlink:href="#img-0a3f08ed-5" x="54.58" y="170.42"/>
  <use xlink:href="#img-0a3f08ed-5" x="47.86" y="134.54"/>
  <use xlink:href="#img-0a3f08ed-5" x="47.43" y="39.71"/>
  <use xlink:href="#img-0a3f08ed-5" x="48.59" y="159.83"/>
  <use xlink:href="#img-0a3f08ed-5" x="59.03" y="45.23"/>
  <use xlink:href="#img-0a3f08ed-5" x="84.08" y="59.09"/>
  <use xlink:href="#img-0a3f08ed-5" x="97.21" y="67.96"/>
  <use xlink:href="#img-0a3f08ed-5" x="101.44" y="179.82"/>
  <use xlink:href="#img-0a3f08ed-5" x="125.02" y="169.38"/>
  <use xlink:href="#img-0a3f08ed-5" x="131.83" y="153.36"/>
  <use xlink:href="#img-0a3f08ed-5" x="101.15" y="87.79"/>
  <use xlink:href="#img-0a3f08ed-5" x="156.89" y="105.71"/>
  <use xlink:href="#img-0a3f08ed-5" x="164.58" y="94.31"/>
  <use xlink:href="#img-0a3f08ed-5" x="84.08" y="81.81"/>
  <use xlink:href="#img-0a3f08ed-5" x="75.88" y="181.9"/>
  <use xlink:href="#img-0a3f08ed-5" x="63.84" y="178.38"/>
  <use xlink:href="#img-0a3f08ed-5" x="74.77" y="89.03"/>
  <use xlink:href="#img-0a3f08ed-5" x="64.51" y="99.34"/>
  <use xlink:href="#img-0a3f08ed-5" x="56.46" y="110.44"/>
  <use xlink:href="#img-0a3f08ed-5" x="120.81" y="120.18"/>
  <use xlink:href="#img-0a3f08ed-5" x="180.11" y="79.08"/>
  <use xlink:href="#img-0a3f08ed-5" x="183.33" y="83.73"/>
  <use xlink:href="#img-0a3f08ed-5" x="141.76" y="76.8"/>
  <use xlink:href="#img-0a3f08ed-5" x="161.44" y="90.16"/>
  <use xlink:href="#img-0a3f08ed-5" x="25.45" y="41.99"/>
  <use xlink:href="#img-0a3f08ed-5" x="127.91" y="51.31"/>
  <use xlink:href="#img-0a3f08ed-5" x="130.94" y="128.15"/>
  <use xlink:href="#img-0a3f08ed-5" x="143.4" y="135.14"/>
  <use xlink:href="#img-0a3f08ed-5" x="155.69" y="138.91"/>
  <use xlink:href="#img-0a3f08ed-5" x="109.79" y="28.21"/>
  <use xlink:href="#img-0a3f08ed-5" x="16.67" y="41.95"/>
  <use xlink:href="#img-0a3f08ed-5" x="71.46" y="18.05"/>
  <use xlink:href="#img-0a3f08ed-5" x="159.66" y="117.71"/>
  <use xlink:href="#img-0a3f08ed-5" x="20.29" y="37.53"/>
  <use xlink:href="#img-0a3f08ed-5" x="136.51" y="97.24"/>
  <use xlink:href="#img-0a3f08ed-5" x="170.18" y="83.2"/>
  <use xlink:href="#img-0a3f08ed-5" x="113.83" y="172.15"/>
  <use xlink:href="#img-0a3f08ed-5" x="46.81" y="147.28"/>
  <use xlink:href="#img-0a3f08ed-5" x="36.79" y="33.34"/>
  <use xlink:href="#img-0a3f08ed-5" x="71.26" y="51.6"/>
  <use xlink:href="#img-0a3f08ed-5" x="123.84" y="170.19"/>
  <use xlink:href="#img-0a3f08ed-5" x="129.58" y="163.27"/>
  <use xlink:href="#img-0a3f08ed-5" x="134.9" y="142.17"/>
  <use xlink:href="#img-0a3f08ed-5" x="140.44" y="129.82"/>
  <use xlink:href="#img-0a3f08ed-5" x="148.21" y="117.78"/>
  <use xlink:href="#img-0a3f08ed-5" x="106.21" y="99.08"/>
  <use xlink:href="#img-0a3f08ed-5" x="112.61" y="110.26"/>
  <use xlink:href="#img-0a3f08ed-5" x="88.52" y="183.33"/>
  <use xlink:href="#img-0a3f08ed-5" x="174.63" y="87.39"/>
  <use xlink:href="#img-0a3f08ed-5" x="149.11" y="88.02"/>
  <use xlink:href="#img-0a3f08ed-5" x="166.67" y="127.64"/>
  <use xlink:href="#img-0a3f08ed-5" x="36.14" y="37.88"/>
  <use xlink:href="#img-0a3f08ed-5" x="48.98" y="34.46"/>
  <use xlink:href="#img-0a3f08ed-5" x="84.83" y="16.67"/>
  <use xlink:href="#img-0a3f08ed-5" x="165.53" y="136.73"/>
  <use xlink:href="#img-0a3f08ed-5" x="98.15" y="20.22"/>
  <use xlink:href="#img-0a3f08ed-5" x="148.63" y="107.6"/>
  <use xlink:href="#img-0a3f08ed-5" x="110.83" y="76.94"/>
  <use xlink:href="#img-0a3f08ed-5" x="123.92" y="86.85"/>
  <use xlink:href="#img-0a3f08ed-5" x="134.59" y="64.73"/>
  <use xlink:href="#img-0a3f08ed-5" x="94.23" y="80.09"/>
  <use xlink:href="#img-0a3f08ed-5" x="51.93" y="121.83"/>
  <use xlink:href="#img-0a3f08ed-5" x="59.09" y="24.25"/>
  <use xlink:href="#img-0a3f08ed-5" x="119.66" y="39.01"/>
  <use xlink:href="#img-0a3f08ed-5" x="27.06" y="32.91"/>
</g>
<g font-size="4" stroke="#000000" stroke-opacity="0.000" fill="#000000" id="img-0a3f08ed-6">
  <text x="54.58" y="170.42" text-anchor="middle" dy="0.35em">1</text>
  <text x="47.86" y="134.54" text-anchor="middle" dy="0.35em">2</text>
  <text x="47.43" y="39.71" text-anchor="middle" dy="0.35em">3</text>
  <text x="48.59" y="159.83" text-anchor="middle" dy="0.35em">4</text>
  <text x="59.03" y="45.23" text-anchor="middle" dy="0.35em">5</text>
  <text x="84.08" y="59.09" text-anchor="middle" dy="0.35em">6</text>
  <text x="97.21" y="67.96" text-anchor="middle" dy="0.35em">7</text>
  <text x="101.44" y="179.82" text-anchor="middle" dy="0.35em">8</text>
  <text x="125.02" y="169.38" text-anchor="middle" dy="0.35em">9</text>
  <text x="131.83" y="153.36" text-anchor="middle" dy="0.35em">10</text>
  <text x="101.15" y="87.79" text-anchor="middle" dy="0.35em">11</text>
  <text x="156.89" y="105.71" text-anchor="middle" dy="0.35em">12</text>
  <text x="164.58" y="94.31" text-anchor="middle" dy="0.35em">13</text>
  <text x="84.08" y="81.81" text-anchor="middle" dy="0.35em">14</text>
  <text x="75.88" y="181.9" text-anchor="middle" dy="0.35em">15</text>
  <text x="63.84" y="178.38" text-anchor="middle" dy="0.35em">16</text>
  <text x="74.77" y="89.03" text-anchor="middle" dy="0.35em">17</text>
  <text x="64.51" y="99.34" text-anchor="middle" dy="0.35em">18</text>
  <text x="56.46" y="110.44" text-anchor="middle" dy="0.35em">19</text>
  <text x="120.81" y="120.18" text-anchor="middle" dy="0.35em">20</text>
  <text x="180.11" y="79.08" text-anchor="middle" dy="0.35em">21</text>
  <text x="183.33" y="83.73" text-anchor="middle" dy="0.35em">22</text>
  <text x="141.76" y="76.8" text-anchor="middle" dy="0.35em">23</text>
  <text x="161.44" y="90.16" text-anchor="middle" dy="0.35em">24</text>
  <text x="25.45" y="41.99" text-anchor="middle" dy="0.35em">25</text>
  <text x="127.91" y="51.31" text-anchor="middle" dy="0.35em">26</text>
  <text x="130.94" y="128.15" text-anchor="middle" dy="0.35em">27</text>
  <text x="143.4" y="135.14" text-anchor="middle" dy="0.35em">28</text>
  <text x="155.69" y="138.91" text-anchor="middle" dy="0.35em">29</text>
  <text x="109.79" y="28.21" text-anchor="middle" dy="0.35em">30</text>
  <text x="16.67" y="41.95" text-anchor="middle" dy="0.35em">31</text>
  <text x="71.46" y="18.05" text-anchor="middle" dy="0.35em">32</text>
  <text x="159.66" y="117.71" text-anchor="middle" dy="0.35em">33</text>
  <text x="20.29" y="37.53" text-anchor="middle" dy="0.35em">34</text>
  <text x="136.51" y="97.24" text-anchor="middle" dy="0.35em">35</text>
  <text x="170.18" y="83.2" text-anchor="middle" dy="0.35em">36</text>
  <text x="113.83" y="172.15" text-anchor="middle" dy="0.35em">37</text>
  <text x="46.81" y="147.28" text-anchor="middle" dy="0.35em">38</text>
  <text x="36.79" y="33.34" text-anchor="middle" dy="0.35em">39</text>
  <text x="71.26" y="51.6" text-anchor="middle" dy="0.35em">40</text>
  <text x="123.84" y="170.19" text-anchor="middle" dy="0.35em">41</text>
  <text x="129.58" y="163.27" text-anchor="middle" dy="0.35em">42</text>
  <text x="134.9" y="142.17" text-anchor="middle" dy="0.35em">43</text>
  <text x="140.44" y="129.82" text-anchor="middle" dy="0.35em">44</text>
  <text x="148.21" y="117.78" text-anchor="middle" dy="0.35em">45</text>
  <text x="106.21" y="99.08" text-anchor="middle" dy="0.35em">46</text>
  <text x="112.61" y="110.26" text-anchor="middle" dy="0.35em">47</text>
  <text x="88.52" y="183.33" text-anchor="middle" dy="0.35em">48</text>
  <text x="174.63" y="87.39" text-anchor="middle" dy="0.35em">49</text>
  <text x="149.11" y="88.02" text-anchor="middle" dy="0.35em">50</text>
  <text x="166.67" y="127.64" text-anchor="middle" dy="0.35em">51</text>
  <text x="36.14" y="37.88" text-anchor="middle" dy="0.35em">52</text>
  <text x="48.98" y="34.46" text-anchor="middle" dy="0.35em">53</text>
  <text x="84.83" y="16.67" text-anchor="middle" dy="0.35em">54</text>
  <text x="165.53" y="136.73" text-anchor="middle" dy="0.35em">55</text>
  <text x="98.15" y="20.22" text-anchor="middle" dy="0.35em">56</text>
  <text x="148.63" y="107.6" text-anchor="middle" dy="0.35em">57</text>
  <text x="110.83" y="76.94" text-anchor="middle" dy="0.35em">58</text>
  <text x="123.92" y="86.85" text-anchor="middle" dy="0.35em">59</text>
  <text x="134.59" y="64.73" text-anchor="middle" dy="0.35em">60</text>
  <text x="94.23" y="80.09" text-anchor="middle" dy="0.35em">61</text>
  <text x="51.93" y="121.83" text-anchor="middle" dy="0.35em">62</text>
  <text x="59.09" y="24.25" text-anchor="middle" dy="0.35em">63</text>
  <text x="119.66" y="39.01" text-anchor="middle" dy="0.35em">64</text>
  <text x="27.06" y="32.91" text-anchor="middle" dy="0.35em">65</text>
</g>
<defs>
  <g id="img-0a3f08ed-5">
    <circle cx="0" cy="0" r="2.48"/>
  </g>
</defs>
</svg>
