<?xml version="1.0" encoding="UTF-8"?>
<svg xmlns="http://www.w3.org/2000/svg"
     xmlns:xlink="http://www.w3.org/1999/xlink"
     version="1.2"
     width="200mm" height="200mm" viewBox="0 0 200 200"
     stroke="none"
     fill="#000000"
     stroke-width="0.3"
     font-size="3.88"
>
<g stroke-width="0.4" fill="#000000" fill-opacity="0.000" stroke="#D3D3D3" id="img-84a125f0-1">
  <path fill="none" d="M147.06,65.66 L 151.26 78.08"/>
  <path fill="none" d="M144.63,60.7 L 137.1 49.31"/>
  <path fill="none" d="M100.24,181.94 L 93.45 178"/>
  <path fill="none" d="M105.42,183.07 L 114.76 182.18"/>
  <path fill="none" d="M119.05,35.7 L 107.88 32.77"/>
  <path fill="none" d="M123.96,38.11 L 133.35 45.3"/>
  <path fill="none" d="M90.45,173.88 L 89.03 167.24"/>
  <path fill="none" d="M67.28,43.6 L 60.09 49.01"/>
  <path fill="none" d="M72.07,40.85 L 84.97 35.45"/>
  <path fill="none" d="M57.32,53.42 L 55.92 60.48"/>
  <path fill="none" d="M57.99,64.18 L 59.78 64.85"/>
  <path fill="none" d="M64.78,64.38 L 70.76 60.8"/>
  <path fill="none" d="M70.98,49.3 L 72.56 56.65"/>
  <path fill="none" d="M68.64,44.42 L 60.41 34.26"/>
  <path fill="none" d="M50.97,21.48 L 57.03 29.84"/>
  <path fill="none" d="M46.73,18.27 L 44.96 17.62"/>
  <path fill="none" d="M28.42,102.4 L 37.52 94.4"/>
  <path fill="none" d="M24.76,106.54 L 19.34 114.52"/>
  <path fill="none" d="M51.65,21.94 L 55.18 19.66"/>
  <path fill="none" d="M47.32,21.51 L 44.34 18.61"/>
  <path fill="none" d="M23.43,137.22 L 18.59 132.15"/>
  <path fill="none" d="M28.1,139.67 L 36.94 141.05"/>
  <path fill="none" d="M102.43,32.42 L 90.3 34.01"/>
  <path fill="none" d="M16.9,127.36 L 17.54 119.6"/>
  <path fill="none" d="M42.42,140.96 L 53.55 138.87"/>
  <path fill="none" d="M58.93,137.5 L 67.76 134.61"/>
  <path fill="none" d="M72.9,132.52 L 82.42 127.85"/>
  <path fill="none" d="M62.8,65.26 L 53.4 76.48"/>
  <path fill="none" d="M65.17,60.41 L 67.92 47.71"/>
  <path fill="none" d="M59.09,20.44 L 63.03 26.2"/>
  <path fill="none" d="M65.25,31.21 L 67.87 42.28"/>
  <path fill="none" d="M141.2,62.52 L 137.28 68.45"/>
  <path fill="none" d="M145.52,60.08 L 151.27 59.82"/>
  <path fill="none" d="M129.57,80.72 L 134.27 73.14"/>
  <path fill="none" d="M126.51,85.38 L 121.19 93.06"/>
  <path fill="none" d="M167.49,66.4 L 156.54 60.94"/>
  <path fill="none" d="M171.74,69.8 L 178.97 78.72"/>
  <path fill="none" d="M108.17,109.13 L 100.83 115.94"/>
  <path fill="none" d="M111.93,105.06 L 117.88 97.53"/>
  <path fill="none" d="M96.44,119.32 L 87.27 125.13"/>
  <path fill="none" d="M152.65,83.46 L 154.88 95.66"/>
  <path fill="none" d="M182.38,99.68 L 178.46 110.46"/>
  <path fill="none" d="M182.89,94.31 L 181.17 83.63"/>
  <path fill="none" d="M125.44,154.59 L 116.09 157.11"/>
  <path fill="none" d="M130.43,152.3 L 139.15 146.38"/>
  <path fill="none" d="M155.39,101.18 L 155.43 112.73"/>
  <path fill="none" d="M153.18,138.71 L 162.99 128.54"/>
  <path fill="none" d="M149.73,143.05 L 142.16 154.74"/>
  <path fill="none" d="M100.94,157.03 L 110.63 157.65"/>
  <path fill="none" d="M95.98,158.58 L 90.63 162.8"/>
  <path fill="none" d="M119.73,180.21 L 128.13 173.7"/>
  <path fill="none" d="M41.42,90.46 L 49.79 80.72"/>
  <path fill="none" d="M151.5,128.71 L 154.65 118.18"/>
  <path fill="none" d="M149.12,133.67 L 143.03 142.52"/>
  <path fill="none" d="M166.83,124.51 L 175.61 115.11"/>
  <path fill="none" d="M139.07,159.36 L 131.91 169.7"/>
</g>
<g stroke-width="0.4" stroke="#D3D3D3" id="img-84a125f0-2">
</g>
<g font-size="4" stroke="#000000" stroke-opacity="0.000" fill="#000000" id="img-84a125f0-3">
  <text x="149.16" y="71.87" text-anchor="middle" dy="0.35em">16</text>
  <text x="140.87" y="55.01" text-anchor="middle" dy="0.35em">53</text>
  <text x="96.84" y="179.97" text-anchor="middle" dy="0.35em">63</text>
  <text x="110.09" y="182.62" text-anchor="middle" dy="0.35em">30</text>
  <text x="113.47" y="34.24" text-anchor="middle" dy="0.35em">216</text>
  <text x="128.65" y="41.7" text-anchor="middle" dy="0.35em">19</text>
  <text x="89.74" y="170.56" text-anchor="middle" dy="0.35em">22</text>
  <text x="63.68" y="46.31" text-anchor="middle" dy="0.35em">60</text>
  <text x="78.52" y="38.15" text-anchor="middle" dy="0.35em">38</text>
  <text x="56.62" y="56.95" text-anchor="middle" dy="0.35em">31</text>
  <text x="58.89" y="64.51" text-anchor="middle" dy="0.35em">68</text>
  <text x="67.77" y="62.59" text-anchor="middle" dy="0.35em">27</text>
  <text x="71.77" y="52.98" text-anchor="middle" dy="0.35em">7</text>
  <text x="64.52" y="39.34" text-anchor="middle" dy="0.35em">37</text>
  <text x="54" y="25.66" text-anchor="middle" dy="0.35em">11</text>
  <text x="45.84" y="17.95" text-anchor="middle" dy="0.35em">21</text>
  <text x="32.97" y="98.4" text-anchor="middle" dy="0.35em">29</text>
  <text x="22.05" y="110.53" text-anchor="middle" dy="0.35em">6</text>
  <text x="53.42" y="20.8" text-anchor="middle" dy="0.35em">104</text>
  <text x="45.83" y="20.06" text-anchor="middle" dy="0.35em">71</text>
  <text x="21.01" y="134.68" text-anchor="middle" dy="0.35em">25</text>
  <text x="32.52" y="140.36" text-anchor="middle" dy="0.35em">31</text>
  <text x="96.37" y="33.22" text-anchor="middle" dy="0.35em">117</text>
  <text x="17.22" y="123.48" text-anchor="middle" dy="0.35em">23</text>
  <text x="47.98" y="139.92" text-anchor="middle" dy="0.35em">7</text>
  <text x="63.34" y="136.05" text-anchor="middle" dy="0.35em">9</text>
  <text x="77.66" y="130.18" text-anchor="middle" dy="0.35em">25</text>
  <text x="58.1" y="70.87" text-anchor="middle" dy="0.35em">90</text>
  <text x="66.55" y="54.06" text-anchor="middle" dy="0.35em">56</text>
  <text x="61.06" y="23.32" text-anchor="middle" dy="0.35em">57</text>
  <text x="66.56" y="36.74" text-anchor="middle" dy="0.35em">12</text>
  <text x="139.24" y="65.49" text-anchor="middle" dy="0.35em">10</text>
  <text x="148.39" y="59.95" text-anchor="middle" dy="0.35em">53</text>
  <text x="131.92" y="76.93" text-anchor="middle" dy="0.35em">29</text>
  <text x="123.85" y="89.22" text-anchor="middle" dy="0.35em">53</text>
  <text x="162.02" y="63.67" text-anchor="middle" dy="0.35em">17</text>
  <text x="175.35" y="74.26" text-anchor="middle" dy="0.35em">45</text>
  <text x="104.5" y="112.54" text-anchor="middle" dy="0.35em">20</text>
  <text x="114.91" y="101.29" text-anchor="middle" dy="0.35em">99</text>
  <text x="91.85" y="122.23" text-anchor="middle" dy="0.35em">17</text>
  <text x="153.77" y="89.56" text-anchor="middle" dy="0.35em">36</text>
  <text x="180.42" y="105.07" text-anchor="middle" dy="0.35em">52</text>
  <text x="182.03" y="88.97" text-anchor="middle" dy="0.35em">14</text>
  <text x="120.77" y="155.85" text-anchor="middle" dy="0.35em">105</text>
  <text x="134.79" y="149.34" text-anchor="middle" dy="0.35em">70</text>
  <text x="155.41" y="106.95" text-anchor="middle" dy="0.35em">37</text>
  <text x="158.08" y="133.63" text-anchor="middle" dy="0.35em">26</text>
  <text x="145.95" y="148.89" text-anchor="middle" dy="0.35em">127</text>
  <text x="105.79" y="157.34" text-anchor="middle" dy="0.35em">61</text>
  <text x="93.3" y="160.69" text-anchor="middle" dy="0.35em">29</text>
  <text x="123.93" y="176.95" text-anchor="middle" dy="0.35em">8</text>
  <text x="45.61" y="85.59" text-anchor="middle" dy="0.35em">18</text>
  <text x="153.07" y="123.44" text-anchor="middle" dy="0.35em">51</text>
  <text x="146.08" y="138.1" text-anchor="middle" dy="0.35em">26</text>
  <text x="171.22" y="119.81" text-anchor="middle" dy="0.35em">39</text>
  <text x="135.49" y="164.53" text-anchor="middle" dy="0.35em">45</text>
</g>
<g stroke-width="0" stroke="#000000" stroke-opacity="0.000" fill="#40E0D0" id="img-84a125f0-4">
  <use xlink:href="#img-84a125f0-5" x="146.17" y="63.02"/>
  <use xlink:href="#img-84a125f0-5" x="102.65" y="183.33"/>
  <use xlink:href="#img-84a125f0-5" x="121.75" y="36.41"/>
  <use xlink:href="#img-84a125f0-5" x="91.04" y="176.61"/>
  <use xlink:href="#img-84a125f0-5" x="69.51" y="41.93"/>
  <use xlink:href="#img-84a125f0-5" x="57.86" y="50.69"/>
  <use xlink:href="#img-84a125f0-5" x="55.38" y="63.21"/>
  <use xlink:href="#img-84a125f0-5" x="62.39" y="65.82"/>
  <use xlink:href="#img-84a125f0-5" x="70.39" y="46.58"/>
  <use xlink:href="#img-84a125f0-5" x="49.34" y="19.23"/>
  <use xlink:href="#img-84a125f0-5" x="26.33" y="104.24"/>
  <use xlink:href="#img-84a125f0-5" x="49.32" y="23.45"/>
  <use xlink:href="#img-84a125f0-5" x="25.35" y="139.24"/>
  <use xlink:href="#img-84a125f0-5" x="105.19" y="32.06"/>
  <use xlink:href="#img-84a125f0-5" x="16.67" y="130.13"/>
  <use xlink:href="#img-84a125f0-5" x="39.69" y="141.47"/>
  <use xlink:href="#img-84a125f0-5" x="56.28" y="138.36"/>
  <use xlink:href="#img-84a125f0-5" x="70.4" y="133.74"/>
  <use xlink:href="#img-84a125f0-5" x="64.58" y="63.13"/>
  <use xlink:href="#img-84a125f0-5" x="57.51" y="18.14"/>
  <use xlink:href="#img-84a125f0-5" x="64.61" y="28.5"/>
  <use xlink:href="#img-84a125f0-5" x="142.74" y="60.2"/>
  <use xlink:href="#img-84a125f0-5" x="128.1" y="83.09"/>
  <use xlink:href="#img-84a125f0-5" x="169.99" y="67.64"/>
  <use xlink:href="#img-84a125f0-5" x="110.21" y="107.24"/>
  <use xlink:href="#img-84a125f0-5" x="98.79" y="117.83"/>
  <use xlink:href="#img-84a125f0-5" x="152.15" y="80.72"/>
  <use xlink:href="#img-84a125f0-5" x="183.33" y="97.06"/>
  <use xlink:href="#img-84a125f0-5" x="128.13" y="153.86"/>
  <use xlink:href="#img-84a125f0-5" x="155.39" y="98.39"/>
  <use xlink:href="#img-84a125f0-5" x="151.24" y="140.72"/>
  <use xlink:href="#img-84a125f0-5" x="98.17" y="156.85"/>
  <use xlink:href="#img-84a125f0-5" x="73.14" y="59.37"/>
  <use xlink:href="#img-84a125f0-5" x="135.56" y="46.99"/>
  <use xlink:href="#img-84a125f0-5" x="117.53" y="181.92"/>
  <use xlink:href="#img-84a125f0-5" x="87.54" y="34.37"/>
  <use xlink:href="#img-84a125f0-5" x="58.66" y="32.1"/>
  <use xlink:href="#img-84a125f0-5" x="42.35" y="16.67"/>
  <use xlink:href="#img-84a125f0-5" x="39.61" y="92.57"/>
  <use xlink:href="#img-84a125f0-5" x="51.61" y="78.61"/>
  <use xlink:href="#img-84a125f0-5" x="68.51" y="44.99"/>
  <use xlink:href="#img-84a125f0-5" x="135.74" y="70.77"/>
  <use xlink:href="#img-84a125f0-5" x="119.61" y="95.35"/>
  <use xlink:href="#img-84a125f0-5" x="150.7" y="131.38"/>
  <use xlink:href="#img-84a125f0-5" x="155.44" y="115.51"/>
  <use xlink:href="#img-84a125f0-5" x="164.93" y="126.54"/>
  <use xlink:href="#img-84a125f0-5" x="140.65" y="157.07"/>
  <use xlink:href="#img-84a125f0-5" x="113.4" y="157.83"/>
  <use xlink:href="#img-84a125f0-5" x="88.44" y="164.52"/>
  <use xlink:href="#img-84a125f0-5" x="177.51" y="113.07"/>
  <use xlink:href="#img-84a125f0-5" x="154.05" y="59.7"/>
  <use xlink:href="#img-84a125f0-5" x="17.77" y="116.83"/>
  <use xlink:href="#img-84a125f0-5" x="84.92" y="126.62"/>
  <use xlink:href="#img-84a125f0-5" x="141.45" y="144.81"/>
  <use xlink:href="#img-84a125f0-5" x="180.72" y="80.89"/>
  <use xlink:href="#img-84a125f0-5" x="130.33" y="171.99"/>
</g>
<g font-size="4" stroke="#000000" stroke-opacity="0.000" fill="#000000" id="img-84a125f0-6">
  <text x="146.17" y="63.02" text-anchor="middle" dy="0.35em">1</text>
  <text x="102.65" y="183.33" text-anchor="middle" dy="0.35em">2</text>
  <text x="121.75" y="36.41" text-anchor="middle" dy="0.35em">3</text>
  <text x="91.04" y="176.61" text-anchor="middle" dy="0.35em">4</text>
  <text x="69.51" y="41.93" text-anchor="middle" dy="0.35em">5</text>
  <text x="57.86" y="50.69" text-anchor="middle" dy="0.35em">6</text>
  <text x="55.38" y="63.21" text-anchor="middle" dy="0.35em">7</text>
  <text x="62.39" y="65.82" text-anchor="middle" dy="0.35em">8</text>
  <text x="70.39" y="46.58" text-anchor="middle" dy="0.35em">9</text>
  <text x="49.34" y="19.23" text-anchor="middle" dy="0.35em">10</text>
  <text x="26.33" y="104.24" text-anchor="middle" dy="0.35em">11</text>
  <text x="49.32" y="23.45" text-anchor="middle" dy="0.35em">12</text>
  <text x="25.35" y="139.24" text-anchor="middle" dy="0.35em">13</text>
  <text x="105.19" y="32.06" text-anchor="middle" dy="0.35em">14</text>
  <text x="16.67" y="130.13" text-anchor="middle" dy="0.35em">15</text>
  <text x="39.69" y="141.47" text-anchor="middle" dy="0.35em">16</text>
  <text x="56.28" y="138.36" text-anchor="middle" dy="0.35em">17</text>
  <text x="70.4" y="133.74" text-anchor="middle" dy="0.35em">18</text>
  <text x="64.58" y="63.13" text-anchor="middle" dy="0.35em">19</text>
  <text x="57.51" y="18.14" text-anchor="middle" dy="0.35em">20</text>
  <text x="64.61" y="28.5" text-anchor="middle" dy="0.35em">21</text>
  <text x="142.74" y="60.2" text-anchor="middle" dy="0.35em">22</text>
  <text x="128.1" y="83.09" text-anchor="middle" dy="0.35em">23</text>
  <text x="169.99" y="67.64" text-anchor="middle" dy="0.35em">24</text>
  <text x="110.21" y="107.24" text-anchor="middle" dy="0.35em">25</text>
  <text x="98.79" y="117.83" text-anchor="middle" dy="0.35em">26</text>
  <text x="152.15" y="80.72" text-anchor="middle" dy="0.35em">27</text>
  <text x="183.33" y="97.06" text-anchor="middle" dy="0.35em">28</text>
  <text x="128.13" y="153.86" text-anchor="middle" dy="0.35em">29</text>
  <text x="155.39" y="98.39" text-anchor="middle" dy="0.35em">30</text>
  <text x="151.24" y="140.72" text-anchor="middle" dy="0.35em">31</text>
  <text x="98.17" y="156.85" text-anchor="middle" dy="0.35em">32</text>
  <text x="73.14" y="59.37" text-anchor="middle" dy="0.35em">33</text>
  <text x="135.56" y="46.99" text-anchor="middle" dy="0.35em">34</text>
  <text x="117.53" y="181.92" text-anchor="middle" dy="0.35em">35</text>
  <text x="87.54" y="34.37" text-anchor="middle" dy="0.35em">36</text>
  <text x="58.66" y="32.1" text-anchor="middle" dy="0.35em">37</text>
  <text x="42.35" y="16.67" text-anchor="middle" dy="0.35em">38</text>
  <text x="39.61" y="92.57" text-anchor="middle" dy="0.35em">39</text>
  <text x="51.61" y="78.61" text-anchor="middle" dy="0.35em">40</text>
  <text x="68.51" y="44.99" text-anchor="middle" dy="0.35em">41</text>
  <text x="135.74" y="70.77" text-anchor="middle" dy="0.35em">42</text>
  <text x="119.61" y="95.35" text-anchor="middle" dy="0.35em">43</text>
  <text x="150.7" y="131.38" text-anchor="middle" dy="0.35em">44</text>
  <text x="155.44" y="115.51" text-anchor="middle" dy="0.35em">45</text>
  <text x="164.93" y="126.54" text-anchor="middle" dy="0.35em">46</text>
  <text x="140.65" y="157.07" text-anchor="middle" dy="0.35em">47</text>
  <text x="113.4" y="157.83" text-anchor="middle" dy="0.35em">48</text>
  <text x="88.44" y="164.52" text-anchor="middle" dy="0.35em">49</text>
  <text x="177.51" y="113.07" text-anchor="middle" dy="0.35em">50</text>
  <text x="154.05" y="59.7" text-anchor="middle" dy="0.35em">51</text>
  <text x="17.77" y="116.83" text-anchor="middle" dy="0.35em">52</text>
  <text x="84.92" y="126.62" text-anchor="middle" dy="0.35em">53</text>
  <text x="141.45" y="144.81" text-anchor="middle" dy="0.35em">54</text>
  <text x="180.72" y="80.89" text-anchor="middle" dy="0.35em">55</text>
  <text x="130.33" y="171.99" text-anchor="middle" dy="0.35em">56</text>
</g>
<defs>
  <g id="img-84a125f0-5">
    <circle cx="0" cy="0" r="2.67"/>
  </g>
</defs>
</svg>
