<?xml version="1.0" encoding="UTF-8"?>
<svg xmlns="http://www.w3.org/2000/svg"
     xmlns:xlink="http://www.w3.org/1999/xlink"
     version="1.2"
     width="200mm" height="200mm" viewBox="0 0 200 200"
     stroke="none"
     fill="#000000"
     stroke-width="0.3"
     font-size="3.88"
>
<g stroke-width="0.43" fill="#000000" fill-opacity="0.000" stroke="#D3D3D3" id="img-3ec6c35e-1">
  <path fill="none" d="M20.13,138.75 L 17.57 130.6"/>
  <path fill="none" d="M23.29,143.6 L 29.96 149.48"/>
  <path fill="none" d="M92.09,54.9 L 101.1 61.5"/>
  <path fill="none" d="M87.03,51.67 L 76.03 45.61"/>
  <path fill="none" d="M83.9,180.47 L 81.91 174.37"/>
  <path fill="none" d="M87.73,182.55 L 90.25 181.88"/>
  <path fill="none" d="M47.63,33.17 L 55.64 35.87"/>
  <path fill="none" d="M47.69,32.99 L 45.55 32.41"/>
  <path fill="none" d="M114.46,71.79 L 105.9 65.12"/>
  <path fill="none" d="M119.1,75.61 L 126.19 81.74"/>
  <path fill="none" d="M53.86,77.03 L 65.51 72.31"/>
  <path fill="none" d="M48.58,79.83 L 39.93 85.65"/>
  <path fill="none" d="M167.47,121.24 L 159.55 113.51"/>
  <path fill="none" d="M172.05,125.12 L 177.55 129.14"/>
  <path fill="none" d="M17.34,124.8 L 19.39 115.92"/>
  <path fill="none" d="M35.1,152.33 L 45.08 155.31"/>
  <path fill="none" d="M64.08,18.67 L 68.92 23"/>
  <path fill="none" d="M59.27,18.22 L 55.08 20.75"/>
  <path fill="none" d="M90.28,167.91 L 81.77 165.56"/>
  <path fill="none" d="M93.17,171.72 L 93.16 178.09"/>
  <path fill="none" d="M76.26,163.27 L 68.16 158.7"/>
  <path fill="none" d="M77.55,62.56 L 76.98 77.31"/>
  <path fill="none" d="M77.53,56.55 L 76.92 43.14"/>
  <path fill="none" d="M76.56,97.15 L 76.81 83.32"/>
  <path fill="none" d="M76.57,103.16 L 76.86 116.59"/>
  <path fill="none" d="M62.54,157.04 L 50.97 156.35"/>
  <path fill="none" d="M79.83,158.35 L 80.72 168.52"/>
  <path fill="none" d="M79.3,152.35 L 78.29 140.84"/>
  <path fill="none" d="M105.36,61.02 L 91.15 64.75"/>
  <path fill="none" d="M111.28,60.31 L 124.38 60.54"/>
  <path fill="none" d="M157.76,108.42 L 159.1 97.44"/>
  <path fill="none" d="M71.19,70.36 L 85.35 66.33"/>
  <path fill="none" d="M169.97,117.64 L 177.24 118.61"/>
  <path fill="none" d="M164,116.88 L 155.42 115.83"/>
  <path fill="none" d="M143.85,102.88 L 139.79 97.05"/>
  <path fill="none" d="M147.26,107.83 L 150.75 112.98"/>
  <path fill="none" d="M72.21,27.82 L 75.74 37.32"/>
  <path fill="none" d="M61.18,38.15 L 70.69 42.83"/>
  <path fill="none" d="M158.63,91.57 L 155.74 81.64"/>
  <path fill="none" d="M152.84,76.57 L 145.73 69.07"/>
  <path fill="none" d="M27.94,101.56 L 21.77 110.51"/>
  <path fill="none" d="M31.31,96.58 L 35.77 89.83"/>
  <path fill="none" d="M181.55,121.7 L 182 122.62"/>
  <path fill="none" d="M77.11,122.6 L 77.85 134.84"/>
  <path fill="none" d="M49.5,30.38 L 51.46 25.13"/>
  <path fill="none" d="M181.52,128.33 L 181.79 127.89"/>
  <path fill="none" d="M140.86,65.81 L 130.19 61.68"/>
  <path fill="none" d="M136.08,92.33 L 130.45 85.97"/>
</g>
<g stroke-width="0.43" stroke="#D3D3D3" id="img-3ec6c35e-2">
</g>
<g font-size="4" stroke="#000000" stroke-opacity="0.000" fill="#000000" id="img-3ec6c35e-3">
  <text x="18.85" y="134.67" text-anchor="middle" dy="0.35em">190</text>
  <text x="26.63" y="146.54" text-anchor="middle" dy="0.35em">217</text>
  <text x="96.6" y="58.2" text-anchor="middle" dy="0.35em">503</text>
  <text x="81.53" y="48.64" text-anchor="middle" dy="0.35em">598</text>
  <text x="82.9" y="177.42" text-anchor="middle" dy="0.35em">317</text>
  <text x="88.99" y="182.22" text-anchor="middle" dy="0.35em">345</text>
  <text x="51.63" y="34.52" text-anchor="middle" dy="0.35em">298</text>
  <text x="46.62" y="32.7" text-anchor="middle" dy="0.35em">516</text>
  <text x="110.18" y="68.46" text-anchor="middle" dy="0.35em">375</text>
  <text x="122.65" y="78.68" text-anchor="middle" dy="0.35em">248</text>
  <text x="59.68" y="74.67" text-anchor="middle" dy="0.35em">125</text>
  <text x="44.25" y="82.74" text-anchor="middle" dy="0.35em">520</text>
  <text x="163.51" y="117.38" text-anchor="middle" dy="0.35em">196</text>
  <text x="174.8" y="127.13" text-anchor="middle" dy="0.35em">179</text>
  <text x="18.37" y="120.36" text-anchor="middle" dy="0.35em">329</text>
  <text x="40.09" y="153.82" text-anchor="middle" dy="0.35em">237</text>
  <text x="66.5" y="20.83" text-anchor="middle" dy="0.35em">352</text>
  <text x="57.17" y="19.49" text-anchor="middle" dy="0.35em">594</text>
  <text x="86.03" y="166.73" text-anchor="middle" dy="0.35em">366</text>
  <text x="93.17" y="174.91" text-anchor="middle" dy="0.35em">251</text>
  <text x="72.21" y="160.99" text-anchor="middle" dy="0.35em">220</text>
  <text x="77.26" y="69.93" text-anchor="middle" dy="0.35em">184</text>
  <text x="77.23" y="49.84" text-anchor="middle" dy="0.35em">675</text>
  <text x="76.68" y="90.23" text-anchor="middle" dy="0.35em">228</text>
  <text x="76.72" y="109.88" text-anchor="middle" dy="0.35em">352</text>
  <text x="56.75" y="156.7" text-anchor="middle" dy="0.35em">196</text>
  <text x="80.27" y="163.43" text-anchor="middle" dy="0.35em">328</text>
  <text x="78.8" y="146.6" text-anchor="middle" dy="0.35em">567</text>
  <text x="98.26" y="62.89" text-anchor="middle" dy="0.35em">298</text>
  <text x="117.83" y="60.43" text-anchor="middle" dy="0.35em">250</text>
  <text x="158.43" y="102.93" text-anchor="middle" dy="0.35em">163</text>
  <text x="78.27" y="68.35" text-anchor="middle" dy="0.35em">75</text>
  <text x="173.6" y="118.13" text-anchor="middle" dy="0.35em">236</text>
  <text x="159.71" y="116.36" text-anchor="middle" dy="0.35em">250</text>
  <text x="141.82" y="99.97" text-anchor="middle" dy="0.35em">382</text>
  <text x="149" y="110.41" text-anchor="middle" dy="0.35em">274</text>
  <text x="73.98" y="32.57" text-anchor="middle" dy="0.35em">534</text>
  <text x="65.94" y="40.49" text-anchor="middle" dy="0.35em">569</text>
  <text x="157.19" y="86.6" text-anchor="middle" dy="0.35em">247</text>
  <text x="149.28" y="72.82" text-anchor="middle" dy="0.35em">237</text>
  <text x="24.86" y="106.03" text-anchor="middle" dy="0.35em">313</text>
  <text x="33.54" y="93.2" text-anchor="middle" dy="0.35em">197</text>
  <text x="181.78" y="122.16" text-anchor="middle" dy="0.35em">152</text>
  <text x="77.48" y="128.72" text-anchor="middle" dy="0.35em">496</text>
  <text x="50.48" y="27.75" text-anchor="middle" dy="0.35em">324</text>
  <text x="181.65" y="128.11" text-anchor="middle" dy="0.35em">377</text>
  <text x="135.53" y="63.74" text-anchor="middle" dy="0.35em">212</text>
  <text x="133.27" y="89.15" text-anchor="middle" dy="0.35em">346</text>
</g>
<g stroke-width="0" stroke="#000000" stroke-opacity="0.000" fill="#40E0D0" id="img-3ec6c35e-4">
  <use xlink:href="#img-3ec6c35e-5" x="21.04" y="141.62"/>
  <use xlink:href="#img-3ec6c35e-5" x="89.66" y="53.12"/>
  <use xlink:href="#img-3ec6c35e-5" x="84.83" y="183.33"/>
  <use xlink:href="#img-3ec6c35e-5" x="44.78" y="32.2"/>
  <use xlink:href="#img-3ec6c35e-5" x="116.83" y="73.64"/>
  <use xlink:href="#img-3ec6c35e-5" x="51.07" y="78.16"/>
  <use xlink:href="#img-3ec6c35e-5" x="169.62" y="123.34"/>
  <use xlink:href="#img-3ec6c35e-5" x="16.67" y="127.73"/>
  <use xlink:href="#img-3ec6c35e-5" x="32.22" y="151.47"/>
  <use xlink:href="#img-3ec6c35e-5" x="61.84" y="16.67"/>
  <use xlink:href="#img-3ec6c35e-5" x="93.18" y="168.72"/>
  <use xlink:href="#img-3ec6c35e-5" x="78.88" y="164.75"/>
  <use xlink:href="#img-3ec6c35e-5" x="77.67" y="59.55"/>
  <use xlink:href="#img-3ec6c35e-5" x="76.51" y="100.16"/>
  <use xlink:href="#img-3ec6c35e-5" x="65.54" y="157.22"/>
  <use xlink:href="#img-3ec6c35e-5" x="79.56" y="155.35"/>
  <use xlink:href="#img-3ec6c35e-5" x="108.27" y="60.26"/>
  <use xlink:href="#img-3ec6c35e-5" x="157.39" y="111.41"/>
  <use xlink:href="#img-3ec6c35e-5" x="68.29" y="71.19"/>
  <use xlink:href="#img-3ec6c35e-5" x="166.98" y="117.25"/>
  <use xlink:href="#img-3ec6c35e-5" x="145.57" y="105.35"/>
  <use xlink:href="#img-3ec6c35e-5" x="80.98" y="171.51"/>
  <use xlink:href="#img-3ec6c35e-5" x="93.16" y="181.1"/>
  <use xlink:href="#img-3ec6c35e-5" x="71.17" y="25"/>
  <use xlink:href="#img-3ec6c35e-5" x="76.86" y="80.31"/>
  <use xlink:href="#img-3ec6c35e-5" x="58.48" y="36.83"/>
  <use xlink:href="#img-3ec6c35e-5" x="88.24" y="65.51"/>
  <use xlink:href="#img-3ec6c35e-5" x="159.47" y="94.45"/>
  <use xlink:href="#img-3ec6c35e-5" x="103.53" y="63.28"/>
  <use xlink:href="#img-3ec6c35e-5" x="154.91" y="78.75"/>
  <use xlink:href="#img-3ec6c35e-5" x="29.65" y="99.08"/>
  <use xlink:href="#img-3ec6c35e-5" x="76.79" y="40.14"/>
  <use xlink:href="#img-3ec6c35e-5" x="180.22" y="119.01"/>
  <use xlink:href="#img-3ec6c35e-5" x="76.93" y="119.6"/>
  <use xlink:href="#img-3ec6c35e-5" x="48.45" y="33.2"/>
  <use xlink:href="#img-3ec6c35e-5" x="179.98" y="130.91"/>
  <use xlink:href="#img-3ec6c35e-5" x="143.66" y="66.89"/>
  <use xlink:href="#img-3ec6c35e-5" x="20.07" y="112.99"/>
  <use xlink:href="#img-3ec6c35e-5" x="138.08" y="94.58"/>
  <use xlink:href="#img-3ec6c35e-5" x="47.96" y="156.18"/>
  <use xlink:href="#img-3ec6c35e-5" x="78.03" y="137.85"/>
  <use xlink:href="#img-3ec6c35e-5" x="73.39" y="44.16"/>
  <use xlink:href="#img-3ec6c35e-5" x="127.39" y="60.6"/>
  <use xlink:href="#img-3ec6c35e-5" x="37.43" y="87.32"/>
  <use xlink:href="#img-3ec6c35e-5" x="52.5" y="22.31"/>
  <use xlink:href="#img-3ec6c35e-5" x="183.33" y="125.32"/>
  <use xlink:href="#img-3ec6c35e-5" x="152.43" y="115.46"/>
  <use xlink:href="#img-3ec6c35e-5" x="128.46" y="83.71"/>
</g>
<g font-size="4" stroke="#000000" stroke-opacity="0.000" fill="#000000" id="img-3ec6c35e-6">
  <text x="21.04" y="141.62" text-anchor="middle" dy="0.35em">1</text>
  <text x="89.66" y="53.12" text-anchor="middle" dy="0.35em">2</text>
  <text x="84.83" y="183.33" text-anchor="middle" dy="0.35em">3</text>
  <text x="44.78" y="32.2" text-anchor="middle" dy="0.35em">4</text>
  <text x="116.83" y="73.64" text-anchor="middle" dy="0.35em">5</text>
  <text x="51.07" y="78.16" text-anchor="middle" dy="0.35em">6</text>
  <text x="169.62" y="123.34" text-anchor="middle" dy="0.35em">7</text>
  <text x="16.67" y="127.73" text-anchor="middle" dy="0.35em">8</text>
  <text x="32.22" y="151.47" text-anchor="middle" dy="0.35em">9</text>
  <text x="61.84" y="16.67" text-anchor="middle" dy="0.35em">10</text>
  <text x="93.18" y="168.72" text-anchor="middle" dy="0.35em">11</text>
  <text x="78.88" y="164.75" text-anchor="middle" dy="0.35em">12</text>
  <text x="77.67" y="59.55" text-anchor="middle" dy="0.35em">13</text>
  <text x="76.51" y="100.16" text-anchor="middle" dy="0.35em">14</text>
  <text x="65.54" y="157.22" text-anchor="middle" dy="0.35em">15</text>
  <text x="79.56" y="155.35" text-anchor="middle" dy="0.35em">16</text>
  <text x="108.27" y="60.26" text-anchor="middle" dy="0.35em">17</text>
  <text x="157.39" y="111.41" text-anchor="middle" dy="0.35em">18</text>
  <text x="68.29" y="71.19" text-anchor="middle" dy="0.35em">19</text>
  <text x="166.98" y="117.25" text-anchor="middle" dy="0.35em">20</text>
  <text x="145.57" y="105.35" text-anchor="middle" dy="0.35em">21</text>
  <text x="80.98" y="171.51" text-anchor="middle" dy="0.35em">22</text>
  <text x="93.16" y="181.1" text-anchor="middle" dy="0.35em">23</text>
  <text x="71.17" y="25" text-anchor="middle" dy="0.35em">24</text>
  <text x="76.86" y="80.31" text-anchor="middle" dy="0.35em">25</text>
  <text x="58.48" y="36.83" text-anchor="middle" dy="0.35em">26</text>
  <text x="88.24" y="65.51" text-anchor="middle" dy="0.35em">27</text>
  <text x="159.47" y="94.45" text-anchor="middle" dy="0.35em">28</text>
  <text x="103.53" y="63.28" text-anchor="middle" dy="0.35em">29</text>
  <text x="154.91" y="78.75" text-anchor="middle" dy="0.35em">30</text>
  <text x="29.65" y="99.08" text-anchor="middle" dy="0.35em">31</text>
  <text x="76.79" y="40.14" text-anchor="middle" dy="0.35em">32</text>
  <text x="180.22" y="119.01" text-anchor="middle" dy="0.35em">33</text>
  <text x="76.93" y="119.6" text-anchor="middle" dy="0.35em">34</text>
  <text x="48.45" y="33.2" text-anchor="middle" dy="0.35em">35</text>
  <text x="179.98" y="130.91" text-anchor="middle" dy="0.35em">36</text>
  <text x="143.66" y="66.89" text-anchor="middle" dy="0.35em">37</text>
  <text x="20.07" y="112.99" text-anchor="middle" dy="0.35em">38</text>
  <text x="138.08" y="94.58" text-anchor="middle" dy="0.35em">39</text>
  <text x="47.96" y="156.18" text-anchor="middle" dy="0.35em">40</text>
  <text x="78.03" y="137.85" text-anchor="middle" dy="0.35em">41</text>
  <text x="73.39" y="44.16" text-anchor="middle" dy="0.35em">42</text>
  <text x="127.39" y="60.6" text-anchor="middle" dy="0.35em">43</text>
  <text x="37.43" y="87.32" text-anchor="middle" dy="0.35em">44</text>
  <text x="52.5" y="22.31" text-anchor="middle" dy="0.35em">45</text>
  <text x="183.33" y="125.32" text-anchor="middle" dy="0.35em">46</text>
  <text x="152.43" y="115.46" text-anchor="middle" dy="0.35em">47</text>
  <text x="128.46" y="83.71" text-anchor="middle" dy="0.35em">48</text>
</g>
<defs>
  <g id="img-3ec6c35e-5">
    <circle cx="0" cy="0" r="2.89"/>
  </g>
</defs>
</svg>
