<?xml version="1.0" encoding="UTF-8"?>
<svg xmlns="http://www.w3.org/2000/svg"
     xmlns:xlink="http://www.w3.org/1999/xlink"
     version="1.2"
     width="200mm" height="200mm" viewBox="0 0 200 200"
     stroke="none"
     fill="#000000"
     stroke-width="0.3"
     font-size="3.88"
>
<g stroke-width="0.37" fill="#000000" fill-opacity="0.000" stroke="#D3D3D3" id="img-54d29856-1">
  <path fill="none" d="M69.66,104.55 L 71.83 97.38"/>
  <path fill="none" d="M69.21,109.59 L 70.22 118.12"/>
  <path fill="none" d="M95.26,81.96 L 85.08 85.01"/>
  <path fill="none" d="M100.32,81.17 L 111.21 80.97"/>
  <path fill="none" d="M152.86,30.89 L 146.75 24.21"/>
  <path fill="none" d="M156.51,34.55 L 162.41 39.97"/>
  <path fill="none" d="M74.49,93.16 L 80.7 87.49"/>
  <path fill="none" d="M142.64,21.25 L 134.61 17.71"/>
  <path fill="none" d="M115.83,17.91 L 107.55 20.49"/>
  <path fill="none" d="M120.88,17.05 L 129.67 16.75"/>
  <path fill="none" d="M102.74,22.35 L 96.03 25.49"/>
  <path fill="none" d="M93.45,161.26 L 99.12 167.64"/>
  <path fill="none" d="M90.23,157.23 L 84.55 149.28"/>
  <path fill="none" d="M102.32,176.07 L 101.41 172.09"/>
  <path fill="none" d="M100.61,179.79 L 96.21 182.09"/>
  <path fill="none" d="M72.91,176.49 L 79.27 181.7"/>
  <path fill="none" d="M69.48,172.7 L 63.53 163.75"/>
  <path fill="none" d="M171.13,139.08 L 165.97 145.12"/>
  <path fill="none" d="M173.02,134.54 L 173.63 127.2"/>
  <path fill="none" d="M22.39,134.31 L 18.57 130.78"/>
  <path fill="none" d="M26.24,137.75 L 32.36 143.03"/>
  <path fill="none" d="M19.16,129.72 L 19.2 129.73"/>
  <path fill="none" d="M166.15,110.23 L 159.62 102.76"/>
  <path fill="none" d="M168.97,114.51 L 172.72 122.3"/>
  <path fill="none" d="M74.76,131.54 L 71.47 123.09"/>
  <path fill="none" d="M76.96,136.21 L 81.8 144.92"/>
  <path fill="none" d="M155.84,99.28 L 146.79 92.61"/>
  <path fill="none" d="M142.34,90.05 L 131.98 85.55"/>
  <path fill="none" d="M127.09,83.94 L 116.31 81.5"/>
  <path fill="none" d="M145.25,159.4 L 138.27 157.29"/>
  <path fill="none" d="M150,158.93 L 153.89 156.84"/>
  <path fill="none" d="M31.8,138.94 L 36.51 144.17"/>
  <path fill="none" d="M28.04,135.42 L 23.72 132.02"/>
  <path fill="none" d="M37.95,148.66 L 37.12 155.85"/>
  <path fill="none" d="M39.03,177.1 L 35.78 172.72"/>
  <path fill="none" d="M43.15,179.18 L 50.8 179.19"/>
  <path fill="none" d="M69.52,171.28 L 80.8 164.99"/>
  <path fill="none" d="M64.93,173.65 L 55.71 178.08"/>
  <path fill="none" d="M146.75,92.7 L 147.26 84.08"/>
  <path fill="none" d="M145.79,97.73 L 143.05 106.02"/>
  <path fill="none" d="M149.47,79.93 L 157.24 73.96"/>
  <path fill="none" d="M133.61,155.17 L 124.98 149.79"/>
  <path fill="none" d="M121.15,146.42 L 113.09 136.57"/>
  <path fill="none" d="M110.28,132.27 L 104.07 120.15"/>
  <path fill="none" d="M173.49,63.43 L 178.23 59.77"/>
  <path fill="none" d="M169.23,66.35 L 161.5 71.04"/>
  <path fill="none" d="M85.29,162.44 L 96.46 155.97"/>
  <path fill="none" d="M110.61,146.47 L 100.83 153.21"/>
  <path fill="none" d="M114.67,143.29 L 123.5 135.49"/>
  <path fill="none" d="M88.83,86.61 L 93.81 98.68"/>
  <path fill="none" d="M87.21,81.72 L 84.17 69.64"/>
  <path fill="none" d="M182.46,52.14 L 181.15 55.76"/>
  <path fill="none" d="M181.31,48.1 L 177.95 45.43"/>
  <path fill="none" d="M83.19,53.77 L 83.47 64.55"/>
  <path fill="none" d="M83.69,48.66 L 85.66 39.76"/>
  <path fill="none" d="M166.85,42.18 L 173.39 43.37"/>
  <path fill="none" d="M91.34,183.3 L 83.86 183.32"/>
  <path fill="none" d="M59.88,160.28 L 50.17 154.54"/>
  <path fill="none" d="M45.76,151.85 L 36.51 146.09"/>
  <path fill="none" d="M162.51,148.96 L 157.95 153.75"/>
  <path fill="none" d="M36.29,160.95 L 34.78 168.12"/>
  <path fill="none" d="M95.92,103.4 L 101.77 115.52"/>
  <path fill="none" d="M141.01,110.74 L 136.41 119.21"/>
  <path fill="none" d="M133.57,123.51 L 127.04 131.75"/>
  <path fill="none" d="M92.2,28.7 L 87.7 35.12"/>
</g>
<g stroke-width="0.37" stroke="#D3D3D3" id="img-54d29856-2">
</g>
<g font-size="4" stroke="#000000" stroke-opacity="0.000" fill="#000000" id="img-54d29856-3">
  <text x="70.75" y="100.96" text-anchor="middle" dy="0.35em">27</text>
  <text x="69.72" y="113.85" text-anchor="middle" dy="0.35em">13</text>
  <text x="90.17" y="83.48" text-anchor="middle" dy="0.35em">53</text>
  <text x="105.77" y="81.07" text-anchor="middle" dy="0.35em">7</text>
  <text x="149.8" y="27.55" text-anchor="middle" dy="0.35em">63</text>
  <text x="159.46" y="37.26" text-anchor="middle" dy="0.35em">30</text>
  <text x="77.59" y="90.33" text-anchor="middle" dy="0.35em">19</text>
  <text x="138.63" y="19.48" text-anchor="middle" dy="0.35em">170</text>
  <text x="111.69" y="19.2" text-anchor="middle" dy="0.35em">60</text>
  <text x="125.27" y="16.9" text-anchor="middle" dy="0.35em">28</text>
  <text x="99.38" y="23.92" text-anchor="middle" dy="0.35em">119</text>
  <text x="96.28" y="164.45" text-anchor="middle" dy="0.35em">27</text>
  <text x="87.39" y="153.26" text-anchor="middle" dy="0.35em">57</text>
  <text x="101.87" y="174.08" text-anchor="middle" dy="0.35em">7</text>
  <text x="98.41" y="180.94" text-anchor="middle" dy="0.35em">51</text>
  <text x="76.09" y="179.09" text-anchor="middle" dy="0.35em">11</text>
  <text x="66.51" y="168.22" text-anchor="middle" dy="0.35em">46</text>
  <text x="168.55" y="142.1" text-anchor="middle" dy="0.35em">29</text>
  <text x="173.32" y="130.87" text-anchor="middle" dy="0.35em">6</text>
  <text x="20.48" y="132.54" text-anchor="middle" dy="0.35em">123</text>
  <text x="29.3" y="140.39" text-anchor="middle" dy="0.35em">9</text>
  <text x="19.18" y="129.72" text-anchor="middle" dy="0.35em">80</text>
  <text x="162.89" y="106.5" text-anchor="middle" dy="0.35em">31</text>
  <text x="170.85" y="118.4" text-anchor="middle" dy="0.35em">24</text>
  <text x="73.11" y="127.32" text-anchor="middle" dy="0.35em">27</text>
  <text x="79.38" y="140.56" text-anchor="middle" dy="0.35em">55</text>
  <text x="151.31" y="95.95" text-anchor="middle" dy="0.35em">7</text>
  <text x="137.16" y="87.8" text-anchor="middle" dy="0.35em">9</text>
  <text x="121.7" y="82.72" text-anchor="middle" dy="0.35em">25</text>
  <text x="141.76" y="158.35" text-anchor="middle" dy="0.35em">45</text>
  <text x="151.95" y="157.88" text-anchor="middle" dy="0.35em">90</text>
  <text x="34.16" y="141.55" text-anchor="middle" dy="0.35em">57</text>
  <text x="25.88" y="133.72" text-anchor="middle" dy="0.35em">27</text>
  <text x="37.53" y="152.26" text-anchor="middle" dy="0.35em">12</text>
  <text x="37.41" y="174.91" text-anchor="middle" dy="0.35em">10</text>
  <text x="46.98" y="179.19" text-anchor="middle" dy="0.35em">53</text>
  <text x="75.16" y="168.13" text-anchor="middle" dy="0.35em">116</text>
  <text x="60.32" y="175.86" text-anchor="middle" dy="0.35em">39</text>
  <text x="147.01" y="88.39" text-anchor="middle" dy="0.35em">82</text>
  <text x="144.42" y="101.87" text-anchor="middle" dy="0.35em">22</text>
  <text x="153.35" y="76.94" text-anchor="middle" dy="0.35em">45</text>
  <text x="129.3" y="152.48" text-anchor="middle" dy="0.35em">20</text>
  <text x="117.12" y="141.5" text-anchor="middle" dy="0.35em">8</text>
  <text x="107.17" y="126.21" text-anchor="middle" dy="0.35em">17</text>
  <text x="175.86" y="61.6" text-anchor="middle" dy="0.35em">62</text>
  <text x="165.36" y="68.7" text-anchor="middle" dy="0.35em">14</text>
  <text x="90.88" y="159.21" text-anchor="middle" dy="0.35em">41</text>
  <text x="105.72" y="149.84" text-anchor="middle" dy="0.35em">9</text>
  <text x="119.09" y="139.39" text-anchor="middle" dy="0.35em">70</text>
  <text x="91.32" y="92.64" text-anchor="middle" dy="0.35em">52</text>
  <text x="85.69" y="75.68" text-anchor="middle" dy="0.35em">38</text>
  <text x="181.81" y="53.95" text-anchor="middle" dy="0.35em">26</text>
  <text x="179.63" y="46.76" text-anchor="middle" dy="0.35em">122</text>
  <text x="83.33" y="59.16" text-anchor="middle" dy="0.35em">41</text>
  <text x="84.67" y="44.21" text-anchor="middle" dy="0.35em">29</text>
  <text x="170.12" y="42.77" text-anchor="middle" dy="0.35em">8</text>
  <text x="87.6" y="183.31" text-anchor="middle" dy="0.35em">44</text>
  <text x="55.02" y="157.41" text-anchor="middle" dy="0.35em">56</text>
  <text x="41.13" y="148.97" text-anchor="middle" dy="0.35em">76</text>
  <text x="160.23" y="151.35" text-anchor="middle" dy="0.35em">18</text>
  <text x="35.54" y="164.53" text-anchor="middle" dy="0.35em">80</text>
  <text x="98.85" y="109.46" text-anchor="middle" dy="0.35em">35</text>
  <text x="138.71" y="114.98" text-anchor="middle" dy="0.35em">17</text>
  <text x="130.31" y="127.63" text-anchor="middle" dy="0.35em">26</text>
  <text x="89.95" y="31.91" text-anchor="middle" dy="0.35em">58</text>
</g>
<g stroke-width="0" stroke="#000000" stroke-opacity="0.000" fill="#40E0D0" id="img-54d29856-4">
  <use xlink:href="#img-54d29856-5" x="68.91" y="107.02"/>
  <use xlink:href="#img-54d29856-5" x="97.74" y="81.22"/>
  <use xlink:href="#img-54d29856-5" x="154.6" y="32.8"/>
  <use xlink:href="#img-54d29856-5" x="72.58" y="94.9"/>
  <use xlink:href="#img-54d29856-5" x="145.01" y="22.3"/>
  <use xlink:href="#img-54d29856-5" x="118.3" y="17.14"/>
  <use xlink:href="#img-54d29856-5" x="105.08" y="21.26"/>
  <use xlink:href="#img-54d29856-5" x="91.73" y="159.33"/>
  <use xlink:href="#img-54d29856-5" x="102.9" y="178.59"/>
  <use xlink:href="#img-54d29856-5" x="70.91" y="174.85"/>
  <use xlink:href="#img-54d29856-5" x="172.81" y="137.12"/>
  <use xlink:href="#img-54d29856-5" x="24.29" y="136.06"/>
  <use xlink:href="#img-54d29856-5" x="16.67" y="129.03"/>
  <use xlink:href="#img-54d29856-5" x="167.85" y="112.18"/>
  <use xlink:href="#img-54d29856-5" x="75.7" y="133.95"/>
  <use xlink:href="#img-54d29856-5" x="70.53" y="120.69"/>
  <use xlink:href="#img-54d29856-5" x="157.92" y="100.81"/>
  <use xlink:href="#img-54d29856-5" x="144.71" y="91.08"/>
  <use xlink:href="#img-54d29856-5" x="129.61" y="84.51"/>
  <use xlink:href="#img-54d29856-5" x="147.73" y="160.15"/>
  <use xlink:href="#img-54d29856-5" x="30.07" y="137.02"/>
  <use xlink:href="#img-54d29856-5" x="38.24" y="146.09"/>
  <use xlink:href="#img-54d29856-5" x="40.57" y="179.18"/>
  <use xlink:href="#img-54d29856-5" x="67.26" y="172.53"/>
  <use xlink:href="#img-54d29856-5" x="146.6" y="95.28"/>
  <use xlink:href="#img-54d29856-5" x="147.42" y="81.5"/>
  <use xlink:href="#img-54d29856-5" x="135.8" y="156.54"/>
  <use xlink:href="#img-54d29856-5" x="122.79" y="148.42"/>
  <use xlink:href="#img-54d29856-5" x="111.46" y="134.57"/>
  <use xlink:href="#img-54d29856-5" x="171.44" y="65.01"/>
  <use xlink:href="#img-54d29856-5" x="83.06" y="163.73"/>
  <use xlink:href="#img-54d29856-5" x="112.73" y="145"/>
  <use xlink:href="#img-54d29856-5" x="87.84" y="84.22"/>
  <use xlink:href="#img-54d29856-5" x="183.33" y="49.7"/>
  <use xlink:href="#img-54d29856-5" x="83.13" y="51.18"/>
  <use xlink:href="#img-54d29856-5" x="21.69" y="130.42"/>
  <use xlink:href="#img-54d29856-5" x="100.84" y="169.57"/>
  <use xlink:href="#img-54d29856-5" x="82.6" y="85.75"/>
  <use xlink:href="#img-54d29856-5" x="164.31" y="41.72"/>
  <use xlink:href="#img-54d29856-5" x="132.25" y="16.67"/>
  <use xlink:href="#img-54d29856-5" x="93.92" y="183.29"/>
  <use xlink:href="#img-54d29856-5" x="81.27" y="183.33"/>
  <use xlink:href="#img-54d29856-5" x="62.1" y="161.59"/>
  <use xlink:href="#img-54d29856-5" x="47.95" y="153.22"/>
  <use xlink:href="#img-54d29856-5" x="34.32" y="144.72"/>
  <use xlink:href="#img-54d29856-5" x="164.29" y="147.09"/>
  <use xlink:href="#img-54d29856-5" x="156.16" y="155.62"/>
  <use xlink:href="#img-54d29856-5" x="83.05" y="147.18"/>
  <use xlink:href="#img-54d29856-5" x="36.83" y="158.42"/>
  <use xlink:href="#img-54d29856-5" x="34.25" y="170.65"/>
  <use xlink:href="#img-54d29856-5" x="94.8" y="101.07"/>
  <use xlink:href="#img-54d29856-5" x="142.24" y="108.47"/>
  <use xlink:href="#img-54d29856-5" x="135.18" y="121.48"/>
  <use xlink:href="#img-54d29856-5" x="98.7" y="154.68"/>
  <use xlink:href="#img-54d29856-5" x="102.89" y="117.85"/>
  <use xlink:href="#img-54d29856-5" x="180.28" y="58.19"/>
  <use xlink:href="#img-54d29856-5" x="83.54" y="67.13"/>
  <use xlink:href="#img-54d29856-5" x="93.69" y="26.58"/>
  <use xlink:href="#img-54d29856-5" x="86.22" y="37.24"/>
  <use xlink:href="#img-54d29856-5" x="53.38" y="179.2"/>
  <use xlink:href="#img-54d29856-5" x="173.84" y="124.62"/>
  <use xlink:href="#img-54d29856-5" x="113.79" y="80.93"/>
  <use xlink:href="#img-54d29856-5" x="125.44" y="133.78"/>
  <use xlink:href="#img-54d29856-5" x="159.29" y="72.38"/>
  <use xlink:href="#img-54d29856-5" x="175.93" y="43.83"/>
</g>
<g font-size="4" stroke="#000000" stroke-opacity="0.000" fill="#000000" id="img-54d29856-6">
  <text x="68.91" y="107.02" text-anchor="middle" dy="0.35em">1</text>
  <text x="97.74" y="81.22" text-anchor="middle" dy="0.35em">2</text>
  <text x="154.6" y="32.8" text-anchor="middle" dy="0.35em">3</text>
  <text x="72.58" y="94.9" text-anchor="middle" dy="0.35em">4</text>
  <text x="145.01" y="22.3" text-anchor="middle" dy="0.35em">5</text>
  <text x="118.3" y="17.14" text-anchor="middle" dy="0.35em">6</text>
  <text x="105.08" y="21.26" text-anchor="middle" dy="0.35em">7</text>
  <text x="91.73" y="159.33" text-anchor="middle" dy="0.35em">8</text>
  <text x="102.9" y="178.59" text-anchor="middle" dy="0.35em">9</text>
  <text x="70.91" y="174.85" text-anchor="middle" dy="0.35em">10</text>
  <text x="172.81" y="137.12" text-anchor="middle" dy="0.35em">11</text>
  <text x="24.29" y="136.06" text-anchor="middle" dy="0.35em">12</text>
  <text x="16.67" y="129.03" text-anchor="middle" dy="0.35em">13</text>
  <text x="167.85" y="112.18" text-anchor="middle" dy="0.35em">14</text>
  <text x="75.7" y="133.95" text-anchor="middle" dy="0.35em">15</text>
  <text x="70.53" y="120.69" text-anchor="middle" dy="0.35em">16</text>
  <text x="157.92" y="100.81" text-anchor="middle" dy="0.35em">17</text>
  <text x="144.71" y="91.08" text-anchor="middle" dy="0.35em">18</text>
  <text x="129.61" y="84.51" text-anchor="middle" dy="0.35em">19</text>
  <text x="147.73" y="160.15" text-anchor="middle" dy="0.35em">20</text>
  <text x="30.07" y="137.02" text-anchor="middle" dy="0.35em">21</text>
  <text x="38.24" y="146.09" text-anchor="middle" dy="0.35em">22</text>
  <text x="40.57" y="179.18" text-anchor="middle" dy="0.35em">23</text>
  <text x="67.26" y="172.53" text-anchor="middle" dy="0.35em">24</text>
  <text x="146.6" y="95.28" text-anchor="middle" dy="0.35em">25</text>
  <text x="147.42" y="81.5" text-anchor="middle" dy="0.35em">26</text>
  <text x="135.8" y="156.54" text-anchor="middle" dy="0.35em">27</text>
  <text x="122.79" y="148.42" text-anchor="middle" dy="0.35em">28</text>
  <text x="111.46" y="134.57" text-anchor="middle" dy="0.35em">29</text>
  <text x="171.44" y="65.01" text-anchor="middle" dy="0.35em">30</text>
  <text x="83.06" y="163.73" text-anchor="middle" dy="0.35em">31</text>
  <text x="112.73" y="145" text-anchor="middle" dy="0.35em">32</text>
  <text x="87.84" y="84.22" text-anchor="middle" dy="0.35em">33</text>
  <text x="183.33" y="49.7" text-anchor="middle" dy="0.35em">34</text>
  <text x="83.13" y="51.18" text-anchor="middle" dy="0.35em">35</text>
  <text x="21.69" y="130.42" text-anchor="middle" dy="0.35em">36</text>
  <text x="100.84" y="169.57" text-anchor="middle" dy="0.35em">37</text>
  <text x="82.6" y="85.75" text-anchor="middle" dy="0.35em">38</text>
  <text x="164.31" y="41.72" text-anchor="middle" dy="0.35em">39</text>
  <text x="132.25" y="16.67" text-anchor="middle" dy="0.35em">40</text>
  <text x="93.92" y="183.29" text-anchor="middle" dy="0.35em">41</text>
  <text x="81.27" y="183.33" text-anchor="middle" dy="0.35em">42</text>
  <text x="62.1" y="161.59" text-anchor="middle" dy="0.35em">43</text>
  <text x="47.95" y="153.22" text-anchor="middle" dy="0.35em">44</text>
  <text x="34.32" y="144.72" text-anchor="middle" dy="0.35em">45</text>
  <text x="164.29" y="147.09" text-anchor="middle" dy="0.35em">46</text>
  <text x="156.16" y="155.62" text-anchor="middle" dy="0.35em">47</text>
  <text x="83.05" y="147.18" text-anchor="middle" dy="0.35em">48</text>
  <text x="36.83" y="158.42" text-anchor="middle" dy="0.35em">49</text>
  <text x="34.25" y="170.65" text-anchor="middle" dy="0.35em">50</text>
  <text x="94.8" y="101.07" text-anchor="middle" dy="0.35em">51</text>
  <text x="142.24" y="108.47" text-anchor="middle" dy="0.35em">52</text>
  <text x="135.18" y="121.48" text-anchor="middle" dy="0.35em">53</text>
  <text x="98.7" y="154.68" text-anchor="middle" dy="0.35em">54</text>
  <text x="102.89" y="117.85" text-anchor="middle" dy="0.35em">55</text>
  <text x="180.28" y="58.19" text-anchor="middle" dy="0.35em">56</text>
  <text x="83.54" y="67.13" text-anchor="middle" dy="0.35em">57</text>
  <text x="93.69" y="26.58" text-anchor="middle" dy="0.35em">58</text>
  <text x="86.22" y="37.24" text-anchor="middle" dy="0.35em">59</text>
  <text x="53.38" y="179.2" text-anchor="middle" dy="0.35em">60</text>
  <text x="173.84" y="124.62" text-anchor="middle" dy="0.35em">61</text>
  <text x="113.79" y="80.93" text-anchor="middle" dy="0.35em">62</text>
  <text x="125.44" y="133.78" text-anchor="middle" dy="0.35em">63</text>
  <text x="159.29" y="72.38" text-anchor="middle" dy="0.35em">64</text>
  <text x="175.93" y="43.83" text-anchor="middle" dy="0.35em">65</text>
</g>
<defs>
  <g id="img-54d29856-5">
    <circle cx="0" cy="0" r="2.48"/>
  </g>
</defs>
</svg>
