<?xml version="1.0" encoding="UTF-8"?>
<svg xmlns="http://www.w3.org/2000/svg"
     xmlns:xlink="http://www.w3.org/1999/xlink"
     version="1.2"
     width="200mm" height="200mm" viewBox="0 0 200 200"
     stroke="none"
     fill="#000000"
     stroke-width="0.3"
     font-size="3.88"
>
<g stroke-width="0.73" fill="#000000" fill-opacity="0.000" stroke="#D3D3D3" id="img-82a602e8-1">
  <path fill="none" d="M71.7,162.46 L 61.59 162.46"/>
  <path fill="none" d="M70.46,159.14 L 83.67 147.65"/>
  <path fill="none" d="M65.17,167.29 L 61.76 178.5"/>
  <path fill="none" d="M34.98,144.28 L 24.88 144.28"/>
  <path fill="none" d="M33.55,147.81 L 51.54 165.32"/>
  <path fill="none" d="M27.83,139.69 L 18.77 119.87"/>
  <path fill="none" d="M60.21,168.85 L 50.11 168.85"/>
  <path fill="none" d="M56.85,173.61 L 58.6 178.57"/>
  <path fill="none" d="M185.85,46.74 L 175.75 46.74"/>
  <path fill="none" d="M177.06,43.34 L 162.11 29.74"/>
  <path fill="none" d="M181.34,51.76 L 182.8 65.49"/>
  <path fill="none" d="M163.42,26.34 L 153.32 26.34"/>
  <path fill="none" d="M153.51,24.95 L 129.58 18.06"/>
  <path fill="none" d="M142,109.21 L 131.9 109.21"/>
  <path fill="none" d="M141.35,106.72 L 162 95.01"/>
  <path fill="none" d="M132.15,110.79 L 105.34 119.62"/>
  <path fill="none" d="M171.45,92.52 L 161.35 92.52"/>
  <path fill="none" d="M169.48,88.51 L 180.25 74.52"/>
  <path fill="none" d="M92.91,19.7 L 82.8 19.7"/>
  <path fill="none" d="M83.21,21.68 L 59.59 31.73"/>
  <path fill="none" d="M92.89,19.28 L 119.69 17.08"/>
  <path fill="none" d="M60,33.71 L 49.89 33.71"/>
  <path fill="none" d="M51.25,37.15 L 33.95 53.25"/>
  <path fill="none" d="M21.72,115.28 L 11.61 115.28"/>
  <path fill="none" d="M16.73,110.22 L 17 89.75"/>
  <path fill="none" d="M35.3,56.7 L 25.2 56.7"/>
  <path fill="none" d="M28.1,61.27 L 19.22 80.12"/>
  <path fill="none" d="M92.54,144.34 L 82.43 144.34"/>
  <path fill="none" d="M89.97,139.94 L 98.05 125.6"/>
  <path fill="none" d="M22.12,84.69 L 12.01 84.69"/>
  <path fill="none" d="M65.34,183.33 L 55.24 183.33"/>
  <path fill="none" d="M105.59,121.2 L 95.48 121.2"/>
  <path fill="none" d="M188.39,70.52 L 178.28 70.52"/>
  <path fill="none" d="M129.78,16.67 L 119.67 16.67"/>
</g>
<g stroke-width="0.73" stroke="#D3D3D3" id="img-82a602e8-2">
</g>
<g font-size="4" stroke="#000000" stroke-opacity="0.000" fill="#000000" id="img-82a602e8-3">
  <text x="66.64" y="162.46" text-anchor="middle" dy="0.35em">9999</text>
  <text x="77.06" y="153.4" text-anchor="middle" dy="0.35em">0</text>
  <text x="63.47" y="172.9" text-anchor="middle" dy="0.35em">5</text>
  <text x="29.93" y="144.28" text-anchor="middle" dy="0.35em">9999</text>
  <text x="42.55" y="156.56" text-anchor="middle" dy="0.35em">3</text>
  <text x="23.3" y="129.78" text-anchor="middle" dy="0.35em">0</text>
  <text x="55.16" y="168.85" text-anchor="middle" dy="0.35em">9999</text>
  <text x="57.73" y="176.09" text-anchor="middle" dy="0.35em">0</text>
  <text x="180.8" y="46.74" text-anchor="middle" dy="0.35em">9999</text>
  <text x="169.58" y="36.54" text-anchor="middle" dy="0.35em">0</text>
  <text x="182.07" y="58.63" text-anchor="middle" dy="0.35em">6</text>
  <text x="158.37" y="26.34" text-anchor="middle" dy="0.35em">9999</text>
  <text x="141.55" y="21.51" text-anchor="middle" dy="0.35em">12</text>
  <text x="136.95" y="109.21" text-anchor="middle" dy="0.35em">9999</text>
  <text x="151.68" y="100.86" text-anchor="middle" dy="0.35em">0</text>
  <text x="118.74" y="115.2" text-anchor="middle" dy="0.35em">0</text>
  <text x="166.4" y="92.52" text-anchor="middle" dy="0.35em">9999</text>
  <text x="174.87" y="81.52" text-anchor="middle" dy="0.35em">0</text>
  <text x="87.86" y="19.7" text-anchor="middle" dy="0.35em">9999</text>
  <text x="71.4" y="26.7" text-anchor="middle" dy="0.35em">0</text>
  <text x="106.29" y="18.18" text-anchor="middle" dy="0.35em">0</text>
  <text x="54.94" y="33.71" text-anchor="middle" dy="0.35em">9999</text>
  <text x="42.6" y="45.2" text-anchor="middle" dy="0.35em">5</text>
  <text x="16.67" y="115.28" text-anchor="middle" dy="0.35em">9999</text>
  <text x="16.86" y="99.98" text-anchor="middle" dy="0.35em">0</text>
  <text x="30.25" y="56.7" text-anchor="middle" dy="0.35em">9999</text>
  <text x="23.66" y="70.69" text-anchor="middle" dy="0.35em">0</text>
  <text x="87.48" y="144.34" text-anchor="middle" dy="0.35em">9999</text>
  <text x="94.01" y="132.77" text-anchor="middle" dy="0.35em">8</text>
  <text x="17.06" y="84.69" text-anchor="middle" dy="0.35em">9999</text>
  <text x="60.29" y="183.33" text-anchor="middle" dy="0.35em">9999</text>
  <text x="100.54" y="121.2" text-anchor="middle" dy="0.35em">9999</text>
  <text x="183.33" y="70.52" text-anchor="middle" dy="0.35em">9999</text>
  <text x="124.73" y="16.67" text-anchor="middle" dy="0.35em">9999</text>
</g>
<g stroke-width="0" stroke="#000000" stroke-opacity="0.000" fill="#40E0D0" id="img-82a602e8-4">
  <use xlink:href="#img-82a602e8-5" x="66.64" y="162.46"/>
  <use xlink:href="#img-82a602e8-5" x="29.93" y="144.28"/>
  <use xlink:href="#img-82a602e8-5" x="55.16" y="168.85"/>
  <use xlink:href="#img-82a602e8-5" x="180.8" y="46.74"/>
  <use xlink:href="#img-82a602e8-5" x="158.37" y="26.34"/>
  <use xlink:href="#img-82a602e8-5" x="136.95" y="109.21"/>
  <use xlink:href="#img-82a602e8-5" x="166.4" y="92.52"/>
  <use xlink:href="#img-82a602e8-5" x="87.86" y="19.7"/>
  <use xlink:href="#img-82a602e8-5" x="54.94" y="33.71"/>
  <use xlink:href="#img-82a602e8-5" x="16.67" y="115.28"/>
  <use xlink:href="#img-82a602e8-5" x="30.25" y="56.7"/>
  <use xlink:href="#img-82a602e8-5" x="87.48" y="144.34"/>
  <use xlink:href="#img-82a602e8-5" x="17.06" y="84.69"/>
  <use xlink:href="#img-82a602e8-5" x="60.29" y="183.33"/>
  <use xlink:href="#img-82a602e8-5" x="100.54" y="121.2"/>
  <use xlink:href="#img-82a602e8-5" x="183.33" y="70.52"/>
  <use xlink:href="#img-82a602e8-5" x="124.73" y="16.67"/>
</g>
<g font-size="4" stroke="#000000" stroke-opacity="0.000" fill="#000000" id="img-82a602e8-6">
  <text x="66.64" y="162.46" text-anchor="middle" dy="0.35em">1</text>
  <text x="29.93" y="144.28" text-anchor="middle" dy="0.35em">2</text>
  <text x="55.16" y="168.85" text-anchor="middle" dy="0.35em">3</text>
  <text x="180.8" y="46.74" text-anchor="middle" dy="0.35em">4</text>
  <text x="158.37" y="26.34" text-anchor="middle" dy="0.35em">5</text>
  <text x="136.95" y="109.21" text-anchor="middle" dy="0.35em">6</text>
  <text x="166.4" y="92.52" text-anchor="middle" dy="0.35em">7</text>
  <text x="87.86" y="19.7" text-anchor="middle" dy="0.35em">8</text>
  <text x="54.94" y="33.71" text-anchor="middle" dy="0.35em">9</text>
  <text x="16.67" y="115.28" text-anchor="middle" dy="0.35em">10</text>
  <text x="30.25" y="56.7" text-anchor="middle" dy="0.35em">11</text>
  <text x="87.48" y="144.34" text-anchor="middle" dy="0.35em">12</text>
  <text x="17.06" y="84.69" text-anchor="middle" dy="0.35em">13</text>
  <text x="60.29" y="183.33" text-anchor="middle" dy="0.35em">14</text>
  <text x="100.54" y="121.2" text-anchor="middle" dy="0.35em">15</text>
  <text x="183.33" y="70.52" text-anchor="middle" dy="0.35em">16</text>
  <text x="124.73" y="16.67" text-anchor="middle" dy="0.35em">17</text>
</g>
<defs>
  <g id="img-82a602e8-5">
    <circle cx="0" cy="0" r="4.85"/>
  </g>
</defs>
</svg>
