<?xml version="1.0" encoding="UTF-8"?>
<svg xmlns="http://www.w3.org/2000/svg"
     xmlns:xlink="http://www.w3.org/1999/xlink"
     version="1.2"
     width="200mm" height="200mm" viewBox="0 0 200 200"
     stroke="none"
     fill="#000000"
     stroke-width="0.3"
     font-size="3.88"
>
<g stroke-width="0.36" fill="#000000" fill-opacity="0.000" stroke="#D3D3D3" id="img-c5d465e5-1">
  <path fill="none" d="M60.47,144.78 L 61.91 147.72"/>
  <path fill="none" d="M59.79,140.12 L 60.74 134.51"/>
  <path fill="none" d="M75.2,142.38 L 72.3 146.5"/>
  <path fill="none" d="M77.41,138.02 L 79.52 131.74"/>
  <path fill="none" d="M68.44,148.96 L 65.44 149.5"/>
  <path fill="none" d="M115.47,122.01 L 118.46 117.12"/>
  <path fill="none" d="M115.51,126.21 L 119.49 132.42"/>
  <path fill="none" d="M121.98,113.94 L 128.98 110.57"/>
  <path fill="none" d="M83.44,95.77 L 88.99 88.18"/>
  <path fill="none" d="M80.55,99.78 L 74.99 107.62"/>
  <path fill="none" d="M141.43,105.81 L 133.53 108.66"/>
  <path fill="none" d="M146.12,104.27 L 155.18 101.57"/>
  <path fill="none" d="M159.83,99.92 L 168.11 96.46"/>
  <path fill="none" d="M177.75,89.6 L 172.32 93.96"/>
  <path fill="none" d="M180.54,85.74 L 182.47 80.57"/>
  <path fill="none" d="M113.36,57.99 L 108.67 63.47"/>
  <path fill="none" d="M116.54,54.2 L 120.64 49.23"/>
  <path fill="none" d="M91.96,84.23 L 97.2 77.49"/>
  <path fill="none" d="M105.5,67.26 L 100.28 73.63"/>
  <path fill="none" d="M124.28,45.96 L 127.17 44.05"/>
  <path fill="none" d="M131.71,42.7 L 132.09 42.7"/>
  <path fill="none" d="M30,72.87 L 29.3 71.51"/>
  <path fill="none" d="M33.3,76.27 L 38.86 79.36"/>
  <path fill="none" d="M133.4,40.52 L 130.75 35.57"/>
  <path fill="none" d="M127.94,31.55 L 121.51 24.37"/>
  <path fill="none" d="M117.62,21.5 L 109.42 17.7"/>
  <path fill="none" d="M104.7,16.67 L 95.83 16.68"/>
  <path fill="none" d="M30.55,69.96 L 35.09 71.2"/>
  <path fill="none" d="M91.09,17.66 L 82.35 21.4"/>
  <path fill="none" d="M55.01,88.46 L 62.29 93.44"/>
  <path fill="none" d="M50.8,85.88 L 43.19 81.74"/>
  <path fill="none" d="M67.47,119.04 L 72.22 111.71"/>
  <path fill="none" d="M65.11,123.37 L 62.18 129.82"/>
  <path fill="none" d="M39.84,71.14 L 47.27 68.92"/>
  <path fill="none" d="M66.01,96.65 L 71.97 103.05"/>
  <path fill="none" d="M74.82,107.05 L 78.91 114.72"/>
  <path fill="none" d="M80.11,119.38 L 80.26 126.92"/>
  <path fill="none" d="M51.7,66.85 L 60.48 61.03"/>
  <path fill="none" d="M67.29,34.47 L 60.92 43.93"/>
  <path fill="none" d="M70.53,30.78 L 78.22 24.01"/>
  <path fill="none" d="M58.64,48.28 L 54.09 59.96"/>
  <path fill="none" d="M52.43,64.62 L 48.34 77.21"/>
  <path fill="none" d="M17.75,116.16 L 16.95 123.23"/>
  <path fill="none" d="M19.39,111.64 L 23.95 104.69"/>
  <path fill="none" d="M17.65,127.95 L 20.36 134.2"/>
  <path fill="none" d="M27.13,100.95 L 34.8 93.94"/>
  <path fill="none" d="M136.11,146.14 L 130.61 144.5"/>
  <path fill="none" d="M140.2,148.64 L 140.89 149.36"/>
  <path fill="none" d="M26.85,145.04 L 22.68 138.55"/>
  <path fill="none" d="M29.91,148.88 L 35.86 154.93"/>
  <path fill="none" d="M38.24,90.4 L 45.96 81.43"/>
  <path fill="none" d="M64.85,58.77 L 74.79 54.96"/>
  <path fill="none" d="M79.53,53.65 L 90.06 51.81"/>
  <path fill="none" d="M122.78,54.44 L 111.1 52.37"/>
  <path fill="none" d="M127.67,55.16 L 138.95 56.47"/>
  <path fill="none" d="M106.19,51.86 L 94.97 51.47"/>
  <path fill="none" d="M49.57,168.44 L 56.49 175.29"/>
  <path fill="none" d="M46.04,164.97 L 39.36 158.43"/>
  <path fill="none" d="M126.81,145.8 L 120.88 154.12"/>
  <path fill="none" d="M140.18,150.61 L 137.26 149.98"/>
  <path fill="none" d="M118.01,158.16 L 111.67 167.12"/>
  <path fill="none" d="M96.51,179.39 L 87.62 182.51"/>
  <path fill="none" d="M100.75,176.99 L 108.34 170.72"/>
  <path fill="none" d="M82.82,183.25 L 73.83 182.94"/>
  <path fill="none" d="M143.86,57.02 L 154.08 58.13"/>
  <path fill="none" d="M69.1,181.85 L 60.51 178.04"/>
  <path fill="none" d="M132.75,148.13 L 128.07 145.19"/>
  <path fill="none" d="M124.78,141.71 L 122.01 136.67"/>
  <path fill="none" d="M158.91,59.08 L 167.1 61.42"/>
  <path fill="none" d="M182.26,76.03 L 179.95 71.28"/>
  <path fill="none" d="M171.47,63.57 L 176.89 67.58"/>
</g>
<g stroke-width="0.36" stroke="#D3D3D3" id="img-c5d465e5-2">
</g>
<g font-size="4" stroke="#000000" stroke-opacity="0.000" fill="#000000" id="img-c5d465e5-3">
  <text x="61.19" y="146.25" text-anchor="middle" dy="0.35em">27</text>
  <text x="60.27" y="137.32" text-anchor="middle" dy="0.35em">13</text>
  <text x="73.75" y="144.44" text-anchor="middle" dy="0.35em">53</text>
  <text x="78.46" y="134.88" text-anchor="middle" dy="0.35em">7</text>
  <text x="66.94" y="149.23" text-anchor="middle" dy="0.35em">26</text>
  <text x="116.96" y="119.57" text-anchor="middle" dy="0.35em">70</text>
  <text x="117.5" y="129.31" text-anchor="middle" dy="0.35em">8</text>
  <text x="125.48" y="112.26" text-anchor="middle" dy="0.35em">63</text>
  <text x="86.21" y="91.97" text-anchor="middle" dy="0.35em">42</text>
  <text x="77.77" y="103.7" text-anchor="middle" dy="0.35em">31</text>
  <text x="137.48" y="107.24" text-anchor="middle" dy="0.35em">5</text>
  <text x="150.65" y="102.92" text-anchor="middle" dy="0.35em">81</text>
  <text x="163.97" y="98.19" text-anchor="middle" dy="0.35em">34</text>
  <text x="175.03" y="91.78" text-anchor="middle" dy="0.35em">31</text>
  <text x="181.5" y="83.16" text-anchor="middle" dy="0.35em">119</text>
  <text x="111.01" y="60.73" text-anchor="middle" dy="0.35em">21</text>
  <text x="118.59" y="51.72" text-anchor="middle" dy="0.35em">44</text>
  <text x="94.58" y="80.86" text-anchor="middle" dy="0.35em">27</text>
  <text x="102.89" y="70.44" text-anchor="middle" dy="0.35em">7</text>
  <text x="125.72" y="45.01" text-anchor="middle" dy="0.35em">54</text>
  <text x="131.9" y="42.7" text-anchor="middle" dy="0.35em">46</text>
  <text x="29.65" y="72.19" text-anchor="middle" dy="0.35em">29</text>
  <text x="36.08" y="77.81" text-anchor="middle" dy="0.35em">6</text>
  <text x="132.07" y="38.05" text-anchor="middle" dy="0.35em">56</text>
  <text x="124.72" y="27.96" text-anchor="middle" dy="0.35em">76</text>
  <text x="113.52" y="19.6" text-anchor="middle" dy="0.35em">129</text>
  <text x="100.27" y="16.68" text-anchor="middle" dy="0.35em">123</text>
  <text x="32.82" y="70.58" text-anchor="middle" dy="0.35em">18</text>
  <text x="86.72" y="19.53" text-anchor="middle" dy="0.35em">80</text>
  <text x="58.65" y="90.95" text-anchor="middle" dy="0.35em">31</text>
  <text x="47" y="83.81" text-anchor="middle" dy="0.35em">24</text>
  <text x="69.85" y="115.37" text-anchor="middle" dy="0.35em">55</text>
  <text x="63.64" y="126.59" text-anchor="middle" dy="0.35em">27</text>
  <text x="43.56" y="70.03" text-anchor="middle" dy="0.35em">19</text>
  <text x="68.99" y="99.85" text-anchor="middle" dy="0.35em">7</text>
  <text x="76.86" y="110.88" text-anchor="middle" dy="0.35em">9</text>
  <text x="80.19" y="123.15" text-anchor="middle" dy="0.35em">25</text>
  <text x="56.09" y="63.94" text-anchor="middle" dy="0.35em">45</text>
  <text x="64.11" y="39.2" text-anchor="middle" dy="0.35em">45</text>
  <text x="74.38" y="27.39" text-anchor="middle" dy="0.35em">27</text>
  <text x="56.36" y="54.12" text-anchor="middle" dy="0.35em">12</text>
  <text x="50.38" y="70.91" text-anchor="middle" dy="0.35em">128</text>
  <text x="17.35" y="119.7" text-anchor="middle" dy="0.35em">49</text>
  <text x="21.67" y="108.16" text-anchor="middle" dy="0.35em">30</text>
  <text x="19.01" y="131.08" text-anchor="middle" dy="0.35em">53</text>
  <text x="30.96" y="97.45" text-anchor="middle" dy="0.35em">53</text>
  <text x="133.36" y="145.32" text-anchor="middle" dy="0.35em">22</text>
  <text x="140.54" y="149" text-anchor="middle" dy="0.35em">59</text>
  <text x="24.76" y="141.79" text-anchor="middle" dy="0.35em">17</text>
  <text x="32.89" y="151.91" text-anchor="middle" dy="0.35em">45</text>
  <text x="42.1" y="85.92" text-anchor="middle" dy="0.35em">12</text>
  <text x="69.82" y="56.87" text-anchor="middle" dy="0.35em">20</text>
  <text x="84.8" y="52.73" text-anchor="middle" dy="0.35em">25</text>
  <text x="116.94" y="53.41" text-anchor="middle" dy="0.35em">24</text>
  <text x="133.31" y="55.81" text-anchor="middle" dy="0.35em">36</text>
  <text x="100.58" y="51.67" text-anchor="middle" dy="0.35em">35</text>
  <text x="53.03" y="171.86" text-anchor="middle" dy="0.35em">52</text>
  <text x="42.7" y="161.7" text-anchor="middle" dy="0.35em">14</text>
  <text x="123.84" y="149.96" text-anchor="middle" dy="0.35em">17</text>
  <text x="138.72" y="150.29" text-anchor="middle" dy="0.35em">140</text>
  <text x="114.84" y="162.64" text-anchor="middle" dy="0.35em">26</text>
  <text x="92.06" y="180.95" text-anchor="middle" dy="0.35em">9</text>
  <text x="104.54" y="173.85" text-anchor="middle" dy="0.35em">70</text>
  <text x="78.32" y="183.09" text-anchor="middle" dy="0.35em">32</text>
  <text x="148.97" y="57.58" text-anchor="middle" dy="0.35em">56</text>
  <text x="64.8" y="179.94" text-anchor="middle" dy="0.35em">39</text>
  <text x="130.41" y="146.66" text-anchor="middle" dy="0.35em">127</text>
  <text x="123.4" y="139.19" text-anchor="middle" dy="0.35em">45</text>
  <text x="163.01" y="60.25" text-anchor="middle" dy="0.35em">29</text>
  <text x="181.1" y="73.66" text-anchor="middle" dy="0.35em">58</text>
  <text x="174.18" y="65.58" text-anchor="middle" dy="0.35em">30</text>
</g>
<g stroke-width="0" stroke="#000000" stroke-opacity="0.000" fill="#40E0D0" id="img-c5d465e5-4">
  <use xlink:href="#img-c5d465e5-5" x="59.38" y="142.56"/>
  <use xlink:href="#img-c5d465e5-5" x="76.63" y="140.36"/>
  <use xlink:href="#img-c5d465e5-5" x="70.87" y="148.52"/>
  <use xlink:href="#img-c5d465e5-5" x="114.18" y="124.12"/>
  <use xlink:href="#img-c5d465e5-5" x="119.75" y="115.01"/>
  <use xlink:href="#img-c5d465e5-5" x="63" y="149.93"/>
  <use xlink:href="#img-c5d465e5-5" x="81.98" y="97.76"/>
  <use xlink:href="#img-c5d465e5-5" x="143.75" y="104.97"/>
  <use xlink:href="#img-c5d465e5-5" x="131.21" y="109.5"/>
  <use xlink:href="#img-c5d465e5-5" x="157.55" y="100.87"/>
  <use xlink:href="#img-c5d465e5-5" x="179.67" y="88.05"/>
  <use xlink:href="#img-c5d465e5-5" x="170.39" y="95.51"/>
  <use xlink:href="#img-c5d465e5-5" x="114.96" y="56.11"/>
  <use xlink:href="#img-c5d465e5-5" x="90.45" y="86.19"/>
  <use xlink:href="#img-c5d465e5-5" x="107.07" y="65.35"/>
  <use xlink:href="#img-c5d465e5-5" x="122.21" y="47.33"/>
  <use xlink:href="#img-c5d465e5-5" x="129.24" y="42.69"/>
  <use xlink:href="#img-c5d465e5-5" x="31.13" y="75.06"/>
  <use xlink:href="#img-c5d465e5-5" x="134.56" y="42.71"/>
  <use xlink:href="#img-c5d465e5-5" x="129.59" y="33.39"/>
  <use xlink:href="#img-c5d465e5-5" x="119.86" y="22.53"/>
  <use xlink:href="#img-c5d465e5-5" x="107.18" y="16.67"/>
  <use xlink:href="#img-c5d465e5-5" x="28.17" y="69.31"/>
  <use xlink:href="#img-c5d465e5-5" x="93.36" y="16.69"/>
  <use xlink:href="#img-c5d465e5-5" x="52.98" y="87.06"/>
  <use xlink:href="#img-c5d465e5-5" x="66.13" y="121.11"/>
  <use xlink:href="#img-c5d465e5-5" x="37.47" y="71.85"/>
  <use xlink:href="#img-c5d465e5-5" x="73.56" y="109.63"/>
  <use xlink:href="#img-c5d465e5-5" x="61.16" y="132.08"/>
  <use xlink:href="#img-c5d465e5-5" x="64.33" y="94.84"/>
  <use xlink:href="#img-c5d465e5-5" x="73.65" y="104.86"/>
  <use xlink:href="#img-c5d465e5-5" x="80.07" y="116.9"/>
  <use xlink:href="#img-c5d465e5-5" x="49.64" y="68.22"/>
  <use xlink:href="#img-c5d465e5-5" x="68.68" y="32.42"/>
  <use xlink:href="#img-c5d465e5-5" x="59.54" y="45.98"/>
  <use xlink:href="#img-c5d465e5-5" x="53.19" y="62.27"/>
  <use xlink:href="#img-c5d465e5-5" x="18.03" y="113.71"/>
  <use xlink:href="#img-c5d465e5-5" x="16.67" y="125.69"/>
  <use xlink:href="#img-c5d465e5-5" x="25.3" y="102.62"/>
  <use xlink:href="#img-c5d465e5-5" x="138.48" y="146.85"/>
  <use xlink:href="#img-c5d465e5-5" x="28.18" y="147.12"/>
  <use xlink:href="#img-c5d465e5-5" x="36.62" y="92.28"/>
  <use xlink:href="#img-c5d465e5-5" x="62.54" y="59.66"/>
  <use xlink:href="#img-c5d465e5-5" x="77.09" y="54.08"/>
  <use xlink:href="#img-c5d465e5-5" x="125.22" y="54.87"/>
  <use xlink:href="#img-c5d465e5-5" x="108.66" y="51.94"/>
  <use xlink:href="#img-c5d465e5-5" x="47.81" y="166.7"/>
  <use xlink:href="#img-c5d465e5-5" x="128.25" y="143.79"/>
  <use xlink:href="#img-c5d465e5-5" x="142.6" y="151.14"/>
  <use xlink:href="#img-c5d465e5-5" x="119.44" y="156.14"/>
  <use xlink:href="#img-c5d465e5-5" x="98.84" y="178.57"/>
  <use xlink:href="#img-c5d465e5-5" x="85.29" y="183.33"/>
  <use xlink:href="#img-c5d465e5-5" x="141.4" y="56.75"/>
  <use xlink:href="#img-c5d465e5-5" x="92.5" y="51.39"/>
  <use xlink:href="#img-c5d465e5-5" x="71.36" y="182.85"/>
  <use xlink:href="#img-c5d465e5-5" x="134.84" y="149.45"/>
  <use xlink:href="#img-c5d465e5-5" x="125.97" y="143.88"/>
  <use xlink:href="#img-c5d465e5-5" x="156.54" y="58.4"/>
  <use xlink:href="#img-c5d465e5-5" x="183.33" y="78.26"/>
  <use xlink:href="#img-c5d465e5-5" x="169.48" y="62.1"/>
  <use xlink:href="#img-c5d465e5-5" x="80.08" y="22.37"/>
  <use xlink:href="#img-c5d465e5-5" x="178.88" y="69.05"/>
  <use xlink:href="#img-c5d465e5-5" x="58.25" y="177.03"/>
  <use xlink:href="#img-c5d465e5-5" x="21.35" y="136.47"/>
  <use xlink:href="#img-c5d465e5-5" x="41.02" y="80.56"/>
  <use xlink:href="#img-c5d465e5-5" x="80.3" y="129.4"/>
  <use xlink:href="#img-c5d465e5-5" x="98.72" y="75.54"/>
  <use xlink:href="#img-c5d465e5-5" x="110.24" y="169.14"/>
  <use xlink:href="#img-c5d465e5-5" x="37.59" y="156.7"/>
  <use xlink:href="#img-c5d465e5-5" x="47.58" y="79.56"/>
  <use xlink:href="#img-c5d465e5-5" x="120.82" y="134.5"/>
</g>
<g font-size="4" stroke="#000000" stroke-opacity="0.000" fill="#000000" id="img-c5d465e5-6">
  <text x="59.38" y="142.56" text-anchor="middle" dy="0.35em">1</text>
  <text x="76.63" y="140.36" text-anchor="middle" dy="0.35em">2</text>
  <text x="70.87" y="148.52" text-anchor="middle" dy="0.35em">3</text>
  <text x="114.18" y="124.12" text-anchor="middle" dy="0.35em">4</text>
  <text x="119.75" y="115.01" text-anchor="middle" dy="0.35em">5</text>
  <text x="63" y="149.93" text-anchor="middle" dy="0.35em">6</text>
  <text x="81.98" y="97.76" text-anchor="middle" dy="0.35em">7</text>
  <text x="143.75" y="104.97" text-anchor="middle" dy="0.35em">8</text>
  <text x="131.21" y="109.5" text-anchor="middle" dy="0.35em">9</text>
  <text x="157.55" y="100.87" text-anchor="middle" dy="0.35em">10</text>
  <text x="179.67" y="88.05" text-anchor="middle" dy="0.35em">11</text>
  <text x="170.39" y="95.51" text-anchor="middle" dy="0.35em">12</text>
  <text x="114.96" y="56.11" text-anchor="middle" dy="0.35em">13</text>
  <text x="90.45" y="86.19" text-anchor="middle" dy="0.35em">14</text>
  <text x="107.07" y="65.35" text-anchor="middle" dy="0.35em">15</text>
  <text x="122.21" y="47.33" text-anchor="middle" dy="0.35em">16</text>
  <text x="129.24" y="42.69" text-anchor="middle" dy="0.35em">17</text>
  <text x="31.13" y="75.06" text-anchor="middle" dy="0.35em">18</text>
  <text x="134.56" y="42.71" text-anchor="middle" dy="0.35em">19</text>
  <text x="129.59" y="33.39" text-anchor="middle" dy="0.35em">20</text>
  <text x="119.86" y="22.53" text-anchor="middle" dy="0.35em">21</text>
  <text x="107.18" y="16.67" text-anchor="middle" dy="0.35em">22</text>
  <text x="28.17" y="69.31" text-anchor="middle" dy="0.35em">23</text>
  <text x="93.36" y="16.69" text-anchor="middle" dy="0.35em">24</text>
  <text x="52.98" y="87.06" text-anchor="middle" dy="0.35em">25</text>
  <text x="66.13" y="121.11" text-anchor="middle" dy="0.35em">26</text>
  <text x="37.47" y="71.85" text-anchor="middle" dy="0.35em">27</text>
  <text x="73.56" y="109.63" text-anchor="middle" dy="0.35em">28</text>
  <text x="61.16" y="132.08" text-anchor="middle" dy="0.35em">29</text>
  <text x="64.33" y="94.84" text-anchor="middle" dy="0.35em">30</text>
  <text x="73.65" y="104.86" text-anchor="middle" dy="0.35em">31</text>
  <text x="80.07" y="116.9" text-anchor="middle" dy="0.35em">32</text>
  <text x="49.64" y="68.22" text-anchor="middle" dy="0.35em">33</text>
  <text x="68.68" y="32.42" text-anchor="middle" dy="0.35em">34</text>
  <text x="59.54" y="45.98" text-anchor="middle" dy="0.35em">35</text>
  <text x="53.19" y="62.27" text-anchor="middle" dy="0.35em">36</text>
  <text x="18.03" y="113.71" text-anchor="middle" dy="0.35em">37</text>
  <text x="16.67" y="125.69" text-anchor="middle" dy="0.35em">38</text>
  <text x="25.3" y="102.62" text-anchor="middle" dy="0.35em">39</text>
  <text x="138.48" y="146.85" text-anchor="middle" dy="0.35em">40</text>
  <text x="28.18" y="147.12" text-anchor="middle" dy="0.35em">41</text>
  <text x="36.62" y="92.28" text-anchor="middle" dy="0.35em">42</text>
  <text x="62.54" y="59.66" text-anchor="middle" dy="0.35em">43</text>
  <text x="77.09" y="54.08" text-anchor="middle" dy="0.35em">44</text>
  <text x="125.22" y="54.87" text-anchor="middle" dy="0.35em">45</text>
  <text x="108.66" y="51.94" text-anchor="middle" dy="0.35em">46</text>
  <text x="47.81" y="166.7" text-anchor="middle" dy="0.35em">47</text>
  <text x="128.25" y="143.79" text-anchor="middle" dy="0.35em">48</text>
  <text x="142.6" y="151.14" text-anchor="middle" dy="0.35em">49</text>
  <text x="119.44" y="156.14" text-anchor="middle" dy="0.35em">50</text>
  <text x="98.84" y="178.57" text-anchor="middle" dy="0.35em">51</text>
  <text x="85.29" y="183.33" text-anchor="middle" dy="0.35em">52</text>
  <text x="141.4" y="56.75" text-anchor="middle" dy="0.35em">53</text>
  <text x="92.5" y="51.39" text-anchor="middle" dy="0.35em">54</text>
  <text x="71.36" y="182.85" text-anchor="middle" dy="0.35em">55</text>
  <text x="134.84" y="149.45" text-anchor="middle" dy="0.35em">56</text>
  <text x="125.97" y="143.88" text-anchor="middle" dy="0.35em">57</text>
  <text x="156.54" y="58.4" text-anchor="middle" dy="0.35em">58</text>
  <text x="183.33" y="78.26" text-anchor="middle" dy="0.35em">59</text>
  <text x="169.48" y="62.1" text-anchor="middle" dy="0.35em">60</text>
  <text x="80.08" y="22.37" text-anchor="middle" dy="0.35em">61</text>
  <text x="178.88" y="69.05" text-anchor="middle" dy="0.35em">62</text>
  <text x="58.25" y="177.03" text-anchor="middle" dy="0.35em">63</text>
  <text x="21.35" y="136.47" text-anchor="middle" dy="0.35em">64</text>
  <text x="41.02" y="80.56" text-anchor="middle" dy="0.35em">65</text>
  <text x="80.3" y="129.4" text-anchor="middle" dy="0.35em">66</text>
  <text x="98.72" y="75.54" text-anchor="middle" dy="0.35em">67</text>
  <text x="110.24" y="169.14" text-anchor="middle" dy="0.35em">68</text>
  <text x="37.59" y="156.7" text-anchor="middle" dy="0.35em">69</text>
  <text x="47.58" y="79.56" text-anchor="middle" dy="0.35em">70</text>
  <text x="120.82" y="134.5" text-anchor="middle" dy="0.35em">71</text>
</g>
<defs>
  <g id="img-c5d465e5-5">
    <circle cx="0" cy="0" r="2.37"/>
  </g>
</defs>
</svg>
