<?xml version="1.0" encoding="UTF-8"?>
<svg xmlns="http://www.w3.org/2000/svg"
     xmlns:xlink="http://www.w3.org/1999/xlink"
     version="1.2"
     width="200mm" height="200mm" viewBox="0 0 200 200"
     stroke="none"
     fill="#000000"
     stroke-width="0.3"
     font-size="3.88"
>
<g stroke-width="0.73" fill="#000000" fill-opacity="0.000" stroke="#D3D3D3" id="img-d51b3ee9-1">
  <path fill="none" d="M148.79,30.41 L 127.91 20.77"/>
  <path fill="none" d="M156.8,36.25 L 170.58 51.29"/>
  <path fill="none" d="M182.12,106.39 L 183.08 87.68"/>
  <path fill="none" d="M180.74,116.37 L 176.64 134.32"/>
  <path fill="none" d="M181.72,77.85 L 175.61 59.8"/>
  <path fill="none" d="M18.07,106.51 L 23.44 125"/>
  <path fill="none" d="M17.12,96.62 L 18.79 78.18"/>
  <path fill="none" d="M27.35,134.25 L 37.07 151.32"/>
  <path fill="none" d="M53.63,30.09 L 37.17 43.48"/>
  <path fill="none" d="M62.37,25.37 L 84.95 18.2"/>
  <path fill="none" d="M30.89,51.14 L 21.61 68.69"/>
  <path fill="none" d="M69.06,175.89 L 91.66 182.01"/>
  <path fill="none" d="M60.17,171.5 L 43.59 158.78"/>
  <path fill="none" d="M101.55,182.69 L 124.48 179.75"/>
  <path fill="none" d="M172.49,143.29 L 160.62 159.1"/>
  <path fill="none" d="M133.89,176.61 L 153.19 165.64"/>
  <path fill="none" d="M118.28,18.36 L 94.81 16.97"/>
</g>
<g stroke-width="0.73" stroke="#D3D3D3" id="img-d51b3ee9-2">
</g>
<g font-size="4" stroke="#000000" stroke-opacity="0.000" fill="#000000" id="img-d51b3ee9-3">
  <text x="138.35" y="25.59" text-anchor="middle" dy="0.35em">0</text>
  <text x="163.69" y="43.77" text-anchor="middle" dy="0.35em">5</text>
  <text x="182.6" y="97.04" text-anchor="middle" dy="0.35em">3</text>
  <text x="178.69" y="125.34" text-anchor="middle" dy="0.35em">0</text>
  <text x="178.66" y="68.82" text-anchor="middle" dy="0.35em">0</text>
  <text x="20.76" y="115.76" text-anchor="middle" dy="0.35em">0</text>
  <text x="17.96" y="87.4" text-anchor="middle" dy="0.35em">6</text>
  <text x="32.21" y="142.78" text-anchor="middle" dy="0.35em">12</text>
  <text x="45.4" y="36.79" text-anchor="middle" dy="0.35em">0</text>
  <text x="73.66" y="21.79" text-anchor="middle" dy="0.35em">0</text>
  <text x="26.25" y="59.91" text-anchor="middle" dy="0.35em">0</text>
  <text x="80.36" y="178.95" text-anchor="middle" dy="0.35em">0</text>
  <text x="51.88" y="165.14" text-anchor="middle" dy="0.35em">0</text>
  <text x="113.02" y="181.22" text-anchor="middle" dy="0.35em">5</text>
  <text x="166.55" y="151.19" text-anchor="middle" dy="0.35em">0</text>
  <text x="143.54" y="171.13" text-anchor="middle" dy="0.35em">0</text>
  <text x="106.54" y="17.66" text-anchor="middle" dy="0.35em">8</text>
</g>
<g stroke-width="0" stroke="#000000" stroke-opacity="0.000" fill="#40E0D0" id="img-d51b3ee9-4">
  <use xlink:href="#img-d51b3ee9-5" x="153.38" y="32.52"/>
  <use xlink:href="#img-d51b3ee9-5" x="181.86" y="111.44"/>
  <use xlink:href="#img-d51b3ee9-5" x="183.33" y="82.64"/>
  <use xlink:href="#img-d51b3ee9-5" x="16.67" y="101.66"/>
  <use xlink:href="#img-d51b3ee9-5" x="24.85" y="129.86"/>
  <use xlink:href="#img-d51b3ee9-5" x="57.55" y="26.9"/>
  <use xlink:href="#img-d51b3ee9-5" x="33.26" y="46.67"/>
  <use xlink:href="#img-d51b3ee9-5" x="64.18" y="174.57"/>
  <use xlink:href="#img-d51b3ee9-5" x="96.54" y="183.33"/>
  <use xlink:href="#img-d51b3ee9-5" x="175.52" y="139.25"/>
  <use xlink:href="#img-d51b3ee9-5" x="129.49" y="179.11"/>
  <use xlink:href="#img-d51b3ee9-5" x="123.32" y="18.66"/>
  <use xlink:href="#img-d51b3ee9-5" x="157.59" y="163.14"/>
  <use xlink:href="#img-d51b3ee9-5" x="173.99" y="55.01"/>
  <use xlink:href="#img-d51b3ee9-5" x="89.76" y="16.67"/>
  <use xlink:href="#img-d51b3ee9-5" x="19.25" y="73.15"/>
  <use xlink:href="#img-d51b3ee9-5" x="39.58" y="155.71"/>
</g>
<g font-size="4" stroke="#000000" stroke-opacity="0.000" fill="#000000" id="img-d51b3ee9-6">
  <text x="153.38" y="32.52" text-anchor="middle" dy="0.35em">1</text>
  <text x="181.86" y="111.44" text-anchor="middle" dy="0.35em">2</text>
  <text x="183.33" y="82.64" text-anchor="middle" dy="0.35em">3</text>
  <text x="16.67" y="101.66" text-anchor="middle" dy="0.35em">4</text>
  <text x="24.85" y="129.86" text-anchor="middle" dy="0.35em">5</text>
  <text x="57.55" y="26.9" text-anchor="middle" dy="0.35em">6</text>
  <text x="33.26" y="46.67" text-anchor="middle" dy="0.35em">7</text>
  <text x="64.18" y="174.57" text-anchor="middle" dy="0.35em">8</text>
  <text x="96.54" y="183.33" text-anchor="middle" dy="0.35em">9</text>
  <text x="175.52" y="139.25" text-anchor="middle" dy="0.35em">10</text>
  <text x="129.49" y="179.11" text-anchor="middle" dy="0.35em">11</text>
  <text x="123.32" y="18.66" text-anchor="middle" dy="0.35em">12</text>
  <text x="157.59" y="163.14" text-anchor="middle" dy="0.35em">13</text>
  <text x="173.99" y="55.01" text-anchor="middle" dy="0.35em">14</text>
  <text x="89.76" y="16.67" text-anchor="middle" dy="0.35em">15</text>
  <text x="19.25" y="73.15" text-anchor="middle" dy="0.35em">16</text>
  <text x="39.58" y="155.71" text-anchor="middle" dy="0.35em">17</text>
</g>
<defs>
  <g id="img-d51b3ee9-5">
    <circle cx="0" cy="0" r="4.85"/>
  </g>
</defs>
</svg>
