<?xml version="1.0" encoding="UTF-8"?>
<svg xmlns="http://www.w3.org/2000/svg"
     xmlns:xlink="http://www.w3.org/1999/xlink"
     version="1.2"
     width="200mm" height="200mm" viewBox="0 0 200 200"
     stroke="none"
     fill="#000000"
     stroke-width="0.3"
     font-size="3.88"
>
<g stroke-width="0.41" fill="#000000" fill-opacity="0.000" stroke="#D3D3D3" id="img-279876f1-1">
  <path fill="none" d="M176.19,146.3 L 177.51 155.13"/>
  <path fill="none" d="M177.33,141.08 L 181.77 134.26"/>
  <path fill="none" d="M111.44,117.62 L 102.14 131.61"/>
  <path fill="none" d="M114.34,112.69 L 122.77 96.5"/>
  <path fill="none" d="M174.33,166.96 L 176.87 160.62"/>
  <path fill="none" d="M170.95,171.3 L 168.13 173.35"/>
  <path fill="none" d="M48.29,51.08 L 49.96 57.41"/>
  <path fill="none" d="M44.89,47.3 L 44.24 47.05"/>
  <path fill="none" d="M49.22,176.56 L 55.74 169.64"/>
  <path fill="none" d="M44.65,179.82 L 39.51 182.15"/>
  <path fill="none" d="M60.23,166.23 L 69.57 161.34"/>
  <path fill="none" d="M74.41,158.32 L 84.56 150.87"/>
  <path fill="none" d="M98.64,136.12 L 88.78 147.06"/>
  <path fill="none" d="M56.87,87.76 L 55.58 78.01"/>
  <path fill="none" d="M54.48,91.35 L 48.12 93.09"/>
  <path fill="none" d="M54.38,72.43 L 51.51 62.92"/>
  <path fill="none" d="M43.03,95.49 L 38.53 98.68"/>
  <path fill="none" d="M36.48,103.19 L 36.96 107.98"/>
  <path fill="none" d="M148.56,155.38 L 154.56 164.47"/>
  <path fill="none" d="M145.63,150.47 L 139.2 138.49"/>
  <path fill="none" d="M158.32,168.71 L 163.63 173.18"/>
  <path fill="none" d="M125.17,91.31 L 131.32 76.18"/>
  <path fill="none" d="M133.2,70.79 L 137.18 57.35"/>
  <path fill="none" d="M123.83,18.12 L 118.42 21.31"/>
  <path fill="none" d="M128.61,18.35 L 133.37 21.79"/>
  <path fill="none" d="M114.59,25.28 L 109.73 34.17"/>
  <path fill="none" d="M138.25,51.75 L 139.31 40.23"/>
  <path fill="none" d="M138.8,34.63 L 136.46 26.23"/>
  <path fill="none" d="M22.58,65.01 L 28.18 55.88"/>
  <path fill="none" d="M20.4,70.23 L 17.35 82.63"/>
  <path fill="none" d="M39.13,47.55 L 32.11 51.93"/>
  <path fill="none" d="M16.95,88.25 L 18.35 102.22"/>
  <path fill="none" d="M19.45,107.81 L 23.62 121.91"/>
  <path fill="none" d="M182.82,129.05 L 181.37 121.2"/>
  <path fill="none" d="M178.73,116.47 L 171.8 110.2"/>
  <path fill="none" d="M161.09,106.47 L 166.87 107.69"/>
  <path fill="none" d="M155.43,105.96 L 146.2 106.21"/>
  <path fill="none" d="M140.49,106.56 L 128.86 107.65"/>
  <path fill="none" d="M103.77,57.69 L 107.77 71.82"/>
  <path fill="none" d="M103.79,52.19 L 107.55 39.42"/>
  <path fill="none" d="M109.75,77.17 L 116.81 92.38"/>
  <path fill="none" d="M136.56,133.41 L 129.36 119.11"/>
  <path fill="none" d="M119.23,97.57 L 126.87 113.96"/>
  <path fill="none" d="M39.69,112.3 L 44.92 115.44"/>
  <path fill="none" d="M63.93,118 L 73.28 117.13"/>
  <path fill="none" d="M58.23,117.98 L 50.22 117.19"/>
  <path fill="none" d="M94.7,113.35 L 105.57 111.17"/>
  <path fill="none" d="M89.08,114.44 L 78.94 116.34"/>
  <path fill="none" d="M123.18,108.34 L 111.21 110.17"/>
  <path fill="none" d="M25.95,127.09 L 33.47 139.17"/>
  <path fill="none" d="M34.36,175.41 L 36.03 180.61"/>
  <path fill="none" d="M34.46,170 L 37.69 161.15"/>
  <path fill="none" d="M35.6,144.39 L 38.06 155.66"/>
</g>
<g stroke-width="0.41" stroke="#D3D3D3" id="img-279876f1-2">
</g>
<g font-size="4" stroke="#000000" stroke-opacity="0.000" fill="#000000" id="img-279876f1-3">
  <text x="176.85" y="150.72" text-anchor="middle" dy="0.35em">93</text>
  <text x="179.55" y="137.67" text-anchor="middle" dy="0.35em">500</text>
  <text x="106.79" y="124.61" text-anchor="middle" dy="0.35em">309</text>
  <text x="118.56" y="104.6" text-anchor="middle" dy="0.35em">85</text>
  <text x="175.6" y="163.79" text-anchor="middle" dy="0.35em">63</text>
  <text x="169.54" y="172.32" text-anchor="middle" dy="0.35em">325</text>
  <text x="49.13" y="54.25" text-anchor="middle" dy="0.35em">176</text>
  <text x="44.56" y="47.18" text-anchor="middle" dy="0.35em">502</text>
  <text x="52.48" y="173.1" text-anchor="middle" dy="0.35em">55</text>
  <text x="42.08" y="180.99" text-anchor="middle" dy="0.35em">1550</text>
  <text x="64.9" y="163.78" text-anchor="middle" dy="0.35em">111</text>
  <text x="79.49" y="154.6" text-anchor="middle" dy="0.35em">99</text>
  <text x="93.71" y="141.59" text-anchor="middle" dy="0.35em">32</text>
  <text x="56.23" y="82.88" text-anchor="middle" dy="0.35em">114</text>
  <text x="51.3" y="92.22" text-anchor="middle" dy="0.35em">110</text>
  <text x="52.95" y="67.67" text-anchor="middle" dy="0.35em">54</text>
  <text x="40.78" y="97.09" text-anchor="middle" dy="0.35em">99</text>
  <text x="36.72" y="105.58" text-anchor="middle" dy="0.35em">669</text>
  <text x="151.56" y="159.92" text-anchor="middle" dy="0.35em">24</text>
  <text x="142.41" y="144.48" text-anchor="middle" dy="0.35em">192</text>
  <text x="160.97" y="170.95" text-anchor="middle" dy="0.35em">48</text>
  <text x="128.24" y="83.75" text-anchor="middle" dy="0.35em">31</text>
  <text x="135.19" y="64.07" text-anchor="middle" dy="0.35em">145</text>
  <text x="121.13" y="19.72" text-anchor="middle" dy="0.35em">115</text>
  <text x="130.99" y="20.07" text-anchor="middle" dy="0.35em">103</text>
  <text x="112.16" y="29.72" text-anchor="middle" dy="0.35em">79</text>
  <text x="138.78" y="45.99" text-anchor="middle" dy="0.35em">96</text>
  <text x="137.63" y="30.43" text-anchor="middle" dy="0.35em">81</text>
  <text x="25.38" y="60.45" text-anchor="middle" dy="0.35em">135</text>
  <text x="18.87" y="76.43" text-anchor="middle" dy="0.35em">36</text>
  <text x="35.62" y="49.74" text-anchor="middle" dy="0.35em">61</text>
  <text x="17.65" y="95.24" text-anchor="middle" dy="0.35em">63</text>
  <text x="21.54" y="114.86" text-anchor="middle" dy="0.35em">978</text>
  <text x="182.1" y="125.13" text-anchor="middle" dy="0.35em">136</text>
  <text x="175.26" y="113.33" text-anchor="middle" dy="0.35em">119</text>
  <text x="163.98" y="107.08" text-anchor="middle" dy="0.35em">381</text>
  <text x="150.81" y="106.09" text-anchor="middle" dy="0.35em">169</text>
  <text x="134.67" y="107.1" text-anchor="middle" dy="0.35em">86</text>
  <text x="105.77" y="64.76" text-anchor="middle" dy="0.35em">48</text>
  <text x="105.67" y="45.81" text-anchor="middle" dy="0.35em">54</text>
  <text x="113.28" y="84.78" text-anchor="middle" dy="0.35em">23</text>
  <text x="132.96" y="126.26" text-anchor="middle" dy="0.35em">110</text>
  <text x="123.05" y="105.77" text-anchor="middle" dy="0.35em">125</text>
  <text x="42.31" y="113.87" text-anchor="middle" dy="0.35em">76</text>
  <text x="68.6" y="117.56" text-anchor="middle" dy="0.35em">110</text>
  <text x="54.22" y="117.59" text-anchor="middle" dy="0.35em">26</text>
  <text x="100.14" y="112.26" text-anchor="middle" dy="0.35em">112</text>
  <text x="84.01" y="115.39" text-anchor="middle" dy="0.35em">29</text>
  <text x="117.2" y="109.26" text-anchor="middle" dy="0.35em">94</text>
  <text x="29.71" y="133.13" text-anchor="middle" dy="0.35em">44</text>
  <text x="35.19" y="178.01" text-anchor="middle" dy="0.35em">79</text>
  <text x="36.07" y="165.57" text-anchor="middle" dy="0.35em">80</text>
  <text x="36.83" y="150.03" text-anchor="middle" dy="0.35em">29</text>
</g>
<g stroke-width="0" stroke="#000000" stroke-opacity="0.000" fill="#40E0D0" id="img-279876f1-4">
  <use xlink:href="#img-279876f1-5" x="175.77" y="143.47"/>
  <use xlink:href="#img-279876f1-5" x="113.02" y="115.23"/>
  <use xlink:href="#img-279876f1-5" x="173.26" y="169.62"/>
  <use xlink:href="#img-279876f1-5" x="47.56" y="48.31"/>
  <use xlink:href="#img-279876f1-5" x="177.94" y="157.96"/>
  <use xlink:href="#img-279876f1-5" x="47.26" y="178.64"/>
  <use xlink:href="#img-279876f1-5" x="57.7" y="167.55"/>
  <use xlink:href="#img-279876f1-5" x="72.11" y="160.01"/>
  <use xlink:href="#img-279876f1-5" x="100.55" y="134"/>
  <use xlink:href="#img-279876f1-5" x="86.87" y="149.18"/>
  <use xlink:href="#img-279876f1-5" x="57.25" y="90.6"/>
  <use xlink:href="#img-279876f1-5" x="55.21" y="75.17"/>
  <use xlink:href="#img-279876f1-5" x="45.36" y="93.84"/>
  <use xlink:href="#img-279876f1-5" x="50.69" y="60.18"/>
  <use xlink:href="#img-279876f1-5" x="36.19" y="100.34"/>
  <use xlink:href="#img-279876f1-5" x="146.99" y="152.99"/>
  <use xlink:href="#img-279876f1-5" x="156.13" y="166.86"/>
  <use xlink:href="#img-279876f1-5" x="165.81" y="175.03"/>
  <use xlink:href="#img-279876f1-5" x="124.09" y="93.96"/>
  <use xlink:href="#img-279876f1-5" x="132.39" y="73.53"/>
  <use xlink:href="#img-279876f1-5" x="126.29" y="16.67"/>
  <use xlink:href="#img-279876f1-5" x="115.96" y="22.77"/>
  <use xlink:href="#img-279876f1-5" x="137.99" y="54.6"/>
  <use xlink:href="#img-279876f1-5" x="139.57" y="37.38"/>
  <use xlink:href="#img-279876f1-5" x="135.69" y="23.47"/>
  <use xlink:href="#img-279876f1-5" x="21.08" y="67.45"/>
  <use xlink:href="#img-279876f1-5" x="41.56" y="46.04"/>
  <use xlink:href="#img-279876f1-5" x="29.68" y="53.44"/>
  <use xlink:href="#img-279876f1-5" x="16.67" y="85.41"/>
  <use xlink:href="#img-279876f1-5" x="18.64" y="105.07"/>
  <use xlink:href="#img-279876f1-5" x="183.33" y="131.87"/>
  <use xlink:href="#img-279876f1-5" x="180.86" y="118.39"/>
  <use xlink:href="#img-279876f1-5" x="158.29" y="105.88"/>
  <use xlink:href="#img-279876f1-5" x="169.67" y="108.28"/>
  <use xlink:href="#img-279876f1-5" x="143.34" y="106.29"/>
  <use xlink:href="#img-279876f1-5" x="102.99" y="54.94"/>
  <use xlink:href="#img-279876f1-5" x="108.55" y="74.58"/>
  <use xlink:href="#img-279876f1-5" x="137.84" y="135.97"/>
  <use xlink:href="#img-279876f1-5" x="118.02" y="94.98"/>
  <use xlink:href="#img-279876f1-5" x="128.07" y="116.56"/>
  <use xlink:href="#img-279876f1-5" x="108.36" y="36.68"/>
  <use xlink:href="#img-279876f1-5" x="37.24" y="110.82"/>
  <use xlink:href="#img-279876f1-5" x="61.08" y="118.26"/>
  <use xlink:href="#img-279876f1-5" x="91.89" y="113.91"/>
  <use xlink:href="#img-279876f1-5" x="126.01" y="107.91"/>
  <use xlink:href="#img-279876f1-5" x="108.38" y="110.61"/>
  <use xlink:href="#img-279876f1-5" x="76.13" y="116.86"/>
  <use xlink:href="#img-279876f1-5" x="47.37" y="116.91"/>
  <use xlink:href="#img-279876f1-5" x="24.44" y="124.66"/>
  <use xlink:href="#img-279876f1-5" x="33.48" y="172.69"/>
  <use xlink:href="#img-279876f1-5" x="34.99" y="141.6"/>
  <use xlink:href="#img-279876f1-5" x="36.9" y="183.33"/>
  <use xlink:href="#img-279876f1-5" x="38.67" y="158.46"/>
</g>
<g font-size="4" stroke="#000000" stroke-opacity="0.000" fill="#000000" id="img-279876f1-6">
  <text x="175.77" y="143.47" text-anchor="middle" dy="0.35em">1</text>
  <text x="113.02" y="115.23" text-anchor="middle" dy="0.35em">2</text>
  <text x="173.26" y="169.62" text-anchor="middle" dy="0.35em">3</text>
  <text x="47.56" y="48.31" text-anchor="middle" dy="0.35em">4</text>
  <text x="177.94" y="157.96" text-anchor="middle" dy="0.35em">5</text>
  <text x="47.26" y="178.64" text-anchor="middle" dy="0.35em">6</text>
  <text x="57.7" y="167.55" text-anchor="middle" dy="0.35em">7</text>
  <text x="72.11" y="160.01" text-anchor="middle" dy="0.35em">8</text>
  <text x="100.55" y="134" text-anchor="middle" dy="0.35em">9</text>
  <text x="86.87" y="149.18" text-anchor="middle" dy="0.35em">10</text>
  <text x="57.25" y="90.6" text-anchor="middle" dy="0.35em">11</text>
  <text x="55.21" y="75.17" text-anchor="middle" dy="0.35em">12</text>
  <text x="45.36" y="93.84" text-anchor="middle" dy="0.35em">13</text>
  <text x="50.69" y="60.18" text-anchor="middle" dy="0.35em">14</text>
  <text x="36.19" y="100.34" text-anchor="middle" dy="0.35em">15</text>
  <text x="146.99" y="152.99" text-anchor="middle" dy="0.35em">16</text>
  <text x="156.13" y="166.86" text-anchor="middle" dy="0.35em">17</text>
  <text x="165.81" y="175.03" text-anchor="middle" dy="0.35em">18</text>
  <text x="124.09" y="93.96" text-anchor="middle" dy="0.35em">19</text>
  <text x="132.39" y="73.53" text-anchor="middle" dy="0.35em">20</text>
  <text x="126.29" y="16.67" text-anchor="middle" dy="0.35em">21</text>
  <text x="115.96" y="22.77" text-anchor="middle" dy="0.35em">22</text>
  <text x="137.99" y="54.6" text-anchor="middle" dy="0.35em">23</text>
  <text x="139.57" y="37.38" text-anchor="middle" dy="0.35em">24</text>
  <text x="135.69" y="23.47" text-anchor="middle" dy="0.35em">25</text>
  <text x="21.08" y="67.45" text-anchor="middle" dy="0.35em">26</text>
  <text x="41.56" y="46.04" text-anchor="middle" dy="0.35em">27</text>
  <text x="29.68" y="53.44" text-anchor="middle" dy="0.35em">28</text>
  <text x="16.67" y="85.41" text-anchor="middle" dy="0.35em">29</text>
  <text x="18.64" y="105.07" text-anchor="middle" dy="0.35em">30</text>
  <text x="183.33" y="131.87" text-anchor="middle" dy="0.35em">31</text>
  <text x="180.86" y="118.39" text-anchor="middle" dy="0.35em">32</text>
  <text x="158.29" y="105.88" text-anchor="middle" dy="0.35em">33</text>
  <text x="169.67" y="108.28" text-anchor="middle" dy="0.35em">34</text>
  <text x="143.34" y="106.29" text-anchor="middle" dy="0.35em">35</text>
  <text x="102.99" y="54.94" text-anchor="middle" dy="0.35em">36</text>
  <text x="108.55" y="74.58" text-anchor="middle" dy="0.35em">37</text>
  <text x="137.84" y="135.97" text-anchor="middle" dy="0.35em">38</text>
  <text x="118.02" y="94.98" text-anchor="middle" dy="0.35em">39</text>
  <text x="128.07" y="116.56" text-anchor="middle" dy="0.35em">40</text>
  <text x="108.36" y="36.68" text-anchor="middle" dy="0.35em">41</text>
  <text x="37.24" y="110.82" text-anchor="middle" dy="0.35em">42</text>
  <text x="61.08" y="118.26" text-anchor="middle" dy="0.35em">43</text>
  <text x="91.89" y="113.91" text-anchor="middle" dy="0.35em">44</text>
  <text x="126.01" y="107.91" text-anchor="middle" dy="0.35em">45</text>
  <text x="108.38" y="110.61" text-anchor="middle" dy="0.35em">46</text>
  <text x="76.13" y="116.86" text-anchor="middle" dy="0.35em">47</text>
  <text x="47.37" y="116.91" text-anchor="middle" dy="0.35em">48</text>
  <text x="24.44" y="124.66" text-anchor="middle" dy="0.35em">49</text>
  <text x="33.48" y="172.69" text-anchor="middle" dy="0.35em">50</text>
  <text x="34.99" y="141.6" text-anchor="middle" dy="0.35em">51</text>
  <text x="36.9" y="183.33" text-anchor="middle" dy="0.35em">52</text>
  <text x="38.67" y="158.46" text-anchor="middle" dy="0.35em">53</text>
</g>
<defs>
  <g id="img-279876f1-5">
    <circle cx="0" cy="0" r="2.75"/>
  </g>
</defs>
</svg>
