<?xml version="1.0" encoding="UTF-8"?>
<svg xmlns="http://www.w3.org/2000/svg"
     xmlns:xlink="http://www.w3.org/1999/xlink"
     version="1.2"
     width="200mm" height="200mm" viewBox="0 0 200 200"
     stroke="none"
     fill="#000000"
     stroke-width="0.3"
     font-size="3.88"
>
<g stroke-width="0.73" fill="#000000" fill-opacity="0.000" id="img-1ea0cb9f-1">
  <path fill="none" d="M182.4,104.97 L 178.59 125.27" stroke="#D3D3D3"/>
  <path fill="none" d="M181.5,104.71 L 163.23 151.67" stroke="#D3D3D3"/>
  <path fill="none" d="M180.67,104.29 L 139.42 170.63" stroke="#D3D3D3"/>
  <path fill="none" d="M179.92,103.73 L 110.45 179.61" stroke="#D3D3D3"/>
  <path fill="none" d="M179.29,103.04 L 80.32 177.46" stroke="#D3D3D3"/>
  <path fill="none" d="M178.81,102.24 L 53.16 164.54" stroke="#D3D3D3"/>
  <path fill="none" d="M178.47,101.38 L 32.69 142.68" stroke="#D3D3D3"/>
  <path fill="none" d="M178.3,100.46 L 21.7 114.91" stroke="#D3D3D3"/>
  <path fill="none" d="M178.3,99.54 L 21.7 85.09" stroke="#D3D3D3"/>
  <path fill="none" d="M178.47,98.62 L 32.69 57.32" stroke="#D3D3D3"/>
  <path fill="none" d="M178.81,97.76 L 53.16 35.46" stroke="#FFA500"/>
  <path fill="none" d="M179.29,96.96 L 80.32 22.54" stroke="#D3D3D3"/>
  <path fill="none" d="M179.92,96.27 L 110.45 20.39" stroke="#FFA500"/>
  <path fill="none" d="M180.67,95.71 L 139.42 29.37" stroke="#D3D3D3"/>
  <path fill="none" d="M181.5,95.29 L 163.23 48.33" stroke="#D3D3D3"/>
  <path fill="none" d="M182.4,95.03 L 178.59 74.73" stroke="#D3D3D3"/>
  <path fill="none" d="M174.99,134.52 L 164.07 152.09" stroke="#FFA500"/>
  <path fill="none" d="M174.25,133.96 L 140.16 171.19" stroke="#D3D3D3"/>
  <path fill="none" d="M173.62,133.27 L 111.08 180.3" stroke="#D3D3D3"/>
  <path fill="none" d="M173.13,132.48 L 80.81 178.25" stroke="#D3D3D3"/>
  <path fill="none" d="M172.8,131.61 L 53.5 165.41" stroke="#D3D3D3"/>
  <path fill="none" d="M172.63,130.7 L 32.86 143.59" stroke="#D3D3D3"/>
  <path fill="none" d="M172.63,129.77 L 21.7 115.84" stroke="#D3D3D3"/>
  <path fill="none" d="M172.8,128.86 L 21.53 86" stroke="#FFA500"/>
  <path fill="none" d="M173.13,127.99 L 32.35 58.19" stroke="#D3D3D3"/>
  <path fill="none" d="M173.62,127.2 L 52.67 36.25" stroke="#D3D3D3"/>
  <path fill="none" d="M174.25,126.51 L 79.7 23.23" stroke="#D3D3D3"/>
  <path fill="none" d="M174.99,125.94 L 109.71 20.96" stroke="#D3D3D3"/>
  <path fill="none" d="M175.83,125.52 L 138.58 29.79" stroke="#D3D3D3"/>
  <path fill="none" d="M176.73,125.27 L 162.33 48.58" stroke="#D3D3D3"/>
  <path fill="none" d="M177.66,125.18 L 177.66 74.82" stroke="#D3D3D3"/>
  <path fill="none" d="M157.36,159.42 L 140.79 171.88" stroke="#D3D3D3"/>
  <path fill="none" d="M156.87,158.63 L 111.57 181.09" stroke="#D3D3D3"/>
  <path fill="none" d="M156.54,157.76 L 81.14 179.12" stroke="#D3D3D3"/>
  <path fill="none" d="M156.37,156.85 L 53.67 166.32" stroke="#D3D3D3"/>
  <path fill="none" d="M156.37,155.92 L 32.86 144.52" stroke="#D3D3D3"/>
  <path fill="none" d="M156.54,155 L 21.53 116.76" stroke="#D3D3D3"/>
  <path fill="none" d="M156.87,154.14 L 21.19 86.87" stroke="#D3D3D3"/>
  <path fill="none" d="M157.36,153.35 L 31.86 58.98" stroke="#D3D3D3"/>
  <path fill="none" d="M157.99,152.65 L 52.05 36.94" stroke="#D3D3D3"/>
  <path fill="none" d="M158.73,152.09 L 78.95 23.8" stroke="#D3D3D3"/>
  <path fill="none" d="M159.57,151.67 L 108.87 21.38" stroke="#FFA500"/>
  <path fill="none" d="M160.47,151.42 L 137.68 30.05" stroke="#D3D3D3"/>
  <path fill="none" d="M161.4,151.33 L 161.4 48.67" stroke="#D3D3D3"/>
  <path fill="none" d="M162.33,151.42 L 176.73 74.73" stroke="#D3D3D3"/>
  <path fill="none" d="M131.89,176.29 L 111.9 181.96" stroke="#FFA500"/>
  <path fill="none" d="M131.72,175.38 L 81.31 180.03" stroke="#D3D3D3"/>
  <path fill="none" d="M131.72,174.45 L 53.67 167.25" stroke="#D3D3D3"/>
  <path fill="none" d="M131.89,173.54 L 32.69 145.43" stroke="#D3D3D3"/>
  <path fill="none" d="M132.22,172.67 L 21.19 117.62" stroke="#D3D3D3"/>
  <path fill="none" d="M132.71,171.88 L 20.71 87.66" stroke="#D3D3D3"/>
  <path fill="none" d="M133.34,171.19 L 31.24 59.67" stroke="#D3D3D3"/>
  <path fill="none" d="M134.08,170.63 L 51.3 37.5" stroke="#D3D3D3"/>
  <path fill="none" d="M134.92,170.21 L 78.12 24.21" stroke="#D3D3D3"/>
  <path fill="none" d="M135.82,169.95 L 107.97 21.63" stroke="#D3D3D3"/>
  <path fill="none" d="M136.75,169.86 L 136.75 30.14" stroke="#D3D3D3"/>
  <path fill="none" d="M137.68,169.95 L 160.47 48.58" stroke="#FFA500"/>
  <path fill="none" d="M138.58,170.21 L 175.83 74.48" stroke="#D3D3D3"/>
  <path fill="none" d="M102.01,182.87 L 81.31 180.96" stroke="#D3D3D3"/>
  <path fill="none" d="M102.18,181.96 L 53.5 168.16" stroke="#D3D3D3"/>
  <path fill="none" d="M102.51,181.09 L 32.35 146.3" stroke="#D3D3D3"/>
  <path fill="none" d="M103,180.3 L 20.71 118.41" stroke="#D3D3D3"/>
  <path fill="none" d="M103.63,179.61 L 20.08 88.35" stroke="#D3D3D3"/>
  <path fill="none" d="M104.37,179.04 L 30.49 60.23" stroke="#D3D3D3"/>
  <path fill="none" d="M105.21,178.62 L 50.47 37.92" stroke="#D3D3D3"/>
  <path fill="none" d="M106.11,178.37 L 77.22 24.47" stroke="#D3D3D3"/>
  <path fill="none" d="M107.04,178.28 L 107.04 21.72" stroke="#D3D3D3"/>
  <path fill="none" d="M107.97,178.37 L 135.82 30.05" stroke="#D3D3D3"/>
  <path fill="none" d="M108.87,178.62 L 159.57 48.33" stroke="#D3D3D3"/>
  <path fill="none" d="M109.71,179.04 L 174.99 74.06" stroke="#FFA500"/>
  <path fill="none" d="M71.76,178.25 L 53.16 169.03" stroke="#FFA500"/>
  <path fill="none" d="M72.24,177.46 L 31.86 147.09" stroke="#D3D3D3"/>
  <path fill="none" d="M72.87,176.77 L 20.08 119.1" stroke="#D3D3D3"/>
  <path fill="none" d="M73.62,176.2 L 19.33 88.91" stroke="#D3D3D3"/>
  <path fill="none" d="M74.45,175.79 L 29.66 60.65" stroke="#D3D3D3"/>
  <path fill="none" d="M75.35,175.53 L 49.57 38.18" stroke="#D3D3D3"/>
  <path fill="none" d="M76.28,175.44 L 76.28 24.56" stroke="#D3D3D3"/>
  <path fill="none" d="M77.22,175.53 L 106.11 21.63" stroke="#D3D3D3"/>
  <path fill="none" d="M78.12,175.79 L 134.92 29.79" stroke="#FFA500"/>
  <path fill="none" d="M78.95,176.2 L 158.73 47.91" stroke="#D3D3D3"/>
  <path fill="none" d="M79.7,176.77 L 174.25 73.49" stroke="#D3D3D3"/>
  <path fill="none" d="M45.22,163.06 L 31.24 147.78" stroke="#D3D3D3"/>
  <path fill="none" d="M45.97,162.5 L 19.33 119.67" stroke="#D3D3D3"/>
  <path fill="none" d="M46.8,162.08 L 18.5 89.33" stroke="#D3D3D3"/>
  <path fill="none" d="M47.7,161.82 L 28.76 60.91" stroke="#D3D3D3"/>
  <path fill="none" d="M48.63,161.73 L 48.63 38.27" stroke="#D3D3D3"/>
  <path fill="none" d="M49.57,161.82 L 75.35 24.47" stroke="#D3D3D3"/>
  <path fill="none" d="M50.47,162.08 L 105.21 21.38" stroke="#D3D3D3"/>
  <path fill="none" d="M51.3,162.5 L 134.08 29.37" stroke="#D3D3D3"/>
  <path fill="none" d="M52.05,163.06 L 157.99 47.35" stroke="#FFA500"/>
  <path fill="none" d="M52.67,163.75 L 173.62 72.8" stroke="#D3D3D3"/>
  <path fill="none" d="M25.99,139.35 L 18.5 120.09" stroke="#FFA500"/>
  <path fill="none" d="M26.89,139.09 L 17.6 89.59" stroke="#D3D3D3"/>
  <path fill="none" d="M27.82,139 L 27.82 61" stroke="#D3D3D3"/>
  <path fill="none" d="M28.76,139.09 L 47.7 38.18" stroke="#D3D3D3"/>
  <path fill="none" d="M29.66,139.35 L 74.45 24.21" stroke="#D3D3D3"/>
  <path fill="none" d="M30.49,139.77 L 104.37 20.96" stroke="#D3D3D3"/>
  <path fill="none" d="M31.24,140.33 L 133.34 28.81" stroke="#D3D3D3"/>
  <path fill="none" d="M31.86,141.02 L 157.36 46.65" stroke="#D3D3D3"/>
  <path fill="none" d="M32.35,141.81 L 173.13 72.01" stroke="#FFA500"/>
  <path fill="none" d="M16.67,110.33 L 16.67 89.67" stroke="#D3D3D3"/>
  <path fill="none" d="M17.6,110.41 L 26.89 60.91" stroke="#FFA500"/>
  <path fill="none" d="M18.5,110.67 L 46.8 37.92" stroke="#D3D3D3"/>
  <path fill="none" d="M19.33,111.09 L 73.62 23.8" stroke="#D3D3D3"/>
  <path fill="none" d="M20.08,111.65 L 103.63 20.39" stroke="#D3D3D3"/>
  <path fill="none" d="M20.71,112.34 L 132.71 28.12" stroke="#D3D3D3"/>
  <path fill="none" d="M21.19,113.13 L 156.87 45.86" stroke="#D3D3D3"/>
  <path fill="none" d="M21.53,114 L 172.8 71.14" stroke="#D3D3D3"/>
  <path fill="none" d="M18.5,79.91 L 25.99 60.65" stroke="#D3D3D3"/>
  <path fill="none" d="M19.33,80.33 L 45.97 37.5" stroke="#D3D3D3"/>
  <path fill="none" d="M20.08,80.9 L 72.87 23.23" stroke="#FFA500"/>
  <path fill="none" d="M20.71,81.59 L 103 19.7" stroke="#D3D3D3"/>
  <path fill="none" d="M21.19,82.38 L 132.22 27.33" stroke="#D3D3D3"/>
  <path fill="none" d="M21.53,83.24 L 156.54 45" stroke="#D3D3D3"/>
  <path fill="none" d="M21.7,84.16 L 172.63 70.23" stroke="#D3D3D3"/>
  <path fill="none" d="M31.24,52.22 L 45.22 36.94" stroke="#D3D3D3"/>
  <path fill="none" d="M31.86,52.91 L 72.24 22.54" stroke="#FFA500"/>
  <path fill="none" d="M32.35,53.7 L 102.51 18.91" stroke="#D3D3D3"/>
  <path fill="none" d="M32.69,54.57 L 131.89 26.46" stroke="#D3D3D3"/>
  <path fill="none" d="M32.86,55.48 L 156.37 44.08" stroke="#D3D3D3"/>
  <path fill="none" d="M32.86,56.41 L 172.63 69.3" stroke="#D3D3D3"/>
  <path fill="none" d="M53.16,30.97 L 71.76 21.75" stroke="#D3D3D3"/>
  <path fill="none" d="M53.5,31.84 L 102.18 18.04" stroke="#D3D3D3"/>
  <path fill="none" d="M53.67,32.75 L 131.72 25.55" stroke="#FFA500"/>
  <path fill="none" d="M53.67,33.68 L 156.37 43.15" stroke="#D3D3D3"/>
  <path fill="none" d="M53.5,34.59 L 172.8 68.39" stroke="#D3D3D3"/>
  <path fill="none" d="M81.31,19.04 L 102.01 17.13" stroke="#D3D3D3"/>
  <path fill="none" d="M81.31,19.97 L 131.72 24.62" stroke="#D3D3D3"/>
  <path fill="none" d="M81.14,20.88 L 156.54 42.24" stroke="#D3D3D3"/>
  <path fill="none" d="M80.81,21.75 L 173.13 67.52" stroke="#D3D3D3"/>
  <path fill="none" d="M111.9,18.04 L 131.89 23.71" stroke="#D3D3D3"/>
  <path fill="none" d="M111.57,18.91 L 156.87 41.37" stroke="#D3D3D3"/>
  <path fill="none" d="M111.08,19.7 L 173.62 66.73" stroke="#D3D3D3"/>
  <path fill="none" d="M140.79,28.12 L 157.36 40.58" stroke="#D3D3D3"/>
  <path fill="none" d="M140.16,28.81 L 174.25 66.04" stroke="#D3D3D3"/>
  <path fill="none" d="M164.07,47.91 L 174.99 65.48" stroke="#D3D3D3"/>
</g>
<g stroke-width="0.73" id="img-1ea0cb9f-2">
</g>
<g font-size="4" stroke="#000000" stroke-opacity="0.000" fill="#000000" id="img-1ea0cb9f-3">
  <text x="180.5" y="115.12" text-anchor="middle" dy="0.35em">3</text>
  <text x="172.37" y="128.19" text-anchor="middle" dy="0.35em">5</text>
  <text x="160.04" y="137.46" text-anchor="middle" dy="0.35em">48</text>
  <text x="145.19" y="141.67" text-anchor="middle" dy="0.35em">48</text>
  <text x="129.81" y="140.25" text-anchor="middle" dy="0.35em">8</text>
  <text x="115.98" y="133.39" text-anchor="middle" dy="0.35em">8</text>
  <text x="105.58" y="122.03" text-anchor="middle" dy="0.35em">5</text>
  <text x="100" y="107.69" text-anchor="middle" dy="0.35em">5</text>
  <text x="100" y="92.31" text-anchor="middle" dy="0.35em">3</text>
  <text x="105.58" y="77.97" text-anchor="middle" dy="0.35em">3</text>
  <text x="115.98" y="66.61" text-anchor="middle" dy="0.35em">0</text>
  <text x="129.81" y="59.75" text-anchor="middle" dy="0.35em">3</text>
  <text x="145.19" y="58.33" text-anchor="middle" dy="0.35em">5</text>
  <text x="160.04" y="62.54" text-anchor="middle" dy="0.35em">8</text>
  <text x="172.37" y="71.81" text-anchor="middle" dy="0.35em">8</text>
  <text x="180.5" y="84.88" text-anchor="middle" dy="0.35em">5</text>
  <text x="169.53" y="143.31" text-anchor="middle" dy="0.35em">3</text>
  <text x="157.2" y="152.57" text-anchor="middle" dy="0.35em">48</text>
  <text x="142.35" y="156.78" text-anchor="middle" dy="0.35em">48</text>
  <text x="126.97" y="155.36" text-anchor="middle" dy="0.35em">8</text>
  <text x="113.15" y="148.51" text-anchor="middle" dy="0.35em">8</text>
  <text x="102.74" y="137.14" text-anchor="middle" dy="0.35em">5</text>
  <text x="97.16" y="122.81" text-anchor="middle" dy="0.35em">5</text>
  <text x="97.16" y="107.43" text-anchor="middle" dy="0.35em">0</text>
  <text x="102.74" y="93.09" text-anchor="middle" dy="0.35em">0</text>
  <text x="113.15" y="81.72" text-anchor="middle" dy="0.35em">3</text>
  <text x="126.97" y="74.87" text-anchor="middle" dy="0.35em">0</text>
  <text x="142.35" y="73.45" text-anchor="middle" dy="0.35em">3</text>
  <text x="157.2" y="77.66" text-anchor="middle" dy="0.35em">8</text>
  <text x="169.53" y="86.93" text-anchor="middle" dy="0.35em">8</text>
  <text x="177.66" y="100" text-anchor="middle" dy="0.35em">5</text>
  <text x="149.07" y="165.65" text-anchor="middle" dy="0.35em">74</text>
  <text x="134.22" y="169.86" text-anchor="middle" dy="0.35em">74</text>
  <text x="118.84" y="168.44" text-anchor="middle" dy="0.35em">50</text>
  <text x="105.02" y="161.58" text-anchor="middle" dy="0.35em">50</text>
  <text x="94.61" y="150.22" text-anchor="middle" dy="0.35em">26</text>
  <text x="89.03" y="135.88" text-anchor="middle" dy="0.35em">26</text>
  <text x="89.03" y="120.5" text-anchor="middle" dy="0.35em">3</text>
  <text x="94.61" y="106.16" text-anchor="middle" dy="0.35em">3</text>
  <text x="105.02" y="94.8" text-anchor="middle" dy="0.35em">5</text>
  <text x="118.84" y="87.94" text-anchor="middle" dy="0.35em">3</text>
  <text x="134.22" y="86.52" text-anchor="middle" dy="0.35em">0</text>
  <text x="149.07" y="90.73" text-anchor="middle" dy="0.35em">50</text>
  <text x="161.4" y="100" text-anchor="middle" dy="0.35em">50</text>
  <text x="169.53" y="113.07" text-anchor="middle" dy="0.35em">26</text>
  <text x="121.89" y="179.12" text-anchor="middle" dy="0.35em">0</text>
  <text x="106.52" y="177.71" text-anchor="middle" dy="0.35em">6</text>
  <text x="92.69" y="170.85" text-anchor="middle" dy="0.35em">6</text>
  <text x="82.29" y="159.49" text-anchor="middle" dy="0.35em">12</text>
  <text x="76.71" y="145.15" text-anchor="middle" dy="0.35em">12</text>
  <text x="76.71" y="129.77" text-anchor="middle" dy="0.35em">48</text>
  <text x="82.29" y="115.43" text-anchor="middle" dy="0.35em">48</text>
  <text x="92.69" y="104.07" text-anchor="middle" dy="0.35em">48</text>
  <text x="106.52" y="97.21" text-anchor="middle" dy="0.35em">48</text>
  <text x="121.89" y="95.79" text-anchor="middle" dy="0.35em">72</text>
  <text x="136.75" y="100" text-anchor="middle" dy="0.35em">6</text>
  <text x="149.07" y="109.27" text-anchor="middle" dy="0.35em">6</text>
  <text x="157.2" y="122.34" text-anchor="middle" dy="0.35em">12</text>
  <text x="91.66" y="181.91" text-anchor="middle" dy="0.35em">6</text>
  <text x="77.84" y="175.06" text-anchor="middle" dy="0.35em">6</text>
  <text x="67.43" y="163.7" text-anchor="middle" dy="0.35em">12</text>
  <text x="61.85" y="149.36" text-anchor="middle" dy="0.35em">12</text>
  <text x="61.85" y="133.98" text-anchor="middle" dy="0.35em">48</text>
  <text x="67.43" y="119.64" text-anchor="middle" dy="0.35em">48</text>
  <text x="77.84" y="108.27" text-anchor="middle" dy="0.35em">48</text>
  <text x="91.66" y="101.42" text-anchor="middle" dy="0.35em">48</text>
  <text x="107.04" y="100" text-anchor="middle" dy="0.35em">72</text>
  <text x="121.89" y="104.21" text-anchor="middle" dy="0.35em">6</text>
  <text x="134.22" y="113.48" text-anchor="middle" dy="0.35em">6</text>
  <text x="142.35" y="126.55" text-anchor="middle" dy="0.35em">12</text>
  <text x="62.46" y="173.64" text-anchor="middle" dy="0.35em">0</text>
  <text x="52.05" y="162.28" text-anchor="middle" dy="0.35em">8</text>
  <text x="46.48" y="147.94" text-anchor="middle" dy="0.35em">8</text>
  <text x="46.48" y="132.56" text-anchor="middle" dy="0.35em">8</text>
  <text x="52.05" y="118.22" text-anchor="middle" dy="0.35em">8</text>
  <text x="62.46" y="106.85" text-anchor="middle" dy="0.35em">8</text>
  <text x="76.28" y="100" text-anchor="middle" dy="0.35em">8</text>
  <text x="91.66" y="98.58" text-anchor="middle" dy="0.35em">48</text>
  <text x="106.52" y="102.79" text-anchor="middle" dy="0.35em">0</text>
  <text x="118.84" y="112.06" text-anchor="middle" dy="0.35em">0</text>
  <text x="126.97" y="125.13" text-anchor="middle" dy="0.35em">8</text>
  <text x="38.23" y="155.42" text-anchor="middle" dy="0.35em">8</text>
  <text x="32.65" y="141.08" text-anchor="middle" dy="0.35em">8</text>
  <text x="32.65" y="125.7" text-anchor="middle" dy="0.35em">8</text>
  <text x="38.23" y="111.36" text-anchor="middle" dy="0.35em">8</text>
  <text x="48.63" y="100" text-anchor="middle" dy="0.35em">8</text>
  <text x="62.46" y="93.15" text-anchor="middle" dy="0.35em">8</text>
  <text x="77.84" y="91.73" text-anchor="middle" dy="0.35em">48</text>
  <text x="92.69" y="95.93" text-anchor="middle" dy="0.35em">0</text>
  <text x="105.02" y="105.2" text-anchor="middle" dy="0.35em">0</text>
  <text x="113.15" y="118.28" text-anchor="middle" dy="0.35em">8</text>
  <text x="22.25" y="129.72" text-anchor="middle" dy="0.35em">0</text>
  <text x="22.25" y="114.34" text-anchor="middle" dy="0.35em">5</text>
  <text x="27.82" y="100" text-anchor="middle" dy="0.35em">5</text>
  <text x="38.23" y="88.64" text-anchor="middle" dy="0.35em">5</text>
  <text x="52.05" y="81.78" text-anchor="middle" dy="0.35em">5</text>
  <text x="67.43" y="80.36" text-anchor="middle" dy="0.35em">24</text>
  <text x="82.29" y="84.57" text-anchor="middle" dy="0.35em">8</text>
  <text x="94.61" y="93.84" text-anchor="middle" dy="0.35em">8</text>
  <text x="102.74" y="106.91" text-anchor="middle" dy="0.35em">0</text>
  <text x="16.67" y="100" text-anchor="middle" dy="0.35em">5</text>
  <text x="22.25" y="85.66" text-anchor="middle" dy="0.35em">5</text>
  <text x="32.65" y="74.3" text-anchor="middle" dy="0.35em">5</text>
  <text x="46.48" y="67.44" text-anchor="middle" dy="0.35em">5</text>
  <text x="61.85" y="66.02" text-anchor="middle" dy="0.35em">24</text>
  <text x="76.71" y="70.23" text-anchor="middle" dy="0.35em">8</text>
  <text x="89.03" y="79.5" text-anchor="middle" dy="0.35em">8</text>
  <text x="97.16" y="92.57" text-anchor="middle" dy="0.35em">0</text>
  <text x="22.25" y="70.28" text-anchor="middle" dy="0.35em">0</text>
  <text x="32.65" y="58.92" text-anchor="middle" dy="0.35em">3</text>
  <text x="46.48" y="52.06" text-anchor="middle" dy="0.35em">0</text>
  <text x="61.85" y="50.64" text-anchor="middle" dy="0.35em">3</text>
  <text x="76.71" y="54.85" text-anchor="middle" dy="0.35em">8</text>
  <text x="89.03" y="64.12" text-anchor="middle" dy="0.35em">8</text>
  <text x="97.16" y="77.19" text-anchor="middle" dy="0.35em">5</text>
  <text x="38.23" y="44.58" text-anchor="middle" dy="0.35em">3</text>
  <text x="52.05" y="37.72" text-anchor="middle" dy="0.35em">0</text>
  <text x="67.43" y="36.3" text-anchor="middle" dy="0.35em">3</text>
  <text x="82.29" y="40.51" text-anchor="middle" dy="0.35em">8</text>
  <text x="94.61" y="49.78" text-anchor="middle" dy="0.35em">8</text>
  <text x="102.74" y="62.86" text-anchor="middle" dy="0.35em">5</text>
  <text x="62.46" y="26.36" text-anchor="middle" dy="0.35em">3</text>
  <text x="77.84" y="24.94" text-anchor="middle" dy="0.35em">5</text>
  <text x="92.69" y="29.15" text-anchor="middle" dy="0.35em">8</text>
  <text x="105.02" y="38.42" text-anchor="middle" dy="0.35em">8</text>
  <text x="113.15" y="51.49" text-anchor="middle" dy="0.35em">5</text>
  <text x="91.66" y="18.09" text-anchor="middle" dy="0.35em">3</text>
  <text x="106.52" y="22.29" text-anchor="middle" dy="0.35em">8</text>
  <text x="118.84" y="31.56" text-anchor="middle" dy="0.35em">8</text>
  <text x="126.97" y="44.64" text-anchor="middle" dy="0.35em">5</text>
  <text x="121.89" y="20.88" text-anchor="middle" dy="0.35em">50</text>
  <text x="134.22" y="30.14" text-anchor="middle" dy="0.35em">50</text>
  <text x="142.35" y="43.22" text-anchor="middle" dy="0.35em">26</text>
  <text x="149.07" y="34.35" text-anchor="middle" dy="0.35em">0</text>
  <text x="157.2" y="47.43" text-anchor="middle" dy="0.35em">8</text>
  <text x="169.53" y="56.69" text-anchor="middle" dy="0.35em">8</text>
</g>
<g stroke-width="0" stroke="#000000" stroke-opacity="0.000" fill="#40E0D0" id="img-1ea0cb9f-4">
  <use xlink:href="#img-1ea0cb9f-5" x="183.33" y="100"/>
  <use xlink:href="#img-1ea0cb9f-5" x="177.66" y="130.23"/>
  <use xlink:href="#img-1ea0cb9f-5" x="161.4" y="156.38"/>
  <use xlink:href="#img-1ea0cb9f-5" x="136.75" y="174.92"/>
  <use xlink:href="#img-1ea0cb9f-5" x="107.04" y="183.33"/>
  <use xlink:href="#img-1ea0cb9f-5" x="76.28" y="180.5"/>
  <use xlink:href="#img-1ea0cb9f-5" x="48.63" y="166.79"/>
  <use xlink:href="#img-1ea0cb9f-5" x="27.82" y="144.06"/>
  <use xlink:href="#img-1ea0cb9f-5" x="16.67" y="115.38"/>
  <use xlink:href="#img-1ea0cb9f-5" x="16.67" y="84.62"/>
  <use xlink:href="#img-1ea0cb9f-5" x="27.82" y="55.94"/>
  <use xlink:href="#img-1ea0cb9f-5" x="48.63" y="33.21"/>
  <use xlink:href="#img-1ea0cb9f-5" x="76.28" y="19.5"/>
  <use xlink:href="#img-1ea0cb9f-5" x="107.04" y="16.67"/>
  <use xlink:href="#img-1ea0cb9f-5" x="136.75" y="25.08"/>
  <use xlink:href="#img-1ea0cb9f-5" x="161.4" y="43.62"/>
  <use xlink:href="#img-1ea0cb9f-5" x="177.66" y="69.77"/>
</g>
<g font-size="4" stroke="#000000" stroke-opacity="0.000" fill="#000000" id="img-1ea0cb9f-6">
  <text x="183.33" y="100" text-anchor="middle" dy="0.35em">1</text>
  <text x="177.66" y="130.23" text-anchor="middle" dy="0.35em">2</text>
  <text x="161.4" y="156.38" text-anchor="middle" dy="0.35em">3</text>
  <text x="136.75" y="174.92" text-anchor="middle" dy="0.35em">4</text>
  <text x="107.04" y="183.33" text-anchor="middle" dy="0.35em">5</text>
  <text x="76.28" y="180.5" text-anchor="middle" dy="0.35em">6</text>
  <text x="48.63" y="166.79" text-anchor="middle" dy="0.35em">7</text>
  <text x="27.82" y="144.06" text-anchor="middle" dy="0.35em">8</text>
  <text x="16.67" y="115.38" text-anchor="middle" dy="0.35em">9</text>
  <text x="16.67" y="84.62" text-anchor="middle" dy="0.35em">10</text>
  <text x="27.82" y="55.94" text-anchor="middle" dy="0.35em">11</text>
  <text x="48.63" y="33.21" text-anchor="middle" dy="0.35em">12</text>
  <text x="76.28" y="19.5" text-anchor="middle" dy="0.35em">13</text>
  <text x="107.04" y="16.67" text-anchor="middle" dy="0.35em">14</text>
  <text x="136.75" y="25.08" text-anchor="middle" dy="0.35em">15</text>
  <text x="161.4" y="43.62" text-anchor="middle" dy="0.35em">16</text>
  <text x="177.66" y="69.77" text-anchor="middle" dy="0.35em">17</text>
</g>
<defs>
  <g id="img-1ea0cb9f-5">
    <circle cx="0" cy="0" r="4.85"/>
  </g>
</defs>
</svg>
