<?xml version="1.0" encoding="UTF-8"?>
<svg xmlns="http://www.w3.org/2000/svg"
     xmlns:xlink="http://www.w3.org/1999/xlink"
     version="1.2"
     width="160mm" height="160mm" viewBox="0 0 160 160"
     stroke="none"
     fill="#000000"
     stroke-width="0.3"
     font-size="3.88"
>
<g stroke-width="0.73" fill="#000000" fill-opacity="0.000" stroke="#D3D3D3" id="img-794ad26a-1">
  <path fill="none" d="M47.39,23.17 L 34.19 33.22"/>
  <path fill="none" d="M54.46,19.51 L 70.13 14.55"/>
  <path fill="none" d="M29.63,122.05 L 20.32 107.82"/>
  <path fill="none" d="M35.12,127.8 L 48.63 137.58"/>
  <path fill="none" d="M28.82,39.09 L 20.12 52.88"/>
  <path fill="none" d="M145.31,95.38 L 139.82 110.78"/>
  <path fill="none" d="M146.56,87.53 L 146.09 70.54"/>
  <path fill="none" d="M135.84,117.66 L 125.12 130.24"/>
  <path fill="none" d="M144.47,62.75 L 138.23 47.24"/>
  <path fill="none" d="M116.28,23.8 L 101.46 16.67"/>
  <path fill="none" d="M122.68,28.5 L 133.96 40.54"/>
  <path fill="none" d="M104.1,142.6 L 118.88 135.14"/>
  <path fill="none" d="M96.46,144.79 L 80.15 146.3"/>
  <path fill="none" d="M17.32,100.48 L 14.13 84.56"/>
  <path fill="none" d="M55.8,141.03 L 72.23 145.59"/>
  <path fill="none" d="M78.02,13.6 L 93.78 14.65"/>
  <path fill="none" d="M14.09,76.63 L 17.2 60.27"/>
</g>
<g stroke-width="0.73" stroke="#D3D3D3" id="img-794ad26a-2">
</g>
<g font-size="4" stroke="#000000" stroke-opacity="0.000" fill="#000000" id="img-794ad26a-3">
</g>
<g stroke-width="0" stroke="#000000" stroke-opacity="0.000" fill="#40E0D0" id="img-794ad26a-4">
  <use xlink:href="#img-794ad26a-5" x="50.6" y="20.73"/>
  <use xlink:href="#img-794ad26a-5" x="31.84" y="125.43"/>
  <use xlink:href="#img-794ad26a-5" x="30.98" y="35.67"/>
  <use xlink:href="#img-794ad26a-5" x="146.67" y="91.57"/>
  <use xlink:href="#img-794ad26a-5" x="138.47" y="114.59"/>
  <use xlink:href="#img-794ad26a-5" x="145.98" y="66.5"/>
  <use xlink:href="#img-794ad26a-5" x="119.92" y="25.55"/>
  <use xlink:href="#img-794ad26a-5" x="100.49" y="144.42"/>
  <use xlink:href="#img-794ad26a-5" x="122.49" y="133.32"/>
  <use xlink:href="#img-794ad26a-5" x="18.11" y="104.44"/>
  <use xlink:href="#img-794ad26a-5" x="51.9" y="139.95"/>
  <use xlink:href="#img-794ad26a-5" x="73.98" y="13.33"/>
  <use xlink:href="#img-794ad26a-5" x="13.33" y="80.6"/>
  <use xlink:href="#img-794ad26a-5" x="17.96" y="56.3"/>
  <use xlink:href="#img-794ad26a-5" x="97.81" y="14.91"/>
  <use xlink:href="#img-794ad26a-5" x="136.72" y="43.49"/>
  <use xlink:href="#img-794ad26a-5" x="76.13" y="146.67"/>
</g>
<g font-size="4" stroke="#000000" stroke-opacity="0.000" fill="#000000" id="img-794ad26a-6">
  <text x="50.6" y="20.73" text-anchor="middle" dy="0.35em">1</text>
  <text x="31.84" y="125.43" text-anchor="middle" dy="0.35em">2</text>
  <text x="30.98" y="35.67" text-anchor="middle" dy="0.35em">3</text>
  <text x="146.67" y="91.57" text-anchor="middle" dy="0.35em">4</text>
  <text x="138.47" y="114.59" text-anchor="middle" dy="0.35em">5</text>
  <text x="145.98" y="66.5" text-anchor="middle" dy="0.35em">6</text>
  <text x="119.92" y="25.55" text-anchor="middle" dy="0.35em">7</text>
  <text x="100.49" y="144.42" text-anchor="middle" dy="0.35em">8</text>
  <text x="122.49" y="133.32" text-anchor="middle" dy="0.35em">9</text>
  <text x="18.11" y="104.44" text-anchor="middle" dy="0.35em">10</text>
  <text x="51.9" y="139.95" text-anchor="middle" dy="0.35em">11</text>
  <text x="73.98" y="13.33" text-anchor="middle" dy="0.35em">12</text>
  <text x="13.33" y="80.6" text-anchor="middle" dy="0.35em">13</text>
  <text x="17.96" y="56.3" text-anchor="middle" dy="0.35em">14</text>
  <text x="97.81" y="14.91" text-anchor="middle" dy="0.35em">15</text>
  <text x="136.72" y="43.49" text-anchor="middle" dy="0.35em">16</text>
  <text x="76.13" y="146.67" text-anchor="middle" dy="0.35em">17</text>
</g>
<defs>
  <g id="img-794ad26a-5">
    <circle cx="0" cy="0" r="3.88"/>
  </g>
</defs>
</svg>
