<?xml version="1.0" encoding="UTF-8"?>
<svg xmlns="http://www.w3.org/2000/svg"
     xmlns:xlink="http://www.w3.org/1999/xlink"
     version="1.2"
     width="160mm" height="160mm" viewBox="0 0 160 160"
     stroke="none"
     fill="#000000"
     stroke-width="0.3"
     font-size="3.88"
>
<g stroke-width="0.73" fill="#000000" fill-opacity="0.000" stroke="#D3D3D3" id="img-9ccc6d30-1">
  <path fill="none" d="M90.92,143.88 L 143.74 93.55"/>
  <path fill="none" d="M85.83,143.25 L 31.17 57"/>
  <path fill="none" d="M86.77,142.82 L 65.32 75.81"/>
  <path fill="none" d="M84.91,144.06 L 16.42 86.2"/>
  <path fill="none" d="M89.54,142.93 L 112.13 88.29"/>
  <path fill="none" d="M89.65,142.98 L 99.43 121.08"/>
  <path fill="none" d="M90.17,143.26 L 143.19 59.98"/>
  <path fill="none" d="M88.21,142.63 L 94.96 17.37"/>
  <path fill="none" d="M89.22,142.81 L 123.37 35.05"/>
  <path fill="none" d="M88.41,142.65 L 96.82 61.36"/>
  <path fill="none" d="M85.54,143.46 L 70.73 124.18"/>
  <path fill="none" d="M86.59,142.88 L 44.12 28.99"/>
  <path fill="none" d="M91.51,144.67 L 126.88 124.6"/>
  <path fill="none" d="M87.41,142.67 L 71.75 35.59"/>
  <path fill="none" d="M84.23,145.21 L 42.6 129.09"/>
  <path fill="none" d="M85.23,143.72 L 43.84 99.76"/>
  <path fill="none" d="M142.81,89.54 L 32.86 54.8"/>
  <path fill="none" d="M142.73,89.86 L 68.03 72.86"/>
  <path fill="none" d="M142.63,90.54 L 17.37 83.81"/>
  <path fill="none" d="M142.69,90.01 L 117.65 85.3"/>
  <path fill="none" d="M143.18,92.8 L 104.57 115.35"/>
  <path fill="none" d="M146.51,86.72 L 145.51 60.61"/>
  <path fill="none" d="M144.43,87.4 L 97.42 16.7"/>
  <path fill="none" d="M145.26,86.97 L 126 34.98"/>
  <path fill="none" d="M143.32,88.5 L 100.59 59.6"/>
  <path fill="none" d="M142.89,92.21 L 72.04 119.52"/>
  <path fill="none" d="M143.25,88.6 L 46.13 27.36"/>
  <path fill="none" d="M144.83,94.36 L 132.23 119"/>
  <path fill="none" d="M143.49,88.27 L 74.35 34.08"/>
  <path fill="none" d="M142.84,92.07 L 42.66 126.32"/>
  <path fill="none" d="M142.63,90.99 L 45.11 96.59"/>
  <path fill="none" d="M32.59,55.46 L 60.5 70.08"/>
  <path fill="none" d="M27.14,57.16 L 15.2 80.01"/>
  <path fill="none" d="M32.81,54.97 L 109.88 83.16"/>
  <path fill="none" d="M32.04,56.26 L 98.06 114.71"/>
  <path fill="none" d="M33.05,53.68 L 141.32 56.47"/>
  <path fill="none" d="M32.46,51.48 L 91.73 15.43"/>
  <path fill="none" d="M32.94,52.66 L 120.66 32.11"/>
  <path fill="none" d="M33.05,53.8 L 93.2 57.12"/>
  <path fill="none" d="M31.04,57.07 L 66.23 117.48"/>
  <path fill="none" d="M30.77,49.94 L 40.95 28.84"/>
  <path fill="none" d="M32.35,55.86 L 127.05 120.33"/>
  <path fill="none" d="M32.59,51.71 L 67.58 33.46"/>
  <path fill="none" d="M29.54,57.59 L 38.3 123.62"/>
  <path fill="none" d="M30.1,57.47 L 39.99 92.93"/>
  <path fill="none" d="M60.14,72.86 L 17.27 82.69"/>
  <path fill="none" d="M68,72.96 L 109.76 83.56"/>
  <path fill="none" d="M66.64,75.1 L 98.53 114.26"/>
  <path fill="none" d="M68.06,71.21 L 141.39 57.32"/>
  <path fill="none" d="M65.98,68.39 L 93.28 16.9"/>
  <path fill="none" d="M67.44,69.7 L 121.24 33.45"/>
  <path fill="none" d="M67.78,70.33 L 93.54 58.97"/>
  <path fill="none" d="M64.43,75.99 L 67.92 116.95"/>
  <path fill="none" d="M62.4,68.28 L 44.39 28.88"/>
  <path fill="none" d="M67.3,74.41 L 127.18 120.15"/>
  <path fill="none" d="M64.78,67.98 L 70.47 35.57"/>
  <path fill="none" d="M62.41,75.64 L 40.5 123.95"/>
  <path fill="none" d="M61.34,74.93 L 43.82 93.86"/>
  <path fill="none" d="M17.38,83.63 L 109.64 84.51"/>
  <path fill="none" d="M17.11,85.04 L 97.31 115.94"/>
  <path fill="none" d="M17.29,82.78 L 141.4 57.38"/>
  <path fill="none" d="M16.4,80.96 L 92.11 15.97"/>
  <path fill="none" d="M16.99,81.87 L 120.94 32.91"/>
  <path fill="none" d="M17.19,82.38 L 93.38 58.55"/>
  <path fill="none" d="M16.68,85.87 L 64.92 118.7"/>
  <path fill="none" d="M15.15,79.98 L 40.9 28.81"/>
  <path fill="none" d="M17.17,84.87 L 126.56 121.32"/>
  <path fill="none" d="M16.34,80.89 L 68.16 34.29"/>
  <path fill="none" d="M15.36,87.09 L 36.81 124.13"/>
  <path fill="none" d="M16.98,85.33 L 37.42 95.08"/>
  <path fill="none" d="M112.23,88.33 L 102.53 113.62"/>
  <path fill="none" d="M116.71,81.88 L 142.33 59.25"/>
  <path fill="none" d="M112.66,80.64 L 96.2 17.25"/>
  <path fill="none" d="M114.49,80.59 L 123.78 35.15"/>
  <path fill="none" d="M111.59,81.09 L 99.33 60.8"/>
  <path fill="none" d="M110.53,87.08 L 71.42 118.45"/>
  <path fill="none" d="M110.58,81.96 L 45.81 27.8"/>
  <path fill="none" d="M115.3,88.25 L 128.77 118.9"/>
  <path fill="none" d="M111.15,81.4 L 73.69 34.74"/>
  <path fill="none" d="M110.18,86.57 L 42.34 125.62"/>
  <path fill="none" d="M109.69,85.23 L 45.06 96.15"/>
  <path fill="none" d="M103.46,114.13 L 142.98 59.84"/>
  <path fill="none" d="M100.85,113.36 L 95.41 17.37"/>
  <path fill="none" d="M102.15,113.49 L 123.53 35.09"/>
  <path fill="none" d="M100.82,113.36 L 97.5 61.37"/>
  <path fill="none" d="M97.06,117.83 L 72.28 120.54"/>
  <path fill="none" d="M98.92,113.98 L 44.87 28.62"/>
  <path fill="none" d="M105.06,118.1 L 126.41 121.9"/>
  <path fill="none" d="M99.75,113.58 L 72.49 35.41"/>
  <path fill="none" d="M97.09,118.05 L 42.82 126.98"/>
  <path fill="none" d="M97.26,116.08 L 44.9 98.13"/>
  <path fill="none" d="M142.29,53.93 L 98.24 15.97"/>
  <path fill="none" d="M142.8,53.44 L 127.15 34.32"/>
  <path fill="none" d="M141.32,56.64 L 101.28 57.28"/>
  <path fill="none" d="M142.25,59.16 L 71.37 118.38"/>
  <path fill="none" d="M141.49,55.39 L 46.58 26.39"/>
  <path fill="none" d="M144.46,60.51 L 131.29 118.66"/>
  <path fill="none" d="M141.53,55.28 L 74.99 32.88"/>
  <path fill="none" d="M141.99,58.82 L 42.2 125.39"/>
  <path fill="none" d="M141.59,58.03 L 44.84 95.37"/>
  <path fill="none" d="M98.63,15.43 L 121.14 29.09"/>
  <path fill="none" d="M95.37,17.37 L 97.05 53.3"/>
  <path fill="none" d="M94.2,17.25 L 69.24 117.05"/>
  <path fill="none" d="M91.24,14.23 L 46.66 24.31"/>
  <path fill="none" d="M96.42,17.18 L 129.15 118.75"/>
  <path fill="none" d="M91.96,15.78 L 74.38 29.14"/>
  <path fill="none" d="M93.39,16.96 L 40.62 124.01"/>
  <path fill="none" d="M92.98,16.73 L 43.27 93.43"/>
  <path fill="none" d="M121.67,33.98 L 100.16 54.55"/>
  <path fill="none" d="M122.44,34.62 L 70.41 117.55"/>
  <path fill="none" d="M120.56,30.9 L 46.74 25.5"/>
  <path fill="none" d="M124.85,35.23 L 130.14 118.57"/>
  <path fill="none" d="M120.55,31.22 L 75.21 31.56"/>
  <path fill="none" d="M121.91,34.21 L 41.52 124.61"/>
  <path fill="none" d="M121.41,33.69 L 44.25 94.32"/>
  <path fill="none" d="M95.56,61.02 L 69.94 117.3"/>
  <path fill="none" d="M93.76,55.29 L 46.19 27.26"/>
  <path fill="none" d="M99.07,60.94 L 128.56 119"/>
  <path fill="none" d="M94.36,54.5 L 74.04 34.43"/>
  <path fill="none" d="M94.66,60.45 L 41.42 124.52"/>
  <path fill="none" d="M93.93,59.66 L 44.38 94.5"/>
  <path fill="none" d="M67.22,117.07 L 43.75 29.11"/>
  <path fill="none" d="M72.3,121.08 L 126.35 122.5"/>
  <path fill="none" d="M68.39,116.93 L 71.03 35.63"/>
  <path fill="none" d="M64.32,121.87 L 42.78 126.74"/>
  <path fill="none" d="M65.24,118.29 L 44.09 99.51"/>
  <path fill="none" d="M45.42,28.21 L 127.69 119.6"/>
  <path fill="none" d="M46.66,26.09 L 67.22 30.71"/>
  <path fill="none" d="M42.56,29.24 L 38.99 123.59"/>
  <path fill="none" d="M42.62,29.25 L 41.16 92.78"/>
  <path fill="none" d="M128.19,119.21 L 73.37 34.98"/>
  <path fill="none" d="M126.36,122.82 L 42.87 127.41"/>
  <path fill="none" d="M126.51,121.48 L 44.96 97.94"/>
  <path fill="none" d="M69.87,35.42 L 40.12 123.8"/>
  <path fill="none" d="M69.47,35.26 L 42.76 93.15"/>
  <path fill="none" d="M39.13,123.6 L 40.78 100.85"/>
</g>
<g stroke-width="0.73" stroke="#D3D3D3" id="img-9ccc6d30-2">
</g>
<g font-size="4" stroke="#000000" stroke-opacity="0.000" fill="#000000" id="img-9ccc6d30-3">
</g>
<g stroke-width="0" stroke="#000000" stroke-opacity="0.000" fill="#40E0D0" id="img-9ccc6d30-4">
  <use xlink:href="#img-9ccc6d30-5" x="88" y="146.67"/>
  <use xlink:href="#img-9ccc6d30-5" x="146.67" y="90.76"/>
  <use xlink:href="#img-9ccc6d30-5" x="29.01" y="53.58"/>
  <use xlink:href="#img-9ccc6d30-5" x="64.08" y="71.96"/>
  <use xlink:href="#img-9ccc6d30-5" x="13.33" y="83.59"/>
  <use xlink:href="#img-9ccc6d30-5" x="113.68" y="84.55"/>
  <use xlink:href="#img-9ccc6d30-5" x="101.08" y="117.39"/>
  <use xlink:href="#img-9ccc6d30-5" x="145.36" y="56.57"/>
  <use xlink:href="#img-9ccc6d30-5" x="95.18" y="13.33"/>
  <use xlink:href="#img-9ccc6d30-5" x="124.59" y="31.19"/>
  <use xlink:href="#img-9ccc6d30-5" x="97.24" y="57.34"/>
  <use xlink:href="#img-9ccc6d30-5" x="68.26" y="120.97"/>
  <use xlink:href="#img-9ccc6d30-5" x="42.71" y="25.2"/>
  <use xlink:href="#img-9ccc6d30-5" x="130.39" y="122.6"/>
  <use xlink:href="#img-9ccc6d30-5" x="71.16" y="31.59"/>
  <use xlink:href="#img-9ccc6d30-5" x="38.84" y="127.63"/>
  <use xlink:href="#img-9ccc6d30-5" x="41.07" y="96.82"/>
</g>
<g font-size="4" stroke="#000000" stroke-opacity="0.000" fill="#000000" id="img-9ccc6d30-6">
  <text x="88" y="146.67" text-anchor="middle" dy="0.35em">1</text>
  <text x="146.67" y="90.76" text-anchor="middle" dy="0.35em">2</text>
  <text x="29.01" y="53.58" text-anchor="middle" dy="0.35em">3</text>
  <text x="64.08" y="71.96" text-anchor="middle" dy="0.35em">4</text>
  <text x="13.33" y="83.59" text-anchor="middle" dy="0.35em">5</text>
  <text x="113.68" y="84.55" text-anchor="middle" dy="0.35em">6</text>
  <text x="101.08" y="117.39" text-anchor="middle" dy="0.35em">7</text>
  <text x="145.36" y="56.57" text-anchor="middle" dy="0.35em">8</text>
  <text x="95.18" y="13.33" text-anchor="middle" dy="0.35em">9</text>
  <text x="124.59" y="31.19" text-anchor="middle" dy="0.35em">10</text>
  <text x="97.24" y="57.34" text-anchor="middle" dy="0.35em">11</text>
  <text x="68.26" y="120.97" text-anchor="middle" dy="0.35em">12</text>
  <text x="42.71" y="25.2" text-anchor="middle" dy="0.35em">13</text>
  <text x="130.39" y="122.6" text-anchor="middle" dy="0.35em">14</text>
  <text x="71.16" y="31.59" text-anchor="middle" dy="0.35em">15</text>
  <text x="38.84" y="127.63" text-anchor="middle" dy="0.35em">16</text>
  <text x="41.07" y="96.82" text-anchor="middle" dy="0.35em">17</text>
</g>
<defs>
  <g id="img-9ccc6d30-5">
    <circle cx="0" cy="0" r="3.88"/>
  </g>
</defs>
</svg>
