<?xml version="1.0" encoding="UTF-8"?>
<svg xmlns="http://www.w3.org/2000/svg"
     xmlns:xlink="http://www.w3.org/1999/xlink"
     version="1.2"
     width="200mm" height="200mm" viewBox="0 0 200 200"
     stroke="none"
     fill="#000000"
     stroke-width="0.3"
     font-size="3.88"
>
<g stroke-width="0.51" fill="#000000" fill-opacity="0.000" stroke="#D3D3D3" id="img-dc4ad082-1">
  <path fill="none" d="M21.79,119.37 L 28.81 107.56"/>
  <path fill="none" d="M19.45,125.98 L 17.18 141.79"/>
  <path fill="none" d="M75.45,174.23 L 68.57 176.51"/>
  <path fill="none" d="M81.66,170.9 L 88.28 165.71"/>
  <path fill="none" d="M43.03,94.55 L 33.43 102.25"/>
  <path fill="none" d="M49.14,91 L 60.33 86.59"/>
  <path fill="none" d="M113.53,18.03 L 103.51 22.16"/>
  <path fill="none" d="M120.39,17.08 L 130.14 18.23"/>
  <path fill="none" d="M88.14,36.42 L 97.76 26.13"/>
  <path fill="none" d="M84.05,42.2 L 75.76 58.17"/>
  <path fill="none" d="M136.49,20.85 L 146.88 29.06"/>
  <path fill="none" d="M178.6,96.5 L 174.02 78.41"/>
  <path fill="none" d="M178.85,103.48 L 177.65 110.21"/>
  <path fill="none" d="M164.25,54.85 L 171.69 71.68"/>
  <path fill="none" d="M160.86,48.58 L 151.63 34.27"/>
  <path fill="none" d="M178.1,110.32 L 182.25 97.22"/>
  <path fill="none" d="M20.04,163.51 L 17.32 148.84"/>
  <path fill="none" d="M23.04,169.72 L 30.11 177.87"/>
  <path fill="none" d="M35.97,181.19 L 44.51 182.71"/>
  <path fill="none" d="M51.42,182.21 L 61.79 178.76"/>
  <path fill="none" d="M183.3,90.24 L 183.15 74.78"/>
  <path fill="none" d="M181.02,54.38 L 182.68 67.66"/>
  <path fill="none" d="M177.14,49.85 L 172.87 48.64"/>
  <path fill="none" d="M154.93,88.75 L 158.51 70.5"/>
  <path fill="none" d="M153.77,95.8 L 151.32 114.38"/>
  <path fill="none" d="M160.87,63.83 L 167.76 50.82"/>
  <path fill="none" d="M150.27,121.45 L 147.48 138.32"/>
  <path fill="none" d="M103.65,152.52 L 99.17 150.71"/>
  <path fill="none" d="M103.32,153.14 L 110.4 157.81"/>
  <path fill="none" d="M99.96,154.59 L 93.61 160.98"/>
  <path fill="none" d="M145.49,145.13 L 140.51 156.82"/>
  <path fill="none" d="M116.64,161.25 L 123.3 164.29"/>
  <path fill="none" d="M129.81,164.3 L 135.85 161.57"/>
  <path fill="none" d="M72.69,64.61 L 65.08 82"/>
</g>
<g stroke-width="0.51" stroke="#D3D3D3" id="img-dc4ad082-2">
</g>
<g font-size="4" stroke="#000000" stroke-opacity="0.000" fill="#000000" id="img-dc4ad082-3">
  <text x="25.3" y="113.46" text-anchor="middle" dy="0.35em">27</text>
  <text x="18.32" y="133.88" text-anchor="middle" dy="0.35em">13</text>
  <text x="72.01" y="175.37" text-anchor="middle" dy="0.35em">32</text>
  <text x="84.97" y="168.31" text-anchor="middle" dy="0.35em">16</text>
  <text x="38.23" y="98.4" text-anchor="middle" dy="0.35em">62</text>
  <text x="54.73" y="88.8" text-anchor="middle" dy="0.35em">38</text>
  <text x="108.52" y="20.09" text-anchor="middle" dy="0.35em">34</text>
  <text x="125.26" y="17.65" text-anchor="middle" dy="0.35em">54</text>
  <text x="92.95" y="31.27" text-anchor="middle" dy="0.35em">31</text>
  <text x="79.91" y="50.18" text-anchor="middle" dy="0.35em">131</text>
  <text x="141.69" y="24.96" text-anchor="middle" dy="0.35em">7</text>
  <text x="176.31" y="87.46" text-anchor="middle" dy="0.35em">88</text>
  <text x="178.25" y="106.85" text-anchor="middle" dy="0.35em">125</text>
  <text x="167.97" y="63.26" text-anchor="middle" dy="0.35em">41</text>
  <text x="156.24" y="41.43" text-anchor="middle" dy="0.35em">60</text>
  <text x="180.18" y="103.77" text-anchor="middle" dy="0.35em">60</text>
  <text x="18.68" y="156.18" text-anchor="middle" dy="0.35em">25</text>
  <text x="26.57" y="173.8" text-anchor="middle" dy="0.35em">31</text>
  <text x="40.24" y="181.95" text-anchor="middle" dy="0.35em">7</text>
  <text x="56.6" y="180.48" text-anchor="middle" dy="0.35em">9</text>
  <text x="183.23" y="82.51" text-anchor="middle" dy="0.35em">45</text>
  <text x="181.85" y="61.02" text-anchor="middle" dy="0.35em">57</text>
  <text x="175" y="49.25" text-anchor="middle" dy="0.35em">27</text>
  <text x="156.72" y="79.62" text-anchor="middle" dy="0.35em">40</text>
  <text x="152.55" y="105.09" text-anchor="middle" dy="0.35em">36</text>
  <text x="164.32" y="57.33" text-anchor="middle" dy="0.35em">76</text>
  <text x="148.87" y="129.88" text-anchor="middle" dy="0.35em">31</text>
  <text x="101.41" y="151.62" text-anchor="middle" dy="0.35em">20</text>
  <text x="106.86" y="155.48" text-anchor="middle" dy="0.35em">129</text>
  <text x="96.79" y="157.78" text-anchor="middle" dy="0.35em">8</text>
  <text x="143" y="150.97" text-anchor="middle" dy="0.35em">15</text>
  <text x="119.97" y="162.77" text-anchor="middle" dy="0.35em">57</text>
  <text x="132.83" y="162.94" text-anchor="middle" dy="0.35em">97</text>
  <text x="68.88" y="73.31" text-anchor="middle" dy="0.35em">27</text>
</g>
<g stroke-width="0" stroke="#000000" stroke-opacity="0.000" fill="#40E0D0" id="img-dc4ad082-4">
  <use xlink:href="#img-dc4ad082-5" x="19.96" y="122.44"/>
  <use xlink:href="#img-dc4ad082-5" x="78.84" y="173.1"/>
  <use xlink:href="#img-dc4ad082-5" x="45.82" y="92.32"/>
  <use xlink:href="#img-dc4ad082-5" x="30.64" y="104.49"/>
  <use xlink:href="#img-dc4ad082-5" x="116.84" y="16.67"/>
  <use xlink:href="#img-dc4ad082-5" x="85.7" y="39.03"/>
  <use xlink:href="#img-dc4ad082-5" x="100.2" y="23.52"/>
  <use xlink:href="#img-dc4ad082-5" x="133.69" y="18.64"/>
  <use xlink:href="#img-dc4ad082-5" x="179.48" y="99.97"/>
  <use xlink:href="#img-dc4ad082-5" x="162.8" y="51.58"/>
  <use xlink:href="#img-dc4ad082-5" x="173.14" y="74.94"/>
  <use xlink:href="#img-dc4ad082-5" x="177.02" y="113.73"/>
  <use xlink:href="#img-dc4ad082-5" x="20.69" y="167.03"/>
  <use xlink:href="#img-dc4ad082-5" x="16.67" y="145.33"/>
  <use xlink:href="#img-dc4ad082-5" x="32.45" y="180.57"/>
  <use xlink:href="#img-dc4ad082-5" x="48.03" y="183.33"/>
  <use xlink:href="#img-dc4ad082-5" x="65.18" y="177.64"/>
  <use xlink:href="#img-dc4ad082-5" x="183.33" y="93.81"/>
  <use xlink:href="#img-dc4ad082-5" x="180.57" y="50.83"/>
  <use xlink:href="#img-dc4ad082-5" x="183.12" y="71.2"/>
  <use xlink:href="#img-dc4ad082-5" x="154.24" y="92.25"/>
  <use xlink:href="#img-dc4ad082-5" x="159.2" y="66.99"/>
  <use xlink:href="#img-dc4ad082-5" x="150.85" y="117.92"/>
  <use xlink:href="#img-dc4ad082-5" x="100.33" y="151.18"/>
  <use xlink:href="#img-dc4ad082-5" x="102.48" y="152.05"/>
  <use xlink:href="#img-dc4ad082-5" x="91.1" y="163.51"/>
  <use xlink:href="#img-dc4ad082-5" x="146.9" y="141.84"/>
  <use xlink:href="#img-dc4ad082-5" x="113.39" y="159.77"/>
  <use xlink:href="#img-dc4ad082-5" x="126.55" y="165.77"/>
  <use xlink:href="#img-dc4ad082-5" x="139.11" y="160.1"/>
  <use xlink:href="#img-dc4ad082-5" x="74.12" y="61.34"/>
  <use xlink:href="#img-dc4ad082-5" x="169.43" y="47.67"/>
  <use xlink:href="#img-dc4ad082-5" x="149.69" y="31.27"/>
  <use xlink:href="#img-dc4ad082-5" x="63.65" y="85.27"/>
</g>
<g font-size="4" stroke="#000000" stroke-opacity="0.000" fill="#000000" id="img-dc4ad082-6">
  <text x="19.96" y="122.44" text-anchor="middle" dy="0.35em">1</text>
  <text x="78.84" y="173.1" text-anchor="middle" dy="0.35em">2</text>
  <text x="45.82" y="92.32" text-anchor="middle" dy="0.35em">3</text>
  <text x="30.64" y="104.49" text-anchor="middle" dy="0.35em">4</text>
  <text x="116.84" y="16.67" text-anchor="middle" dy="0.35em">5</text>
  <text x="85.7" y="39.03" text-anchor="middle" dy="0.35em">6</text>
  <text x="100.2" y="23.52" text-anchor="middle" dy="0.35em">7</text>
  <text x="133.69" y="18.64" text-anchor="middle" dy="0.35em">8</text>
  <text x="179.48" y="99.97" text-anchor="middle" dy="0.35em">9</text>
  <text x="162.8" y="51.58" text-anchor="middle" dy="0.35em">10</text>
  <text x="173.14" y="74.94" text-anchor="middle" dy="0.35em">11</text>
  <text x="177.02" y="113.73" text-anchor="middle" dy="0.35em">12</text>
  <text x="20.69" y="167.03" text-anchor="middle" dy="0.35em">13</text>
  <text x="16.67" y="145.33" text-anchor="middle" dy="0.35em">14</text>
  <text x="32.45" y="180.57" text-anchor="middle" dy="0.35em">15</text>
  <text x="48.03" y="183.33" text-anchor="middle" dy="0.35em">16</text>
  <text x="65.18" y="177.64" text-anchor="middle" dy="0.35em">17</text>
  <text x="183.33" y="93.81" text-anchor="middle" dy="0.35em">18</text>
  <text x="180.57" y="50.83" text-anchor="middle" dy="0.35em">19</text>
  <text x="183.12" y="71.2" text-anchor="middle" dy="0.35em">20</text>
  <text x="154.24" y="92.25" text-anchor="middle" dy="0.35em">21</text>
  <text x="159.2" y="66.99" text-anchor="middle" dy="0.35em">22</text>
  <text x="150.85" y="117.92" text-anchor="middle" dy="0.35em">23</text>
  <text x="100.33" y="151.18" text-anchor="middle" dy="0.35em">24</text>
  <text x="102.48" y="152.05" text-anchor="middle" dy="0.35em">25</text>
  <text x="91.1" y="163.51" text-anchor="middle" dy="0.35em">26</text>
  <text x="146.9" y="141.84" text-anchor="middle" dy="0.35em">27</text>
  <text x="113.39" y="159.77" text-anchor="middle" dy="0.35em">28</text>
  <text x="126.55" y="165.77" text-anchor="middle" dy="0.35em">29</text>
  <text x="139.11" y="160.1" text-anchor="middle" dy="0.35em">30</text>
  <text x="74.12" y="61.34" text-anchor="middle" dy="0.35em">31</text>
  <text x="169.43" y="47.67" text-anchor="middle" dy="0.35em">32</text>
  <text x="149.69" y="31.27" text-anchor="middle" dy="0.35em">33</text>
  <text x="63.65" y="85.27" text-anchor="middle" dy="0.35em">34</text>
</g>
<defs>
  <g id="img-dc4ad082-5">
    <circle cx="0" cy="0" r="3.43"/>
  </g>
</defs>
</svg>
