<?xml version="1.0" encoding="UTF-8"?>
<svg xmlns="http://www.w3.org/2000/svg"
     xmlns:xlink="http://www.w3.org/1999/xlink"
     version="1.2"
     width="200mm" height="200mm" viewBox="0 0 200 200"
     stroke="none"
     fill="#000000"
     stroke-width="0.3"
     font-size="3.88"
>
<g stroke-width="0.48" fill="#000000" fill-opacity="0.000" stroke="#D3D3D3" id="img-6e2d694a-1">
  <path fill="none" d="M131.48,166.64 L 136.24 175.55"/>
  <path fill="none" d="M128.76,160.57 L 124.12 147.97"/>
  <path fill="none" d="M77.55,46.91 L 86.04 58.31"/>
  <path fill="none" d="M72.48,42.95 L 61.47 38.33"/>
  <path fill="none" d="M150.41,182.36 L 141 179.47"/>
  <path fill="none" d="M156.48,181.66 L 164.34 177.12"/>
  <path fill="none" d="M62.43,158.77 L 50.23 160.72"/>
  <path fill="none" d="M68.77,156.88 L 82.54 150.77"/>
  <path fill="none" d="M28.19,143.75 L 30.57 151.93"/>
  <path fill="none" d="M28.51,137.46 L 32.64 127.33"/>
  <path fill="none" d="M43.83,160.02 L 34.61 156.36"/>
  <path fill="none" d="M50.15,106.88 L 62.76 96.72"/>
  <path fill="none" d="M45.33,111.46 L 36.12 121.75"/>
  <path fill="none" d="M68.12,92.76 L 82.73 82.87"/>
  <path fill="none" d="M89.74,31.87 L 97.51 42.15"/>
  <path fill="none" d="M84.71,27.8 L 72.46 22.09"/>
  <path fill="none" d="M103.39,62.35 L 100.24 48.07"/>
  <path fill="none" d="M101.54,67.73 L 88.07 78.88"/>
  <path fill="none" d="M66.16,20.04 L 52.02 17.3"/>
  <path fill="none" d="M116.24,126.65 L 121.81 141.71"/>
  <path fill="none" d="M114.05,120.35 L 108.99 104.91"/>
  <path fill="none" d="M106.72,98.64 L 100.81 83.71"/>
  <path fill="none" d="M97.89,77.73 L 89.73 63.86"/>
  <path fill="none" d="M45.58,17.73 L 32.97 21.95"/>
  <path fill="none" d="M27.27,25.17 L 19.3 31.94"/>
  <path fill="none" d="M19.61,42.72 L 24.14 40.31"/>
  <path fill="none" d="M16.7,40.95 L 16.73 37.43"/>
  <path fill="none" d="M166.05,98.36 L 175.7 99.66"/>
  <path fill="none" d="M159.76,99.4 L 147.73 105.43"/>
  <path fill="none" d="M180.18,103.23 L 182.16 108.46"/>
  <path fill="none" d="M181.27,114.2 L 175.93 121.01"/>
  <path fill="none" d="M142.22,109.1 L 129.37 120.19"/>
  <path fill="none" d="M30.32,37.94 L 38.23 36.01"/>
  <path fill="none" d="M44.78,35.58 L 55.07 36.68"/>
  <path fill="none" d="M124.11,124.27 L 108.6 135.1"/>
  <path fill="none" d="M174.2,126.96 L 175.38 138.82"/>
  <path fill="none" d="M175.57,145.47 L 175.1 157.04"/>
  <path fill="none" d="M103.02,138.75 L 88.43 147.67"/>
  <path fill="none" d="M173.44,163.34 L 168.75 172.48"/>
</g>
<g stroke-width="0.48" stroke="#D3D3D3" id="img-6e2d694a-2">
</g>
<g font-size="4" stroke="#000000" stroke-opacity="0.000" fill="#000000" id="img-6e2d694a-3">
  <text x="133.86" y="171.1" text-anchor="middle" dy="0.35em">27</text>
  <text x="126.44" y="154.27" text-anchor="middle" dy="0.35em">13</text>
  <text x="81.8" y="52.61" text-anchor="middle" dy="0.35em">32</text>
  <text x="66.97" y="40.64" text-anchor="middle" dy="0.35em">16</text>
  <text x="145.7" y="180.91" text-anchor="middle" dy="0.35em">62</text>
  <text x="160.41" y="179.39" text-anchor="middle" dy="0.35em">38</text>
  <text x="56.33" y="159.75" text-anchor="middle" dy="0.35em">95</text>
  <text x="75.65" y="153.83" text-anchor="middle" dy="0.35em">51</text>
  <text x="29.38" y="147.84" text-anchor="middle" dy="0.35em">34</text>
  <text x="30.58" y="132.39" text-anchor="middle" dy="0.35em">60</text>
  <text x="39.22" y="158.19" text-anchor="middle" dy="0.35em">31</text>
  <text x="56.45" y="101.8" text-anchor="middle" dy="0.35em">20</text>
  <text x="40.73" y="116.61" text-anchor="middle" dy="0.35em">76</text>
  <text x="75.42" y="87.82" text-anchor="middle" dy="0.35em">7</text>
  <text x="93.62" y="37.01" text-anchor="middle" dy="0.35em">88</text>
  <text x="78.58" y="24.94" text-anchor="middle" dy="0.35em">125</text>
  <text x="101.82" y="55.21" text-anchor="middle" dy="0.35em">41</text>
  <text x="94.81" y="73.3" text-anchor="middle" dy="0.35em">60</text>
  <text x="59.09" y="18.67" text-anchor="middle" dy="0.35em">60</text>
  <text x="119.02" y="134.18" text-anchor="middle" dy="0.35em">25</text>
  <text x="111.52" y="112.63" text-anchor="middle" dy="0.35em">31</text>
  <text x="103.77" y="91.17" text-anchor="middle" dy="0.35em">7</text>
  <text x="93.81" y="70.79" text-anchor="middle" dy="0.35em">9</text>
  <text x="39.28" y="19.84" text-anchor="middle" dy="0.35em">19</text>
  <text x="23.29" y="28.56" text-anchor="middle" dy="0.35em">27</text>
  <text x="21.87" y="41.51" text-anchor="middle" dy="0.35em">36</text>
  <text x="16.71" y="39.19" text-anchor="middle" dy="0.35em">44</text>
  <text x="170.88" y="99.01" text-anchor="middle" dy="0.35em">40</text>
  <text x="153.75" y="102.42" text-anchor="middle" dy="0.35em">36</text>
  <text x="181.17" y="105.85" text-anchor="middle" dy="0.35em">57</text>
  <text x="178.6" y="117.61" text-anchor="middle" dy="0.35em">59</text>
  <text x="135.8" y="114.65" text-anchor="middle" dy="0.35em">31</text>
  <text x="34.27" y="36.98" text-anchor="middle" dy="0.35em">20</text>
  <text x="49.93" y="36.13" text-anchor="middle" dy="0.35em">8</text>
  <text x="116.36" y="129.69" text-anchor="middle" dy="0.35em">15</text>
  <text x="174.79" y="132.89" text-anchor="middle" dy="0.35em">57</text>
  <text x="175.34" y="151.26" text-anchor="middle" dy="0.35em">168</text>
  <text x="95.73" y="143.21" text-anchor="middle" dy="0.35em">56</text>
  <text x="171.1" y="167.91" text-anchor="middle" dy="0.35em">122</text>
</g>
<g stroke-width="0" stroke="#000000" stroke-opacity="0.000" fill="#40E0D0" id="img-6e2d694a-4">
  <use xlink:href="#img-6e2d694a-5" x="129.91" y="163.7"/>
  <use xlink:href="#img-6e2d694a-5" x="75.56" y="44.24"/>
  <use xlink:href="#img-6e2d694a-5" x="153.6" y="183.33"/>
  <use xlink:href="#img-6e2d694a-5" x="137.81" y="178.49"/>
  <use xlink:href="#img-6e2d694a-5" x="65.72" y="158.24"/>
  <use xlink:href="#img-6e2d694a-5" x="27.26" y="140.55"/>
  <use xlink:href="#img-6e2d694a-5" x="46.93" y="161.25"/>
  <use xlink:href="#img-6e2d694a-5" x="31.51" y="155.13"/>
  <use xlink:href="#img-6e2d694a-5" x="47.55" y="108.97"/>
  <use xlink:href="#img-6e2d694a-5" x="65.35" y="94.63"/>
  <use xlink:href="#img-6e2d694a-5" x="87.73" y="29.21"/>
  <use xlink:href="#img-6e2d694a-5" x="104.12" y="65.61"/>
  <use xlink:href="#img-6e2d694a-5" x="99.52" y="44.82"/>
  <use xlink:href="#img-6e2d694a-5" x="69.44" y="20.68"/>
  <use xlink:href="#img-6e2d694a-5" x="115.08" y="123.52"/>
  <use xlink:href="#img-6e2d694a-5" x="33.9" y="124.24"/>
  <use xlink:href="#img-6e2d694a-5" x="122.97" y="144.84"/>
  <use xlink:href="#img-6e2d694a-5" x="107.95" y="101.74"/>
  <use xlink:href="#img-6e2d694a-5" x="99.59" y="80.6"/>
  <use xlink:href="#img-6e2d694a-5" x="88.03" y="60.98"/>
  <use xlink:href="#img-6e2d694a-5" x="48.74" y="16.67"/>
  <use xlink:href="#img-6e2d694a-5" x="29.81" y="23.01"/>
  <use xlink:href="#img-6e2d694a-5" x="16.67" y="44.29"/>
  <use xlink:href="#img-6e2d694a-5" x="162.74" y="97.91"/>
  <use xlink:href="#img-6e2d694a-5" x="179.01" y="100.11"/>
  <use xlink:href="#img-6e2d694a-5" x="183.33" y="111.58"/>
  <use xlink:href="#img-6e2d694a-5" x="144.75" y="106.93"/>
  <use xlink:href="#img-6e2d694a-5" x="27.08" y="38.74"/>
  <use xlink:href="#img-6e2d694a-5" x="41.47" y="35.22"/>
  <use xlink:href="#img-6e2d694a-5" x="58.39" y="37.04"/>
  <use xlink:href="#img-6e2d694a-5" x="126.85" y="122.36"/>
  <use xlink:href="#img-6e2d694a-5" x="173.87" y="123.64"/>
  <use xlink:href="#img-6e2d694a-5" x="175.71" y="142.14"/>
  <use xlink:href="#img-6e2d694a-5" x="105.87" y="137.01"/>
  <use xlink:href="#img-6e2d694a-5" x="174.96" y="160.38"/>
  <use xlink:href="#img-6e2d694a-5" x="85.58" y="149.41"/>
  <use xlink:href="#img-6e2d694a-5" x="16.76" y="34.1"/>
  <use xlink:href="#img-6e2d694a-5" x="85.49" y="81"/>
  <use xlink:href="#img-6e2d694a-5" x="167.23" y="175.44"/>
</g>
<g font-size="4" stroke="#000000" stroke-opacity="0.000" fill="#000000" id="img-6e2d694a-6">
  <text x="129.91" y="163.7" text-anchor="middle" dy="0.35em">1</text>
  <text x="75.56" y="44.24" text-anchor="middle" dy="0.35em">2</text>
  <text x="153.6" y="183.33" text-anchor="middle" dy="0.35em">3</text>
  <text x="137.81" y="178.49" text-anchor="middle" dy="0.35em">4</text>
  <text x="65.72" y="158.24" text-anchor="middle" dy="0.35em">5</text>
  <text x="27.26" y="140.55" text-anchor="middle" dy="0.35em">6</text>
  <text x="46.93" y="161.25" text-anchor="middle" dy="0.35em">7</text>
  <text x="31.51" y="155.13" text-anchor="middle" dy="0.35em">8</text>
  <text x="47.55" y="108.97" text-anchor="middle" dy="0.35em">9</text>
  <text x="65.35" y="94.63" text-anchor="middle" dy="0.35em">10</text>
  <text x="87.73" y="29.21" text-anchor="middle" dy="0.35em">11</text>
  <text x="104.12" y="65.61" text-anchor="middle" dy="0.35em">12</text>
  <text x="99.52" y="44.82" text-anchor="middle" dy="0.35em">13</text>
  <text x="69.44" y="20.68" text-anchor="middle" dy="0.35em">14</text>
  <text x="115.08" y="123.52" text-anchor="middle" dy="0.35em">15</text>
  <text x="33.9" y="124.24" text-anchor="middle" dy="0.35em">16</text>
  <text x="122.97" y="144.84" text-anchor="middle" dy="0.35em">17</text>
  <text x="107.95" y="101.74" text-anchor="middle" dy="0.35em">18</text>
  <text x="99.59" y="80.6" text-anchor="middle" dy="0.35em">19</text>
  <text x="88.03" y="60.98" text-anchor="middle" dy="0.35em">20</text>
  <text x="48.74" y="16.67" text-anchor="middle" dy="0.35em">21</text>
  <text x="29.81" y="23.01" text-anchor="middle" dy="0.35em">22</text>
  <text x="16.67" y="44.29" text-anchor="middle" dy="0.35em">23</text>
  <text x="162.74" y="97.91" text-anchor="middle" dy="0.35em">24</text>
  <text x="179.01" y="100.11" text-anchor="middle" dy="0.35em">25</text>
  <text x="183.33" y="111.58" text-anchor="middle" dy="0.35em">26</text>
  <text x="144.75" y="106.93" text-anchor="middle" dy="0.35em">27</text>
  <text x="27.08" y="38.74" text-anchor="middle" dy="0.35em">28</text>
  <text x="41.47" y="35.22" text-anchor="middle" dy="0.35em">29</text>
  <text x="58.39" y="37.04" text-anchor="middle" dy="0.35em">30</text>
  <text x="126.85" y="122.36" text-anchor="middle" dy="0.35em">31</text>
  <text x="173.87" y="123.64" text-anchor="middle" dy="0.35em">32</text>
  <text x="175.71" y="142.14" text-anchor="middle" dy="0.35em">33</text>
  <text x="105.87" y="137.01" text-anchor="middle" dy="0.35em">34</text>
  <text x="174.96" y="160.38" text-anchor="middle" dy="0.35em">35</text>
  <text x="85.58" y="149.41" text-anchor="middle" dy="0.35em">36</text>
  <text x="16.76" y="34.1" text-anchor="middle" dy="0.35em">37</text>
  <text x="85.49" y="81" text-anchor="middle" dy="0.35em">38</text>
  <text x="167.23" y="175.44" text-anchor="middle" dy="0.35em">39</text>
</g>
<defs>
  <g id="img-6e2d694a-5">
    <circle cx="0" cy="0" r="3.2"/>
  </g>
</defs>
</svg>
