<?xml version="1.0" encoding="UTF-8"?>
<svg xmlns="http://www.w3.org/2000/svg"
     xmlns:xlink="http://www.w3.org/1999/xlink"
     version="1.2"
     width="200mm" height="200mm" viewBox="0 0 200 200"
     stroke="none"
     fill="#000000"
     stroke-width="0.3"
     font-size="3.88"
>
<g stroke-width="0.43" fill="#000000" fill-opacity="0.000" stroke="#D3D3D3" id="img-507fe4db-1">
  <path fill="none" d="M52.73,35.67 L 51.07 33.41"/>
  <path fill="none" d="M54.48,41.1 L 54.39 48.46"/>
  <path fill="none" d="M46.2,72.24 L 43.12 85.72"/>
  <path fill="none" d="M48.04,66.53 L 53.19 54.24"/>
  <path fill="none" d="M59.87,143.44 L 51.13 130.1"/>
  <path fill="none" d="M63.48,148.23 L 73.66 160.03"/>
  <path fill="none" d="M110.82,38.59 L 97.71 48.89"/>
  <path fill="none" d="M115.74,35.15 L 128.5 27.28"/>
  <path fill="none" d="M78.99,62.2 L 92.89 52.48"/>
  <path fill="none" d="M73.52,63.97 L 59.29 64.18"/>
  <path fill="none" d="M25.4,51.18 L 34.59 56.1"/>
  <path fill="none" d="M21.16,47.2 L 18.25 42.52"/>
  <path fill="none" d="M19.97,25.16 L 22.49 19.42"/>
  <path fill="none" d="M18.25,30.88 L 17.18 37"/>
  <path fill="none" d="M112.37,158.98 L 99.06 167.13"/>
  <path fill="none" d="M117.3,155.55 L 129.25 146.17"/>
  <path fill="none" d="M26.61,17.39 L 34.41 19.34"/>
  <path fill="none" d="M42.55,91.65 L 42.99 105.38"/>
  <path fill="none" d="M47.07,28.96 L 39.55 22.09"/>
  <path fill="none" d="M153.52,143.82 L 164.28 147.63"/>
  <path fill="none" d="M147.69,143.05 L 134.62 144.08"/>
  <path fill="none" d="M61.12,180.46 L 73.97 178.61"/>
  <path fill="none" d="M55.36,179.75 L 46.03 175.92"/>
  <path fill="none" d="M70.62,129.88 L 86.62 120.18"/>
  <path fill="none" d="M65.74,133.36 L 53.15 143.81"/>
  <path fill="none" d="M91.78,117.08 L 107.88 107.52"/>
  <path fill="none" d="M113.02,104.4 L 128.36 94.87"/>
  <path fill="none" d="M168.98,150.99 L 175.21 158.87"/>
  <path fill="none" d="M177.05,164.24 L 176.97 172.39"/>
  <path fill="none" d="M163.44,69.37 L 152.07 78.76"/>
  <path fill="none" d="M167.73,65.19 L 175.88 55.84"/>
  <path fill="none" d="M151.03,182.52 L 161.98 183.16"/>
  <path fill="none" d="M145.02,182.15 L 132.78 181.34"/>
  <path fill="none" d="M182.28,41.66 L 178.9 50.75"/>
  <path fill="none" d="M182.5,35.95 L 180.17 27.83"/>
  <path fill="none" d="M114.13,182.45 L 126.79 181.39"/>
  <path fill="none" d="M108.29,181.7 L 95.2 177.07"/>
  <path fill="none" d="M93.79,170.01 L 79.65 176.87"/>
  <path fill="none" d="M162.95,18.39 L 151.88 18.81"/>
  <path fill="none" d="M168.65,19.62 L 176.65 23.6"/>
  <path fill="none" d="M48.53,124.73 L 44.04 111.24"/>
  <path fill="none" d="M133.87,24.64 L 146.06 19.99"/>
  <path fill="none" d="M53.45,63.22 L 40.08 58.52"/>
  <path fill="none" d="M49.16,148.23 L 42.49 158.19"/>
  <path fill="none" d="M41.33,163.65 L 42.73 171.81"/>
  <path fill="none" d="M167.49,181.67 L 174.44 177.06"/>
  <path fill="none" d="M147.26,82.34 L 133.41 91.61"/>
  <path fill="none" d="M77.95,164.22 L 90.05 174.16"/>
</g>
<g stroke-width="0.43" stroke="#D3D3D3" id="img-507fe4db-2">
</g>
<g font-size="4" stroke="#000000" stroke-opacity="0.000" fill="#000000" id="img-507fe4db-3">
  <text x="51.9" y="34.54" text-anchor="middle" dy="0.35em">39</text>
  <text x="54.44" y="44.78" text-anchor="middle" dy="0.35em">53</text>
  <text x="44.66" y="78.98" text-anchor="middle" dy="0.35em">216</text>
  <text x="50.62" y="60.39" text-anchor="middle" dy="0.35em">19</text>
  <text x="55.5" y="136.77" text-anchor="middle" dy="0.35em">85</text>
  <text x="68.57" y="154.13" text-anchor="middle" dy="0.35em">119</text>
  <text x="104.27" y="43.74" text-anchor="middle" dy="0.35em">27</text>
  <text x="122.12" y="31.22" text-anchor="middle" dy="0.35em">62</text>
  <text x="85.94" y="57.34" text-anchor="middle" dy="0.35em">7</text>
  <text x="66.4" y="64.07" text-anchor="middle" dy="0.35em">51</text>
  <text x="29.99" y="53.64" text-anchor="middle" dy="0.35em">11</text>
  <text x="19.71" y="44.86" text-anchor="middle" dy="0.35em">21</text>
  <text x="21.23" y="22.29" text-anchor="middle" dy="0.35em">30</text>
  <text x="17.71" y="33.94" text-anchor="middle" dy="0.35em">58</text>
  <text x="105.72" y="163.05" text-anchor="middle" dy="0.35em">80</text>
  <text x="123.28" y="150.86" text-anchor="middle" dy="0.35em">67</text>
  <text x="30.51" y="18.37" text-anchor="middle" dy="0.35em">31</text>
  <text x="42.77" y="98.52" text-anchor="middle" dy="0.35em">55</text>
  <text x="43.31" y="25.53" text-anchor="middle" dy="0.35em">32</text>
  <text x="158.9" y="145.73" text-anchor="middle" dy="0.35em">45</text>
  <text x="141.15" y="143.57" text-anchor="middle" dy="0.35em">90</text>
  <text x="67.55" y="179.53" text-anchor="middle" dy="0.35em">12</text>
  <text x="50.69" y="177.83" text-anchor="middle" dy="0.35em">128</text>
  <text x="78.62" y="125.03" text-anchor="middle" dy="0.35em">72</text>
  <text x="59.44" y="138.58" text-anchor="middle" dy="0.35em">10</text>
  <text x="99.83" y="112.3" text-anchor="middle" dy="0.35em">82</text>
  <text x="120.69" y="99.63" text-anchor="middle" dy="0.35em">45</text>
  <text x="172.09" y="154.93" text-anchor="middle" dy="0.35em">20</text>
  <text x="177.01" y="168.32" text-anchor="middle" dy="0.35em">25</text>
  <text x="157.75" y="74.07" text-anchor="middle" dy="0.35em">41</text>
  <text x="171.8" y="60.52" text-anchor="middle" dy="0.35em">70</text>
  <text x="156.51" y="182.84" text-anchor="middle" dy="0.35em">52</text>
  <text x="138.9" y="181.74" text-anchor="middle" dy="0.35em">38</text>
  <text x="180.59" y="46.21" text-anchor="middle" dy="0.35em">112</text>
  <text x="181.34" y="31.89" text-anchor="middle" dy="0.35em">122</text>
  <text x="120.46" y="181.92" text-anchor="middle" dy="0.35em">41</text>
  <text x="101.75" y="179.39" text-anchor="middle" dy="0.35em">29</text>
  <text x="86.72" y="173.44" text-anchor="middle" dy="0.35em">56</text>
  <text x="157.42" y="18.6" text-anchor="middle" dy="0.35em">69</text>
  <text x="172.65" y="21.61" text-anchor="middle" dy="0.35em">8</text>
  <text x="46.29" y="117.99" text-anchor="middle" dy="0.35em">31</text>
  <text x="139.97" y="22.31" text-anchor="middle" dy="0.35em">27</text>
  <text x="46.76" y="60.87" text-anchor="middle" dy="0.35em">44</text>
  <text x="45.83" y="153.21" text-anchor="middle" dy="0.35em">83</text>
  <text x="42.03" y="167.73" text-anchor="middle" dy="0.35em">12</text>
  <text x="170.96" y="179.37" text-anchor="middle" dy="0.35em">35</text>
  <text x="140.33" y="86.97" text-anchor="middle" dy="0.35em">62</text>
  <text x="84" y="169.19" text-anchor="middle" dy="0.35em">58</text>
</g>
<g stroke-width="0" stroke="#000000" stroke-opacity="0.000" fill="#40E0D0" id="img-507fe4db-4">
  <use xlink:href="#img-507fe4db-5" x="54.51" y="38.09"/>
  <use xlink:href="#img-507fe4db-5" x="46.87" y="69.31"/>
  <use xlink:href="#img-507fe4db-5" x="61.52" y="145.95"/>
  <use xlink:href="#img-507fe4db-5" x="113.18" y="36.73"/>
  <use xlink:href="#img-507fe4db-5" x="76.53" y="63.92"/>
  <use xlink:href="#img-507fe4db-5" x="22.75" y="49.76"/>
  <use xlink:href="#img-507fe4db-5" x="18.76" y="27.91"/>
  <use xlink:href="#img-507fe4db-5" x="114.94" y="157.41"/>
  <use xlink:href="#img-507fe4db-5" x="23.69" y="16.67"/>
  <use xlink:href="#img-507fe4db-5" x="42.45" y="88.65"/>
  <use xlink:href="#img-507fe4db-5" x="49.29" y="30.99"/>
  <use xlink:href="#img-507fe4db-5" x="37.33" y="20.06"/>
  <use xlink:href="#img-507fe4db-5" x="150.68" y="142.82"/>
  <use xlink:href="#img-507fe4db-5" x="58.15" y="180.89"/>
  <use xlink:href="#img-507fe4db-5" x="68.05" y="131.44"/>
  <use xlink:href="#img-507fe4db-5" x="89.19" y="118.62"/>
  <use xlink:href="#img-507fe4db-5" x="110.47" y="105.98"/>
  <use xlink:href="#img-507fe4db-5" x="167.11" y="148.64"/>
  <use xlink:href="#img-507fe4db-5" x="177.08" y="161.23"/>
  <use xlink:href="#img-507fe4db-5" x="165.75" y="67.46"/>
  <use xlink:href="#img-507fe4db-5" x="148.03" y="182.35"/>
  <use xlink:href="#img-507fe4db-5" x="183.33" y="38.84"/>
  <use xlink:href="#img-507fe4db-5" x="111.13" y="182.71"/>
  <use xlink:href="#img-507fe4db-5" x="96.5" y="168.7"/>
  <use xlink:href="#img-507fe4db-5" x="95.35" y="50.75"/>
  <use xlink:href="#img-507fe4db-5" x="54.36" y="51.47"/>
  <use xlink:href="#img-507fe4db-5" x="165.96" y="18.28"/>
  <use xlink:href="#img-507fe4db-5" x="49.48" y="127.59"/>
  <use xlink:href="#img-507fe4db-5" x="131.06" y="25.71"/>
  <use xlink:href="#img-507fe4db-5" x="56.28" y="64.22"/>
  <use xlink:href="#img-507fe4db-5" x="37.24" y="57.52"/>
  <use xlink:href="#img-507fe4db-5" x="16.67" y="39.96"/>
  <use xlink:href="#img-507fe4db-5" x="131.62" y="144.32"/>
  <use xlink:href="#img-507fe4db-5" x="43.09" y="108.39"/>
  <use xlink:href="#img-507fe4db-5" x="76.95" y="178.18"/>
  <use xlink:href="#img-507fe4db-5" x="50.83" y="145.73"/>
  <use xlink:href="#img-507fe4db-5" x="40.82" y="160.69"/>
  <use xlink:href="#img-507fe4db-5" x="164.99" y="183.33"/>
  <use xlink:href="#img-507fe4db-5" x="176.94" y="175.4"/>
  <use xlink:href="#img-507fe4db-5" x="149.76" y="80.67"/>
  <use xlink:href="#img-507fe4db-5" x="129.78" y="181.14"/>
  <use xlink:href="#img-507fe4db-5" x="75.62" y="162.31"/>
  <use xlink:href="#img-507fe4db-5" x="148.88" y="18.92"/>
  <use xlink:href="#img-507fe4db-5" x="92.37" y="176.07"/>
  <use xlink:href="#img-507fe4db-5" x="177.85" y="53.57"/>
  <use xlink:href="#img-507fe4db-5" x="130.91" y="93.28"/>
  <use xlink:href="#img-507fe4db-5" x="43.24" y="174.78"/>
  <use xlink:href="#img-507fe4db-5" x="179.34" y="24.93"/>
</g>
<g font-size="4" stroke="#000000" stroke-opacity="0.000" fill="#000000" id="img-507fe4db-6">
  <text x="54.51" y="38.09" text-anchor="middle" dy="0.35em">1</text>
  <text x="46.87" y="69.31" text-anchor="middle" dy="0.35em">2</text>
  <text x="61.52" y="145.95" text-anchor="middle" dy="0.35em">3</text>
  <text x="113.18" y="36.73" text-anchor="middle" dy="0.35em">4</text>
  <text x="76.53" y="63.92" text-anchor="middle" dy="0.35em">5</text>
  <text x="22.75" y="49.76" text-anchor="middle" dy="0.35em">6</text>
  <text x="18.76" y="27.91" text-anchor="middle" dy="0.35em">7</text>
  <text x="114.94" y="157.41" text-anchor="middle" dy="0.35em">8</text>
  <text x="23.69" y="16.67" text-anchor="middle" dy="0.35em">9</text>
  <text x="42.45" y="88.65" text-anchor="middle" dy="0.35em">10</text>
  <text x="49.29" y="30.99" text-anchor="middle" dy="0.35em">11</text>
  <text x="37.33" y="20.06" text-anchor="middle" dy="0.35em">12</text>
  <text x="150.68" y="142.82" text-anchor="middle" dy="0.35em">13</text>
  <text x="58.15" y="180.89" text-anchor="middle" dy="0.35em">14</text>
  <text x="68.05" y="131.44" text-anchor="middle" dy="0.35em">15</text>
  <text x="89.19" y="118.62" text-anchor="middle" dy="0.35em">16</text>
  <text x="110.47" y="105.98" text-anchor="middle" dy="0.35em">17</text>
  <text x="167.11" y="148.64" text-anchor="middle" dy="0.35em">18</text>
  <text x="177.08" y="161.23" text-anchor="middle" dy="0.35em">19</text>
  <text x="165.75" y="67.46" text-anchor="middle" dy="0.35em">20</text>
  <text x="148.03" y="182.35" text-anchor="middle" dy="0.35em">21</text>
  <text x="183.33" y="38.84" text-anchor="middle" dy="0.35em">22</text>
  <text x="111.13" y="182.71" text-anchor="middle" dy="0.35em">23</text>
  <text x="96.5" y="168.7" text-anchor="middle" dy="0.35em">24</text>
  <text x="95.35" y="50.75" text-anchor="middle" dy="0.35em">25</text>
  <text x="54.36" y="51.47" text-anchor="middle" dy="0.35em">26</text>
  <text x="165.96" y="18.28" text-anchor="middle" dy="0.35em">27</text>
  <text x="49.48" y="127.59" text-anchor="middle" dy="0.35em">28</text>
  <text x="131.06" y="25.71" text-anchor="middle" dy="0.35em">29</text>
  <text x="56.28" y="64.22" text-anchor="middle" dy="0.35em">30</text>
  <text x="37.24" y="57.52" text-anchor="middle" dy="0.35em">31</text>
  <text x="16.67" y="39.96" text-anchor="middle" dy="0.35em">32</text>
  <text x="131.62" y="144.32" text-anchor="middle" dy="0.35em">33</text>
  <text x="43.09" y="108.39" text-anchor="middle" dy="0.35em">34</text>
  <text x="76.95" y="178.18" text-anchor="middle" dy="0.35em">35</text>
  <text x="50.83" y="145.73" text-anchor="middle" dy="0.35em">36</text>
  <text x="40.82" y="160.69" text-anchor="middle" dy="0.35em">37</text>
  <text x="164.99" y="183.33" text-anchor="middle" dy="0.35em">38</text>
  <text x="176.94" y="175.4" text-anchor="middle" dy="0.35em">39</text>
  <text x="149.76" y="80.67" text-anchor="middle" dy="0.35em">40</text>
  <text x="129.78" y="181.14" text-anchor="middle" dy="0.35em">41</text>
  <text x="75.62" y="162.31" text-anchor="middle" dy="0.35em">42</text>
  <text x="148.88" y="18.92" text-anchor="middle" dy="0.35em">43</text>
  <text x="92.37" y="176.07" text-anchor="middle" dy="0.35em">44</text>
  <text x="177.85" y="53.57" text-anchor="middle" dy="0.35em">45</text>
  <text x="130.91" y="93.28" text-anchor="middle" dy="0.35em">46</text>
  <text x="43.24" y="174.78" text-anchor="middle" dy="0.35em">47</text>
  <text x="179.34" y="24.93" text-anchor="middle" dy="0.35em">48</text>
</g>
<defs>
  <g id="img-507fe4db-5">
    <circle cx="0" cy="0" r="2.89"/>
  </g>
</defs>
</svg>
