<?xml version="1.0" encoding="UTF-8"?>
<svg xmlns="http://www.w3.org/2000/svg"
     xmlns:xlink="http://www.w3.org/1999/xlink"
     version="1.2"
     width="200mm" height="200mm" viewBox="0 0 200 200"
     stroke="none"
     fill="#000000"
     stroke-width="0.3"
     font-size="3.88"
>
<g stroke-width="0.46" fill="#000000" fill-opacity="0.000" stroke="#D3D3D3" id="img-384afc4f-1">
  <path fill="none" d="M143.05,73.59 L 140.13 68.38"/>
  <path fill="none" d="M143.57,79.37 L 141.43 85.57"/>
  <path fill="none" d="M172.67,62.55 L 179.5 74.87"/>
  <path fill="none" d="M168.72,57.71 L 157.68 48.22"/>
  <path fill="none" d="M182.96,94 L 181.41 80.8"/>
  <path fill="none" d="M182.49,100.22 L 178.94 113.06"/>
  <path fill="none" d="M135.58,64.58 L 128.66 62.2"/>
  <path fill="none" d="M111.49,153.16 L 110.96 154.77"/>
  <path fill="none" d="M113.52,155.23 L 125.5 151.46"/>
  <path fill="none" d="M114.48,153.7 L 115.94 154.82"/>
  <path fill="none" d="M120.96,158.72 L 122.24 159.73"/>
  <path fill="none" d="M98.98,174.06 L 85.5 179.76"/>
  <path fill="none" d="M105.02,172.19 L 113.95 170.37"/>
  <path fill="none" d="M79.42,181.38 L 66.59 182.95"/>
  <path fill="none" d="M119.25,167.44 L 122.55 163.99"/>
  <path fill="none" d="M18.06,118.91 L 22.71 109.34"/>
  <path fill="none" d="M16.78,124.95 L 17.11 134.62"/>
  <path fill="none" d="M26.37,104.27 L 35.15 95.69"/>
  <path fill="none" d="M17.95,140.89 L 20.52 151.73"/>
  <path fill="none" d="M122.49,61.41 L 113.64 62.1"/>
  <path fill="none" d="M97.68,66.49 L 107.45 63.33"/>
  <path fill="none" d="M91.69,68.61 L 79.33 73.37"/>
  <path fill="none" d="M40.17,91.87 L 52.45 84.69"/>
  <path fill="none" d="M73.42,75.7 L 58.14 81.9"/>
  <path fill="none" d="M103.03,104.67 L 111.98 103.34"/>
  <path fill="none" d="M97.65,102.88 L 87.46 92.61"/>
  <path fill="none" d="M126.5,98.58 L 118.09 101.75"/>
  <path fill="none" d="M131.94,95.45 L 137.93 90.58"/>
  <path fill="none" d="M83.32,87.81 L 74.64 76.26"/>
  <path fill="none" d="M71.82,70.68 L 67.88 57.57"/>
  <path fill="none" d="M66.86,51.35 L 66.45 39.95"/>
  <path fill="none" d="M167.8,129.46 L 176.15 118.64"/>
  <path fill="none" d="M163.23,133.75 L 151.11 141.89"/>
  <path fill="none" d="M131.54,149.48 L 145.47 144.69"/>
  <path fill="none" d="M48.56,180.03 L 60.33 182.64"/>
  <path fill="none" d="M42.82,177.57 L 33.48 171.32"/>
  <path fill="none" d="M29.11,166.89 L 22.99 157.48"/>
  <path fill="none" d="M152.31,45 L 137.86 39.41"/>
  <path fill="none" d="M131.75,37.81 L 116.54 35.58"/>
  <path fill="none" d="M102.92,24.45 L 111.17 32.85"/>
  <path fill="none" d="M97.71,21.07 L 88.96 17.78"/>
  <path fill="none" d="M71.43,25.28 L 67.62 33.87"/>
  <path fill="none" d="M75.64,21.12 L 83.06 17.92"/>
</g>
<g stroke-width="0.46" stroke="#D3D3D3" id="img-384afc4f-2">
</g>
<g font-size="4" stroke="#000000" stroke-opacity="0.000" fill="#000000" id="img-384afc4f-3">
  <text x="141.59" y="70.99" text-anchor="middle" dy="0.35em">10</text>
  <text x="142.5" y="82.47" text-anchor="middle" dy="0.35em">31</text>
  <text x="176.08" y="68.71" text-anchor="middle" dy="0.35em">0</text>
  <text x="163.2" y="52.96" text-anchor="middle" dy="0.35em">1</text>
  <text x="182.19" y="87.4" text-anchor="middle" dy="0.35em">0</text>
  <text x="180.71" y="106.64" text-anchor="middle" dy="0.35em">1</text>
  <text x="132.12" y="63.39" text-anchor="middle" dy="0.35em">46</text>
  <text x="111.22" y="153.97" text-anchor="middle" dy="0.35em">0</text>
  <text x="119.51" y="153.34" text-anchor="middle" dy="0.35em">1</text>
  <text x="115.21" y="154.26" text-anchor="middle" dy="0.35em">0</text>
  <text x="121.6" y="159.23" text-anchor="middle" dy="0.35em">4</text>
  <text x="92.24" y="176.91" text-anchor="middle" dy="0.35em">0</text>
  <text x="109.48" y="171.28" text-anchor="middle" dy="0.35em">0</text>
  <text x="73" y="182.16" text-anchor="middle" dy="0.35em">1</text>
  <text x="120.9" y="165.71" text-anchor="middle" dy="0.35em">0</text>
  <text x="20.38" y="114.13" text-anchor="middle" dy="0.35em">0</text>
  <text x="16.94" y="129.78" text-anchor="middle" dy="0.35em">0</text>
  <text x="30.76" y="99.98" text-anchor="middle" dy="0.35em">24</text>
  <text x="19.23" y="146.31" text-anchor="middle" dy="0.35em">1</text>
  <text x="118.06" y="61.75" text-anchor="middle" dy="0.35em">0</text>
  <text x="102.57" y="64.91" text-anchor="middle" dy="0.35em">0</text>
  <text x="85.51" y="70.99" text-anchor="middle" dy="0.35em">12</text>
  <text x="46.31" y="88.28" text-anchor="middle" dy="0.35em">0</text>
  <text x="65.78" y="78.8" text-anchor="middle" dy="0.35em">0</text>
  <text x="107.5" y="104" text-anchor="middle" dy="0.35em">48</text>
  <text x="92.56" y="97.74" text-anchor="middle" dy="0.35em">48</text>
  <text x="122.3" y="100.16" text-anchor="middle" dy="0.35em">0</text>
  <text x="134.93" y="93.01" text-anchor="middle" dy="0.35em">16</text>
  <text x="78.98" y="82.04" text-anchor="middle" dy="0.35em">6</text>
  <text x="69.85" y="64.12" text-anchor="middle" dy="0.35em">14</text>
  <text x="66.65" y="45.65" text-anchor="middle" dy="0.35em">5016</text>
  <text x="171.98" y="124.05" text-anchor="middle" dy="0.35em">0</text>
  <text x="157.17" y="137.82" text-anchor="middle" dy="0.35em">6</text>
  <text x="138.5" y="147.09" text-anchor="middle" dy="0.35em">0</text>
  <text x="54.45" y="181.34" text-anchor="middle" dy="0.35em">0</text>
  <text x="38.15" y="174.45" text-anchor="middle" dy="0.35em">6</text>
  <text x="26.05" y="162.19" text-anchor="middle" dy="0.35em">0</text>
  <text x="145.08" y="42.21" text-anchor="middle" dy="0.35em">6</text>
  <text x="124.14" y="36.69" text-anchor="middle" dy="0.35em">5008</text>
  <text x="107.04" y="28.65" text-anchor="middle" dy="0.35em">0</text>
  <text x="93.34" y="19.42" text-anchor="middle" dy="0.35em">14</text>
  <text x="69.53" y="29.58" text-anchor="middle" dy="0.35em">0</text>
  <text x="79.35" y="19.52" text-anchor="middle" dy="0.35em">0</text>
</g>
<g stroke-width="0" stroke="#000000" stroke-opacity="0.000" fill="#40E0D0" id="img-384afc4f-4">
  <use xlink:href="#img-384afc4f-5" x="144.6" y="76.36"/>
  <use xlink:href="#img-384afc4f-5" x="171.13" y="59.78"/>
  <use xlink:href="#img-384afc4f-5" x="183.33" y="97.16"/>
  <use xlink:href="#img-384afc4f-5" x="181.04" y="77.65"/>
  <use xlink:href="#img-384afc4f-5" x="138.58" y="65.61"/>
  <use xlink:href="#img-384afc4f-5" x="110.49" y="156.18"/>
  <use xlink:href="#img-384afc4f-5" x="111.96" y="151.76"/>
  <use xlink:href="#img-384afc4f-5" x="118.46" y="156.76"/>
  <use xlink:href="#img-384afc4f-5" x="101.91" y="172.82"/>
  <use xlink:href="#img-384afc4f-5" x="82.57" y="180.99"/>
  <use xlink:href="#img-384afc4f-5" x="117.06" y="169.74"/>
  <use xlink:href="#img-384afc4f-5" x="124.74" y="161.69"/>
  <use xlink:href="#img-384afc4f-5" x="16.67" y="121.77"/>
  <use xlink:href="#img-384afc4f-5" x="24.1" y="106.49"/>
  <use xlink:href="#img-384afc4f-5" x="17.21" y="137.79"/>
  <use xlink:href="#img-384afc4f-5" x="125.65" y="61.16"/>
  <use xlink:href="#img-384afc4f-5" x="94.66" y="67.47"/>
  <use xlink:href="#img-384afc4f-5" x="110.47" y="62.35"/>
  <use xlink:href="#img-384afc4f-5" x="37.43" y="93.47"/>
  <use xlink:href="#img-384afc4f-5" x="76.37" y="74.51"/>
  <use xlink:href="#img-384afc4f-5" x="55.2" y="83.09"/>
  <use xlink:href="#img-384afc4f-5" x="99.89" y="105.13"/>
  <use xlink:href="#img-384afc4f-5" x="129.47" y="97.45"/>
  <use xlink:href="#img-384afc4f-5" x="115.12" y="102.88"/>
  <use xlink:href="#img-384afc4f-5" x="85.23" y="90.35"/>
  <use xlink:href="#img-384afc4f-5" x="72.73" y="73.73"/>
  <use xlink:href="#img-384afc4f-5" x="66.97" y="54.52"/>
  <use xlink:href="#img-384afc4f-5" x="165.86" y="131.98"/>
  <use xlink:href="#img-384afc4f-5" x="178.09" y="116.13"/>
  <use xlink:href="#img-384afc4f-5" x="128.54" y="150.51"/>
  <use xlink:href="#img-384afc4f-5" x="148.47" y="143.66"/>
  <use xlink:href="#img-384afc4f-5" x="45.46" y="179.34"/>
  <use xlink:href="#img-384afc4f-5" x="63.44" y="183.33"/>
  <use xlink:href="#img-384afc4f-5" x="30.84" y="169.56"/>
  <use xlink:href="#img-384afc4f-5" x="21.25" y="154.82"/>
  <use xlink:href="#img-384afc4f-5" x="140.4" y="88.57"/>
  <use xlink:href="#img-384afc4f-5" x="155.27" y="46.15"/>
  <use xlink:href="#img-384afc4f-5" x="134.89" y="38.27"/>
  <use xlink:href="#img-384afc4f-5" x="100.69" y="22.18"/>
  <use xlink:href="#img-384afc4f-5" x="113.39" y="35.12"/>
  <use xlink:href="#img-384afc4f-5" x="72.72" y="22.38"/>
  <use xlink:href="#img-384afc4f-5" x="66.34" y="36.78"/>
  <use xlink:href="#img-384afc4f-5" x="85.98" y="16.67"/>
</g>
<g font-size="4" stroke="#000000" stroke-opacity="0.000" fill="#000000" id="img-384afc4f-6">
  <text x="144.6" y="76.36" text-anchor="middle" dy="0.35em">1</text>
  <text x="171.13" y="59.78" text-anchor="middle" dy="0.35em">2</text>
  <text x="183.33" y="97.16" text-anchor="middle" dy="0.35em">3</text>
  <text x="181.04" y="77.65" text-anchor="middle" dy="0.35em">4</text>
  <text x="138.58" y="65.61" text-anchor="middle" dy="0.35em">5</text>
  <text x="110.49" y="156.18" text-anchor="middle" dy="0.35em">6</text>
  <text x="111.96" y="151.76" text-anchor="middle" dy="0.35em">7</text>
  <text x="118.46" y="156.76" text-anchor="middle" dy="0.35em">8</text>
  <text x="101.91" y="172.82" text-anchor="middle" dy="0.35em">9</text>
  <text x="82.57" y="180.99" text-anchor="middle" dy="0.35em">10</text>
  <text x="117.06" y="169.74" text-anchor="middle" dy="0.35em">11</text>
  <text x="124.74" y="161.69" text-anchor="middle" dy="0.35em">12</text>
  <text x="16.67" y="121.77" text-anchor="middle" dy="0.35em">13</text>
  <text x="24.1" y="106.49" text-anchor="middle" dy="0.35em">14</text>
  <text x="17.21" y="137.79" text-anchor="middle" dy="0.35em">15</text>
  <text x="125.65" y="61.16" text-anchor="middle" dy="0.35em">16</text>
  <text x="94.66" y="67.47" text-anchor="middle" dy="0.35em">17</text>
  <text x="110.47" y="62.35" text-anchor="middle" dy="0.35em">18</text>
  <text x="37.43" y="93.47" text-anchor="middle" dy="0.35em">19</text>
  <text x="76.37" y="74.51" text-anchor="middle" dy="0.35em">20</text>
  <text x="55.2" y="83.09" text-anchor="middle" dy="0.35em">21</text>
  <text x="99.89" y="105.13" text-anchor="middle" dy="0.35em">22</text>
  <text x="129.47" y="97.45" text-anchor="middle" dy="0.35em">23</text>
  <text x="115.12" y="102.88" text-anchor="middle" dy="0.35em">24</text>
  <text x="85.23" y="90.35" text-anchor="middle" dy="0.35em">25</text>
  <text x="72.73" y="73.73" text-anchor="middle" dy="0.35em">26</text>
  <text x="66.97" y="54.52" text-anchor="middle" dy="0.35em">27</text>
  <text x="165.86" y="131.98" text-anchor="middle" dy="0.35em">28</text>
  <text x="178.09" y="116.13" text-anchor="middle" dy="0.35em">29</text>
  <text x="128.54" y="150.51" text-anchor="middle" dy="0.35em">30</text>
  <text x="148.47" y="143.66" text-anchor="middle" dy="0.35em">31</text>
  <text x="45.46" y="179.34" text-anchor="middle" dy="0.35em">32</text>
  <text x="63.44" y="183.33" text-anchor="middle" dy="0.35em">33</text>
  <text x="30.84" y="169.56" text-anchor="middle" dy="0.35em">34</text>
  <text x="21.25" y="154.82" text-anchor="middle" dy="0.35em">35</text>
  <text x="140.4" y="88.57" text-anchor="middle" dy="0.35em">36</text>
  <text x="155.27" y="46.15" text-anchor="middle" dy="0.35em">37</text>
  <text x="134.89" y="38.27" text-anchor="middle" dy="0.35em">38</text>
  <text x="100.69" y="22.18" text-anchor="middle" dy="0.35em">39</text>
  <text x="113.39" y="35.12" text-anchor="middle" dy="0.35em">40</text>
  <text x="72.72" y="22.38" text-anchor="middle" dy="0.35em">41</text>
  <text x="66.34" y="36.78" text-anchor="middle" dy="0.35em">42</text>
  <text x="85.98" y="16.67" text-anchor="middle" dy="0.35em">43</text>
</g>
<defs>
  <g id="img-384afc4f-5">
    <circle cx="0" cy="0" r="3.05"/>
  </g>
</defs>
</svg>
