<?xml version="1.0" encoding="UTF-8"?>
<svg xmlns="http://www.w3.org/2000/svg"
     xmlns:xlink="http://www.w3.org/1999/xlink"
     version="1.2"
     width="200mm" height="200mm" viewBox="0 0 200 200"
     stroke="none"
     fill="#000000"
     stroke-width="0.3"
     font-size="3.88"
>
<g stroke-width="0.73" fill="#000000" fill-opacity="0.000" stroke="#D3D3D3" id="img-1f4a166c-1">
  <path fill="none" d="M82.69,16.98 L 104.67 18.34"/>
  <path fill="none" d="M72.9,18.4 L 53.29 25.57"/>
  <path fill="none" d="M175.88,89.32 L 178.71 111.22"/>
  <path fill="none" d="M173.06,79.74 L 163.69 60.02"/>
  <path fill="none" d="M134.05,30.17 L 114.28 20.81"/>
  <path fill="none" d="M142.17,35.92 L 157.96 51.87"/>
  <path fill="none" d="M54.41,155.55 L 37.85 140.19"/>
  <path fill="none" d="M62.7,161.1 L 83.42 170.68"/>
  <path fill="none" d="M31.8,132.27 L 21.92 113.39"/>
  <path fill="none" d="M24.96,54.1 L 18.33 73.08"/>
  <path fill="none" d="M30.19,45.75 L 44.98 30.89"/>
  <path fill="none" d="M19.11,103.89 L 17.14 82.88"/>
  <path fill="none" d="M92.89,174.11 L 114.12 179.83"/>
  <path fill="none" d="M152.5,180.9 L 168.27 172.26"/>
  <path fill="none" d="M143.03,182.95 L 124.04 181.52"/>
  <path fill="none" d="M180.04,121.24 L 182.64 140.03"/>
  <path fill="none" d="M174.69,165.19 L 181.34 149.68"/>
</g>
<g stroke-width="0.73" stroke="#D3D3D3" id="img-1f4a166c-2">
</g>
<g font-size="4" stroke="#000000" stroke-opacity="0.000" fill="#000000" id="img-1f4a166c-3">
  <text x="93.68" y="17.66" text-anchor="middle" dy="0.35em">0</text>
  <text x="63.1" y="21.99" text-anchor="middle" dy="0.35em">8</text>
  <text x="177.29" y="100.27" text-anchor="middle" dy="0.35em">0</text>
  <text x="168.37" y="69.88" text-anchor="middle" dy="0.35em">3</text>
  <text x="124.16" y="25.49" text-anchor="middle" dy="0.35em">5</text>
  <text x="150.07" y="43.9" text-anchor="middle" dy="0.35em">0</text>
  <text x="46.13" y="147.87" text-anchor="middle" dy="0.35em">0</text>
  <text x="73.06" y="165.89" text-anchor="middle" dy="0.35em">12</text>
  <text x="26.86" y="122.83" text-anchor="middle" dy="0.35em">6</text>
  <text x="21.65" y="63.59" text-anchor="middle" dy="0.35em">0</text>
  <text x="37.58" y="38.32" text-anchor="middle" dy="0.35em">0</text>
  <text x="18.12" y="93.38" text-anchor="middle" dy="0.35em">0</text>
  <text x="103.5" y="176.97" text-anchor="middle" dy="0.35em">0</text>
  <text x="160.38" y="176.58" text-anchor="middle" dy="0.35em">5</text>
  <text x="133.53" y="182.24" text-anchor="middle" dy="0.35em">0</text>
  <text x="181.34" y="130.63" text-anchor="middle" dy="0.35em">0</text>
  <text x="178.02" y="157.43" text-anchor="middle" dy="0.35em">0</text>
</g>
<g stroke-width="0" stroke="#000000" stroke-opacity="0.000" fill="#40E0D0" id="img-1f4a166c-4">
  <use xlink:href="#img-1f4a166c-5" x="77.65" y="16.67"/>
  <use xlink:href="#img-1f4a166c-5" x="175.23" y="84.31"/>
  <use xlink:href="#img-1f4a166c-5" x="138.61" y="32.33"/>
  <use xlink:href="#img-1f4a166c-5" x="58.11" y="158.98"/>
  <use xlink:href="#img-1f4a166c-5" x="34.14" y="136.75"/>
  <use xlink:href="#img-1f4a166c-5" x="26.63" y="49.33"/>
  <use xlink:href="#img-1f4a166c-5" x="19.58" y="108.92"/>
  <use xlink:href="#img-1f4a166c-5" x="88.01" y="172.8"/>
  <use xlink:href="#img-1f4a166c-5" x="148.07" y="183.33"/>
  <use xlink:href="#img-1f4a166c-5" x="179.35" y="116.23"/>
  <use xlink:href="#img-1f4a166c-5" x="172.7" y="169.83"/>
  <use xlink:href="#img-1f4a166c-5" x="109.71" y="18.65"/>
  <use xlink:href="#img-1f4a166c-5" x="183.33" y="145.04"/>
  <use xlink:href="#img-1f4a166c-5" x="161.52" y="55.46"/>
  <use xlink:href="#img-1f4a166c-5" x="16.67" y="77.85"/>
  <use xlink:href="#img-1f4a166c-5" x="48.54" y="27.31"/>
  <use xlink:href="#img-1f4a166c-5" x="119" y="181.14"/>
</g>
<g font-size="4" stroke="#000000" stroke-opacity="0.000" fill="#000000" id="img-1f4a166c-6">
  <text x="77.65" y="16.67" text-anchor="middle" dy="0.35em">1</text>
  <text x="175.23" y="84.31" text-anchor="middle" dy="0.35em">2</text>
  <text x="138.61" y="32.33" text-anchor="middle" dy="0.35em">3</text>
  <text x="58.11" y="158.98" text-anchor="middle" dy="0.35em">4</text>
  <text x="34.14" y="136.75" text-anchor="middle" dy="0.35em">5</text>
  <text x="26.63" y="49.33" text-anchor="middle" dy="0.35em">6</text>
  <text x="19.58" y="108.92" text-anchor="middle" dy="0.35em">7</text>
  <text x="88.01" y="172.8" text-anchor="middle" dy="0.35em">8</text>
  <text x="148.07" y="183.33" text-anchor="middle" dy="0.35em">9</text>
  <text x="179.35" y="116.23" text-anchor="middle" dy="0.35em">10</text>
  <text x="172.7" y="169.83" text-anchor="middle" dy="0.35em">11</text>
  <text x="109.71" y="18.65" text-anchor="middle" dy="0.35em">12</text>
  <text x="183.33" y="145.04" text-anchor="middle" dy="0.35em">13</text>
  <text x="161.52" y="55.46" text-anchor="middle" dy="0.35em">14</text>
  <text x="16.67" y="77.85" text-anchor="middle" dy="0.35em">15</text>
  <text x="48.54" y="27.31" text-anchor="middle" dy="0.35em">16</text>
  <text x="119" y="181.14" text-anchor="middle" dy="0.35em">17</text>
</g>
<defs>
  <g id="img-1f4a166c-5">
    <circle cx="0" cy="0" r="4.85"/>
  </g>
</defs>
</svg>
