<?xml version="1.0" encoding="UTF-8"?>
<svg xmlns="http://www.w3.org/2000/svg"
     xmlns:xlink="http://www.w3.org/1999/xlink"
     version="1.2"
     width="200mm" height="200mm" viewBox="0 0 200 200"
     stroke="none"
     fill="#000000"
     stroke-width="0.3"
     font-size="3.88"
>
<g stroke-width="0.43" fill="#000000" fill-opacity="0.000" stroke="#D3D3D3" id="img-463afce2-1">
  <path fill="none" d="M136.52,143.07 L 125.39 156.34"/>
  <path fill="none" d="M140.12,138.26 L 150.54 122.73"/>
  <path fill="none" d="M164.4,95.17 L 169.58 78.86"/>
  <path fill="none" d="M162.12,100.71 L 153.58 117.55"/>
  <path fill="none" d="M157.1,25.94 L 164.37 33.59"/>
  <path fill="none" d="M152.39,22.33 L 144.58 18.1"/>
  <path fill="none" d="M72.54,44.23 L 77.83 51.19"/>
  <path fill="none" d="M67.72,41.89 L 64.62 41.95"/>
  <path fill="none" d="M87.2,68.79 L 80.99 56.28"/>
  <path fill="none" d="M89.02,74.45 L 91.5 90.02"/>
  <path fill="none" d="M89.11,139.39 L 91.27 120.43"/>
  <path fill="none" d="M88.47,145.37 L 86.87 161"/>
  <path fill="none" d="M91.5,181.81 L 95.28 182.67"/>
  <path fill="none" d="M88.22,178.15 L 86.91 166.98"/>
  <path fill="none" d="M162.04,124.31 L 171.93 133.05"/>
  <path fill="none" d="M157.12,120.93 L 145.05 114.61"/>
  <path fill="none" d="M99.78,180.77 L 105.32 171.7"/>
  <path fill="none" d="M170.67,72.99 L 171.55 57.31"/>
  <path fill="none" d="M120.92,160.26 L 109.43 167.53"/>
  <path fill="none" d="M124.94,113.73 L 116.21 115.4"/>
  <path fill="none" d="M130.9,113.18 L 139.37 113.21"/>
  <path fill="none" d="M182.38,161.19 L 183.09 152.4"/>
  <path fill="none" d="M179.25,165.04 L 173.25 166.81"/>
  <path fill="none" d="M118.65,131.93 L 103.64 121.54"/>
  <path fill="none" d="M123.41,135.6 L 137.03 147.31"/>
  <path fill="none" d="M98.36,118.75 L 80.98 112.08"/>
  <path fill="none" d="M75.31,110.09 L 60.29 105.27"/>
  <path fill="none" d="M110.3,116.48 L 100.47 118.22"/>
  <path fill="none" d="M95.08,116.97 L 87.42 111.43"/>
  <path fill="none" d="M27.87,85.43 L 37.52 93.55"/>
  <path fill="none" d="M24.06,80.89 L 18.31 70.99"/>
  <path fill="none" d="M87.52,68.8 L 83.37 85.67"/>
  <path fill="none" d="M89.76,63.29 L 98.33 48.66"/>
  <path fill="none" d="M16.69,54.23 L 16.77 65.38"/>
  <path fill="none" d="M18.66,48.97 L 24.54 42.33"/>
  <path fill="none" d="M110.8,32.57 L 101.74 43.73"/>
  <path fill="none" d="M115.09,28.41 L 124.78 21.04"/>
  <path fill="none" d="M175.8,137.58 L 181.72 146.87"/>
  <path fill="none" d="M40.77,35.14 L 46.65 35.71"/>
  <path fill="none" d="M35.05,36.12 L 29.26 38.81"/>
  <path fill="none" d="M167.26,38.66 L 170.9 51.42"/>
  <path fill="none" d="M58.93,40.66 L 52.33 37.35"/>
  <path fill="none" d="M91.93,95.99 L 91.66 114.44"/>
  <path fill="none" d="M141.72,151.07 L 153.13 159.62"/>
  <path fill="none" d="M158.31,162.59 L 167.6 166.49"/>
  <path fill="none" d="M82.98,91.58 L 84.65 106.68"/>
  <path fill="none" d="M42.5,96.84 L 54.74 103"/>
  <path fill="none" d="M138.98,17.18 L 130.13 18.7"/>
</g>
<g stroke-width="0.43" stroke="#D3D3D3" id="img-463afce2-2">
</g>
<g font-size="4" stroke="#000000" stroke-opacity="0.000" fill="#000000" id="img-463afce2-3">
  <text x="130.95" y="149.7" text-anchor="middle" dy="0.35em">39</text>
  <text x="145.33" y="130.5" text-anchor="middle" dy="0.35em">53</text>
  <text x="166.99" y="87.01" text-anchor="middle" dy="0.35em">216</text>
  <text x="157.85" y="109.13" text-anchor="middle" dy="0.35em">19</text>
  <text x="160.73" y="29.77" text-anchor="middle" dy="0.35em">85</text>
  <text x="148.48" y="20.21" text-anchor="middle" dy="0.35em">119</text>
  <text x="75.19" y="47.71" text-anchor="middle" dy="0.35em">27</text>
  <text x="66.17" y="41.92" text-anchor="middle" dy="0.35em">62</text>
  <text x="84.1" y="62.53" text-anchor="middle" dy="0.35em">7</text>
  <text x="90.26" y="82.23" text-anchor="middle" dy="0.35em">51</text>
  <text x="90.19" y="129.91" text-anchor="middle" dy="0.35em">11</text>
  <text x="87.67" y="153.18" text-anchor="middle" dy="0.35em">21</text>
  <text x="93.39" y="182.24" text-anchor="middle" dy="0.35em">30</text>
  <text x="87.56" y="172.57" text-anchor="middle" dy="0.35em">58</text>
  <text x="166.98" y="128.68" text-anchor="middle" dy="0.35em">80</text>
  <text x="151.08" y="117.77" text-anchor="middle" dy="0.35em">67</text>
  <text x="102.55" y="176.23" text-anchor="middle" dy="0.35em">31</text>
  <text x="171.11" y="65.15" text-anchor="middle" dy="0.35em">55</text>
  <text x="115.17" y="163.89" text-anchor="middle" dy="0.35em">32</text>
  <text x="120.58" y="114.56" text-anchor="middle" dy="0.35em">45</text>
  <text x="135.14" y="113.19" text-anchor="middle" dy="0.35em">90</text>
  <text x="182.74" y="156.8" text-anchor="middle" dy="0.35em">12</text>
  <text x="176.25" y="165.92" text-anchor="middle" dy="0.35em">128</text>
  <text x="111.15" y="126.73" text-anchor="middle" dy="0.35em">72</text>
  <text x="130.22" y="141.45" text-anchor="middle" dy="0.35em">10</text>
  <text x="89.67" y="115.41" text-anchor="middle" dy="0.35em">82</text>
  <text x="67.8" y="107.68" text-anchor="middle" dy="0.35em">45</text>
  <text x="105.38" y="117.35" text-anchor="middle" dy="0.35em">20</text>
  <text x="91.25" y="114.2" text-anchor="middle" dy="0.35em">25</text>
  <text x="32.69" y="89.49" text-anchor="middle" dy="0.35em">41</text>
  <text x="21.18" y="75.94" text-anchor="middle" dy="0.35em">70</text>
  <text x="85.45" y="77.23" text-anchor="middle" dy="0.35em">52</text>
  <text x="94.05" y="55.97" text-anchor="middle" dy="0.35em">38</text>
  <text x="16.73" y="59.81" text-anchor="middle" dy="0.35em">112</text>
  <text x="21.6" y="45.65" text-anchor="middle" dy="0.35em">122</text>
  <text x="106.27" y="38.15" text-anchor="middle" dy="0.35em">41</text>
  <text x="119.93" y="24.73" text-anchor="middle" dy="0.35em">29</text>
  <text x="178.76" y="142.22" text-anchor="middle" dy="0.35em">56</text>
  <text x="43.71" y="35.43" text-anchor="middle" dy="0.35em">69</text>
  <text x="32.15" y="37.46" text-anchor="middle" dy="0.35em">8</text>
  <text x="169.08" y="45.04" text-anchor="middle" dy="0.35em">31</text>
  <text x="55.63" y="39.01" text-anchor="middle" dy="0.35em">27</text>
  <text x="91.79" y="105.22" text-anchor="middle" dy="0.35em">44</text>
  <text x="147.42" y="155.34" text-anchor="middle" dy="0.35em">83</text>
  <text x="162.95" y="164.54" text-anchor="middle" dy="0.35em">12</text>
  <text x="83.82" y="99.13" text-anchor="middle" dy="0.35em">35</text>
  <text x="48.62" y="99.92" text-anchor="middle" dy="0.35em">62</text>
  <text x="134.55" y="17.94" text-anchor="middle" dy="0.35em">58</text>
</g>
<g stroke-width="0" stroke="#000000" stroke-opacity="0.000" fill="#40E0D0" id="img-463afce2-4">
  <use xlink:href="#img-463afce2-5" x="138.45" y="140.76"/>
  <use xlink:href="#img-463afce2-5" x="163.49" y="98.03"/>
  <use xlink:href="#img-463afce2-5" x="155.03" y="23.76"/>
  <use xlink:href="#img-463afce2-5" x="70.73" y="41.83"/>
  <use xlink:href="#img-463afce2-5" x="88.54" y="71.48"/>
  <use xlink:href="#img-463afce2-5" x="88.77" y="142.38"/>
  <use xlink:href="#img-463afce2-5" x="88.57" y="181.14"/>
  <use xlink:href="#img-463afce2-5" x="159.78" y="122.32"/>
  <use xlink:href="#img-463afce2-5" x="98.21" y="183.33"/>
  <use xlink:href="#img-463afce2-5" x="170.5" y="75.99"/>
  <use xlink:href="#img-463afce2-5" x="123.46" y="158.65"/>
  <use xlink:href="#img-463afce2-5" x="106.88" y="169.14"/>
  <use xlink:href="#img-463afce2-5" x="127.9" y="113.17"/>
  <use xlink:href="#img-463afce2-5" x="182.14" y="164.19"/>
  <use xlink:href="#img-463afce2-5" x="121.12" y="133.64"/>
  <use xlink:href="#img-463afce2-5" x="101.17" y="119.83"/>
  <use xlink:href="#img-463afce2-5" x="78.18" y="111"/>
  <use xlink:href="#img-463afce2-5" x="113.26" y="115.96"/>
  <use xlink:href="#img-463afce2-5" x="97.51" y="118.74"/>
  <use xlink:href="#img-463afce2-5" x="25.57" y="83.49"/>
  <use xlink:href="#img-463afce2-5" x="88.24" y="65.88"/>
  <use xlink:href="#img-463afce2-5" x="16.67" y="51.22"/>
  <use xlink:href="#img-463afce2-5" x="112.7" y="30.24"/>
  <use xlink:href="#img-463afce2-5" x="174.18" y="135.04"/>
  <use xlink:href="#img-463afce2-5" x="79.65" y="53.59"/>
  <use xlink:href="#img-463afce2-5" x="152.22" y="120.23"/>
  <use xlink:href="#img-463afce2-5" x="37.77" y="34.85"/>
  <use xlink:href="#img-463afce2-5" x="166.44" y="35.77"/>
  <use xlink:href="#img-463afce2-5" x="61.62" y="42.01"/>
  <use xlink:href="#img-463afce2-5" x="91.97" y="92.99"/>
  <use xlink:href="#img-463afce2-5" x="91.61" y="117.44"/>
  <use xlink:href="#img-463afce2-5" x="86.56" y="163.99"/>
  <use xlink:href="#img-463afce2-5" x="142.38" y="113.22"/>
  <use xlink:href="#img-463afce2-5" x="171.72" y="54.31"/>
  <use xlink:href="#img-463afce2-5" x="183.33" y="149.4"/>
  <use xlink:href="#img-463afce2-5" x="139.31" y="149.26"/>
  <use xlink:href="#img-463afce2-5" x="155.53" y="161.42"/>
  <use xlink:href="#img-463afce2-5" x="82.65" y="88.59"/>
  <use xlink:href="#img-463afce2-5" x="84.98" y="109.67"/>
  <use xlink:href="#img-463afce2-5" x="39.82" y="95.48"/>
  <use xlink:href="#img-463afce2-5" x="99.85" y="46.07"/>
  <use xlink:href="#img-463afce2-5" x="141.94" y="16.67"/>
  <use xlink:href="#img-463afce2-5" x="49.64" y="36"/>
  <use xlink:href="#img-463afce2-5" x="127.17" y="19.21"/>
  <use xlink:href="#img-463afce2-5" x="16.79" y="68.39"/>
  <use xlink:href="#img-463afce2-5" x="57.43" y="104.36"/>
  <use xlink:href="#img-463afce2-5" x="170.37" y="167.66"/>
  <use xlink:href="#img-463afce2-5" x="26.53" y="40.08"/>
</g>
<g font-size="4" stroke="#000000" stroke-opacity="0.000" fill="#000000" id="img-463afce2-6">
  <text x="138.45" y="140.76" text-anchor="middle" dy="0.35em">1</text>
  <text x="163.49" y="98.03" text-anchor="middle" dy="0.35em">2</text>
  <text x="155.03" y="23.76" text-anchor="middle" dy="0.35em">3</text>
  <text x="70.73" y="41.83" text-anchor="middle" dy="0.35em">4</text>
  <text x="88.54" y="71.48" text-anchor="middle" dy="0.35em">5</text>
  <text x="88.77" y="142.38" text-anchor="middle" dy="0.35em">6</text>
  <text x="88.57" y="181.14" text-anchor="middle" dy="0.35em">7</text>
  <text x="159.78" y="122.32" text-anchor="middle" dy="0.35em">8</text>
  <text x="98.21" y="183.33" text-anchor="middle" dy="0.35em">9</text>
  <text x="170.5" y="75.99" text-anchor="middle" dy="0.35em">10</text>
  <text x="123.46" y="158.65" text-anchor="middle" dy="0.35em">11</text>
  <text x="106.88" y="169.14" text-anchor="middle" dy="0.35em">12</text>
  <text x="127.9" y="113.17" text-anchor="middle" dy="0.35em">13</text>
  <text x="182.14" y="164.19" text-anchor="middle" dy="0.35em">14</text>
  <text x="121.12" y="133.64" text-anchor="middle" dy="0.35em">15</text>
  <text x="101.17" y="119.83" text-anchor="middle" dy="0.35em">16</text>
  <text x="78.18" y="111" text-anchor="middle" dy="0.35em">17</text>
  <text x="113.26" y="115.96" text-anchor="middle" dy="0.35em">18</text>
  <text x="97.51" y="118.74" text-anchor="middle" dy="0.35em">19</text>
  <text x="25.57" y="83.49" text-anchor="middle" dy="0.35em">20</text>
  <text x="88.24" y="65.88" text-anchor="middle" dy="0.35em">21</text>
  <text x="16.67" y="51.22" text-anchor="middle" dy="0.35em">22</text>
  <text x="112.7" y="30.24" text-anchor="middle" dy="0.35em">23</text>
  <text x="174.18" y="135.04" text-anchor="middle" dy="0.35em">24</text>
  <text x="79.65" y="53.59" text-anchor="middle" dy="0.35em">25</text>
  <text x="152.22" y="120.23" text-anchor="middle" dy="0.35em">26</text>
  <text x="37.77" y="34.85" text-anchor="middle" dy="0.35em">27</text>
  <text x="166.44" y="35.77" text-anchor="middle" dy="0.35em">28</text>
  <text x="61.62" y="42.01" text-anchor="middle" dy="0.35em">29</text>
  <text x="91.97" y="92.99" text-anchor="middle" dy="0.35em">30</text>
  <text x="91.61" y="117.44" text-anchor="middle" dy="0.35em">31</text>
  <text x="86.56" y="163.99" text-anchor="middle" dy="0.35em">32</text>
  <text x="142.38" y="113.22" text-anchor="middle" dy="0.35em">33</text>
  <text x="171.72" y="54.31" text-anchor="middle" dy="0.35em">34</text>
  <text x="183.33" y="149.4" text-anchor="middle" dy="0.35em">35</text>
  <text x="139.31" y="149.26" text-anchor="middle" dy="0.35em">36</text>
  <text x="155.53" y="161.42" text-anchor="middle" dy="0.35em">37</text>
  <text x="82.65" y="88.59" text-anchor="middle" dy="0.35em">38</text>
  <text x="84.98" y="109.67" text-anchor="middle" dy="0.35em">39</text>
  <text x="39.82" y="95.48" text-anchor="middle" dy="0.35em">40</text>
  <text x="99.85" y="46.07" text-anchor="middle" dy="0.35em">41</text>
  <text x="141.94" y="16.67" text-anchor="middle" dy="0.35em">42</text>
  <text x="49.64" y="36" text-anchor="middle" dy="0.35em">43</text>
  <text x="127.17" y="19.21" text-anchor="middle" dy="0.35em">44</text>
  <text x="16.79" y="68.39" text-anchor="middle" dy="0.35em">45</text>
  <text x="57.43" y="104.36" text-anchor="middle" dy="0.35em">46</text>
  <text x="170.37" y="167.66" text-anchor="middle" dy="0.35em">47</text>
  <text x="26.53" y="40.08" text-anchor="middle" dy="0.35em">48</text>
</g>
<defs>
  <g id="img-463afce2-5">
    <circle cx="0" cy="0" r="2.89"/>
  </g>
</defs>
</svg>
