<?xml version="1.0" encoding="UTF-8"?>
<svg xmlns="http://www.w3.org/2000/svg"
     xmlns:xlink="http://www.w3.org/1999/xlink"
     version="1.2"
     width="200mm" height="200mm" viewBox="0 0 200 200"
     stroke="none"
     fill="#000000"
     stroke-width="0.3"
     font-size="3.88"
>
<g stroke-width="0.46" fill="#000000" fill-opacity="0.000" stroke="#D3D3D3" id="img-14ad1e61-1">
  <path fill="none" d="M182.69,55.19 L 182.67 43.7"/>
  <path fill="none" d="M182.08,61.49 L 179.48 74.71"/>
  <path fill="none" d="M97.06,20.68 L 81.14 17.32"/>
  <path fill="none" d="M103.03,22.72 L 119 30.45"/>
  <path fill="none" d="M59.7,18.31 L 74.86 16.95"/>
  <path fill="none" d="M53.55,19.67 L 40.32 24.47"/>
  <path fill="none" d="M180.97,37.84 L 176.23 30.35"/>
  <path fill="none" d="M32.97,80.19 L 44.05 83.09"/>
  <path fill="none" d="M27.38,77.46 L 20.96 72.56"/>
  <path fill="none" d="M50.29,83.69 L 60.16 83.09"/>
  <path fill="none" d="M66.49,82.62 L 72.04 82.13"/>
  <path fill="none" d="M71.34,114.2 L 70.07 124.98"/>
  <path fill="none" d="M72.69,108.03 L 76.21 97.23"/>
  <path fill="none" d="M69.13,131.26 L 66.64 144.95"/>
  <path fill="none" d="M76.69,91.07 L 75.71 84.99"/>
  <path fill="none" d="M121.35,154.43 L 125.29 137.16"/>
  <path fill="none" d="M118.8,160.12 L 110.46 171.88"/>
  <path fill="none" d="M126.71,130.97 L 130.74 113.63"/>
  <path fill="none" d="M105.85,176.03 L 95.6 181.78"/>
  <path fill="none" d="M171.38,28.1 L 164.35 29.07"/>
  <path fill="none" d="M152.89,41.24 L 159.37 32.1"/>
  <path fill="none" d="M149.99,46.83 L 144.66 61.73"/>
  <path fill="none" d="M132.21,107.45 L 136.37 90.3"/>
  <path fill="none" d="M142.71,67.78 L 138 84.16"/>
  <path fill="none" d="M147.26,130.49 L 155.96 119.38"/>
  <path fill="none" d="M143,135.18 L 134.61 143.12"/>
  <path fill="none" d="M168.84,100.85 L 159.71 114.25"/>
  <path fill="none" d="M171.82,95.28 L 177.68 80.77"/>
  <path fill="none" d="M129.61,147 L 128 148.02"/>
  <path fill="none" d="M128.46,149.26 L 139.81 147.62"/>
  <path fill="none" d="M146.02,146.3 L 161.33 141.98"/>
  <path fill="none" d="M25.27,35.89 L 34.92 27.62"/>
  <path fill="none" d="M21.8,40.95 L 17.73 52.35"/>
  <path fill="none" d="M18.07,67.48 L 17.03 58.5"/>
  <path fill="none" d="M67.74,163.16 L 66.42 151.23"/>
  <path fill="none" d="M69.8,168.99 L 75.29 177.59"/>
  <path fill="none" d="M80.12,180.87 L 89.71 182.73"/>
  <path fill="none" d="M124.4,33.75 L 139.9 45.49"/>
  <path fill="none" d="M144.77,49.57 L 159.35 63.04"/>
  <path fill="none" d="M174.63,82.95 L 163.56 67.76"/>
  <path fill="none" d="M177.47,88.54 L 182.36 103.78"/>
  <path fill="none" d="M176.85,128.8 L 166.65 138.89"/>
  <path fill="none" d="M179.77,123.46 L 182.67 109.91"/>
</g>
<g stroke-width="0.46" stroke="#D3D3D3" id="img-14ad1e61-2">
</g>
<g font-size="4" stroke="#000000" stroke-opacity="0.000" fill="#000000" id="img-14ad1e61-3">
  <text x="182.68" y="49.45" text-anchor="middle" dy="0.35em">10</text>
  <text x="180.78" y="68.1" text-anchor="middle" dy="0.35em">31</text>
  <text x="89.1" y="19" text-anchor="middle" dy="0.35em">0</text>
  <text x="111.02" y="26.59" text-anchor="middle" dy="0.35em">1</text>
  <text x="67.28" y="17.63" text-anchor="middle" dy="0.35em">0</text>
  <text x="46.93" y="22.07" text-anchor="middle" dy="0.35em">1</text>
  <text x="178.6" y="34.1" text-anchor="middle" dy="0.35em">46</text>
  <text x="38.51" y="81.64" text-anchor="middle" dy="0.35em">0</text>
  <text x="24.17" y="75.01" text-anchor="middle" dy="0.35em">1</text>
  <text x="55.23" y="83.39" text-anchor="middle" dy="0.35em">0</text>
  <text x="69.26" y="82.38" text-anchor="middle" dy="0.35em">4</text>
  <text x="70.7" y="119.59" text-anchor="middle" dy="0.35em">0</text>
  <text x="74.45" y="102.63" text-anchor="middle" dy="0.35em">0</text>
  <text x="67.88" y="138.11" text-anchor="middle" dy="0.35em">1</text>
  <text x="76.2" y="88.03" text-anchor="middle" dy="0.35em">0</text>
  <text x="123.32" y="145.8" text-anchor="middle" dy="0.35em">0</text>
  <text x="114.63" y="166" text-anchor="middle" dy="0.35em">0</text>
  <text x="128.73" y="122.3" text-anchor="middle" dy="0.35em">24</text>
  <text x="100.72" y="178.9" text-anchor="middle" dy="0.35em">1</text>
  <text x="167.87" y="28.59" text-anchor="middle" dy="0.35em">0</text>
  <text x="156.13" y="36.67" text-anchor="middle" dy="0.35em">0</text>
  <text x="147.32" y="54.28" text-anchor="middle" dy="0.35em">12</text>
  <text x="134.29" y="98.88" text-anchor="middle" dy="0.35em">0</text>
  <text x="140.36" y="75.97" text-anchor="middle" dy="0.35em">0</text>
  <text x="151.61" y="124.94" text-anchor="middle" dy="0.35em">48</text>
  <text x="138.8" y="139.15" text-anchor="middle" dy="0.35em">48</text>
  <text x="164.27" y="107.55" text-anchor="middle" dy="0.35em">0</text>
  <text x="174.75" y="88.02" text-anchor="middle" dy="0.35em">16</text>
  <text x="128.81" y="147.51" text-anchor="middle" dy="0.35em">6</text>
  <text x="134.14" y="148.44" text-anchor="middle" dy="0.35em">14</text>
  <text x="153.67" y="144.14" text-anchor="middle" dy="0.35em">5016</text>
  <text x="30.1" y="31.75" text-anchor="middle" dy="0.35em">0</text>
  <text x="19.76" y="46.65" text-anchor="middle" dy="0.35em">6</text>
  <text x="17.55" y="62.99" text-anchor="middle" dy="0.35em">0</text>
  <text x="67.08" y="157.2" text-anchor="middle" dy="0.35em">0</text>
  <text x="72.55" y="173.29" text-anchor="middle" dy="0.35em">6</text>
  <text x="84.92" y="181.8" text-anchor="middle" dy="0.35em">0</text>
  <text x="132.15" y="39.62" text-anchor="middle" dy="0.35em">6</text>
  <text x="152.06" y="56.3" text-anchor="middle" dy="0.35em">5008</text>
  <text x="169.1" y="75.35" text-anchor="middle" dy="0.35em">0</text>
  <text x="179.92" y="96.16" text-anchor="middle" dy="0.35em">14</text>
  <text x="171.75" y="133.84" text-anchor="middle" dy="0.35em">0</text>
  <text x="181.22" y="116.69" text-anchor="middle" dy="0.35em">0</text>
</g>
<g stroke-width="0" stroke="#000000" stroke-opacity="0.000" fill="#40E0D0" id="img-14ad1e61-4">
  <use xlink:href="#img-14ad1e61-5" x="182.69" y="58.37"/>
  <use xlink:href="#img-14ad1e61-5" x="100.17" y="21.34"/>
  <use xlink:href="#img-14ad1e61-5" x="56.53" y="18.59"/>
  <use xlink:href="#img-14ad1e61-5" x="78.03" y="16.67"/>
  <use xlink:href="#img-14ad1e61-5" x="182.67" y="40.52"/>
  <use xlink:href="#img-14ad1e61-5" x="29.9" y="79.39"/>
  <use xlink:href="#img-14ad1e61-5" x="47.12" y="83.89"/>
  <use xlink:href="#img-14ad1e61-5" x="63.33" y="82.9"/>
  <use xlink:href="#img-14ad1e61-5" x="71.71" y="111.05"/>
  <use xlink:href="#img-14ad1e61-5" x="69.7" y="128.14"/>
  <use xlink:href="#img-14ad1e61-5" x="77.2" y="94.21"/>
  <use xlink:href="#img-14ad1e61-5" x="75.2" y="81.86"/>
  <use xlink:href="#img-14ad1e61-5" x="120.64" y="157.53"/>
  <use xlink:href="#img-14ad1e61-5" x="125.99" y="134.06"/>
  <use xlink:href="#img-14ad1e61-5" x="108.62" y="174.47"/>
  <use xlink:href="#img-14ad1e61-5" x="174.53" y="27.67"/>
  <use xlink:href="#img-14ad1e61-5" x="151.06" y="43.84"/>
  <use xlink:href="#img-14ad1e61-5" x="161.2" y="29.51"/>
  <use xlink:href="#img-14ad1e61-5" x="131.46" y="110.54"/>
  <use xlink:href="#img-14ad1e61-5" x="143.59" y="64.73"/>
  <use xlink:href="#img-14ad1e61-5" x="137.12" y="87.22"/>
  <use xlink:href="#img-14ad1e61-5" x="145.3" y="132.99"/>
  <use xlink:href="#img-14ad1e61-5" x="170.63" y="98.22"/>
  <use xlink:href="#img-14ad1e61-5" x="157.92" y="116.88"/>
  <use xlink:href="#img-14ad1e61-5" x="132.3" y="145.31"/>
  <use xlink:href="#img-14ad1e61-5" x="125.31" y="149.72"/>
  <use xlink:href="#img-14ad1e61-5" x="142.96" y="147.17"/>
  <use xlink:href="#img-14ad1e61-5" x="22.86" y="37.96"/>
  <use xlink:href="#img-14ad1e61-5" x="37.33" y="25.55"/>
  <use xlink:href="#img-14ad1e61-5" x="18.44" y="70.64"/>
  <use xlink:href="#img-14ad1e61-5" x="16.67" y="55.34"/>
  <use xlink:href="#img-14ad1e61-5" x="68.09" y="166.32"/>
  <use xlink:href="#img-14ad1e61-5" x="66.07" y="148.08"/>
  <use xlink:href="#img-14ad1e61-5" x="77" y="180.26"/>
  <use xlink:href="#img-14ad1e61-5" x="92.83" y="183.33"/>
  <use xlink:href="#img-14ad1e61-5" x="178.87" y="77.82"/>
  <use xlink:href="#img-14ad1e61-5" x="121.86" y="31.84"/>
  <use xlink:href="#img-14ad1e61-5" x="142.43" y="47.41"/>
  <use xlink:href="#img-14ad1e61-5" x="176.5" y="85.51"/>
  <use xlink:href="#img-14ad1e61-5" x="161.69" y="65.19"/>
  <use xlink:href="#img-14ad1e61-5" x="179.11" y="126.56"/>
  <use xlink:href="#img-14ad1e61-5" x="164.39" y="141.12"/>
  <use xlink:href="#img-14ad1e61-5" x="183.33" y="106.81"/>
</g>
<g font-size="4" stroke="#000000" stroke-opacity="0.000" fill="#000000" id="img-14ad1e61-6">
  <text x="182.69" y="58.37" text-anchor="middle" dy="0.35em">1</text>
  <text x="100.17" y="21.34" text-anchor="middle" dy="0.35em">2</text>
  <text x="56.53" y="18.59" text-anchor="middle" dy="0.35em">3</text>
  <text x="78.03" y="16.67" text-anchor="middle" dy="0.35em">4</text>
  <text x="182.67" y="40.52" text-anchor="middle" dy="0.35em">5</text>
  <text x="29.9" y="79.39" text-anchor="middle" dy="0.35em">6</text>
  <text x="47.12" y="83.89" text-anchor="middle" dy="0.35em">7</text>
  <text x="63.33" y="82.9" text-anchor="middle" dy="0.35em">8</text>
  <text x="71.71" y="111.05" text-anchor="middle" dy="0.35em">9</text>
  <text x="69.7" y="128.14" text-anchor="middle" dy="0.35em">10</text>
  <text x="77.2" y="94.21" text-anchor="middle" dy="0.35em">11</text>
  <text x="75.2" y="81.86" text-anchor="middle" dy="0.35em">12</text>
  <text x="120.64" y="157.53" text-anchor="middle" dy="0.35em">13</text>
  <text x="125.99" y="134.06" text-anchor="middle" dy="0.35em">14</text>
  <text x="108.62" y="174.47" text-anchor="middle" dy="0.35em">15</text>
  <text x="174.53" y="27.67" text-anchor="middle" dy="0.35em">16</text>
  <text x="151.06" y="43.84" text-anchor="middle" dy="0.35em">17</text>
  <text x="161.2" y="29.51" text-anchor="middle" dy="0.35em">18</text>
  <text x="131.46" y="110.54" text-anchor="middle" dy="0.35em">19</text>
  <text x="143.59" y="64.73" text-anchor="middle" dy="0.35em">20</text>
  <text x="137.12" y="87.22" text-anchor="middle" dy="0.35em">21</text>
  <text x="145.3" y="132.99" text-anchor="middle" dy="0.35em">22</text>
  <text x="170.63" y="98.22" text-anchor="middle" dy="0.35em">23</text>
  <text x="157.92" y="116.88" text-anchor="middle" dy="0.35em">24</text>
  <text x="132.3" y="145.31" text-anchor="middle" dy="0.35em">25</text>
  <text x="125.31" y="149.72" text-anchor="middle" dy="0.35em">26</text>
  <text x="142.96" y="147.17" text-anchor="middle" dy="0.35em">27</text>
  <text x="22.86" y="37.96" text-anchor="middle" dy="0.35em">28</text>
  <text x="37.33" y="25.55" text-anchor="middle" dy="0.35em">29</text>
  <text x="18.44" y="70.64" text-anchor="middle" dy="0.35em">30</text>
  <text x="16.67" y="55.34" text-anchor="middle" dy="0.35em">31</text>
  <text x="68.09" y="166.32" text-anchor="middle" dy="0.35em">32</text>
  <text x="66.07" y="148.08" text-anchor="middle" dy="0.35em">33</text>
  <text x="77" y="180.26" text-anchor="middle" dy="0.35em">34</text>
  <text x="92.83" y="183.33" text-anchor="middle" dy="0.35em">35</text>
  <text x="178.87" y="77.82" text-anchor="middle" dy="0.35em">36</text>
  <text x="121.86" y="31.84" text-anchor="middle" dy="0.35em">37</text>
  <text x="142.43" y="47.41" text-anchor="middle" dy="0.35em">38</text>
  <text x="176.5" y="85.51" text-anchor="middle" dy="0.35em">39</text>
  <text x="161.69" y="65.19" text-anchor="middle" dy="0.35em">40</text>
  <text x="179.11" y="126.56" text-anchor="middle" dy="0.35em">41</text>
  <text x="164.39" y="141.12" text-anchor="middle" dy="0.35em">42</text>
  <text x="183.33" y="106.81" text-anchor="middle" dy="0.35em">43</text>
</g>
<defs>
  <g id="img-14ad1e61-5">
    <circle cx="0" cy="0" r="3.05"/>
  </g>
</defs>
</svg>
