<?xml version="1.0" encoding="UTF-8"?>
<svg xmlns="http://www.w3.org/2000/svg"
     xmlns:xlink="http://www.w3.org/1999/xlink"
     version="1.2"
     width="200mm" height="200mm" viewBox="0 0 200 200"
     stroke="none"
     fill="#000000"
     stroke-width="0.3"
     font-size="3.88"
>
<g stroke-width="0.4" fill="#000000" fill-opacity="0.000" stroke="#D3D3D3" id="img-3e796cf4-1">
  <path fill="none" d="M105.74,41.17 L 112.27 48.47"/>
  <path fill="none" d="M101.75,37.3 L 94.97 31.61"/>
  <path fill="none" d="M39.1,125.89 L 42.86 113.35"/>
  <path fill="none" d="M37.42,131.2 L 33.41 143.28"/>
  <path fill="none" d="M78.48,21.6 L 72.63 22.56"/>
  <path fill="none" d="M83.45,22.81 L 90.6 28.15"/>
  <path fill="none" d="M45.23,108.39 L 50.59 100.54"/>
  <path fill="none" d="M73.56,53.19 L 79.7 64.41"/>
  <path fill="none" d="M71.39,48.09 L 68.25 38.06"/>
  <path fill="none" d="M82.58,69.17 L 91.07 81.94"/>
  <path fill="none" d="M94.21,86.54 L 103.7 100.12"/>
  <path fill="none" d="M107.14,104.49 L 117.41 116.12"/>
  <path fill="none" d="M132.7,128.26 L 121.48 119.87"/>
  <path fill="none" d="M137.65,130.51 L 148.71 132.87"/>
  <path fill="none" d="M162.9,128.59 L 153.99 132.37"/>
  <path fill="none" d="M167.18,125.31 L 175.97 114.17"/>
  <path fill="none" d="M127.05,22.7 L 123.29 18.7"/>
  <path fill="none" d="M130.54,27.02 L 136.06 34.94"/>
  <path fill="none" d="M183.16,90.32 L 182.27 76.16"/>
  <path fill="none" d="M182.54,95.77 L 178.49 109.31"/>
  <path fill="none" d="M150.07,66.25 L 145.26 55.23"/>
  <path fill="none" d="M151.39,71.57 L 152.34 84.12"/>
  <path fill="none" d="M69.34,25.75 L 67.96 32.68"/>
  <path fill="none" d="M143.07,50.11 L 138.73 39.79"/>
  <path fill="none" d="M151.85,89.59 L 148.72 101.7"/>
  <path fill="none" d="M146.54,106.75 L 139.38 118.1"/>
  <path fill="none" d="M135.85,122.34 L 125.86 131.58"/>
  <path fill="none" d="M139.67,29.16 L 124.91 26.36"/>
  <path fill="none" d="M144.84,31.03 L 158.13 38.41"/>
  <path fill="none" d="M181.01,70.81 L 175.31 57.37"/>
  <path fill="none" d="M172.35,52.75 L 162.44 41.83"/>
  <path fill="none" d="M24.74,124.76 L 32.46 126.65"/>
  <path fill="none" d="M20.12,126.11 L 18.59 127.72"/>
  <path fill="none" d="M50.06,132.5 L 37.79 128.23"/>
  <path fill="none" d="M55.34,134.26 L 67.89 138.27"/>
  <path fill="none" d="M23.61,136.22 L 18.7 131.64"/>
  <path fill="none" d="M27.19,140.43 L 33.02 149.11"/>
  <path fill="none" d="M91.64,142.06 L 103.99 141.08"/>
  <path fill="none" d="M86.12,141.81 L 73.29 139.59"/>
  <path fill="none" d="M109.32,139.75 L 121.26 134.58"/>
  <path fill="none" d="M115.64,52.88 L 120.93 61.05"/>
  <path fill="none" d="M46.54,164.81 L 53.77 168.85"/>
  <path fill="none" d="M42.38,161.27 L 36.3 153.6"/>
  <path fill="none" d="M89.08,93.23 L 79.44 93.34"/>
  <path fill="none" d="M94.63,92.86 L 104.89 91.57"/>
  <path fill="none" d="M123.24,66.06 L 125.68 74.31"/>
  <path fill="none" d="M52.24,182.48 L 57.25 180.88"/>
  <path fill="none" d="M47.31,181.73 L 41.55 177.65"/>
  <path fill="none" d="M65.64,93.93 L 73.87 93.51"/>
  <path fill="none" d="M60.27,95.08 L 54.75 97.23"/>
  <path fill="none" d="M32.61,148.71 L 32.88 159.85"/>
  <path fill="none" d="M121.62,19.44 L 121.94 23.07"/>
  <path fill="none" d="M123.27,86.58 L 125.59 79.62"/>
  <path fill="none" d="M119.63,89.59 L 110.41 90.85"/>
  <path fill="none" d="M58.92,177.43 L 57.18 172.82"/>
  <path fill="none" d="M38.08,173.52 L 34.14 165.15"/>
</g>
<g stroke-width="0.4" stroke="#D3D3D3" id="img-3e796cf4-2">
</g>
<g font-size="4" stroke="#000000" stroke-opacity="0.000" fill="#000000" id="img-3e796cf4-3">
  <text x="109.01" y="44.82" text-anchor="middle" dy="0.35em">16</text>
  <text x="98.36" y="34.45" text-anchor="middle" dy="0.35em">53</text>
  <text x="40.98" y="119.62" text-anchor="middle" dy="0.35em">63</text>
  <text x="35.42" y="137.24" text-anchor="middle" dy="0.35em">30</text>
  <text x="75.55" y="22.08" text-anchor="middle" dy="0.35em">216</text>
  <text x="87.03" y="25.48" text-anchor="middle" dy="0.35em">19</text>
  <text x="47.91" y="104.47" text-anchor="middle" dy="0.35em">22</text>
  <text x="76.63" y="58.8" text-anchor="middle" dy="0.35em">60</text>
  <text x="69.82" y="43.08" text-anchor="middle" dy="0.35em">38</text>
  <text x="86.82" y="75.56" text-anchor="middle" dy="0.35em">31</text>
  <text x="98.95" y="93.33" text-anchor="middle" dy="0.35em">68</text>
  <text x="112.27" y="110.3" text-anchor="middle" dy="0.35em">27</text>
  <text x="127.09" y="124.07" text-anchor="middle" dy="0.35em">7</text>
  <text x="143.18" y="131.69" text-anchor="middle" dy="0.35em">37</text>
  <text x="158.45" y="130.48" text-anchor="middle" dy="0.35em">11</text>
  <text x="171.58" y="119.74" text-anchor="middle" dy="0.35em">21</text>
  <text x="125.17" y="20.7" text-anchor="middle" dy="0.35em">29</text>
  <text x="133.3" y="30.98" text-anchor="middle" dy="0.35em">6</text>
  <text x="182.72" y="83.24" text-anchor="middle" dy="0.35em">104</text>
  <text x="180.51" y="102.54" text-anchor="middle" dy="0.35em">71</text>
  <text x="147.66" y="60.74" text-anchor="middle" dy="0.35em">25</text>
  <text x="151.87" y="77.85" text-anchor="middle" dy="0.35em">31</text>
  <text x="68.65" y="29.21" text-anchor="middle" dy="0.35em">117</text>
  <text x="140.9" y="44.95" text-anchor="middle" dy="0.35em">23</text>
  <text x="150.29" y="95.65" text-anchor="middle" dy="0.35em">7</text>
  <text x="142.96" y="112.43" text-anchor="middle" dy="0.35em">9</text>
  <text x="130.85" y="126.96" text-anchor="middle" dy="0.35em">25</text>
  <text x="132.29" y="27.76" text-anchor="middle" dy="0.35em">90</text>
  <text x="151.49" y="34.72" text-anchor="middle" dy="0.35em">56</text>
  <text x="178.16" y="64.09" text-anchor="middle" dy="0.35em">57</text>
  <text x="167.4" y="47.29" text-anchor="middle" dy="0.35em">12</text>
  <text x="28.6" y="125.7" text-anchor="middle" dy="0.35em">10</text>
  <text x="19.35" y="126.92" text-anchor="middle" dy="0.35em">53</text>
  <text x="43.92" y="130.37" text-anchor="middle" dy="0.35em">29</text>
  <text x="61.61" y="136.27" text-anchor="middle" dy="0.35em">53</text>
  <text x="21.15" y="133.93" text-anchor="middle" dy="0.35em">17</text>
  <text x="30.11" y="144.77" text-anchor="middle" dy="0.35em">45</text>
  <text x="97.81" y="141.57" text-anchor="middle" dy="0.35em">20</text>
  <text x="79.7" y="140.7" text-anchor="middle" dy="0.35em">99</text>
  <text x="115.29" y="137.17" text-anchor="middle" dy="0.35em">17</text>
  <text x="118.28" y="56.97" text-anchor="middle" dy="0.35em">36</text>
  <text x="50.15" y="166.83" text-anchor="middle" dy="0.35em">52</text>
  <text x="39.34" y="157.43" text-anchor="middle" dy="0.35em">14</text>
  <text x="84.26" y="93.29" text-anchor="middle" dy="0.35em">105</text>
  <text x="99.76" y="92.22" text-anchor="middle" dy="0.35em">70</text>
  <text x="124.46" y="70.18" text-anchor="middle" dy="0.35em">37</text>
  <text x="54.74" y="181.68" text-anchor="middle" dy="0.35em">26</text>
  <text x="44.43" y="179.69" text-anchor="middle" dy="0.35em">127</text>
  <text x="69.76" y="93.72" text-anchor="middle" dy="0.35em">61</text>
  <text x="57.51" y="96.16" text-anchor="middle" dy="0.35em">29</text>
  <text x="32.74" y="154.28" text-anchor="middle" dy="0.35em">8</text>
  <text x="121.78" y="21.26" text-anchor="middle" dy="0.35em">18</text>
  <text x="124.43" y="83.1" text-anchor="middle" dy="0.35em">51</text>
  <text x="115.02" y="90.22" text-anchor="middle" dy="0.35em">26</text>
  <text x="58.05" y="175.12" text-anchor="middle" dy="0.35em">39</text>
  <text x="36.11" y="169.34" text-anchor="middle" dy="0.35em">45</text>
</g>
<g stroke-width="0" stroke="#000000" stroke-opacity="0.000" fill="#40E0D0" id="img-3e796cf4-4">
  <use xlink:href="#img-3e796cf4-5" x="103.89" y="39.09"/>
  <use xlink:href="#img-3e796cf4-5" x="38.3" y="128.56"/>
  <use xlink:href="#img-3e796cf4-5" x="81.22" y="21.15"/>
  <use xlink:href="#img-3e796cf4-5" x="43.66" y="110.69"/>
  <use xlink:href="#img-3e796cf4-5" x="72.23" y="50.75"/>
  <use xlink:href="#img-3e796cf4-5" x="81.03" y="66.86"/>
  <use xlink:href="#img-3e796cf4-5" x="92.61" y="84.25"/>
  <use xlink:href="#img-3e796cf4-5" x="105.3" y="102.4"/>
  <use xlink:href="#img-3e796cf4-5" x="134.93" y="129.93"/>
  <use xlink:href="#img-3e796cf4-5" x="165.46" y="127.5"/>
  <use xlink:href="#img-3e796cf4-5" x="128.95" y="24.73"/>
  <use xlink:href="#img-3e796cf4-5" x="183.33" y="93.1"/>
  <use xlink:href="#img-3e796cf4-5" x="151.18" y="68.8"/>
  <use xlink:href="#img-3e796cf4-5" x="69.88" y="23.02"/>
  <use xlink:href="#img-3e796cf4-5" x="144.14" y="52.68"/>
  <use xlink:href="#img-3e796cf4-5" x="152.55" y="86.9"/>
  <use xlink:href="#img-3e796cf4-5" x="148.03" y="104.4"/>
  <use xlink:href="#img-3e796cf4-5" x="137.89" y="120.45"/>
  <use xlink:href="#img-3e796cf4-5" x="142.41" y="29.68"/>
  <use xlink:href="#img-3e796cf4-5" x="182.1" y="73.38"/>
  <use xlink:href="#img-3e796cf4-5" x="174.22" y="54.81"/>
  <use xlink:href="#img-3e796cf4-5" x="22.04" y="124.09"/>
  <use xlink:href="#img-3e796cf4-5" x="52.69" y="133.42"/>
  <use xlink:href="#img-3e796cf4-5" x="25.64" y="138.12"/>
  <use xlink:href="#img-3e796cf4-5" x="88.86" y="142.28"/>
  <use xlink:href="#img-3e796cf4-5" x="106.76" y="140.86"/>
  <use xlink:href="#img-3e796cf4-5" x="114.12" y="50.55"/>
  <use xlink:href="#img-3e796cf4-5" x="44.11" y="163.45"/>
  <use xlink:href="#img-3e796cf4-5" x="91.86" y="93.2"/>
  <use xlink:href="#img-3e796cf4-5" x="122.45" y="63.39"/>
  <use xlink:href="#img-3e796cf4-5" x="49.59" y="183.33"/>
  <use xlink:href="#img-3e796cf4-5" x="62.86" y="94.07"/>
  <use xlink:href="#img-3e796cf4-5" x="119.25" y="118.2"/>
  <use xlink:href="#img-3e796cf4-5" x="92.84" y="29.82"/>
  <use xlink:href="#img-3e796cf4-5" x="32.54" y="145.92"/>
  <use xlink:href="#img-3e796cf4-5" x="67.42" y="35.41"/>
  <use xlink:href="#img-3e796cf4-5" x="151.43" y="133.45"/>
  <use xlink:href="#img-3e796cf4-5" x="177.7" y="111.98"/>
  <use xlink:href="#img-3e796cf4-5" x="121.38" y="16.67"/>
  <use xlink:href="#img-3e796cf4-5" x="122.18" y="25.84"/>
  <use xlink:href="#img-3e796cf4-5" x="160.57" y="39.76"/>
  <use xlink:href="#img-3e796cf4-5" x="35.16" y="127.32"/>
  <use xlink:href="#img-3e796cf4-5" x="70.54" y="139.11"/>
  <use xlink:href="#img-3e796cf4-5" x="122.39" y="89.22"/>
  <use xlink:href="#img-3e796cf4-5" x="126.48" y="76.97"/>
  <use xlink:href="#img-3e796cf4-5" x="59.9" y="180.03"/>
  <use xlink:href="#img-3e796cf4-5" x="39.27" y="176.04"/>
  <use xlink:href="#img-3e796cf4-5" x="76.65" y="93.37"/>
  <use xlink:href="#img-3e796cf4-5" x="52.16" y="98.25"/>
  <use xlink:href="#img-3e796cf4-5" x="56.19" y="170.21"/>
  <use xlink:href="#img-3e796cf4-5" x="16.67" y="129.74"/>
  <use xlink:href="#img-3e796cf4-5" x="137.65" y="37.22"/>
  <use xlink:href="#img-3e796cf4-5" x="123.81" y="133.47"/>
  <use xlink:href="#img-3e796cf4-5" x="107.65" y="91.23"/>
  <use xlink:href="#img-3e796cf4-5" x="34.57" y="151.42"/>
  <use xlink:href="#img-3e796cf4-5" x="32.95" y="162.63"/>
</g>
<g font-size="4" stroke="#000000" stroke-opacity="0.000" fill="#000000" id="img-3e796cf4-6">
  <text x="103.89" y="39.09" text-anchor="middle" dy="0.35em">1</text>
  <text x="38.3" y="128.56" text-anchor="middle" dy="0.35em">2</text>
  <text x="81.22" y="21.15" text-anchor="middle" dy="0.35em">3</text>
  <text x="43.66" y="110.69" text-anchor="middle" dy="0.35em">4</text>
  <text x="72.23" y="50.75" text-anchor="middle" dy="0.35em">5</text>
  <text x="81.03" y="66.86" text-anchor="middle" dy="0.35em">6</text>
  <text x="92.61" y="84.25" text-anchor="middle" dy="0.35em">7</text>
  <text x="105.3" y="102.4" text-anchor="middle" dy="0.35em">8</text>
  <text x="134.93" y="129.93" text-anchor="middle" dy="0.35em">9</text>
  <text x="165.46" y="127.5" text-anchor="middle" dy="0.35em">10</text>
  <text x="128.95" y="24.73" text-anchor="middle" dy="0.35em">11</text>
  <text x="183.33" y="93.1" text-anchor="middle" dy="0.35em">12</text>
  <text x="151.18" y="68.8" text-anchor="middle" dy="0.35em">13</text>
  <text x="69.88" y="23.02" text-anchor="middle" dy="0.35em">14</text>
  <text x="144.14" y="52.68" text-anchor="middle" dy="0.35em">15</text>
  <text x="152.55" y="86.9" text-anchor="middle" dy="0.35em">16</text>
  <text x="148.03" y="104.4" text-anchor="middle" dy="0.35em">17</text>
  <text x="137.89" y="120.45" text-anchor="middle" dy="0.35em">18</text>
  <text x="142.41" y="29.68" text-anchor="middle" dy="0.35em">19</text>
  <text x="182.1" y="73.38" text-anchor="middle" dy="0.35em">20</text>
  <text x="174.22" y="54.81" text-anchor="middle" dy="0.35em">21</text>
  <text x="22.04" y="124.09" text-anchor="middle" dy="0.35em">22</text>
  <text x="52.69" y="133.42" text-anchor="middle" dy="0.35em">23</text>
  <text x="25.64" y="138.12" text-anchor="middle" dy="0.35em">24</text>
  <text x="88.86" y="142.28" text-anchor="middle" dy="0.35em">25</text>
  <text x="106.76" y="140.86" text-anchor="middle" dy="0.35em">26</text>
  <text x="114.12" y="50.55" text-anchor="middle" dy="0.35em">27</text>
  <text x="44.11" y="163.45" text-anchor="middle" dy="0.35em">28</text>
  <text x="91.86" y="93.2" text-anchor="middle" dy="0.35em">29</text>
  <text x="122.45" y="63.39" text-anchor="middle" dy="0.35em">30</text>
  <text x="49.59" y="183.33" text-anchor="middle" dy="0.35em">31</text>
  <text x="62.86" y="94.07" text-anchor="middle" dy="0.35em">32</text>
  <text x="119.25" y="118.2" text-anchor="middle" dy="0.35em">33</text>
  <text x="92.84" y="29.82" text-anchor="middle" dy="0.35em">34</text>
  <text x="32.54" y="145.92" text-anchor="middle" dy="0.35em">35</text>
  <text x="67.42" y="35.41" text-anchor="middle" dy="0.35em">36</text>
  <text x="151.43" y="133.45" text-anchor="middle" dy="0.35em">37</text>
  <text x="177.7" y="111.98" text-anchor="middle" dy="0.35em">38</text>
  <text x="121.38" y="16.67" text-anchor="middle" dy="0.35em">39</text>
  <text x="122.18" y="25.84" text-anchor="middle" dy="0.35em">40</text>
  <text x="160.57" y="39.76" text-anchor="middle" dy="0.35em">41</text>
  <text x="35.16" y="127.32" text-anchor="middle" dy="0.35em">42</text>
  <text x="70.54" y="139.11" text-anchor="middle" dy="0.35em">43</text>
  <text x="122.39" y="89.22" text-anchor="middle" dy="0.35em">44</text>
  <text x="126.48" y="76.97" text-anchor="middle" dy="0.35em">45</text>
  <text x="59.9" y="180.03" text-anchor="middle" dy="0.35em">46</text>
  <text x="39.27" y="176.04" text-anchor="middle" dy="0.35em">47</text>
  <text x="76.65" y="93.37" text-anchor="middle" dy="0.35em">48</text>
  <text x="52.16" y="98.25" text-anchor="middle" dy="0.35em">49</text>
  <text x="56.19" y="170.21" text-anchor="middle" dy="0.35em">50</text>
  <text x="16.67" y="129.74" text-anchor="middle" dy="0.35em">51</text>
  <text x="137.65" y="37.22" text-anchor="middle" dy="0.35em">52</text>
  <text x="123.81" y="133.47" text-anchor="middle" dy="0.35em">53</text>
  <text x="107.65" y="91.23" text-anchor="middle" dy="0.35em">54</text>
  <text x="34.57" y="151.42" text-anchor="middle" dy="0.35em">55</text>
  <text x="32.95" y="162.63" text-anchor="middle" dy="0.35em">56</text>
</g>
<defs>
  <g id="img-3e796cf4-5">
    <circle cx="0" cy="0" r="2.67"/>
  </g>
</defs>
</svg>
