<?xml version="1.0" encoding="UTF-8"?>
<svg xmlns="http://www.w3.org/2000/svg"
     xmlns:xlink="http://www.w3.org/1999/xlink"
     version="1.2"
     width="200mm" height="200mm" viewBox="0 0 200 200"
     stroke="none"
     fill="#000000"
     stroke-width="0.3"
     font-size="3.88"
>
<g stroke-width="0.73" fill="#000000" fill-opacity="0.000" stroke="#D3D3D3" id="img-64efd1a6-1">
  <path fill="none" d="M91.41,23.15 L 108.26 18.11"/>
  <path fill="none" d="M82.57,27.69 L 65.14 41.11"/>
  <path fill="none" d="M176.04,69.09 L 164.41 45.84"/>
  <path fill="none" d="M178.95,78.62 L 182.69 107.52"/>
  <path fill="none" d="M118.04,17.71 L 134.52 21.18"/>
  <path fill="none" d="M65.52,125.72 L 80.3 149.39"/>
  <path fill="none" d="M60.81,116.81 L 48.14 88.11"/>
  <path fill="none" d="M86.73,157.06 L 103.24 171.95"/>
  <path fill="none" d="M29.39,66.49 L 42.55 79.88"/>
  <path fill="none" d="M23.38,58.48 L 19.14 50.93"/>
  <path fill="none" d="M41.46,50.4 L 56.32 45.71"/>
  <path fill="none" d="M31.76,50.6 L 21.54 47.84"/>
  <path fill="none" d="M152.37,176.53 L 137.24 181.7"/>
  <path fill="none" d="M160.15,170.84 L 172.49 154.13"/>
  <path fill="none" d="M127.64,181.82 L 111.81 176.85"/>
  <path fill="none" d="M158.29,38.07 L 143.33 25.48"/>
  <path fill="none" d="M182.3,117.48 L 176.52 145.11"/>
</g>
<g stroke-width="0.73" stroke="#D3D3D3" id="img-64efd1a6-2">
</g>
<g font-size="4" stroke="#000000" stroke-opacity="0.000" fill="#000000" id="img-64efd1a6-3">
  <text x="99.83" y="20.63" text-anchor="middle" dy="0.35em">5</text>
  <text x="73.85" y="34.4" text-anchor="middle" dy="0.35em">0</text>
  <text x="170.23" y="57.46" text-anchor="middle" dy="0.35em">0</text>
  <text x="180.82" y="93.07" text-anchor="middle" dy="0.35em">0</text>
  <text x="126.28" y="19.45" text-anchor="middle" dy="0.35em">0</text>
  <text x="72.91" y="137.55" text-anchor="middle" dy="0.35em">0</text>
  <text x="54.47" y="102.46" text-anchor="middle" dy="0.35em">6</text>
  <text x="94.98" y="164.51" text-anchor="middle" dy="0.35em">12</text>
  <text x="35.97" y="73.19" text-anchor="middle" dy="0.35em">0</text>
  <text x="21.26" y="54.71" text-anchor="middle" dy="0.35em">0</text>
  <text x="48.89" y="48.06" text-anchor="middle" dy="0.35em">8</text>
  <text x="26.65" y="49.22" text-anchor="middle" dy="0.35em">0</text>
  <text x="144.8" y="179.12" text-anchor="middle" dy="0.35em">0</text>
  <text x="166.32" y="162.48" text-anchor="middle" dy="0.35em">5</text>
  <text x="119.72" y="179.33" text-anchor="middle" dy="0.35em">0</text>
  <text x="150.81" y="31.77" text-anchor="middle" dy="0.35em">3</text>
  <text x="179.41" y="131.29" text-anchor="middle" dy="0.35em">0</text>
</g>
<g stroke-width="0" stroke="#000000" stroke-opacity="0.000" fill="#40E0D0" id="img-64efd1a6-4">
  <use xlink:href="#img-64efd1a6-5" x="86.57" y="24.6"/>
  <use xlink:href="#img-64efd1a6-5" x="178.3" y="73.61"/>
  <use xlink:href="#img-64efd1a6-5" x="113.1" y="16.67"/>
  <use xlink:href="#img-64efd1a6-5" x="62.85" y="121.43"/>
  <use xlink:href="#img-64efd1a6-5" x="82.98" y="153.68"/>
  <use xlink:href="#img-64efd1a6-5" x="25.85" y="62.89"/>
  <use xlink:href="#img-64efd1a6-5" x="36.64" y="51.92"/>
  <use xlink:href="#img-64efd1a6-5" x="157.15" y="174.9"/>
  <use xlink:href="#img-64efd1a6-5" x="132.46" y="183.33"/>
  <use xlink:href="#img-64efd1a6-5" x="162.16" y="41.32"/>
  <use xlink:href="#img-64efd1a6-5" x="183.33" y="112.53"/>
  <use xlink:href="#img-64efd1a6-5" x="61.14" y="44.19"/>
  <use xlink:href="#img-64efd1a6-5" x="175.49" y="150.06"/>
  <use xlink:href="#img-64efd1a6-5" x="139.46" y="22.22"/>
  <use xlink:href="#img-64efd1a6-5" x="46.1" y="83.49"/>
  <use xlink:href="#img-64efd1a6-5" x="16.67" y="46.52"/>
  <use xlink:href="#img-64efd1a6-5" x="106.99" y="175.34"/>
</g>
<g font-size="4" stroke="#000000" stroke-opacity="0.000" fill="#000000" id="img-64efd1a6-6">
  <text x="86.57" y="24.6" text-anchor="middle" dy="0.35em">1</text>
  <text x="178.3" y="73.61" text-anchor="middle" dy="0.35em">2</text>
  <text x="113.1" y="16.67" text-anchor="middle" dy="0.35em">3</text>
  <text x="62.85" y="121.43" text-anchor="middle" dy="0.35em">4</text>
  <text x="82.98" y="153.68" text-anchor="middle" dy="0.35em">5</text>
  <text x="25.85" y="62.89" text-anchor="middle" dy="0.35em">6</text>
  <text x="36.64" y="51.92" text-anchor="middle" dy="0.35em">7</text>
  <text x="157.15" y="174.9" text-anchor="middle" dy="0.35em">8</text>
  <text x="132.46" y="183.33" text-anchor="middle" dy="0.35em">9</text>
  <text x="162.16" y="41.32" text-anchor="middle" dy="0.35em">10</text>
  <text x="183.33" y="112.53" text-anchor="middle" dy="0.35em">11</text>
  <text x="61.14" y="44.19" text-anchor="middle" dy="0.35em">12</text>
  <text x="175.49" y="150.06" text-anchor="middle" dy="0.35em">13</text>
  <text x="139.46" y="22.22" text-anchor="middle" dy="0.35em">14</text>
  <text x="46.1" y="83.49" text-anchor="middle" dy="0.35em">15</text>
  <text x="16.67" y="46.52" text-anchor="middle" dy="0.35em">16</text>
  <text x="106.99" y="175.34" text-anchor="middle" dy="0.35em">17</text>
</g>
<defs>
  <g id="img-64efd1a6-5">
    <circle cx="0" cy="0" r="4.85"/>
  </g>
</defs>
</svg>
