<?xml version="1.0" encoding="UTF-8"?>
<svg xmlns="http://www.w3.org/2000/svg"
     xmlns:xlink="http://www.w3.org/1999/xlink"
     version="1.2"
     width="200mm" height="200mm" viewBox="0 0 200 200"
     stroke="none"
     fill="#000000"
     stroke-width="0.3"
     font-size="3.88"
>
<g stroke-width="0.73" fill="#000000" fill-opacity="0.000" stroke="#D3D3D3" id="img-d93f7bce-1">
  <path fill="none" d="M30.03,51.87 L 21.26 69.58"/>
  <path fill="none" d="M36.04,43.97 L 51.44 30.22"/>
  <path fill="none" d="M110.67,18.61 L 89.65 17.04"/>
  <path fill="none" d="M120.14,21.4 L 138.62 31.48"/>
  <path fill="none" d="M79.84,18.32 L 59.98 25.2"/>
  <path fill="none" d="M106.06,182.7 L 128.21 179.9"/>
  <path fill="none" d="M96.14,182.15 L 74.29 176.87"/>
  <path fill="none" d="M137.67,176.86 L 155.9 166.98"/>
  <path fill="none" d="M27.76,136.93 L 40.03 154.11"/>
  <path fill="none" d="M23.44,127.96 L 18.04 108.83"/>
  <path fill="none" d="M47.19,161.01 L 65.17 172.9"/>
  <path fill="none" d="M178.84,135.7 L 182.37 117.49"/>
  <path fill="none" d="M174.89,144.73 L 163.33 160.5"/>
  <path fill="none" d="M182.28,107.59 L 178.19 88.45"/>
  <path fill="none" d="M146.22,37.83 L 158.68 53.28"/>
  <path fill="none" d="M174.6,79.14 L 164.39 61.58"/>
  <path fill="none" d="M18.62,79.15 L 17.06 98.93"/>
</g>
<g stroke-width="0.73" stroke="#D3D3D3" id="img-d93f7bce-2">
</g>
<g font-size="4" stroke="#000000" stroke-opacity="0.000" fill="#000000" id="img-d93f7bce-3">
  <text x="25.64" y="60.72" text-anchor="middle" dy="0.35em">0</text>
  <text x="43.74" y="37.1" text-anchor="middle" dy="0.35em">5</text>
  <text x="100.16" y="17.82" text-anchor="middle" dy="0.35em">3</text>
  <text x="129.38" y="26.44" text-anchor="middle" dy="0.35em">0</text>
  <text x="69.91" y="21.76" text-anchor="middle" dy="0.35em">0</text>
  <text x="117.13" y="181.3" text-anchor="middle" dy="0.35em">0</text>
  <text x="85.22" y="179.51" text-anchor="middle" dy="0.35em">6</text>
  <text x="146.78" y="171.92" text-anchor="middle" dy="0.35em">12</text>
  <text x="33.89" y="145.52" text-anchor="middle" dy="0.35em">0</text>
  <text x="20.74" y="118.4" text-anchor="middle" dy="0.35em">0</text>
  <text x="56.18" y="166.95" text-anchor="middle" dy="0.35em">0</text>
  <text x="180.61" y="126.59" text-anchor="middle" dy="0.35em">0</text>
  <text x="169.11" y="152.62" text-anchor="middle" dy="0.35em">0</text>
  <text x="180.24" y="98.02" text-anchor="middle" dy="0.35em">5</text>
  <text x="152.45" y="45.56" text-anchor="middle" dy="0.35em">0</text>
  <text x="169.49" y="70.36" text-anchor="middle" dy="0.35em">0</text>
  <text x="17.84" y="89.04" text-anchor="middle" dy="0.35em">8</text>
</g>
<g stroke-width="0" stroke="#000000" stroke-opacity="0.000" fill="#40E0D0" id="img-d93f7bce-4">
  <use xlink:href="#img-d93f7bce-5" x="32.27" y="47.34"/>
  <use xlink:href="#img-d93f7bce-5" x="115.71" y="18.98"/>
  <use xlink:href="#img-d93f7bce-5" x="84.61" y="16.67"/>
  <use xlink:href="#img-d93f7bce-5" x="101.05" y="183.33"/>
  <use xlink:href="#img-d93f7bce-5" x="133.22" y="179.26"/>
  <use xlink:href="#img-d93f7bce-5" x="24.82" y="132.82"/>
  <use xlink:href="#img-d93f7bce-5" x="42.97" y="158.23"/>
  <use xlink:href="#img-d93f7bce-5" x="177.88" y="140.66"/>
  <use xlink:href="#img-d93f7bce-5" x="183.33" y="112.53"/>
  <use xlink:href="#img-d93f7bce-5" x="143.05" y="33.9"/>
  <use xlink:href="#img-d93f7bce-5" x="177.14" y="83.51"/>
  <use xlink:href="#img-d93f7bce-5" x="19.02" y="74.11"/>
  <use xlink:href="#img-d93f7bce-5" x="161.85" y="57.22"/>
  <use xlink:href="#img-d93f7bce-5" x="55.21" y="26.85"/>
  <use xlink:href="#img-d93f7bce-5" x="16.67" y="103.97"/>
  <use xlink:href="#img-d93f7bce-5" x="69.38" y="175.68"/>
  <use xlink:href="#img-d93f7bce-5" x="160.35" y="164.58"/>
</g>
<g font-size="4" stroke="#000000" stroke-opacity="0.000" fill="#000000" id="img-d93f7bce-6">
  <text x="32.27" y="47.34" text-anchor="middle" dy="0.35em">1</text>
  <text x="115.71" y="18.98" text-anchor="middle" dy="0.35em">2</text>
  <text x="84.61" y="16.67" text-anchor="middle" dy="0.35em">3</text>
  <text x="101.05" y="183.33" text-anchor="middle" dy="0.35em">4</text>
  <text x="133.22" y="179.26" text-anchor="middle" dy="0.35em">5</text>
  <text x="24.82" y="132.82" text-anchor="middle" dy="0.35em">6</text>
  <text x="42.97" y="158.23" text-anchor="middle" dy="0.35em">7</text>
  <text x="177.88" y="140.66" text-anchor="middle" dy="0.35em">8</text>
  <text x="183.33" y="112.53" text-anchor="middle" dy="0.35em">9</text>
  <text x="143.05" y="33.9" text-anchor="middle" dy="0.35em">10</text>
  <text x="177.14" y="83.51" text-anchor="middle" dy="0.35em">11</text>
  <text x="19.02" y="74.11" text-anchor="middle" dy="0.35em">12</text>
  <text x="161.85" y="57.22" text-anchor="middle" dy="0.35em">13</text>
  <text x="55.21" y="26.85" text-anchor="middle" dy="0.35em">14</text>
  <text x="16.67" y="103.97" text-anchor="middle" dy="0.35em">15</text>
  <text x="69.38" y="175.68" text-anchor="middle" dy="0.35em">16</text>
  <text x="160.35" y="164.58" text-anchor="middle" dy="0.35em">17</text>
</g>
<defs>
  <g id="img-d93f7bce-5">
    <circle cx="0" cy="0" r="4.85"/>
  </g>
</defs>
</svg>
